M48
;DRILL file {KiCad 5.0.1} date Sun 08 Sep 2019 04:12:30 PM CEST
;FORMAT={-:-/ absolute / inch / decimal}
FMAT,2
INCH,TZ
T1C0.0118
T2C0.0236
T3C0.0315
T4C0.0728
%
G90
G05
M72
T1
X2.0866Y-3.6358
X2.0886Y-3.7598
X2.1257Y-3.222
X2.126Y-3.8366
X2.1506Y-4.0167
X2.1575Y-3.6663
X2.1575Y-3.7165
X2.1713Y-3.9911
X2.1969Y-3.9685
X2.2165Y-3.9232
X2.2234Y-3.9508
X2.2362Y-3.6299
X2.2362Y-3.8327
X2.2382Y-4.0226
X2.2638Y-4.0039
X2.2645Y-3.2844
X2.2736Y-3.25
X2.2953Y-4.0049
X2.2992Y-3.689
X2.2992Y-3.7205
X2.2992Y-3.752
X2.2992Y-3.7835
X2.3228Y-4.0177
X2.3307Y-3.689
X2.3307Y-3.7205
X2.3307Y-3.752
X2.3307Y-3.7835
X2.3359Y-3.2467
X2.3366Y-3.3346
X2.3366Y-3.5669
X2.3484Y-3.878
X2.3533Y-4.0049
X2.3622Y-3.689
X2.3622Y-3.7205
X2.3622Y-3.752
X2.3622Y-3.7835
X2.3719Y-3.9817
X2.378Y-3.5866
X2.3937Y-3.689
X2.3937Y-3.7205
X2.3937Y-3.752
X2.3937Y-3.7835
X2.3957Y-3.1673
X2.3985Y-3.9676
X2.4154Y-5.1496
X2.439Y-3.1673
X2.439Y-3.6024
X2.4606Y-3.2362
X2.4724Y-3.6024
X2.4783Y-3.8839
X2.4817Y-2.9213
X2.4902Y-3.6437
X2.4902Y-3.8455
X2.4921Y-4.0217
X2.4921Y-5.0866
X2.4961Y-3.6752
X2.5512Y-3.5827
X2.5728Y-2.8356
X2.5807Y-2.7943
X2.5846Y-3.7146
X2.6014Y-3.9222
X2.6063Y-2.611
X2.6122Y-3.7146
X2.6122Y-3.7146
X2.6457Y-3.372
X2.6457Y-3.5935
X2.6457Y-3.6181
X2.6457Y-3.6427
X2.652Y-2.6599
X2.6703Y-3.3701
X2.687Y-3.7126
X2.707Y-2.8691
X2.7165Y-3.3691
X2.7575Y-2.47
X2.8031Y-2.519
X2.8031Y-3.2047
X2.8031Y-3.2717
X2.8091Y-3.3091
X2.81Y-3.3711
X2.9114Y-3.3957
X3.0207Y-4.8415
X3.0719Y-4.2539
X3.0768Y-4.2234
X3.1073Y-3.6565
X3.1083Y-3.6289
X3.1427Y-3.4872
X3.1427Y-3.5118
X3.1851Y-3.6516
X3.1889Y-4.997
X3.2048Y-3.6319
X3.2107Y-3.6594
X3.2166Y-3.685
X3.2205Y-4.2717
X3.2224Y-4.2402
X3.2244Y-3.6122
X3.2303Y-3.6398
X3.2363Y-3.6654
X3.25Y-3.6201
X3.2559Y-3.6457
X3.2766Y-3.5305
X3.3169Y-3.9803
X3.3593Y-3.5069
X3.3711Y-3.6683
X3.3928Y-5.1033
X3.3987Y-3.5069
X3.3987Y-3.6683
X3.3996Y-4.2067
X3.4232Y-3.9921
X3.4262Y-3.6683
X3.4399Y-2.0545
X3.442Y-3.5069
X3.4538Y-3.4084
X3.4538Y-3.6683
X3.4675Y-3.7864
X3.4676Y-3.7608
X3.4685Y-2.1063
X3.4695Y-3.0738
X3.4803Y-4.0807
X3.4813Y-3.3691
X3.4813Y-3.4084
X3.4813Y-3.5069
X3.4813Y-3.6683
X3.501Y-4.3671
X3.5089Y-3.3691
X3.5089Y-3.4084
X3.5089Y-3.6683
X3.5168Y-3.4518
X3.5286Y-3.3336
X3.5365Y-3.3691
X3.5365Y-3.4084
X3.5365Y-3.6683
X3.5443Y-3.4518
X3.5561Y-3.3336
X3.564Y-3.6683
X3.5787Y-3.9862
X3.5808Y-4.2096
X3.5867Y-4.123
X3.6034Y-5.1801
X3.6063Y-2.0354
X3.6191Y-2.4321
X3.625Y-3.9045
X3.6358Y-2.0571
X3.6467Y-2.4321
X3.6639Y-2.0092
X3.6721Y-4.176
X3.6743Y-2.4321
X3.6743Y-2.4793
X3.6782Y-2.5187
X3.69Y-4.2352
X3.7119Y-4.2138
X3.7373Y-3.9542
X3.7609Y-2.8061
X3.7609Y-2.8336
X3.7668Y-4.0207
X3.7756Y-2.3465
X3.7776Y-2.0709
X3.7874Y-2.3917
X3.7884Y-2.8061
X3.7884Y-2.8336
X3.7996Y-4.1251
X3.8002Y-2.5305
X3.8002Y-2.562
X3.8002Y-2.5935
X3.8012Y-2.2067
X3.8031Y-3.8701
X3.816Y-2.8061
X3.816Y-2.8336
X3.8278Y-5.2136
X3.8308Y-3.9846
X3.8475Y-3.6899
X3.8563Y-4.248
X3.8602Y-3.9951
X3.8652Y-3.815
X3.8875Y-3.8353
X3.8898Y-4.1713
X3.8976Y-4.2323
X3.899Y-4.0499
X3.9026Y-3.6762
X3.9105Y-2.8573
X3.9105Y-2.9439
X3.9105Y-3.0502
X3.9331Y-3.8848
X3.9393Y-2.6132
X3.9393Y-2.6447
X3.9393Y-2.6762
X3.9567Y-4.1024
X3.9617Y-2.8848
X3.9665Y-3.9368
X3.9708Y-2.6132
X3.9708Y-2.6447
X3.9708Y-2.6762
X4.0023Y-2.6132
X4.0023Y-2.6447
X4.0023Y-2.6762
X4.0098Y-4.2441
X4.0108Y-3.7943
X4.0247Y-3.5069
X4.0276Y-3.7618
X4.0365Y-3.4084
X4.0443Y-5.2175
X4.0453Y-2.4705
X4.0472Y-3.8858
X4.0483Y-3.0738
X4.064Y-3.3691
X4.064Y-3.4084
X4.064Y-3.5069
X4.068Y-3.7943
X4.0704Y-3.8328
X4.0719Y-2.7195
X4.0837Y-2.684
X4.0857Y-4.0777
X4.0916Y-3.3691
X4.0916Y-3.4084
X4.0936Y-3.8514
X4.0955Y-2.7392
X4.0995Y-2.7077
X4.0995Y-3.4518
X4.1027Y-3.9827
X4.1073Y-4.1053
X4.1113Y-3.3336
X4.1152Y-4.2529
X4.1191Y-3.3691
X4.1191Y-3.4084
X4.127Y-3.4518
X4.1388Y-3.3336
X4.1398Y-4.0945
X4.1467Y-3.9813
X4.1506Y-2.4321
X4.1614Y-4.1555
X4.1684Y-4.121
X4.1703Y-2.5029
X4.1703Y-2.5305
X4.1703Y-3.9144
X4.1782Y-2.4321
X4.1831Y-3.9528
X4.1979Y-2.5029
X4.1979Y-2.5305
X4.1979Y-4.1565
X4.2008Y-4.0256
X4.2058Y-2.4321
X4.2156Y-4.0777
X4.2254Y-2.5029
X4.2254Y-2.5305
X4.2254Y-3.7549
X4.2333Y-4.186
X4.2382Y-3.9252
X4.2451Y-4.1073
X4.253Y-2.5029
X4.253Y-2.5305
X4.2609Y-5.1742
X4.2687Y-3.7825
X4.2717Y-4.0217
X4.2731Y-3.9504
X4.3012Y-4.124
X4.3022Y-4.2522
X4.3031Y-2.5177
X4.3081Y-3.7869
X4.3464Y-3.8199
X4.3474Y-3.8661
X4.3475Y-3.999
X4.378Y-2.7776
X4.3966Y-4.3514
X4.425Y-3.897
X4.438Y-2.5029
X4.438Y-2.5305
X4.442Y-4.0856
X4.4449Y-3.9547
X4.4488Y-3.872
X4.4724Y-2.6575
X4.4754Y-5.1053
X4.4823Y-3.7559
X4.4862Y-4.1476
X4.4921Y-3.8228
X4.5Y-3.9577
X4.5118Y-3.9882
X4.5138Y-4.2638
X4.5197Y-3.7559
X4.5275Y-3.6916
X4.5344Y-4.1703
X4.5354Y-3.4587
X4.5571Y-3.4311
X4.5571Y-3.689
X4.562Y-4.2175
X4.5906Y-4.313
X4.5915Y-3.9813
X4.6308Y-3.5564
X4.6378Y-4.1614
X4.652Y-3.8728
X4.6594Y-3.5354
X4.6594Y-3.7067
X4.6614Y-3.8346
X4.6621Y-4.1411
X4.6654Y-3.6791
X4.6723Y-4.9911
X4.681Y-3.7283
X4.687Y-3.7008
X4.6917Y-4.1429
X4.6929Y-3.6732
X4.6959Y-4.3376
X4.7027Y-3.75
X4.7087Y-3.7224
X4.7134Y-4.1654
X4.7145Y-3.6949
X4.7362Y-3.7165
X4.7362Y-4.1378
X4.7638Y-4.2341
X4.8554Y-4.8376
X4.872Y-4.3839
X4.9617Y-4.3809
X5.0669Y-2.8051
X5.3228Y-2.8024
X5.4114Y-3.1329
X5.44Y-3.1457
X5.4646Y-3.1673
X5.5125Y-2.7923
X5.5531Y-3.064
X5.5787Y-3.1053
X5.6024Y-4.4862
X5.6851Y-4.4999
X5.7016Y-4.5256
T3
X3.0114Y-5.2111
X3.937Y-5.5118
X4.865Y-5.211
X2.4393Y-3.4504
X5.4347Y-3.4504
X3.937Y-2.3622
T4
X4.6031Y-2.3274
X4.7661Y-2.9359
X5.1533Y-4.381
X5.3163Y-4.9894
X2.5558Y-4.9894
X2.7188Y-4.381
X3.1061Y-2.9359
X3.2691Y-2.3274
T2
X4.0661Y-2.2065G85X4.0607Y-2.2376
G05
X4.0921Y-2.0592G85X4.0866Y-2.0902
G05
X4.3941Y-2.2644G85X4.3887Y-2.2954
G05
X4.4201Y-2.117G85X4.4147Y-2.1481
G05
T0
M30
