G04 #@! TF.GenerationSoftware,KiCad,Pcbnew,5.0.1*
G04 #@! TF.CreationDate,2019-08-04T23:17:12+02:00*
G04 #@! TF.ProjectId,main,6D61696E2E6B696361645F7063620000,rev?*
G04 #@! TF.SameCoordinates,Original*
G04 #@! TF.FileFunction,Legend,Bot*
G04 #@! TF.FilePolarity,Positive*
%FSLAX46Y46*%
G04 Gerber Fmt 4.6, Leading zero omitted, Abs format (unit mm)*
G04 Created by KiCad (PCBNEW 5.0.1) date So 04 Aug 2019 23:17:12 CEST*
%MOMM*%
%LPD*%
G01*
G04 APERTURE LIST*
%ADD10C,0.100000*%
%ADD11C,0.250000*%
%ADD12C,0.200000*%
%ADD13C,0.127000*%
%ADD14C,0.120000*%
%ADD15C,0.050000*%
%ADD16C,0.150000*%
%ADD17C,1.000000*%
%ADD18C,0.110000*%
G04 APERTURE END LIST*
D10*
X136438095Y-76404761D02*
X136295238Y-76452380D01*
X136057142Y-76452380D01*
X135961904Y-76404761D01*
X135914285Y-76357142D01*
X135866666Y-76261904D01*
X135866666Y-76166666D01*
X135914285Y-76071428D01*
X135961904Y-76023809D01*
X136057142Y-75976190D01*
X136247619Y-75928571D01*
X136342857Y-75880952D01*
X136390476Y-75833333D01*
X136438095Y-75738095D01*
X136438095Y-75642857D01*
X136390476Y-75547619D01*
X136342857Y-75500000D01*
X136247619Y-75452380D01*
X136009523Y-75452380D01*
X135866666Y-75500000D01*
X135580952Y-75452380D02*
X135009523Y-75452380D01*
X135295238Y-76452380D02*
X135295238Y-75452380D01*
X134676190Y-76452380D02*
X134676190Y-75452380D01*
X134342857Y-76166666D01*
X134009523Y-75452380D01*
X134009523Y-76452380D01*
X70790476Y-69028571D02*
X70457142Y-69028571D01*
X70314285Y-69552380D02*
X70790476Y-69552380D01*
X70790476Y-68552380D01*
X70314285Y-68552380D01*
X69933333Y-69504761D02*
X69790476Y-69552380D01*
X69552380Y-69552380D01*
X69457142Y-69504761D01*
X69409523Y-69457142D01*
X69361904Y-69361904D01*
X69361904Y-69266666D01*
X69409523Y-69171428D01*
X69457142Y-69123809D01*
X69552380Y-69076190D01*
X69742857Y-69028571D01*
X69838095Y-68980952D01*
X69885714Y-68933333D01*
X69933333Y-68838095D01*
X69933333Y-68742857D01*
X69885714Y-68647619D01*
X69838095Y-68600000D01*
X69742857Y-68552380D01*
X69504761Y-68552380D01*
X69361904Y-68600000D01*
X68933333Y-69552380D02*
X68933333Y-68552380D01*
X68552380Y-68552380D01*
X68457142Y-68600000D01*
X68409523Y-68647619D01*
X68361904Y-68742857D01*
X68361904Y-68885714D01*
X68409523Y-68980952D01*
X68457142Y-69028571D01*
X68552380Y-69076190D01*
X68933333Y-69076190D01*
X64123809Y-73926190D02*
X64290476Y-73688095D01*
X64409523Y-73926190D02*
X64409523Y-73426190D01*
X64219047Y-73426190D01*
X64171428Y-73450000D01*
X64147619Y-73473809D01*
X64123809Y-73521428D01*
X64123809Y-73592857D01*
X64147619Y-73640476D01*
X64171428Y-73664285D01*
X64219047Y-73688095D01*
X64409523Y-73688095D01*
X63933333Y-73902380D02*
X63861904Y-73926190D01*
X63742857Y-73926190D01*
X63695238Y-73902380D01*
X63671428Y-73878571D01*
X63647619Y-73830952D01*
X63647619Y-73783333D01*
X63671428Y-73735714D01*
X63695238Y-73711904D01*
X63742857Y-73688095D01*
X63838095Y-73664285D01*
X63885714Y-73640476D01*
X63909523Y-73616666D01*
X63933333Y-73569047D01*
X63933333Y-73521428D01*
X63909523Y-73473809D01*
X63885714Y-73450000D01*
X63838095Y-73426190D01*
X63719047Y-73426190D01*
X63647619Y-73450000D01*
X63504761Y-73426190D02*
X63219047Y-73426190D01*
X63361904Y-73926190D02*
X63361904Y-73426190D01*
X64533333Y-72626190D02*
X64700000Y-72388095D01*
X64819047Y-72626190D02*
X64819047Y-72126190D01*
X64628571Y-72126190D01*
X64580952Y-72150000D01*
X64557142Y-72173809D01*
X64533333Y-72221428D01*
X64533333Y-72292857D01*
X64557142Y-72340476D01*
X64580952Y-72364285D01*
X64628571Y-72388095D01*
X64819047Y-72388095D01*
X64366666Y-72126190D02*
X64033333Y-72626190D01*
X64033333Y-72126190D02*
X64366666Y-72626190D01*
X63842857Y-72626190D02*
X63842857Y-72126190D01*
X63723809Y-72126190D01*
X63652380Y-72150000D01*
X63604761Y-72197619D01*
X63580952Y-72245238D01*
X63557142Y-72340476D01*
X63557142Y-72411904D01*
X63580952Y-72507142D01*
X63604761Y-72554761D01*
X63652380Y-72602380D01*
X63723809Y-72626190D01*
X63842857Y-72626190D01*
X65100000Y-71126190D02*
X65100000Y-70626190D01*
X64766666Y-70626190D02*
X64671428Y-70626190D01*
X64623809Y-70650000D01*
X64576190Y-70697619D01*
X64552380Y-70792857D01*
X64552380Y-70959523D01*
X64576190Y-71054761D01*
X64623809Y-71102380D01*
X64671428Y-71126190D01*
X64766666Y-71126190D01*
X64814285Y-71102380D01*
X64861904Y-71054761D01*
X64885714Y-70959523D01*
X64885714Y-70792857D01*
X64861904Y-70697619D01*
X64814285Y-70650000D01*
X64766666Y-70626190D01*
X64242857Y-70626190D02*
X64195238Y-70626190D01*
X64147619Y-70650000D01*
X64123809Y-70673809D01*
X64100000Y-70721428D01*
X64076190Y-70816666D01*
X64076190Y-70935714D01*
X64100000Y-71030952D01*
X64123809Y-71078571D01*
X64147619Y-71102380D01*
X64195238Y-71126190D01*
X64242857Y-71126190D01*
X64290476Y-71102380D01*
X64314285Y-71078571D01*
X64338095Y-71030952D01*
X64361904Y-70935714D01*
X64361904Y-70816666D01*
X64338095Y-70721428D01*
X64314285Y-70673809D01*
X64290476Y-70650000D01*
X64242857Y-70626190D01*
X70819047Y-71376190D02*
X70509523Y-71376190D01*
X70676190Y-71566666D01*
X70604761Y-71566666D01*
X70557142Y-71590476D01*
X70533333Y-71614285D01*
X70509523Y-71661904D01*
X70509523Y-71780952D01*
X70533333Y-71828571D01*
X70557142Y-71852380D01*
X70604761Y-71876190D01*
X70747619Y-71876190D01*
X70795238Y-71852380D01*
X70819047Y-71828571D01*
X70366666Y-71376190D02*
X70200000Y-71876190D01*
X70033333Y-71376190D01*
X69914285Y-71376190D02*
X69604761Y-71376190D01*
X69771428Y-71566666D01*
X69700000Y-71566666D01*
X69652380Y-71590476D01*
X69628571Y-71614285D01*
X69604761Y-71661904D01*
X69604761Y-71780952D01*
X69628571Y-71828571D01*
X69652380Y-71852380D01*
X69700000Y-71876190D01*
X69842857Y-71876190D01*
X69890476Y-71852380D01*
X69914285Y-71828571D01*
X70430952Y-72626190D02*
X70145238Y-72626190D01*
X70288095Y-73126190D02*
X70288095Y-72626190D01*
X70026190Y-72626190D02*
X69692857Y-73126190D01*
X69692857Y-72626190D02*
X70026190Y-73126190D01*
X69502380Y-73126190D02*
X69502380Y-72626190D01*
X69383333Y-72626190D01*
X69311904Y-72650000D01*
X69264285Y-72697619D01*
X69240476Y-72745238D01*
X69216666Y-72840476D01*
X69216666Y-72911904D01*
X69240476Y-73007142D01*
X69264285Y-73054761D01*
X69311904Y-73102380D01*
X69383333Y-73126190D01*
X69502380Y-73126190D01*
X69830952Y-74300000D02*
X69878571Y-74276190D01*
X69950000Y-74276190D01*
X70021428Y-74300000D01*
X70069047Y-74347619D01*
X70092857Y-74395238D01*
X70116666Y-74490476D01*
X70116666Y-74561904D01*
X70092857Y-74657142D01*
X70069047Y-74704761D01*
X70021428Y-74752380D01*
X69950000Y-74776190D01*
X69902380Y-74776190D01*
X69830952Y-74752380D01*
X69807142Y-74728571D01*
X69807142Y-74561904D01*
X69902380Y-74561904D01*
X69592857Y-74776190D02*
X69592857Y-74276190D01*
X69307142Y-74776190D01*
X69307142Y-74276190D01*
X69069047Y-74776190D02*
X69069047Y-74276190D01*
X68950000Y-74276190D01*
X68878571Y-74300000D01*
X68830952Y-74347619D01*
X68807142Y-74395238D01*
X68783333Y-74490476D01*
X68783333Y-74561904D01*
X68807142Y-74657142D01*
X68830952Y-74704761D01*
X68878571Y-74752380D01*
X68950000Y-74776190D01*
X69069047Y-74776190D01*
D11*
X133269047Y-96602380D02*
X133269047Y-97316666D01*
X133316666Y-97459523D01*
X133411904Y-97554761D01*
X133554761Y-97602380D01*
X133650000Y-97602380D01*
X132316666Y-97602380D02*
X132792857Y-97602380D01*
X132792857Y-96602380D01*
X131411904Y-97507142D02*
X131459523Y-97554761D01*
X131602380Y-97602380D01*
X131697619Y-97602380D01*
X131840476Y-97554761D01*
X131935714Y-97459523D01*
X131983333Y-97364285D01*
X132030952Y-97173809D01*
X132030952Y-97030952D01*
X131983333Y-96840476D01*
X131935714Y-96745238D01*
X131840476Y-96650000D01*
X131697619Y-96602380D01*
X131602380Y-96602380D01*
X131459523Y-96650000D01*
X131411904Y-96697619D01*
X130697619Y-96602380D02*
X130697619Y-97316666D01*
X130745238Y-97459523D01*
X130840476Y-97554761D01*
X130983333Y-97602380D01*
X131078571Y-97602380D01*
X129745238Y-97602380D02*
X130221428Y-97602380D01*
X130221428Y-96602380D01*
X128840476Y-97507142D02*
X128888095Y-97554761D01*
X129030952Y-97602380D01*
X129126190Y-97602380D01*
X129269047Y-97554761D01*
X129364285Y-97459523D01*
X129411904Y-97364285D01*
X129459523Y-97173809D01*
X129459523Y-97030952D01*
X129411904Y-96840476D01*
X129364285Y-96745238D01*
X129269047Y-96650000D01*
X129126190Y-96602380D01*
X129030952Y-96602380D01*
X128888095Y-96650000D01*
X128840476Y-96697619D01*
X128126190Y-96602380D02*
X128126190Y-97316666D01*
X128173809Y-97459523D01*
X128269047Y-97554761D01*
X128411904Y-97602380D01*
X128507142Y-97602380D01*
X127173809Y-97602380D02*
X127650000Y-97602380D01*
X127650000Y-96602380D01*
X126269047Y-97507142D02*
X126316666Y-97554761D01*
X126459523Y-97602380D01*
X126554761Y-97602380D01*
X126697619Y-97554761D01*
X126792857Y-97459523D01*
X126840476Y-97364285D01*
X126888095Y-97173809D01*
X126888095Y-97030952D01*
X126840476Y-96840476D01*
X126792857Y-96745238D01*
X126697619Y-96650000D01*
X126554761Y-96602380D01*
X126459523Y-96602380D01*
X126316666Y-96650000D01*
X126269047Y-96697619D01*
X125554761Y-96602380D02*
X125554761Y-97316666D01*
X125602380Y-97459523D01*
X125697619Y-97554761D01*
X125840476Y-97602380D01*
X125935714Y-97602380D01*
X124602380Y-97602380D02*
X125078571Y-97602380D01*
X125078571Y-96602380D01*
X123697619Y-97507142D02*
X123745238Y-97554761D01*
X123888095Y-97602380D01*
X123983333Y-97602380D01*
X124126190Y-97554761D01*
X124221428Y-97459523D01*
X124269047Y-97364285D01*
X124316666Y-97173809D01*
X124316666Y-97030952D01*
X124269047Y-96840476D01*
X124221428Y-96745238D01*
X124126190Y-96650000D01*
X123983333Y-96602380D01*
X123888095Y-96602380D01*
X123745238Y-96650000D01*
X123697619Y-96697619D01*
D12*
X120705790Y-124800320D02*
X120782390Y-124736050D01*
D13*
G04 #@! TO.C,X1*
X68156590Y-75591762D02*
X69369494Y-71065144D01*
X64476413Y-74605662D02*
X65689317Y-70079043D01*
X68534330Y-69618598D02*
X69369494Y-71065144D01*
X67135863Y-69243880D02*
X65689317Y-70079043D01*
X67135863Y-69243879D02*
G75*
G02X68534330Y-69618598I511874J-886593D01*
G01*
X65149932Y-75772231D02*
X66990021Y-76265281D01*
X68156590Y-75591762D02*
G75*
G02X66990021Y-76265281I-920044J246525D01*
G01*
X65149932Y-75772231D02*
G75*
G02X64476413Y-74605662I246525J920044D01*
G01*
D14*
G04 #@! TO.C,C14*
X65966422Y-90760000D02*
X66483578Y-90760000D01*
X65966422Y-89340000D02*
X66483578Y-89340000D01*
G04 #@! TO.C,FB1*
X68233578Y-81365000D02*
X67716422Y-81365000D01*
X68233578Y-82785000D02*
X67716422Y-82785000D01*
G04 #@! TO.C,R58*
X90924720Y-75965000D02*
X91250278Y-75965000D01*
X90924720Y-76985000D02*
X91250278Y-76985000D01*
G04 #@! TO.C,R57*
X101350280Y-77015000D02*
X101024722Y-77015000D01*
X101350280Y-78035000D02*
X101024722Y-78035000D01*
G04 #@! TO.C,D9*
X65435409Y-68154038D02*
X63819670Y-69769777D01*
X63819670Y-69769777D02*
X62780223Y-68730330D01*
X62780223Y-68730330D02*
X64395962Y-67114591D01*
G04 #@! TO.C,R29*
X101655123Y-64484600D02*
X102172279Y-64484600D01*
X101655123Y-63064600D02*
X102172279Y-63064600D01*
G04 #@! TO.C,T2*
X68480482Y-62825148D02*
X69156984Y-62194300D01*
X67095733Y-67022018D02*
X66720634Y-66619774D01*
X70679366Y-63680226D02*
X70304267Y-63277982D01*
X68243016Y-68105700D02*
X71680378Y-64900308D01*
X65719622Y-65399692D02*
X66396124Y-64768843D01*
G04 #@! TO.C,T1*
X96268071Y-51341295D02*
X97192930Y-51325151D01*
X96332645Y-55040731D02*
X101031929Y-54958705D01*
X101104426Y-53382200D02*
X101094827Y-52832283D01*
X96205173Y-53467717D02*
X96195574Y-52917800D01*
X100042496Y-51275412D02*
X100967355Y-51259269D01*
G04 #@! TO.C,LED8*
X86341200Y-119384600D02*
X86341200Y-115324600D01*
X88611200Y-119384600D02*
X86341200Y-119384600D01*
X88611200Y-115324600D02*
X88611200Y-119384600D01*
G04 #@! TO.C,LED7*
X101185000Y-117800000D02*
X101185000Y-121860000D01*
X101185000Y-121860000D02*
X98915000Y-121860000D01*
X98915000Y-121860000D02*
X98915000Y-117800000D01*
G04 #@! TO.C,LED6*
X111541200Y-119684600D02*
X111541200Y-115624600D01*
X113811200Y-119684600D02*
X111541200Y-119684600D01*
X113811200Y-115624600D02*
X113811200Y-119684600D01*
G04 #@! TO.C,Q4*
X131817228Y-71363999D02*
X132474838Y-72021608D01*
X134051686Y-73598457D02*
X133394077Y-72940847D01*
X134051686Y-73598457D02*
X132524335Y-75125807D01*
X131817228Y-71363999D02*
X130784853Y-72396375D01*
G04 #@! TO.C,R56*
X131105016Y-74470163D02*
X130874811Y-74239958D01*
X130383767Y-75191412D02*
X130153562Y-74961207D01*
G04 #@! TO.C,LED5*
X145394048Y-114790963D02*
X144342540Y-114567458D01*
X146620727Y-109019892D02*
X145394048Y-114790963D01*
X142805952Y-108209037D02*
X141579273Y-113980108D01*
G04 #@! TO.C,C57*
X107849508Y-145239230D02*
X107765248Y-144924765D01*
X108834752Y-144975235D02*
X108750492Y-144660770D01*
G04 #@! TO.C,LED9*
X109745924Y-146588792D02*
X109467693Y-145550421D01*
X115444886Y-145061759D02*
X109745924Y-146588792D01*
X114435492Y-141294648D02*
X108736530Y-142821681D01*
G04 #@! TO.C,LED1*
X64525885Y-131734613D02*
X65286025Y-130974473D01*
X68697815Y-135906543D02*
X64525885Y-131734613D01*
X71455531Y-133148827D02*
X67283601Y-128976897D01*
G04 #@! TO.C,LED2*
X54779961Y-85145822D02*
X55818331Y-85424052D01*
X53252928Y-90844784D02*
X54779961Y-85145822D01*
X57020039Y-91854178D02*
X58547072Y-86155216D01*
G04 #@! TO.C,LED3*
X85959292Y-53108280D02*
X87034292Y-53108280D01*
X85959292Y-59008280D02*
X85959292Y-53108280D01*
X89859292Y-59008280D02*
X89859292Y-53108280D01*
G04 #@! TO.C,LED4*
X135447327Y-68385877D02*
X134661122Y-69119025D01*
X131423537Y-64070890D02*
X135447327Y-68385877D01*
X128571257Y-66730683D02*
X132595047Y-71045670D01*
D10*
G04 #@! TO.C,ANT1*
X56500000Y-113100000D02*
X56500000Y-103600000D01*
X54400000Y-113100000D02*
X54400000Y-103600000D01*
X55830789Y-104950000D02*
G75*
G03X55830789Y-104950000I-380789J0D01*
G01*
D14*
G04 #@! TO.C,U3*
X61750000Y-77020000D02*
X66225000Y-77020000D01*
X61750000Y-77020000D02*
X59125000Y-77020000D01*
X61750000Y-82480000D02*
X64375000Y-82480000D01*
X61750000Y-82480000D02*
X59125000Y-82480000D01*
G04 #@! TO.C,C38*
X63885000Y-100237221D02*
X63885000Y-100562779D01*
X62865000Y-100237221D02*
X62865000Y-100562779D01*
G04 #@! TO.C,C39*
X65212779Y-92310000D02*
X64887221Y-92310000D01*
X65212779Y-91290000D02*
X64887221Y-91290000D01*
G04 #@! TO.C,C44*
X64887221Y-96590000D02*
X65212779Y-96590000D01*
X64887221Y-97610000D02*
X65212779Y-97610000D01*
G04 #@! TO.C,C56*
X65237221Y-97840000D02*
X65562779Y-97840000D01*
X65237221Y-98860000D02*
X65562779Y-98860000D01*
G04 #@! TO.C,C55*
X57749720Y-98940000D02*
X58075278Y-98940000D01*
X57749720Y-99960000D02*
X58075278Y-99960000D01*
G04 #@! TO.C,C50*
X60887221Y-75440000D02*
X61212779Y-75440000D01*
X60887221Y-76460000D02*
X61212779Y-76460000D01*
G04 #@! TO.C,C48*
X54637221Y-96040000D02*
X54962779Y-96040000D01*
X54637221Y-97060000D02*
X54962779Y-97060000D01*
G04 #@! TO.C,U5*
X62260000Y-96985000D02*
X62260000Y-97460000D01*
X57040000Y-92240000D02*
X57515000Y-92240000D01*
X57040000Y-92715000D02*
X57040000Y-92240000D01*
X57040000Y-97460000D02*
X57515000Y-97460000D01*
X57040000Y-96985000D02*
X57040000Y-97460000D01*
X62260000Y-92240000D02*
X61785000Y-92240000D01*
X62260000Y-92715000D02*
X62260000Y-92240000D01*
G04 #@! TO.C,R54*
X80112779Y-107785000D02*
X79787221Y-107785000D01*
X80112779Y-106765000D02*
X79787221Y-106765000D01*
G04 #@! TO.C,R55*
X80112779Y-109060000D02*
X79787221Y-109060000D01*
X80112779Y-108040000D02*
X79787221Y-108040000D01*
D15*
G04 #@! TO.C,XT2*
X65400000Y-96200000D02*
X64700000Y-96200000D01*
X66350000Y-93900000D02*
X66350000Y-95000000D01*
X64700000Y-92700000D02*
X65400000Y-92700000D01*
X63750000Y-95000000D02*
X63750000Y-93900000D01*
D14*
G04 #@! TO.C,R39*
X86736200Y-99561821D02*
X86736200Y-99887379D01*
X85716200Y-99561821D02*
X85716200Y-99887379D01*
G04 #@! TO.C,R36*
X90636200Y-99499322D02*
X90636200Y-99824880D01*
X89616200Y-99499322D02*
X89616200Y-99824880D01*
G04 #@! TO.C,C22*
X103867622Y-82664600D02*
X104384778Y-82664600D01*
X103867622Y-84084600D02*
X104384778Y-84084600D01*
G04 #@! TO.C,C32*
X89067622Y-82664600D02*
X89584778Y-82664600D01*
X89067622Y-84084600D02*
X89584778Y-84084600D01*
G04 #@! TO.C,C20*
X104559515Y-68543981D02*
X104559515Y-68026825D01*
X105979515Y-68543981D02*
X105979515Y-68026825D01*
G04 #@! TO.C,C51*
X92184778Y-89284600D02*
X91667622Y-89284600D01*
X92184778Y-87864600D02*
X91667622Y-87864600D01*
G04 #@! TO.C,C53*
X106984778Y-87584600D02*
X106467622Y-87584600D01*
X106984778Y-86164600D02*
X106467622Y-86164600D01*
G04 #@! TO.C,C52*
X106984778Y-89284600D02*
X106467622Y-89284600D01*
X106984778Y-87864600D02*
X106467622Y-87864600D01*
G04 #@! TO.C,C26*
X108584778Y-79184600D02*
X108067622Y-79184600D01*
X108584778Y-77764600D02*
X108067622Y-77764600D01*
G04 #@! TO.C,C54*
X92184778Y-87584600D02*
X91667622Y-87584600D01*
X92184778Y-86164600D02*
X91667622Y-86164600D01*
G04 #@! TO.C,C33*
X93784778Y-78984600D02*
X93267622Y-78984600D01*
X93784778Y-77564600D02*
X93267622Y-77564600D01*
D15*
G04 #@! TO.C,XT1*
X100076200Y-108524600D02*
X100076200Y-107824600D01*
X102376200Y-109474600D02*
X101276200Y-109474600D01*
X103576200Y-107824600D02*
X103576200Y-108524600D01*
X101276200Y-106874600D02*
X102376200Y-106874600D01*
D16*
G04 #@! TO.C,U4*
X89801200Y-101474600D02*
X91051200Y-101474600D01*
X89801200Y-104649600D02*
X86451200Y-104649600D01*
X89801200Y-101299600D02*
X86451200Y-101299600D01*
X89801200Y-104649600D02*
X89801200Y-104399600D01*
X86451200Y-104649600D02*
X86451200Y-104399600D01*
X86451200Y-101299600D02*
X86451200Y-101549600D01*
X89801200Y-101299600D02*
X89801200Y-101474600D01*
D14*
G04 #@! TO.C,R47*
X87636200Y-96111821D02*
X87636200Y-96437379D01*
X86616200Y-96111821D02*
X86616200Y-96437379D01*
G04 #@! TO.C,R46*
X88516200Y-96437379D02*
X88516200Y-96111821D01*
X89536200Y-96437379D02*
X89536200Y-96111821D01*
G04 #@! TO.C,C47*
X56864096Y-83961427D02*
X57178563Y-84045688D01*
X56600101Y-84946672D02*
X56914568Y-85030933D01*
G04 #@! TO.C,C2*
X108651478Y-109434600D02*
X108325920Y-109434600D01*
X108651478Y-108414600D02*
X108325920Y-108414600D01*
G04 #@! TO.C,C3*
X94216200Y-104287379D02*
X94216200Y-103961821D01*
X95236200Y-104287379D02*
X95236200Y-103961821D01*
G04 #@! TO.C,C4*
X92866200Y-104599878D02*
X92866200Y-104274320D01*
X93886200Y-104599878D02*
X93886200Y-104274320D01*
G04 #@! TO.C,C49*
X89337221Y-51790000D02*
X89662779Y-51790000D01*
X89337221Y-52810000D02*
X89662779Y-52810000D01*
G04 #@! TO.C,C5*
X105100921Y-95664600D02*
X105426479Y-95664600D01*
X105100921Y-96684600D02*
X105426479Y-96684600D01*
G04 #@! TO.C,C15*
X112863421Y-105364600D02*
X113188979Y-105364600D01*
X112863421Y-106384600D02*
X113188979Y-106384600D01*
G04 #@! TO.C,C7*
X96536200Y-99511821D02*
X96536200Y-99837379D01*
X95516200Y-99511821D02*
X95516200Y-99837379D01*
G04 #@! TO.C,C8*
X101636200Y-98211821D02*
X101636200Y-98537379D01*
X100616200Y-98211821D02*
X100616200Y-98537379D01*
G04 #@! TO.C,C9*
X59099273Y-100129478D02*
X59329478Y-99899273D01*
X59820522Y-100850727D02*
X60050727Y-100620522D01*
G04 #@! TO.C,C10*
X105050921Y-108564600D02*
X105376479Y-108564600D01*
X105050921Y-109584600D02*
X105376479Y-109584600D01*
G04 #@! TO.C,C11*
X99888979Y-101884600D02*
X99563421Y-101884600D01*
X99888979Y-100864600D02*
X99563421Y-100864600D01*
G04 #@! TO.C,C12*
X101376479Y-106484600D02*
X101050921Y-106484600D01*
X101376479Y-105464600D02*
X101050921Y-105464600D01*
G04 #@! TO.C,C13*
X66202222Y-87834999D02*
X66527780Y-87834999D01*
X66202222Y-88854999D02*
X66527780Y-88854999D01*
G04 #@! TO.C,C37*
X90136200Y-89411821D02*
X90136200Y-89737379D01*
X89116200Y-89411821D02*
X89116200Y-89737379D01*
G04 #@! TO.C,C6*
X98350279Y-96760000D02*
X98024721Y-96760000D01*
X98350279Y-95740000D02*
X98024721Y-95740000D01*
G04 #@! TO.C,C1*
X114036200Y-100349322D02*
X114036200Y-100674880D01*
X113016200Y-100349322D02*
X113016200Y-100674880D01*
G04 #@! TO.C,C45*
X143253187Y-115882699D02*
X142934743Y-115815012D01*
X143465257Y-114884988D02*
X143146813Y-114817301D01*
G04 #@! TO.C,C18*
X102288980Y-71095402D02*
X101963422Y-71095402D01*
X102288980Y-70075402D02*
X101963422Y-70075402D01*
G04 #@! TO.C,C43*
X64017426Y-130411325D02*
X64247631Y-130181120D01*
X64738675Y-131132574D02*
X64968880Y-130902369D01*
G04 #@! TO.C,C41*
X87616200Y-106349878D02*
X87616200Y-106024320D01*
X88636200Y-106349878D02*
X88636200Y-106024320D01*
G04 #@! TO.C,C40*
X89016200Y-106349878D02*
X89016200Y-106024320D01*
X90036200Y-106349878D02*
X90036200Y-106024320D01*
G04 #@! TO.C,C25*
X111116200Y-96537379D02*
X111116200Y-96211821D01*
X112136200Y-96537379D02*
X112136200Y-96211821D01*
G04 #@! TO.C,C16*
X138812779Y-73285000D02*
X138487221Y-73285000D01*
X138812779Y-72265000D02*
X138487221Y-72265000D01*
G04 #@! TO.C,C42*
X94066200Y-98537379D02*
X94066200Y-98211821D01*
X95086200Y-98537379D02*
X95086200Y-98211821D01*
G04 #@! TO.C,C31*
X135132574Y-70488675D02*
X134902369Y-70718880D01*
X134411325Y-69767426D02*
X134181120Y-69997631D01*
G04 #@! TO.C,C30*
X104936200Y-89411821D02*
X104936200Y-89737379D01*
X103916200Y-89411821D02*
X103916200Y-89737379D01*
G04 #@! TO.C,C27*
X106763421Y-84864600D02*
X107088979Y-84864600D01*
X106763421Y-85884600D02*
X107088979Y-85884600D01*
G04 #@! TO.C,C34*
X91963421Y-84864600D02*
X92288979Y-84864600D01*
X91963421Y-85884600D02*
X92288979Y-85884600D01*
G04 #@! TO.C,C24*
X105379515Y-64626824D02*
X105379515Y-65143980D01*
X103959515Y-64626824D02*
X103959515Y-65143980D01*
G04 #@! TO.C,C23*
X99916201Y-73433178D02*
X99916201Y-72916022D01*
X101336201Y-73433178D02*
X101336201Y-72916022D01*
G04 #@! TO.C,C21*
X106359515Y-68543980D02*
X106359515Y-68026824D01*
X107779515Y-68543980D02*
X107779515Y-68026824D01*
G04 #@! TO.C,C19*
X98567621Y-69964600D02*
X99084777Y-69964600D01*
X98567621Y-71384600D02*
X99084777Y-71384600D01*
G04 #@! TO.C,C17*
X95616200Y-69633178D02*
X95616200Y-69116022D01*
X97036200Y-69633178D02*
X97036200Y-69116022D01*
G04 #@! TO.C,C29*
X103636200Y-88672536D02*
X103636200Y-89876664D01*
X101816200Y-88672536D02*
X101816200Y-89876664D01*
G04 #@! TO.C,C28*
X101536200Y-88672536D02*
X101536200Y-89876664D01*
X99716200Y-88672536D02*
X99716200Y-89876664D01*
G04 #@! TO.C,C36*
X86736200Y-88672536D02*
X86736200Y-89876664D01*
X84916200Y-88672536D02*
X84916200Y-89876664D01*
G04 #@! TO.C,C35*
X88836200Y-88672536D02*
X88836200Y-89876664D01*
X87016200Y-88672536D02*
X87016200Y-89876664D01*
G04 #@! TO.C,D1*
X105726200Y-92824600D02*
X111126200Y-92824600D01*
X105726200Y-89524600D02*
X111126200Y-89524600D01*
X105726200Y-92824600D02*
X105726200Y-89524600D01*
G04 #@! TO.C,D3*
X90926200Y-92824600D02*
X96326200Y-92824600D01*
X90926200Y-89524600D02*
X96326200Y-89524600D01*
X90926200Y-92824600D02*
X90926200Y-89524600D01*
G04 #@! TO.C,D2*
X100826200Y-85674600D02*
X100826200Y-81824600D01*
X98826200Y-85674600D02*
X98826200Y-81824600D01*
X100826200Y-85674600D02*
X98826200Y-85674600D01*
G04 #@! TO.C,D4*
X90100000Y-75650000D02*
X93950000Y-75650000D01*
X90100000Y-73650000D02*
X93950000Y-73650000D01*
X90100000Y-75650000D02*
X90100000Y-73650000D01*
G04 #@! TO.C,D5*
X101525000Y-96774600D02*
X101525000Y-92924600D01*
X99525000Y-96774600D02*
X99525000Y-92924600D01*
X101525000Y-96774600D02*
X99525000Y-96774600D01*
G04 #@! TO.C,D6*
X95138942Y-95673128D02*
X92416581Y-92950767D01*
X93724728Y-97087342D02*
X91002367Y-94364981D01*
X95138942Y-95673128D02*
X93724728Y-97087342D01*
G04 #@! TO.C,L1*
X104226200Y-70174599D02*
X108226200Y-70174599D01*
X104226200Y-74374599D02*
X108226200Y-74374599D01*
G04 #@! TO.C,L2*
X112526200Y-88974600D02*
X108526200Y-88974600D01*
X112526200Y-84774600D02*
X108526200Y-84774600D01*
G04 #@! TO.C,L3*
X97726200Y-88974600D02*
X93726200Y-88974600D01*
X97726200Y-84774600D02*
X93726200Y-84774600D01*
G04 #@! TO.C,IC1*
X99234515Y-69295402D02*
X98759515Y-69295402D01*
X102979515Y-65075402D02*
X102979515Y-65550402D01*
X102504515Y-65075402D02*
X102979515Y-65075402D01*
X98759515Y-65075402D02*
X98759515Y-65550402D01*
X99234515Y-65075402D02*
X98759515Y-65075402D01*
X102979515Y-69295402D02*
X102979515Y-68820402D01*
X102504515Y-69295402D02*
X102979515Y-69295402D01*
D16*
G04 #@! TO.C,U1*
X106725680Y-107400604D02*
X105753408Y-108372876D01*
X112152724Y-102574600D02*
X111781493Y-102945831D01*
X107026200Y-97448076D02*
X106654969Y-97819307D01*
X101899676Y-102574600D02*
X102270907Y-102203369D01*
X107026200Y-107701124D02*
X107397431Y-107329893D01*
X101899676Y-102574600D02*
X102270907Y-102945831D01*
X107026200Y-97448076D02*
X107397431Y-97819307D01*
X112152724Y-102574600D02*
X111781493Y-102203369D01*
X107026200Y-107701124D02*
X106725680Y-107400604D01*
D14*
G04 #@! TO.C,Q2*
X109326200Y-84534600D02*
X105876200Y-84534600D01*
X109326200Y-84534600D02*
X111276200Y-84534600D01*
X109326200Y-79414600D02*
X107376200Y-79414600D01*
X109326200Y-79414600D02*
X111276200Y-79414600D01*
G04 #@! TO.C,Q3*
X94526200Y-84534600D02*
X91076200Y-84534600D01*
X94526200Y-84534600D02*
X96476200Y-84534600D01*
X94526200Y-79414600D02*
X92576200Y-79414600D01*
X94526200Y-79414600D02*
X96476200Y-79414600D01*
G04 #@! TO.C,IC2*
X102076200Y-81674600D02*
X102076200Y-78724600D01*
X105176200Y-79274600D02*
X105176200Y-81674600D01*
G04 #@! TO.C,IC3*
X87326200Y-81674600D02*
X87326200Y-78724600D01*
X90426200Y-79274600D02*
X90426200Y-81674600D01*
G04 #@! TO.C,Q1*
X66760000Y-82970000D02*
X65300000Y-82970000D01*
X66760000Y-86130000D02*
X64600000Y-86130000D01*
X66760000Y-86130000D02*
X66760000Y-85200000D01*
X66760000Y-82970000D02*
X66760000Y-83900000D01*
G04 #@! TO.C,U2*
X99526200Y-100284600D02*
X97076200Y-100284600D01*
X97726200Y-97064600D02*
X99526200Y-97064600D01*
G04 #@! TO.C,R12*
X54637221Y-91940000D02*
X54962779Y-91940000D01*
X54637221Y-92960000D02*
X54962779Y-92960000D01*
G04 #@! TO.C,RT2*
X91563421Y-64364600D02*
X91888979Y-64364600D01*
X91563421Y-65384600D02*
X91888979Y-65384600D01*
G04 #@! TO.C,R22*
X97771722Y-102198873D02*
X98001927Y-102429078D01*
X97050473Y-102920122D02*
X97280678Y-103150327D01*
G04 #@! TO.C,R21*
X135549720Y-72340000D02*
X135875278Y-72340000D01*
X135549720Y-73360000D02*
X135875278Y-73360000D01*
G04 #@! TO.C,R20*
X96871722Y-103098873D02*
X97101927Y-103329078D01*
X96150473Y-103820122D02*
X96380678Y-104050327D01*
G04 #@! TO.C,R19*
X116888979Y-99884600D02*
X116563421Y-99884600D01*
X116888979Y-98864600D02*
X116563421Y-98864600D01*
G04 #@! TO.C,R18*
X114336200Y-103611821D02*
X114336200Y-103937379D01*
X113316200Y-103611821D02*
X113316200Y-103937379D01*
G04 #@! TO.C,R17*
X63140000Y-84075279D02*
X63140000Y-83749721D01*
X64160000Y-84075279D02*
X64160000Y-83749721D01*
G04 #@! TO.C,R16*
X54637221Y-93240000D02*
X54962779Y-93240000D01*
X54637221Y-94260000D02*
X54962779Y-94260000D01*
G04 #@! TO.C,R15*
X61565000Y-100562779D02*
X61565000Y-100237221D01*
X62585000Y-100562779D02*
X62585000Y-100237221D01*
G04 #@! TO.C,R14*
X54799721Y-98040000D02*
X55125279Y-98040000D01*
X54799721Y-99060000D02*
X55125279Y-99060000D01*
G04 #@! TO.C,R13*
X116351478Y-98534600D02*
X116025920Y-98534600D01*
X116351478Y-97514600D02*
X116025920Y-97514600D01*
G04 #@! TO.C,R26*
X106736200Y-59211821D02*
X106736200Y-59537379D01*
X105716200Y-59211821D02*
X105716200Y-59537379D01*
G04 #@! TO.C,R40*
X86016200Y-80337379D02*
X86016200Y-80011821D01*
X87036200Y-80337379D02*
X87036200Y-80011821D01*
G04 #@! TO.C,R27*
X92690000Y-58450280D02*
X92690000Y-58124722D01*
X93710000Y-58450280D02*
X93710000Y-58124722D01*
G04 #@! TO.C,R28*
X95160000Y-57937221D02*
X95160000Y-58262779D01*
X94140000Y-57937221D02*
X94140000Y-58262779D01*
G04 #@! TO.C,R30*
X108036200Y-59524320D02*
X108036200Y-59849878D01*
X107016200Y-59524320D02*
X107016200Y-59849878D01*
G04 #@! TO.C,R32*
X113407320Y-56372231D02*
X113637525Y-56142026D01*
X114128569Y-57093480D02*
X114358774Y-56863275D01*
G04 #@! TO.C,R33*
X113436200Y-96199322D02*
X113436200Y-96524880D01*
X112416200Y-96199322D02*
X112416200Y-96524880D01*
G04 #@! TO.C,R35*
X105388979Y-78284600D02*
X105063421Y-78284600D01*
X105388979Y-77264600D02*
X105063421Y-77264600D01*
G04 #@! TO.C,R37*
X100816200Y-80349878D02*
X100816200Y-80024320D01*
X101836200Y-80349878D02*
X101836200Y-80024320D01*
G04 #@! TO.C,R38*
X90588979Y-78284600D02*
X90263421Y-78284600D01*
X90588979Y-77264600D02*
X90263421Y-77264600D01*
G04 #@! TO.C,NTC1*
X90563421Y-62964600D02*
X90888979Y-62964600D01*
X90563421Y-63984600D02*
X90888979Y-63984600D01*
G04 #@! TO.C,R53*
X64340000Y-100525278D02*
X64340000Y-100199720D01*
X65360000Y-100525278D02*
X65360000Y-100199720D01*
G04 #@! TO.C,R52*
X54637221Y-94540000D02*
X54962779Y-94540000D01*
X54637221Y-95560000D02*
X54962779Y-95560000D01*
G04 #@! TO.C,R51*
X61875727Y-72745522D02*
X61645522Y-72975727D01*
X61154478Y-72024273D02*
X60924273Y-72254478D01*
G04 #@! TO.C,R50*
X93436200Y-98224320D02*
X93436200Y-98549878D01*
X92416200Y-98224320D02*
X92416200Y-98549878D01*
G04 #@! TO.C,R49*
X85850921Y-104964600D02*
X86176479Y-104964600D01*
X85850921Y-105984600D02*
X86176479Y-105984600D01*
G04 #@! TO.C,R48*
X92536200Y-104899322D02*
X92536200Y-105224880D01*
X91516200Y-104899322D02*
X91516200Y-105224880D01*
G04 #@! TO.C,R45*
X84636200Y-103199322D02*
X84636200Y-103524880D01*
X83616200Y-103199322D02*
X83616200Y-103524880D01*
G04 #@! TO.C,R44*
X92536200Y-102011821D02*
X92536200Y-102337379D01*
X91516200Y-102011821D02*
X91516200Y-102337379D01*
G04 #@! TO.C,R43*
X96360000Y-96637221D02*
X96360000Y-96962779D01*
X95340000Y-96637221D02*
X95340000Y-96962779D01*
G04 #@! TO.C,R42*
X87016200Y-99837379D02*
X87016200Y-99511821D01*
X88036200Y-99837379D02*
X88036200Y-99511821D01*
G04 #@! TO.C,R41*
X88316200Y-99824880D02*
X88316200Y-99499322D01*
X89336200Y-99824880D02*
X89336200Y-99499322D01*
G04 #@! TO.C,RT1*
X92376480Y-66784600D02*
X92050922Y-66784600D01*
X92376480Y-65764600D02*
X92050922Y-65764600D01*
G04 #@! TO.C,F1*
X92816200Y-101633178D02*
X92816200Y-101116022D01*
X94236200Y-101633178D02*
X94236200Y-101116022D01*
G04 #@! TO.C,R31*
X113143274Y-61197767D02*
X111980176Y-61509418D01*
X112672224Y-59439782D02*
X111509126Y-59751433D01*
G04 #@! TO.C,R34*
X87880176Y-59715182D02*
X89043274Y-60026833D01*
X87409126Y-61473167D02*
X88572224Y-61784818D01*
D13*
G04 #@! TO.C,X3*
X140453111Y-81805836D02*
G75*
G02X139151972Y-81457197I-476250J824889D01*
G01*
X142451528Y-79552197D02*
G75*
G02X142102889Y-80853336I-824889J-476250D01*
G01*
X140453111Y-81805836D02*
X142102889Y-80853336D01*
X137241135Y-75785329D02*
G75*
G02X138494966Y-75061430I988865J-264966D01*
G01*
X137241134Y-75785330D02*
X136808822Y-77398742D01*
X138494966Y-75061430D02*
X140108378Y-75493742D01*
X139151972Y-81457197D02*
X136808822Y-77398742D01*
X142451528Y-79552197D02*
X140108378Y-75493742D01*
D10*
G04 #@! TO.C,254_1*
X112021432Y-74845323D02*
X109562660Y-65669025D01*
X129021736Y-70290106D02*
X126562955Y-61113810D01*
X118086798Y-56526285D02*
X114609465Y-57458034D01*
X118997626Y-77505391D02*
X124310218Y-76081886D01*
X118997626Y-77505391D02*
X117865293Y-73279466D01*
X124310218Y-76081886D02*
X123177885Y-71855961D01*
X115651212Y-61345885D02*
X114609465Y-57458034D01*
X119128545Y-60414136D02*
X118086798Y-56526285D01*
X124486214Y-61670271D02*
X123813285Y-59158864D01*
X111639401Y-65112565D02*
X110966471Y-62601157D01*
X109562660Y-65669025D02*
X111639401Y-65112565D01*
X110966471Y-62601157D02*
X115651212Y-61345885D01*
X123813285Y-59158864D02*
X119128545Y-60414136D01*
X126562955Y-61113810D02*
X124486214Y-61670271D01*
X112021432Y-74845323D02*
X117865293Y-73279466D01*
X123177885Y-71855961D02*
X129021736Y-70290106D01*
X122998372Y-115618598D02*
X128842223Y-114052743D01*
X134154815Y-112629238D02*
X139998666Y-111063383D01*
X127533893Y-124238432D02*
X125457153Y-124794893D01*
X128206823Y-126749839D02*
X132891563Y-125494567D01*
X136368896Y-124562818D02*
X141053636Y-123307546D01*
X140380707Y-120796139D02*
X142457447Y-120239678D01*
X141053636Y-123307546D02*
X140380707Y-120796139D01*
X128206823Y-126749839D02*
X127533893Y-124238432D01*
X133926839Y-129358270D02*
X132891563Y-125494567D01*
X137404172Y-128426522D02*
X136368896Y-124562818D01*
X128842223Y-114052743D02*
X127709890Y-109826817D01*
X134154815Y-112629238D02*
X133022482Y-108403312D01*
X127709890Y-109826817D02*
X133022482Y-108403312D01*
X133926839Y-129358270D02*
X137404172Y-128426522D01*
X125457153Y-124794893D02*
X122998372Y-115618598D01*
X142457447Y-120239678D02*
X139998666Y-111063383D01*
D17*
X136082270Y-111129266D02*
X135435223Y-108714451D01*
X126250614Y-74630210D02*
X125603566Y-72215396D01*
X124719683Y-73746327D02*
X127134497Y-73099279D01*
D10*
G04 #@! TO.C,254_2*
X70930654Y-70290103D02*
X73389445Y-61113810D01*
X87930959Y-74845321D02*
X90389740Y-65669025D01*
X85342935Y-57458034D02*
X81865602Y-56526285D01*
X75642182Y-76081886D02*
X80954774Y-77505391D01*
X75642182Y-76081886D02*
X76774515Y-71855961D01*
X80954774Y-77505391D02*
X82087107Y-73279466D01*
X80823855Y-60414136D02*
X81865602Y-56526285D01*
X84301188Y-61345885D02*
X85342935Y-57458034D01*
X88312999Y-65112565D02*
X88985929Y-62601157D01*
X75466186Y-61670271D02*
X76139115Y-59158864D01*
X73389445Y-61113810D02*
X75466186Y-61670271D01*
X76139115Y-59158864D02*
X80823855Y-60414136D01*
X88985929Y-62601157D02*
X84301188Y-61345885D01*
X90389740Y-65669025D02*
X88312999Y-65112565D01*
X70930654Y-70290103D02*
X76774515Y-71855961D01*
X82087107Y-73279466D02*
X87930959Y-74845321D01*
X60050326Y-111089265D02*
X65894177Y-112655120D01*
X71206770Y-114078625D02*
X77050621Y-115644480D01*
X59668286Y-120822021D02*
X57591545Y-120265560D01*
X58995356Y-123333428D02*
X63680097Y-124588700D01*
X67157430Y-125520449D02*
X71842170Y-126775721D01*
X72515099Y-124264314D02*
X74591840Y-124820775D01*
X71842170Y-126775721D02*
X72515099Y-124264314D01*
X58995356Y-123333428D02*
X59668286Y-120822021D01*
X62644820Y-128452404D02*
X63680097Y-124588700D01*
X66122153Y-129384152D02*
X67157430Y-125520449D01*
X65894177Y-112655120D02*
X67026511Y-108429194D01*
X71206770Y-114078625D02*
X72339103Y-109852699D01*
X67026511Y-108429194D02*
X72339103Y-109852699D01*
X62644820Y-128452404D02*
X66122153Y-129384152D01*
X57591545Y-120265560D02*
X60050326Y-111089265D01*
X74591840Y-124820775D02*
X77050621Y-115644480D01*
D17*
X73625981Y-113743338D02*
X74273028Y-111328523D01*
X83361044Y-77218401D02*
X84008092Y-74803586D01*
X82477161Y-75687470D02*
X84891975Y-76334517D01*
D10*
G04 #@! TO.C,J4*
X104177708Y-51127316D02*
X112450093Y-52585959D01*
X112450093Y-52585959D02*
X112380633Y-52979884D01*
D18*
X111963878Y-55343422D02*
X111720770Y-56722153D01*
D10*
X104177708Y-51127316D02*
X104108248Y-51521239D01*
X103691493Y-53884777D02*
X103448385Y-55263508D01*
X103880132Y-56558149D02*
X104175575Y-56610243D01*
X110872268Y-57791051D02*
X110576825Y-57738957D01*
D14*
G04 #@! TO.C,R10*
X116747171Y-128659883D02*
X116465229Y-128822662D01*
X116237171Y-127776538D02*
X115955229Y-127939317D01*
G04 #@! TO.C,R9*
X111503592Y-131198170D02*
X111197668Y-131309517D01*
X111154732Y-130239683D02*
X110848808Y-130351030D01*
G04 #@! TO.C,R8*
X105925067Y-132648586D02*
X105604455Y-132705118D01*
X105747945Y-131644082D02*
X105427333Y-131700614D01*
G04 #@! TO.C,R7*
X100188699Y-133184600D02*
X99863141Y-133184600D01*
X100188699Y-132164600D02*
X99863141Y-132164600D01*
G04 #@! TO.C,R6*
X94422945Y-132730118D02*
X94102333Y-132673586D01*
X94600067Y-131725614D02*
X94279455Y-131669082D01*
G04 #@! TO.C,R5*
X88804732Y-131309517D02*
X88498808Y-131198170D01*
X89153592Y-130351030D02*
X88847668Y-130239683D01*
G04 #@! TO.C,R4*
X83512171Y-128847662D02*
X83230229Y-128684883D01*
X84022171Y-127964317D02*
X83740229Y-127801538D01*
G04 #@! TO.C,R3*
X78748074Y-125469915D02*
X78498682Y-125260650D01*
X79403718Y-124688550D02*
X79154326Y-124479285D01*
G04 #@! TO.C,R2*
X121013421Y-120914600D02*
X121338979Y-120914600D01*
X121013421Y-121934600D02*
X121338979Y-121934600D01*
G04 #@! TO.C,R1*
X78686200Y-120486821D02*
X78686200Y-120812379D01*
X77666200Y-120486821D02*
X77666200Y-120812379D01*
G04 #@! TO.C,R11*
X121453718Y-125360650D02*
X121204326Y-125569915D01*
X120798074Y-124579285D02*
X120548682Y-124788550D01*
G04 #@! TO.C,R25*
X87638979Y-121134600D02*
X87313421Y-121134600D01*
X87638979Y-120114600D02*
X87313421Y-120114600D01*
G04 #@! TO.C,R23*
X112838979Y-121234600D02*
X112513421Y-121234600D01*
X112838979Y-120214600D02*
X112513421Y-120214600D01*
G04 #@! TO.C,R24*
X100038979Y-123434600D02*
X99713421Y-123434600D01*
X100038979Y-122414600D02*
X99713421Y-122414600D01*
G04 #@! TD*
D10*
G04 #@! TO.C,X1*
X68091767Y-70130472D02*
G75*
G03X68091767Y-70130472I-444030J0D01*
G01*
X65794316Y-74774415D02*
G75*
G03X65794316Y-74774415I-442760J0D01*
G01*
X67757077Y-75300337D02*
G75*
G03X67757077Y-75300337I-442760J0D01*
G01*
G04 #@! TD*
G04 #@! TO.C,X3*
X142092642Y-79941705D02*
G75*
G03X142092642Y-79941705I-442760J0D01*
G01*
X140332879Y-80957705D02*
G75*
G03X140332879Y-80957705I-442760J0D01*
G01*
X138674030Y-76050295D02*
G75*
G03X138674030Y-76050295I-444030J0D01*
G01*
G04 #@! TD*
G04 #@! TO.C,C14*
X68789285Y-90185714D02*
X68810714Y-90207142D01*
X68875000Y-90228571D01*
X68917857Y-90228571D01*
X68982142Y-90207142D01*
X69025000Y-90164285D01*
X69046428Y-90121428D01*
X69067857Y-90035714D01*
X69067857Y-89971428D01*
X69046428Y-89885714D01*
X69025000Y-89842857D01*
X68982142Y-89800000D01*
X68917857Y-89778571D01*
X68875000Y-89778571D01*
X68810714Y-89800000D01*
X68789285Y-89821428D01*
X68360714Y-90228571D02*
X68617857Y-90228571D01*
X68489285Y-90228571D02*
X68489285Y-89778571D01*
X68532142Y-89842857D01*
X68575000Y-89885714D01*
X68617857Y-89907142D01*
X67975000Y-89928571D02*
X67975000Y-90228571D01*
X68082142Y-89757142D02*
X68189285Y-90078571D01*
X67910714Y-90078571D01*
G04 #@! TO.C,FB1*
X68350000Y-80892857D02*
X68500000Y-80892857D01*
X68500000Y-81128571D02*
X68500000Y-80678571D01*
X68285714Y-80678571D01*
X67964285Y-80892857D02*
X67900000Y-80914285D01*
X67878571Y-80935714D01*
X67857142Y-80978571D01*
X67857142Y-81042857D01*
X67878571Y-81085714D01*
X67900000Y-81107142D01*
X67942857Y-81128571D01*
X68114285Y-81128571D01*
X68114285Y-80678571D01*
X67964285Y-80678571D01*
X67921428Y-80700000D01*
X67900000Y-80721428D01*
X67878571Y-80764285D01*
X67878571Y-80807142D01*
X67900000Y-80850000D01*
X67921428Y-80871428D01*
X67964285Y-80892857D01*
X68114285Y-80892857D01*
X67428571Y-81128571D02*
X67685714Y-81128571D01*
X67557142Y-81128571D02*
X67557142Y-80678571D01*
X67600000Y-80742857D01*
X67642857Y-80785714D01*
X67685714Y-80807142D01*
G04 #@! TO.C,R58*
X89289285Y-76703571D02*
X89439285Y-76489285D01*
X89546428Y-76703571D02*
X89546428Y-76253571D01*
X89375000Y-76253571D01*
X89332142Y-76275000D01*
X89310714Y-76296428D01*
X89289285Y-76339285D01*
X89289285Y-76403571D01*
X89310714Y-76446428D01*
X89332142Y-76467857D01*
X89375000Y-76489285D01*
X89546428Y-76489285D01*
X88882142Y-76253571D02*
X89096428Y-76253571D01*
X89117857Y-76467857D01*
X89096428Y-76446428D01*
X89053571Y-76425000D01*
X88946428Y-76425000D01*
X88903571Y-76446428D01*
X88882142Y-76467857D01*
X88860714Y-76510714D01*
X88860714Y-76617857D01*
X88882142Y-76660714D01*
X88903571Y-76682142D01*
X88946428Y-76703571D01*
X89053571Y-76703571D01*
X89096428Y-76682142D01*
X89117857Y-76660714D01*
X88603571Y-76446428D02*
X88646428Y-76425000D01*
X88667857Y-76403571D01*
X88689285Y-76360714D01*
X88689285Y-76339285D01*
X88667857Y-76296428D01*
X88646428Y-76275000D01*
X88603571Y-76253571D01*
X88517857Y-76253571D01*
X88475000Y-76275000D01*
X88453571Y-76296428D01*
X88432142Y-76339285D01*
X88432142Y-76360714D01*
X88453571Y-76403571D01*
X88475000Y-76425000D01*
X88517857Y-76446428D01*
X88603571Y-76446428D01*
X88646428Y-76467857D01*
X88667857Y-76489285D01*
X88689285Y-76532142D01*
X88689285Y-76617857D01*
X88667857Y-76660714D01*
X88646428Y-76682142D01*
X88603571Y-76703571D01*
X88517857Y-76703571D01*
X88475000Y-76682142D01*
X88453571Y-76660714D01*
X88432142Y-76617857D01*
X88432142Y-76532142D01*
X88453571Y-76489285D01*
X88475000Y-76467857D01*
X88517857Y-76446428D01*
G04 #@! TO.C,R57*
X101476786Y-76703571D02*
X101626786Y-76489285D01*
X101733929Y-76703571D02*
X101733929Y-76253571D01*
X101562501Y-76253571D01*
X101519643Y-76275000D01*
X101498215Y-76296428D01*
X101476786Y-76339285D01*
X101476786Y-76403571D01*
X101498215Y-76446428D01*
X101519643Y-76467857D01*
X101562501Y-76489285D01*
X101733929Y-76489285D01*
X101069643Y-76253571D02*
X101283929Y-76253571D01*
X101305358Y-76467857D01*
X101283929Y-76446428D01*
X101241072Y-76425000D01*
X101133929Y-76425000D01*
X101091072Y-76446428D01*
X101069643Y-76467857D01*
X101048215Y-76510714D01*
X101048215Y-76617857D01*
X101069643Y-76660714D01*
X101091072Y-76682142D01*
X101133929Y-76703571D01*
X101241072Y-76703571D01*
X101283929Y-76682142D01*
X101305358Y-76660714D01*
X100898215Y-76253571D02*
X100598215Y-76253571D01*
X100791072Y-76703571D01*
G04 #@! TO.C,D9*
X65578807Y-68959086D02*
X65260609Y-68640888D01*
X65184847Y-68716649D01*
X65154543Y-68777258D01*
X65154543Y-68837867D01*
X65169695Y-68883324D01*
X65215152Y-68959086D01*
X65260609Y-69004543D01*
X65336370Y-69050000D01*
X65381827Y-69065152D01*
X65442436Y-69065152D01*
X65503045Y-69034847D01*
X65578807Y-68959086D01*
X65245456Y-69292436D02*
X65184847Y-69353045D01*
X65139390Y-69368198D01*
X65109086Y-69368198D01*
X65033324Y-69353045D01*
X64957563Y-69307588D01*
X64836345Y-69186370D01*
X64821192Y-69140913D01*
X64821192Y-69110609D01*
X64836345Y-69065152D01*
X64896954Y-69004543D01*
X64942411Y-68989390D01*
X64972715Y-68989390D01*
X65018172Y-69004543D01*
X65093933Y-69080304D01*
X65109086Y-69125761D01*
X65109086Y-69156066D01*
X65093933Y-69201522D01*
X65033324Y-69262132D01*
X64987867Y-69277284D01*
X64957563Y-69277284D01*
X64912106Y-69262132D01*
G04 #@! TO.C,R29*
X99889285Y-63903571D02*
X100039285Y-63689285D01*
X100146428Y-63903571D02*
X100146428Y-63453571D01*
X99975000Y-63453571D01*
X99932142Y-63475000D01*
X99910714Y-63496428D01*
X99889285Y-63539285D01*
X99889285Y-63603571D01*
X99910714Y-63646428D01*
X99932142Y-63667857D01*
X99975000Y-63689285D01*
X100146428Y-63689285D01*
X99717857Y-63496428D02*
X99696428Y-63475000D01*
X99653571Y-63453571D01*
X99546428Y-63453571D01*
X99503571Y-63475000D01*
X99482142Y-63496428D01*
X99460714Y-63539285D01*
X99460714Y-63582142D01*
X99482142Y-63646428D01*
X99739285Y-63903571D01*
X99460714Y-63903571D01*
X99246428Y-63903571D02*
X99160714Y-63903571D01*
X99117857Y-63882142D01*
X99096428Y-63860714D01*
X99053571Y-63796428D01*
X99032142Y-63710714D01*
X99032142Y-63539285D01*
X99053571Y-63496428D01*
X99075000Y-63475000D01*
X99117857Y-63453571D01*
X99203571Y-63453571D01*
X99246428Y-63475000D01*
X99267857Y-63496428D01*
X99289285Y-63539285D01*
X99289285Y-63646428D01*
X99267857Y-63689285D01*
X99246428Y-63710714D01*
X99203571Y-63732142D01*
X99117857Y-63732142D01*
X99075000Y-63710714D01*
X99053571Y-63689285D01*
X99032142Y-63646428D01*
G04 #@! TO.C,T2*
X70482685Y-66435945D02*
X70294623Y-66611316D01*
X70695554Y-66852740D02*
X70388654Y-66523631D01*
X70229820Y-66730345D02*
X70199534Y-66729288D01*
X70153576Y-66742844D01*
X70075217Y-66815916D01*
X70058487Y-66860816D01*
X70057430Y-66891102D01*
X70070987Y-66937060D01*
X70100215Y-66968404D01*
X70159730Y-67000805D01*
X70523163Y-67013496D01*
X70319429Y-67203482D01*
G04 #@! TO.C,T1*
X98988504Y-55297625D02*
X98731400Y-55302113D01*
X98867805Y-55749800D02*
X98859952Y-55299869D01*
X98353598Y-55758776D02*
X98610702Y-55754288D01*
X98482150Y-55756532D02*
X98474296Y-55306600D01*
X98518269Y-55370128D01*
X98561867Y-55412231D01*
X98605092Y-55432908D01*
G04 #@! TO.C,LED8*
X89303571Y-116421028D02*
X89303571Y-116206742D01*
X88853571Y-116206742D01*
X89067857Y-116571028D02*
X89067857Y-116721028D01*
X89303571Y-116785314D02*
X89303571Y-116571028D01*
X88853571Y-116571028D01*
X88853571Y-116785314D01*
X89303571Y-116978171D02*
X88853571Y-116978171D01*
X88853571Y-117085314D01*
X88875000Y-117149600D01*
X88917857Y-117192457D01*
X88960714Y-117213885D01*
X89046428Y-117235314D01*
X89110714Y-117235314D01*
X89196428Y-117213885D01*
X89239285Y-117192457D01*
X89282142Y-117149600D01*
X89303571Y-117085314D01*
X89303571Y-116978171D01*
X89046428Y-117492457D02*
X89025000Y-117449600D01*
X89003571Y-117428171D01*
X88960714Y-117406742D01*
X88939285Y-117406742D01*
X88896428Y-117428171D01*
X88875000Y-117449600D01*
X88853571Y-117492457D01*
X88853571Y-117578171D01*
X88875000Y-117621028D01*
X88896428Y-117642457D01*
X88939285Y-117663885D01*
X88960714Y-117663885D01*
X89003571Y-117642457D01*
X89025000Y-117621028D01*
X89046428Y-117578171D01*
X89046428Y-117492457D01*
X89067857Y-117449600D01*
X89089285Y-117428171D01*
X89132142Y-117406742D01*
X89217857Y-117406742D01*
X89260714Y-117428171D01*
X89282142Y-117449600D01*
X89303571Y-117492457D01*
X89303571Y-117578171D01*
X89282142Y-117621028D01*
X89260714Y-117642457D01*
X89217857Y-117663885D01*
X89132142Y-117663885D01*
X89089285Y-117642457D01*
X89067857Y-117621028D01*
X89046428Y-117578171D01*
G04 #@! TO.C,LED7*
X101877371Y-118896428D02*
X101877371Y-118682142D01*
X101427371Y-118682142D01*
X101641657Y-119046428D02*
X101641657Y-119196428D01*
X101877371Y-119260714D02*
X101877371Y-119046428D01*
X101427371Y-119046428D01*
X101427371Y-119260714D01*
X101877371Y-119453571D02*
X101427371Y-119453571D01*
X101427371Y-119560714D01*
X101448800Y-119625000D01*
X101491657Y-119667857D01*
X101534514Y-119689285D01*
X101620228Y-119710714D01*
X101684514Y-119710714D01*
X101770228Y-119689285D01*
X101813085Y-119667857D01*
X101855942Y-119625000D01*
X101877371Y-119560714D01*
X101877371Y-119453571D01*
X101427371Y-119860714D02*
X101427371Y-120160714D01*
X101877371Y-119967857D01*
G04 #@! TO.C,LED6*
X114403571Y-116721028D02*
X114403571Y-116506742D01*
X113953571Y-116506742D01*
X114167857Y-116871028D02*
X114167857Y-117021028D01*
X114403571Y-117085314D02*
X114403571Y-116871028D01*
X113953571Y-116871028D01*
X113953571Y-117085314D01*
X114403571Y-117278171D02*
X113953571Y-117278171D01*
X113953571Y-117385314D01*
X113975000Y-117449600D01*
X114017857Y-117492457D01*
X114060714Y-117513885D01*
X114146428Y-117535314D01*
X114210714Y-117535314D01*
X114296428Y-117513885D01*
X114339285Y-117492457D01*
X114382142Y-117449600D01*
X114403571Y-117385314D01*
X114403571Y-117278171D01*
X113953571Y-117921028D02*
X113953571Y-117835314D01*
X113975000Y-117792457D01*
X113996428Y-117771028D01*
X114060714Y-117728171D01*
X114146428Y-117706742D01*
X114317857Y-117706742D01*
X114360714Y-117728171D01*
X114382142Y-117749600D01*
X114403571Y-117792457D01*
X114403571Y-117878171D01*
X114382142Y-117921028D01*
X114360714Y-117942457D01*
X114317857Y-117963885D01*
X114210714Y-117963885D01*
X114167857Y-117942457D01*
X114146428Y-117921028D01*
X114125000Y-117878171D01*
X114125000Y-117792457D01*
X114146428Y-117749600D01*
X114167857Y-117728171D01*
X114210714Y-117706742D01*
G04 #@! TO.C,Q4*
X134204555Y-74443947D02*
X134219708Y-74398490D01*
X134219708Y-74337881D01*
X134219708Y-74246967D01*
X134234860Y-74201511D01*
X134265165Y-74171206D01*
X134325774Y-74262120D02*
X134340926Y-74216663D01*
X134340926Y-74156054D01*
X134295469Y-74080292D01*
X134189403Y-73974226D01*
X134113642Y-73928769D01*
X134053033Y-73928769D01*
X134007576Y-73943922D01*
X133946966Y-74004531D01*
X133931814Y-74049988D01*
X133931814Y-74110597D01*
X133977271Y-74186358D01*
X134083337Y-74292424D01*
X134159099Y-74337881D01*
X134219708Y-74337881D01*
X134265165Y-74322729D01*
X134325774Y-74262120D01*
X133704530Y-74459100D02*
X133916662Y-74671232D01*
X133659073Y-74262120D02*
X133962119Y-74413643D01*
X133765139Y-74610622D01*
G04 #@! TO.C,R56*
X129960609Y-75748502D02*
X130218198Y-75703045D01*
X130142436Y-75930330D02*
X130460634Y-75612132D01*
X130339416Y-75490913D01*
X130293959Y-75475761D01*
X130263654Y-75475761D01*
X130218198Y-75490913D01*
X130172741Y-75536370D01*
X130157588Y-75581827D01*
X130157588Y-75612132D01*
X130172741Y-75657588D01*
X130293959Y-75778807D01*
X129990913Y-75142411D02*
X130142436Y-75293933D01*
X130006066Y-75460609D01*
X130006066Y-75430304D01*
X129990913Y-75384847D01*
X129915152Y-75309086D01*
X129869695Y-75293933D01*
X129839390Y-75293933D01*
X129793933Y-75309086D01*
X129718172Y-75384847D01*
X129703020Y-75430304D01*
X129703020Y-75460609D01*
X129718172Y-75506066D01*
X129793933Y-75581827D01*
X129839390Y-75596979D01*
X129869695Y-75596979D01*
X129703020Y-74854517D02*
X129763629Y-74915126D01*
X129778781Y-74960583D01*
X129778781Y-74990888D01*
X129763629Y-75066649D01*
X129718172Y-75142411D01*
X129596954Y-75263629D01*
X129551497Y-75278781D01*
X129521192Y-75278781D01*
X129475735Y-75263629D01*
X129415126Y-75203020D01*
X129399974Y-75157563D01*
X129399974Y-75127258D01*
X129415126Y-75081801D01*
X129490888Y-75006040D01*
X129536345Y-74990888D01*
X129566649Y-74990888D01*
X129612106Y-75006040D01*
X129672715Y-75066649D01*
X129687867Y-75112106D01*
X129687867Y-75142411D01*
X129672715Y-75187867D01*
G04 #@! TO.C,LED5*
X141713915Y-110478000D02*
X141758467Y-110268397D01*
X141318301Y-110174837D01*
X141452165Y-110575715D02*
X141420978Y-110722437D01*
X141638176Y-110834325D02*
X141682728Y-110624722D01*
X141242562Y-110531162D01*
X141198009Y-110740765D01*
X141598078Y-111022968D02*
X141157912Y-110929408D01*
X141135636Y-111034209D01*
X141143230Y-111101546D01*
X141176240Y-111152377D01*
X141213706Y-111182247D01*
X141293092Y-111221029D01*
X141355973Y-111234395D01*
X141444269Y-111231255D01*
X141490645Y-111219205D01*
X141541476Y-111186195D01*
X141575802Y-111127770D01*
X141598078Y-111022968D01*
X141019799Y-111579177D02*
X141064352Y-111369574D01*
X141278410Y-111393167D01*
X141252994Y-111409672D01*
X141223124Y-111447137D01*
X141200847Y-111551938D01*
X141212897Y-111598314D01*
X141229402Y-111623730D01*
X141266868Y-111653601D01*
X141371669Y-111675877D01*
X141418045Y-111663827D01*
X141443460Y-111647322D01*
X141473331Y-111609857D01*
X141495608Y-111505055D01*
X141483558Y-111458679D01*
X141467053Y-111433264D01*
D16*
X144354904Y-108268087D02*
X144473710Y-107709145D01*
X144414307Y-107988616D02*
X143436159Y-107780704D01*
X143595696Y-107717249D01*
X143708654Y-107643893D01*
X143775033Y-107560637D01*
G04 #@! TO.C,C57*
D10*
X107319634Y-145521024D02*
X107304482Y-145547268D01*
X107300422Y-145614910D01*
X107311514Y-145656307D01*
X107348851Y-145712856D01*
X107401340Y-145743160D01*
X107448283Y-145752767D01*
X107536623Y-145751280D01*
X107598718Y-145734642D01*
X107675965Y-145691759D01*
X107711816Y-145659969D01*
X107742121Y-145607479D01*
X107746181Y-145539838D01*
X107735088Y-145498441D01*
X107697752Y-145441892D01*
X107671507Y-145426740D01*
X107607528Y-145022378D02*
X107662989Y-145229362D01*
X107461551Y-145305522D01*
X107476703Y-145279277D01*
X107486309Y-145232334D01*
X107458579Y-145128842D01*
X107426788Y-145092991D01*
X107400543Y-145077839D01*
X107353600Y-145068233D01*
X107250108Y-145095964D01*
X107214258Y-145127754D01*
X107199105Y-145153999D01*
X107189499Y-145200942D01*
X107217230Y-145304434D01*
X107249021Y-145340284D01*
X107275265Y-145355437D01*
X107563159Y-144856791D02*
X107485513Y-144567013D01*
X107100761Y-144869767D01*
G04 #@! TO.C,LED9*
X111939100Y-141666301D02*
X112146084Y-141610839D01*
X112029616Y-141176173D01*
X111733204Y-141477441D02*
X111588315Y-141516264D01*
X111587227Y-141760585D02*
X111794211Y-141705123D01*
X111677743Y-141270457D01*
X111470759Y-141325918D01*
X111400942Y-141810500D02*
X111284473Y-141375833D01*
X111180981Y-141403564D01*
X111124432Y-141440900D01*
X111094127Y-141493390D01*
X111084521Y-141540332D01*
X111086007Y-141628672D01*
X111102646Y-141690767D01*
X111145529Y-141768015D01*
X111177319Y-141803866D01*
X111229808Y-141834170D01*
X111297450Y-141838230D01*
X111400942Y-141810500D01*
X110945577Y-141932514D02*
X110862783Y-141954699D01*
X110815840Y-141945093D01*
X110789595Y-141929940D01*
X110731560Y-141878937D01*
X110688677Y-141801690D01*
X110644308Y-141636103D01*
X110653915Y-141589160D01*
X110669067Y-141562915D01*
X110704918Y-141531125D01*
X110787711Y-141508940D01*
X110834654Y-141518546D01*
X110860899Y-141533698D01*
X110892689Y-141569549D01*
X110920420Y-141673041D01*
X110910814Y-141719984D01*
X110895662Y-141746229D01*
X110859811Y-141778019D01*
X110777017Y-141800204D01*
X110730074Y-141790598D01*
X110703830Y-141775445D01*
X110672039Y-141739595D01*
D16*
X115086087Y-142701582D02*
X115638045Y-142553686D01*
X115362066Y-142627634D02*
X115103247Y-141661708D01*
X115232214Y-141775048D01*
X115348857Y-141842392D01*
X115453174Y-141863739D01*
G04 #@! TO.C,LED1*
D10*
X69912132Y-131300025D02*
X70063654Y-131451548D01*
X70381852Y-131133350D01*
X69972741Y-131027284D02*
X69866675Y-130921218D01*
X69654543Y-131042436D02*
X69806066Y-131193959D01*
X70124264Y-130875761D01*
X69972741Y-130724238D01*
X69518172Y-130906066D02*
X69836370Y-130587867D01*
X69760609Y-130512106D01*
X69700000Y-130481801D01*
X69639390Y-130481801D01*
X69593933Y-130496954D01*
X69518172Y-130542411D01*
X69472715Y-130587867D01*
X69427258Y-130663629D01*
X69412106Y-130709086D01*
X69412106Y-130769695D01*
X69442411Y-130830304D01*
X69518172Y-130906066D01*
X69033299Y-130421192D02*
X69215126Y-130603020D01*
X69124213Y-130512106D02*
X69442411Y-130193908D01*
X69427258Y-130269669D01*
X69427258Y-130330279D01*
X69442411Y-130375735D01*
D16*
X70562387Y-134415726D02*
X70966448Y-134819787D01*
X70764418Y-134617756D02*
X71471525Y-133910649D01*
X71437853Y-134079008D01*
X71437853Y-134213695D01*
X71471525Y-134314710D01*
G04 #@! TO.C,LED2*
D10*
X58526968Y-88666275D02*
X58582430Y-88459291D01*
X58147763Y-88342822D01*
X58260463Y-88750157D02*
X58221640Y-88895045D01*
X58432684Y-89018148D02*
X58488145Y-88811164D01*
X58053479Y-88694695D01*
X57998018Y-88901679D01*
X58382769Y-89204434D02*
X57948102Y-89087965D01*
X57920372Y-89191457D01*
X57924432Y-89259099D01*
X57954736Y-89311588D01*
X57990587Y-89343378D01*
X58067835Y-89386261D01*
X58129930Y-89402900D01*
X58218270Y-89404386D01*
X58265213Y-89394779D01*
X58317702Y-89364475D01*
X58355038Y-89307926D01*
X58382769Y-89204434D01*
X57878577Y-89513026D02*
X57852332Y-89528178D01*
X57820542Y-89564029D01*
X57792811Y-89667521D01*
X57802417Y-89714464D01*
X57817569Y-89740708D01*
X57853420Y-89772499D01*
X57894817Y-89783591D01*
X57962458Y-89779531D01*
X58277393Y-89597703D01*
X58205293Y-89866783D01*
D16*
X56202336Y-92500270D02*
X56350232Y-91948312D01*
X56276284Y-92224291D02*
X55310358Y-91965472D01*
X55472997Y-91910453D01*
X55589639Y-91843110D01*
X55660285Y-91763442D01*
G04 #@! TO.C,LED3*
D10*
X85778571Y-55554708D02*
X85778571Y-55340422D01*
X85328571Y-55340422D01*
X85542857Y-55704708D02*
X85542857Y-55854708D01*
X85778571Y-55918994D02*
X85778571Y-55704708D01*
X85328571Y-55704708D01*
X85328571Y-55918994D01*
X85778571Y-56111851D02*
X85328571Y-56111851D01*
X85328571Y-56218994D01*
X85350000Y-56283280D01*
X85392857Y-56326137D01*
X85435714Y-56347565D01*
X85521428Y-56368994D01*
X85585714Y-56368994D01*
X85671428Y-56347565D01*
X85714285Y-56326137D01*
X85757142Y-56283280D01*
X85778571Y-56218994D01*
X85778571Y-56111851D01*
X85328571Y-56518994D02*
X85328571Y-56797565D01*
X85500000Y-56647565D01*
X85500000Y-56711851D01*
X85521428Y-56754708D01*
X85542857Y-56776137D01*
X85585714Y-56797565D01*
X85692857Y-56797565D01*
X85735714Y-56776137D01*
X85757142Y-56754708D01*
X85778571Y-56711851D01*
X85778571Y-56583280D01*
X85757142Y-56540422D01*
X85735714Y-56518994D01*
D16*
X89236672Y-59843994D02*
X89236672Y-59272565D01*
X89236672Y-59558280D02*
X88236672Y-59558280D01*
X88379530Y-59463041D01*
X88474768Y-59367803D01*
X88522387Y-59272565D01*
G04 #@! TO.C,LED4*
D10*
X130192621Y-69940899D02*
X130338763Y-70097617D01*
X130667872Y-69790718D01*
X130262711Y-69670439D02*
X130160412Y-69560736D01*
X129944178Y-69674477D02*
X130090321Y-69831196D01*
X130419430Y-69524296D01*
X130273288Y-69367578D01*
X129812650Y-69533430D02*
X130141759Y-69226531D01*
X130068688Y-69148172D01*
X130009173Y-69115770D01*
X129948601Y-69113655D01*
X129902643Y-69127212D01*
X129825342Y-69169997D01*
X129778326Y-69213840D01*
X129730253Y-69287968D01*
X129713523Y-69332869D01*
X129711408Y-69393441D01*
X129739579Y-69455071D01*
X129812650Y-69533430D01*
X129593629Y-68858675D02*
X129374223Y-69063274D01*
X129792075Y-68820120D02*
X129630068Y-69117693D01*
X129440083Y-68913959D01*
D16*
X128456655Y-65694855D02*
X128846369Y-66112772D01*
X128651512Y-65903814D02*
X129382866Y-65221815D01*
X129343339Y-65388896D01*
X129338638Y-65523501D01*
X129368764Y-65625630D01*
G04 #@! TO.C,ANT1*
D10*
X56328571Y-102475000D02*
X56114285Y-102475000D01*
X56371428Y-102603571D02*
X56221428Y-102153571D01*
X56071428Y-102603571D01*
X55921428Y-102603571D02*
X55921428Y-102153571D01*
X55664285Y-102603571D01*
X55664285Y-102153571D01*
X55514285Y-102153571D02*
X55257142Y-102153571D01*
X55385714Y-102603571D02*
X55385714Y-102153571D01*
X54871428Y-102603571D02*
X55128571Y-102603571D01*
X55000000Y-102603571D02*
X55000000Y-102153571D01*
X55042857Y-102217857D01*
X55085714Y-102260714D01*
X55128571Y-102282142D01*
G04 #@! TO.C,U3*
X64867857Y-76453571D02*
X64867857Y-76817857D01*
X64846428Y-76860714D01*
X64825000Y-76882142D01*
X64782142Y-76903571D01*
X64696428Y-76903571D01*
X64653571Y-76882142D01*
X64632142Y-76860714D01*
X64610714Y-76817857D01*
X64610714Y-76453571D01*
X64439285Y-76453571D02*
X64160714Y-76453571D01*
X64310714Y-76625000D01*
X64246428Y-76625000D01*
X64203571Y-76646428D01*
X64182142Y-76667857D01*
X64160714Y-76710714D01*
X64160714Y-76817857D01*
X64182142Y-76860714D01*
X64203571Y-76882142D01*
X64246428Y-76903571D01*
X64375000Y-76903571D01*
X64417857Y-76882142D01*
X64439285Y-76860714D01*
G04 #@! TO.C,C38*
X64060714Y-102110714D02*
X64082142Y-102089285D01*
X64103571Y-102025000D01*
X64103571Y-101982142D01*
X64082142Y-101917857D01*
X64039285Y-101875000D01*
X63996428Y-101853571D01*
X63910714Y-101832142D01*
X63846428Y-101832142D01*
X63760714Y-101853571D01*
X63717857Y-101875000D01*
X63675000Y-101917857D01*
X63653571Y-101982142D01*
X63653571Y-102025000D01*
X63675000Y-102089285D01*
X63696428Y-102110714D01*
X63653571Y-102260714D02*
X63653571Y-102539285D01*
X63825000Y-102389285D01*
X63825000Y-102453571D01*
X63846428Y-102496428D01*
X63867857Y-102517857D01*
X63910714Y-102539285D01*
X64017857Y-102539285D01*
X64060714Y-102517857D01*
X64082142Y-102496428D01*
X64103571Y-102453571D01*
X64103571Y-102325000D01*
X64082142Y-102282142D01*
X64060714Y-102260714D01*
X63846428Y-102796428D02*
X63825000Y-102753571D01*
X63803571Y-102732142D01*
X63760714Y-102710714D01*
X63739285Y-102710714D01*
X63696428Y-102732142D01*
X63675000Y-102753571D01*
X63653571Y-102796428D01*
X63653571Y-102882142D01*
X63675000Y-102925000D01*
X63696428Y-102946428D01*
X63739285Y-102967857D01*
X63760714Y-102967857D01*
X63803571Y-102946428D01*
X63825000Y-102925000D01*
X63846428Y-102882142D01*
X63846428Y-102796428D01*
X63867857Y-102753571D01*
X63889285Y-102732142D01*
X63932142Y-102710714D01*
X64017857Y-102710714D01*
X64060714Y-102732142D01*
X64082142Y-102753571D01*
X64103571Y-102796428D01*
X64103571Y-102882142D01*
X64082142Y-102925000D01*
X64060714Y-102946428D01*
X64017857Y-102967857D01*
X63932142Y-102967857D01*
X63889285Y-102946428D01*
X63867857Y-102925000D01*
X63846428Y-102882142D01*
G04 #@! TO.C,C39*
X63239285Y-91760714D02*
X63260714Y-91782142D01*
X63325000Y-91803571D01*
X63367857Y-91803571D01*
X63432142Y-91782142D01*
X63475000Y-91739285D01*
X63496428Y-91696428D01*
X63517857Y-91610714D01*
X63517857Y-91546428D01*
X63496428Y-91460714D01*
X63475000Y-91417857D01*
X63432142Y-91375000D01*
X63367857Y-91353571D01*
X63325000Y-91353571D01*
X63260714Y-91375000D01*
X63239285Y-91396428D01*
X63089285Y-91353571D02*
X62810714Y-91353571D01*
X62960714Y-91525000D01*
X62896428Y-91525000D01*
X62853571Y-91546428D01*
X62832142Y-91567857D01*
X62810714Y-91610714D01*
X62810714Y-91717857D01*
X62832142Y-91760714D01*
X62853571Y-91782142D01*
X62896428Y-91803571D01*
X63025000Y-91803571D01*
X63067857Y-91782142D01*
X63089285Y-91760714D01*
X62596428Y-91803571D02*
X62510714Y-91803571D01*
X62467857Y-91782142D01*
X62446428Y-91760714D01*
X62403571Y-91696428D01*
X62382142Y-91610714D01*
X62382142Y-91439285D01*
X62403571Y-91396428D01*
X62425000Y-91375000D01*
X62467857Y-91353571D01*
X62553571Y-91353571D01*
X62596428Y-91375000D01*
X62617857Y-91396428D01*
X62639285Y-91439285D01*
X62639285Y-91546428D01*
X62617857Y-91589285D01*
X62596428Y-91610714D01*
X62553571Y-91632142D01*
X62467857Y-91632142D01*
X62425000Y-91610714D01*
X62403571Y-91589285D01*
X62382142Y-91546428D01*
G04 #@! TO.C,C44*
X67389285Y-97260714D02*
X67410714Y-97282142D01*
X67475000Y-97303571D01*
X67517857Y-97303571D01*
X67582142Y-97282142D01*
X67625000Y-97239285D01*
X67646428Y-97196428D01*
X67667857Y-97110714D01*
X67667857Y-97046428D01*
X67646428Y-96960714D01*
X67625000Y-96917857D01*
X67582142Y-96875000D01*
X67517857Y-96853571D01*
X67475000Y-96853571D01*
X67410714Y-96875000D01*
X67389285Y-96896428D01*
X67003571Y-97003571D02*
X67003571Y-97303571D01*
X67110714Y-96832142D02*
X67217857Y-97153571D01*
X66939285Y-97153571D01*
X66575000Y-97003571D02*
X66575000Y-97303571D01*
X66682142Y-96832142D02*
X66789285Y-97153571D01*
X66510714Y-97153571D01*
G04 #@! TO.C,C56*
X67689285Y-98460714D02*
X67710714Y-98482142D01*
X67775000Y-98503571D01*
X67817857Y-98503571D01*
X67882142Y-98482142D01*
X67925000Y-98439285D01*
X67946428Y-98396428D01*
X67967857Y-98310714D01*
X67967857Y-98246428D01*
X67946428Y-98160714D01*
X67925000Y-98117857D01*
X67882142Y-98075000D01*
X67817857Y-98053571D01*
X67775000Y-98053571D01*
X67710714Y-98075000D01*
X67689285Y-98096428D01*
X67282142Y-98053571D02*
X67496428Y-98053571D01*
X67517857Y-98267857D01*
X67496428Y-98246428D01*
X67453571Y-98225000D01*
X67346428Y-98225000D01*
X67303571Y-98246428D01*
X67282142Y-98267857D01*
X67260714Y-98310714D01*
X67260714Y-98417857D01*
X67282142Y-98460714D01*
X67303571Y-98482142D01*
X67346428Y-98503571D01*
X67453571Y-98503571D01*
X67496428Y-98482142D01*
X67517857Y-98460714D01*
X66875000Y-98053571D02*
X66960714Y-98053571D01*
X67003571Y-98075000D01*
X67025000Y-98096428D01*
X67067857Y-98160714D01*
X67089285Y-98246428D01*
X67089285Y-98417857D01*
X67067857Y-98460714D01*
X67046428Y-98482142D01*
X67003571Y-98503571D01*
X66917857Y-98503571D01*
X66875000Y-98482142D01*
X66853571Y-98460714D01*
X66832142Y-98417857D01*
X66832142Y-98310714D01*
X66853571Y-98267857D01*
X66875000Y-98246428D01*
X66917857Y-98225000D01*
X67003571Y-98225000D01*
X67046428Y-98246428D01*
X67067857Y-98267857D01*
X67089285Y-98310714D01*
G04 #@! TO.C,C55*
X58189285Y-98660714D02*
X58210714Y-98682142D01*
X58275000Y-98703571D01*
X58317857Y-98703571D01*
X58382142Y-98682142D01*
X58425000Y-98639285D01*
X58446428Y-98596428D01*
X58467857Y-98510714D01*
X58467857Y-98446428D01*
X58446428Y-98360714D01*
X58425000Y-98317857D01*
X58382142Y-98275000D01*
X58317857Y-98253571D01*
X58275000Y-98253571D01*
X58210714Y-98275000D01*
X58189285Y-98296428D01*
X57782142Y-98253571D02*
X57996428Y-98253571D01*
X58017857Y-98467857D01*
X57996428Y-98446428D01*
X57953571Y-98425000D01*
X57846428Y-98425000D01*
X57803571Y-98446428D01*
X57782142Y-98467857D01*
X57760714Y-98510714D01*
X57760714Y-98617857D01*
X57782142Y-98660714D01*
X57803571Y-98682142D01*
X57846428Y-98703571D01*
X57953571Y-98703571D01*
X57996428Y-98682142D01*
X58017857Y-98660714D01*
X57353571Y-98253571D02*
X57567857Y-98253571D01*
X57589285Y-98467857D01*
X57567857Y-98446428D01*
X57525000Y-98425000D01*
X57417857Y-98425000D01*
X57375000Y-98446428D01*
X57353571Y-98467857D01*
X57332142Y-98510714D01*
X57332142Y-98617857D01*
X57353571Y-98660714D01*
X57375000Y-98682142D01*
X57417857Y-98703571D01*
X57525000Y-98703571D01*
X57567857Y-98682142D01*
X57589285Y-98660714D01*
G04 #@! TO.C,C50*
X61339285Y-75210714D02*
X61360714Y-75232142D01*
X61425000Y-75253571D01*
X61467857Y-75253571D01*
X61532142Y-75232142D01*
X61575000Y-75189285D01*
X61596428Y-75146428D01*
X61617857Y-75060714D01*
X61617857Y-74996428D01*
X61596428Y-74910714D01*
X61575000Y-74867857D01*
X61532142Y-74825000D01*
X61467857Y-74803571D01*
X61425000Y-74803571D01*
X61360714Y-74825000D01*
X61339285Y-74846428D01*
X60932142Y-74803571D02*
X61146428Y-74803571D01*
X61167857Y-75017857D01*
X61146428Y-74996428D01*
X61103571Y-74975000D01*
X60996428Y-74975000D01*
X60953571Y-74996428D01*
X60932142Y-75017857D01*
X60910714Y-75060714D01*
X60910714Y-75167857D01*
X60932142Y-75210714D01*
X60953571Y-75232142D01*
X60996428Y-75253571D01*
X61103571Y-75253571D01*
X61146428Y-75232142D01*
X61167857Y-75210714D01*
X60632142Y-74803571D02*
X60589285Y-74803571D01*
X60546428Y-74825000D01*
X60525000Y-74846428D01*
X60503571Y-74889285D01*
X60482142Y-74975000D01*
X60482142Y-75082142D01*
X60503571Y-75167857D01*
X60525000Y-75210714D01*
X60546428Y-75232142D01*
X60589285Y-75253571D01*
X60632142Y-75253571D01*
X60675000Y-75232142D01*
X60696428Y-75210714D01*
X60717857Y-75167857D01*
X60739285Y-75082142D01*
X60739285Y-74975000D01*
X60717857Y-74889285D01*
X60696428Y-74846428D01*
X60675000Y-74825000D01*
X60632142Y-74803571D01*
G04 #@! TO.C,C48*
X53089285Y-96760714D02*
X53110714Y-96782142D01*
X53175000Y-96803571D01*
X53217857Y-96803571D01*
X53282142Y-96782142D01*
X53325000Y-96739285D01*
X53346428Y-96696428D01*
X53367857Y-96610714D01*
X53367857Y-96546428D01*
X53346428Y-96460714D01*
X53325000Y-96417857D01*
X53282142Y-96375000D01*
X53217857Y-96353571D01*
X53175000Y-96353571D01*
X53110714Y-96375000D01*
X53089285Y-96396428D01*
X52703571Y-96503571D02*
X52703571Y-96803571D01*
X52810714Y-96332142D02*
X52917857Y-96653571D01*
X52639285Y-96653571D01*
X52403571Y-96546428D02*
X52446428Y-96525000D01*
X52467857Y-96503571D01*
X52489285Y-96460714D01*
X52489285Y-96439285D01*
X52467857Y-96396428D01*
X52446428Y-96375000D01*
X52403571Y-96353571D01*
X52317857Y-96353571D01*
X52275000Y-96375000D01*
X52253571Y-96396428D01*
X52232142Y-96439285D01*
X52232142Y-96460714D01*
X52253571Y-96503571D01*
X52275000Y-96525000D01*
X52317857Y-96546428D01*
X52403571Y-96546428D01*
X52446428Y-96567857D01*
X52467857Y-96589285D01*
X52489285Y-96632142D01*
X52489285Y-96717857D01*
X52467857Y-96760714D01*
X52446428Y-96782142D01*
X52403571Y-96803571D01*
X52317857Y-96803571D01*
X52275000Y-96782142D01*
X52253571Y-96760714D01*
X52232142Y-96717857D01*
X52232142Y-96632142D01*
X52253571Y-96589285D01*
X52275000Y-96567857D01*
X52317857Y-96546428D01*
G04 #@! TO.C,U5*
X62453571Y-97027142D02*
X62817857Y-97027142D01*
X62860714Y-97048571D01*
X62882142Y-97070000D01*
X62903571Y-97112857D01*
X62903571Y-97198571D01*
X62882142Y-97241428D01*
X62860714Y-97262857D01*
X62817857Y-97284285D01*
X62453571Y-97284285D01*
X62453571Y-97712857D02*
X62453571Y-97498571D01*
X62667857Y-97477142D01*
X62646428Y-97498571D01*
X62625000Y-97541428D01*
X62625000Y-97648571D01*
X62646428Y-97691428D01*
X62667857Y-97712857D01*
X62710714Y-97734285D01*
X62817857Y-97734285D01*
X62860714Y-97712857D01*
X62882142Y-97691428D01*
X62903571Y-97648571D01*
X62903571Y-97541428D01*
X62882142Y-97498571D01*
X62860714Y-97477142D01*
G04 #@! TO.C,R54*
X80239285Y-106553571D02*
X80389285Y-106339285D01*
X80496428Y-106553571D02*
X80496428Y-106103571D01*
X80325000Y-106103571D01*
X80282142Y-106125000D01*
X80260714Y-106146428D01*
X80239285Y-106189285D01*
X80239285Y-106253571D01*
X80260714Y-106296428D01*
X80282142Y-106317857D01*
X80325000Y-106339285D01*
X80496428Y-106339285D01*
X79832142Y-106103571D02*
X80046428Y-106103571D01*
X80067857Y-106317857D01*
X80046428Y-106296428D01*
X80003571Y-106275000D01*
X79896428Y-106275000D01*
X79853571Y-106296428D01*
X79832142Y-106317857D01*
X79810714Y-106360714D01*
X79810714Y-106467857D01*
X79832142Y-106510714D01*
X79853571Y-106532142D01*
X79896428Y-106553571D01*
X80003571Y-106553571D01*
X80046428Y-106532142D01*
X80067857Y-106510714D01*
X79425000Y-106253571D02*
X79425000Y-106553571D01*
X79532142Y-106082142D02*
X79639285Y-106403571D01*
X79360714Y-106403571D01*
G04 #@! TO.C,R55*
X80239285Y-109753571D02*
X80389285Y-109539285D01*
X80496428Y-109753571D02*
X80496428Y-109303571D01*
X80325000Y-109303571D01*
X80282142Y-109325000D01*
X80260714Y-109346428D01*
X80239285Y-109389285D01*
X80239285Y-109453571D01*
X80260714Y-109496428D01*
X80282142Y-109517857D01*
X80325000Y-109539285D01*
X80496428Y-109539285D01*
X79832142Y-109303571D02*
X80046428Y-109303571D01*
X80067857Y-109517857D01*
X80046428Y-109496428D01*
X80003571Y-109475000D01*
X79896428Y-109475000D01*
X79853571Y-109496428D01*
X79832142Y-109517857D01*
X79810714Y-109560714D01*
X79810714Y-109667857D01*
X79832142Y-109710714D01*
X79853571Y-109732142D01*
X79896428Y-109753571D01*
X80003571Y-109753571D01*
X80046428Y-109732142D01*
X80067857Y-109710714D01*
X79403571Y-109303571D02*
X79617857Y-109303571D01*
X79639285Y-109517857D01*
X79617857Y-109496428D01*
X79575000Y-109475000D01*
X79467857Y-109475000D01*
X79425000Y-109496428D01*
X79403571Y-109517857D01*
X79382142Y-109560714D01*
X79382142Y-109667857D01*
X79403571Y-109710714D01*
X79425000Y-109732142D01*
X79467857Y-109753571D01*
X79575000Y-109753571D01*
X79617857Y-109732142D01*
X79639285Y-109710714D01*
G04 #@! TO.C,XT2*
X66623571Y-93914285D02*
X67073571Y-94214285D01*
X66623571Y-94214285D02*
X67073571Y-93914285D01*
X66623571Y-94321428D02*
X66623571Y-94578571D01*
X67073571Y-94450000D02*
X66623571Y-94450000D01*
X66666428Y-94707142D02*
X66645000Y-94728571D01*
X66623571Y-94771428D01*
X66623571Y-94878571D01*
X66645000Y-94921428D01*
X66666428Y-94942857D01*
X66709285Y-94964285D01*
X66752142Y-94964285D01*
X66816428Y-94942857D01*
X67073571Y-94685714D01*
X67073571Y-94964285D01*
G04 #@! TO.C,R39*
X85503571Y-99435314D02*
X85289285Y-99285314D01*
X85503571Y-99178171D02*
X85053571Y-99178171D01*
X85053571Y-99349600D01*
X85075000Y-99392457D01*
X85096428Y-99413885D01*
X85139285Y-99435314D01*
X85203571Y-99435314D01*
X85246428Y-99413885D01*
X85267857Y-99392457D01*
X85289285Y-99349600D01*
X85289285Y-99178171D01*
X85053571Y-99585314D02*
X85053571Y-99863885D01*
X85225000Y-99713885D01*
X85225000Y-99778171D01*
X85246428Y-99821028D01*
X85267857Y-99842457D01*
X85310714Y-99863885D01*
X85417857Y-99863885D01*
X85460714Y-99842457D01*
X85482142Y-99821028D01*
X85503571Y-99778171D01*
X85503571Y-99649600D01*
X85482142Y-99606742D01*
X85460714Y-99585314D01*
X85503571Y-100078171D02*
X85503571Y-100163885D01*
X85482142Y-100206742D01*
X85460714Y-100228171D01*
X85396428Y-100271028D01*
X85310714Y-100292457D01*
X85139285Y-100292457D01*
X85096428Y-100271028D01*
X85075000Y-100249600D01*
X85053571Y-100206742D01*
X85053571Y-100121028D01*
X85075000Y-100078171D01*
X85096428Y-100056742D01*
X85139285Y-100035314D01*
X85246428Y-100035314D01*
X85289285Y-100056742D01*
X85310714Y-100078171D01*
X85332142Y-100121028D01*
X85332142Y-100206742D01*
X85310714Y-100249600D01*
X85289285Y-100271028D01*
X85246428Y-100292457D01*
G04 #@! TO.C,R36*
X91303571Y-99310714D02*
X91089285Y-99160714D01*
X91303571Y-99053571D02*
X90853571Y-99053571D01*
X90853571Y-99225000D01*
X90875000Y-99267857D01*
X90896428Y-99289285D01*
X90939285Y-99310714D01*
X91003571Y-99310714D01*
X91046428Y-99289285D01*
X91067857Y-99267857D01*
X91089285Y-99225000D01*
X91089285Y-99053571D01*
X90853571Y-99460714D02*
X90853571Y-99739285D01*
X91025000Y-99589285D01*
X91025000Y-99653571D01*
X91046428Y-99696428D01*
X91067857Y-99717857D01*
X91110714Y-99739285D01*
X91217857Y-99739285D01*
X91260714Y-99717857D01*
X91282142Y-99696428D01*
X91303571Y-99653571D01*
X91303571Y-99525000D01*
X91282142Y-99482142D01*
X91260714Y-99460714D01*
X90853571Y-100125000D02*
X90853571Y-100039285D01*
X90875000Y-99996428D01*
X90896428Y-99975000D01*
X90960714Y-99932142D01*
X91046428Y-99910714D01*
X91217857Y-99910714D01*
X91260714Y-99932142D01*
X91282142Y-99953571D01*
X91303571Y-99996428D01*
X91303571Y-100082142D01*
X91282142Y-100125000D01*
X91260714Y-100146428D01*
X91217857Y-100167857D01*
X91110714Y-100167857D01*
X91067857Y-100146428D01*
X91046428Y-100125000D01*
X91025000Y-100082142D01*
X91025000Y-99996428D01*
X91046428Y-99953571D01*
X91067857Y-99932142D01*
X91110714Y-99910714D01*
G04 #@! TO.C,C22*
X102089285Y-83560714D02*
X102110714Y-83582142D01*
X102175000Y-83603571D01*
X102217857Y-83603571D01*
X102282142Y-83582142D01*
X102325000Y-83539285D01*
X102346428Y-83496428D01*
X102367857Y-83410714D01*
X102367857Y-83346428D01*
X102346428Y-83260714D01*
X102325000Y-83217857D01*
X102282142Y-83175000D01*
X102217857Y-83153571D01*
X102175000Y-83153571D01*
X102110714Y-83175000D01*
X102089285Y-83196428D01*
X101917857Y-83196428D02*
X101896428Y-83175000D01*
X101853571Y-83153571D01*
X101746428Y-83153571D01*
X101703571Y-83175000D01*
X101682142Y-83196428D01*
X101660714Y-83239285D01*
X101660714Y-83282142D01*
X101682142Y-83346428D01*
X101939285Y-83603571D01*
X101660714Y-83603571D01*
X101489285Y-83196428D02*
X101467857Y-83175000D01*
X101425000Y-83153571D01*
X101317857Y-83153571D01*
X101275000Y-83175000D01*
X101253571Y-83196428D01*
X101232142Y-83239285D01*
X101232142Y-83282142D01*
X101253571Y-83346428D01*
X101510714Y-83603571D01*
X101232142Y-83603571D01*
G04 #@! TO.C,C32*
X88889285Y-84760714D02*
X88910714Y-84782142D01*
X88975000Y-84803571D01*
X89017857Y-84803571D01*
X89082142Y-84782142D01*
X89125000Y-84739285D01*
X89146428Y-84696428D01*
X89167857Y-84610714D01*
X89167857Y-84546428D01*
X89146428Y-84460714D01*
X89125000Y-84417857D01*
X89082142Y-84375000D01*
X89017857Y-84353571D01*
X88975000Y-84353571D01*
X88910714Y-84375000D01*
X88889285Y-84396428D01*
X88739285Y-84353571D02*
X88460714Y-84353571D01*
X88610714Y-84525000D01*
X88546428Y-84525000D01*
X88503571Y-84546428D01*
X88482142Y-84567857D01*
X88460714Y-84610714D01*
X88460714Y-84717857D01*
X88482142Y-84760714D01*
X88503571Y-84782142D01*
X88546428Y-84803571D01*
X88675000Y-84803571D01*
X88717857Y-84782142D01*
X88739285Y-84760714D01*
X88289285Y-84396428D02*
X88267857Y-84375000D01*
X88225000Y-84353571D01*
X88117857Y-84353571D01*
X88075000Y-84375000D01*
X88053571Y-84396428D01*
X88032142Y-84439285D01*
X88032142Y-84482142D01*
X88053571Y-84546428D01*
X88310714Y-84803571D01*
X88032142Y-84803571D01*
G04 #@! TO.C,D7*
X91032142Y-57428571D02*
X91032142Y-56978571D01*
X90925000Y-56978571D01*
X90860714Y-57000000D01*
X90817857Y-57042857D01*
X90796428Y-57085714D01*
X90775000Y-57171428D01*
X90775000Y-57235714D01*
X90796428Y-57321428D01*
X90817857Y-57364285D01*
X90860714Y-57407142D01*
X90925000Y-57428571D01*
X91032142Y-57428571D01*
X90625000Y-56978571D02*
X90325000Y-56978571D01*
X90517857Y-57428571D01*
G04 #@! TO.C,D8*
X93832142Y-52778571D02*
X93832142Y-52328571D01*
X93725000Y-52328571D01*
X93660714Y-52350000D01*
X93617857Y-52392857D01*
X93596428Y-52435714D01*
X93575000Y-52521428D01*
X93575000Y-52585714D01*
X93596428Y-52671428D01*
X93617857Y-52714285D01*
X93660714Y-52757142D01*
X93725000Y-52778571D01*
X93832142Y-52778571D01*
X93317857Y-52521428D02*
X93360714Y-52500000D01*
X93382142Y-52478571D01*
X93403571Y-52435714D01*
X93403571Y-52414285D01*
X93382142Y-52371428D01*
X93360714Y-52350000D01*
X93317857Y-52328571D01*
X93232142Y-52328571D01*
X93189285Y-52350000D01*
X93167857Y-52371428D01*
X93146428Y-52414285D01*
X93146428Y-52435714D01*
X93167857Y-52478571D01*
X93189285Y-52500000D01*
X93232142Y-52521428D01*
X93317857Y-52521428D01*
X93360714Y-52542857D01*
X93382142Y-52564285D01*
X93403571Y-52607142D01*
X93403571Y-52692857D01*
X93382142Y-52735714D01*
X93360714Y-52757142D01*
X93317857Y-52778571D01*
X93232142Y-52778571D01*
X93189285Y-52757142D01*
X93167857Y-52735714D01*
X93146428Y-52692857D01*
X93146428Y-52607142D01*
X93167857Y-52564285D01*
X93189285Y-52542857D01*
X93232142Y-52521428D01*
G04 #@! TO.C,C20*
X104260714Y-67010714D02*
X104282142Y-66989285D01*
X104303571Y-66925000D01*
X104303571Y-66882142D01*
X104282142Y-66817857D01*
X104239285Y-66775000D01*
X104196428Y-66753571D01*
X104110714Y-66732142D01*
X104046428Y-66732142D01*
X103960714Y-66753571D01*
X103917857Y-66775000D01*
X103875000Y-66817857D01*
X103853571Y-66882142D01*
X103853571Y-66925000D01*
X103875000Y-66989285D01*
X103896428Y-67010714D01*
X103896428Y-67182142D02*
X103875000Y-67203571D01*
X103853571Y-67246428D01*
X103853571Y-67353571D01*
X103875000Y-67396428D01*
X103896428Y-67417857D01*
X103939285Y-67439285D01*
X103982142Y-67439285D01*
X104046428Y-67417857D01*
X104303571Y-67160714D01*
X104303571Y-67439285D01*
X103853571Y-67717857D02*
X103853571Y-67760714D01*
X103875000Y-67803571D01*
X103896428Y-67825000D01*
X103939285Y-67846428D01*
X104025000Y-67867857D01*
X104132142Y-67867857D01*
X104217857Y-67846428D01*
X104260714Y-67825000D01*
X104282142Y-67803571D01*
X104303571Y-67760714D01*
X104303571Y-67717857D01*
X104282142Y-67675000D01*
X104260714Y-67653571D01*
X104217857Y-67632142D01*
X104132142Y-67610714D01*
X104025000Y-67610714D01*
X103939285Y-67632142D01*
X103896428Y-67653571D01*
X103875000Y-67675000D01*
X103853571Y-67717857D01*
G04 #@! TO.C,C51*
X90760714Y-89810714D02*
X90782142Y-89789285D01*
X90803571Y-89725000D01*
X90803571Y-89682142D01*
X90782142Y-89617857D01*
X90739285Y-89575000D01*
X90696428Y-89553571D01*
X90610714Y-89532142D01*
X90546428Y-89532142D01*
X90460714Y-89553571D01*
X90417857Y-89575000D01*
X90375000Y-89617857D01*
X90353571Y-89682142D01*
X90353571Y-89725000D01*
X90375000Y-89789285D01*
X90396428Y-89810714D01*
X90353571Y-90217857D02*
X90353571Y-90003571D01*
X90567857Y-89982142D01*
X90546428Y-90003571D01*
X90525000Y-90046428D01*
X90525000Y-90153571D01*
X90546428Y-90196428D01*
X90567857Y-90217857D01*
X90610714Y-90239285D01*
X90717857Y-90239285D01*
X90760714Y-90217857D01*
X90782142Y-90196428D01*
X90803571Y-90153571D01*
X90803571Y-90046428D01*
X90782142Y-90003571D01*
X90760714Y-89982142D01*
X90803571Y-90667857D02*
X90803571Y-90410714D01*
X90803571Y-90539285D02*
X90353571Y-90539285D01*
X90417857Y-90496428D01*
X90460714Y-90453571D01*
X90482142Y-90410714D01*
G04 #@! TO.C,C53*
X104789285Y-87360714D02*
X104810714Y-87382142D01*
X104875000Y-87403571D01*
X104917857Y-87403571D01*
X104982142Y-87382142D01*
X105025000Y-87339285D01*
X105046428Y-87296428D01*
X105067857Y-87210714D01*
X105067857Y-87146428D01*
X105046428Y-87060714D01*
X105025000Y-87017857D01*
X104982142Y-86975000D01*
X104917857Y-86953571D01*
X104875000Y-86953571D01*
X104810714Y-86975000D01*
X104789285Y-86996428D01*
X104382142Y-86953571D02*
X104596428Y-86953571D01*
X104617857Y-87167857D01*
X104596428Y-87146428D01*
X104553571Y-87125000D01*
X104446428Y-87125000D01*
X104403571Y-87146428D01*
X104382142Y-87167857D01*
X104360714Y-87210714D01*
X104360714Y-87317857D01*
X104382142Y-87360714D01*
X104403571Y-87382142D01*
X104446428Y-87403571D01*
X104553571Y-87403571D01*
X104596428Y-87382142D01*
X104617857Y-87360714D01*
X104210714Y-86953571D02*
X103932142Y-86953571D01*
X104082142Y-87125000D01*
X104017857Y-87125000D01*
X103975000Y-87146428D01*
X103953571Y-87167857D01*
X103932142Y-87210714D01*
X103932142Y-87317857D01*
X103953571Y-87360714D01*
X103975000Y-87382142D01*
X104017857Y-87403571D01*
X104146428Y-87403571D01*
X104189285Y-87382142D01*
X104210714Y-87360714D01*
G04 #@! TO.C,C52*
X105560714Y-89810714D02*
X105582142Y-89789285D01*
X105603571Y-89725000D01*
X105603571Y-89682142D01*
X105582142Y-89617857D01*
X105539285Y-89575000D01*
X105496428Y-89553571D01*
X105410714Y-89532142D01*
X105346428Y-89532142D01*
X105260714Y-89553571D01*
X105217857Y-89575000D01*
X105175000Y-89617857D01*
X105153571Y-89682142D01*
X105153571Y-89725000D01*
X105175000Y-89789285D01*
X105196428Y-89810714D01*
X105153571Y-90217857D02*
X105153571Y-90003571D01*
X105367857Y-89982142D01*
X105346428Y-90003571D01*
X105325000Y-90046428D01*
X105325000Y-90153571D01*
X105346428Y-90196428D01*
X105367857Y-90217857D01*
X105410714Y-90239285D01*
X105517857Y-90239285D01*
X105560714Y-90217857D01*
X105582142Y-90196428D01*
X105603571Y-90153571D01*
X105603571Y-90046428D01*
X105582142Y-90003571D01*
X105560714Y-89982142D01*
X105196428Y-90410714D02*
X105175000Y-90432142D01*
X105153571Y-90475000D01*
X105153571Y-90582142D01*
X105175000Y-90625000D01*
X105196428Y-90646428D01*
X105239285Y-90667857D01*
X105282142Y-90667857D01*
X105346428Y-90646428D01*
X105603571Y-90389285D01*
X105603571Y-90667857D01*
G04 #@! TO.C,C26*
X108615485Y-77460714D02*
X108636914Y-77482142D01*
X108701200Y-77503571D01*
X108744057Y-77503571D01*
X108808342Y-77482142D01*
X108851200Y-77439285D01*
X108872628Y-77396428D01*
X108894057Y-77310714D01*
X108894057Y-77246428D01*
X108872628Y-77160714D01*
X108851200Y-77117857D01*
X108808342Y-77075000D01*
X108744057Y-77053571D01*
X108701200Y-77053571D01*
X108636914Y-77075000D01*
X108615485Y-77096428D01*
X108444057Y-77096428D02*
X108422628Y-77075000D01*
X108379771Y-77053571D01*
X108272628Y-77053571D01*
X108229771Y-77075000D01*
X108208342Y-77096428D01*
X108186914Y-77139285D01*
X108186914Y-77182142D01*
X108208342Y-77246428D01*
X108465485Y-77503571D01*
X108186914Y-77503571D01*
X107801200Y-77053571D02*
X107886914Y-77053571D01*
X107929771Y-77075000D01*
X107951200Y-77096428D01*
X107994057Y-77160714D01*
X108015485Y-77246428D01*
X108015485Y-77417857D01*
X107994057Y-77460714D01*
X107972628Y-77482142D01*
X107929771Y-77503571D01*
X107844057Y-77503571D01*
X107801200Y-77482142D01*
X107779771Y-77460714D01*
X107758342Y-77417857D01*
X107758342Y-77310714D01*
X107779771Y-77267857D01*
X107801200Y-77246428D01*
X107844057Y-77225000D01*
X107929771Y-77225000D01*
X107972628Y-77246428D01*
X107994057Y-77267857D01*
X108015485Y-77310714D01*
G04 #@! TO.C,C54*
X89989285Y-87260714D02*
X90010714Y-87282142D01*
X90075000Y-87303571D01*
X90117857Y-87303571D01*
X90182142Y-87282142D01*
X90225000Y-87239285D01*
X90246428Y-87196428D01*
X90267857Y-87110714D01*
X90267857Y-87046428D01*
X90246428Y-86960714D01*
X90225000Y-86917857D01*
X90182142Y-86875000D01*
X90117857Y-86853571D01*
X90075000Y-86853571D01*
X90010714Y-86875000D01*
X89989285Y-86896428D01*
X89582142Y-86853571D02*
X89796428Y-86853571D01*
X89817857Y-87067857D01*
X89796428Y-87046428D01*
X89753571Y-87025000D01*
X89646428Y-87025000D01*
X89603571Y-87046428D01*
X89582142Y-87067857D01*
X89560714Y-87110714D01*
X89560714Y-87217857D01*
X89582142Y-87260714D01*
X89603571Y-87282142D01*
X89646428Y-87303571D01*
X89753571Y-87303571D01*
X89796428Y-87282142D01*
X89817857Y-87260714D01*
X89175000Y-87003571D02*
X89175000Y-87303571D01*
X89282142Y-86832142D02*
X89389285Y-87153571D01*
X89110714Y-87153571D01*
G04 #@! TO.C,C33*
X93815485Y-77260714D02*
X93836914Y-77282142D01*
X93901200Y-77303571D01*
X93944057Y-77303571D01*
X94008342Y-77282142D01*
X94051200Y-77239285D01*
X94072628Y-77196428D01*
X94094057Y-77110714D01*
X94094057Y-77046428D01*
X94072628Y-76960714D01*
X94051200Y-76917857D01*
X94008342Y-76875000D01*
X93944057Y-76853571D01*
X93901200Y-76853571D01*
X93836914Y-76875000D01*
X93815485Y-76896428D01*
X93665485Y-76853571D02*
X93386914Y-76853571D01*
X93536914Y-77025000D01*
X93472628Y-77025000D01*
X93429771Y-77046428D01*
X93408342Y-77067857D01*
X93386914Y-77110714D01*
X93386914Y-77217857D01*
X93408342Y-77260714D01*
X93429771Y-77282142D01*
X93472628Y-77303571D01*
X93601200Y-77303571D01*
X93644057Y-77282142D01*
X93665485Y-77260714D01*
X93236914Y-76853571D02*
X92958342Y-76853571D01*
X93108342Y-77025000D01*
X93044057Y-77025000D01*
X93001200Y-77046428D01*
X92979771Y-77067857D01*
X92958342Y-77110714D01*
X92958342Y-77217857D01*
X92979771Y-77260714D01*
X93001200Y-77282142D01*
X93044057Y-77303571D01*
X93172628Y-77303571D01*
X93215485Y-77282142D01*
X93236914Y-77260714D01*
G04 #@! TO.C,XT1*
X102361914Y-109753571D02*
X102061914Y-110203571D01*
X102061914Y-109753571D02*
X102361914Y-110203571D01*
X101954771Y-109753571D02*
X101697628Y-109753571D01*
X101826200Y-110203571D02*
X101826200Y-109753571D01*
X101311914Y-110203571D02*
X101569057Y-110203571D01*
X101440485Y-110203571D02*
X101440485Y-109753571D01*
X101483342Y-109817857D01*
X101526200Y-109860714D01*
X101569057Y-109882142D01*
G04 #@! TO.C,U4*
X85642857Y-101053571D02*
X85642857Y-101417857D01*
X85621428Y-101460714D01*
X85600000Y-101482142D01*
X85557142Y-101503571D01*
X85471428Y-101503571D01*
X85428571Y-101482142D01*
X85407142Y-101460714D01*
X85385714Y-101417857D01*
X85385714Y-101053571D01*
X84978571Y-101203571D02*
X84978571Y-101503571D01*
X85085714Y-101032142D02*
X85192857Y-101353571D01*
X84914285Y-101353571D01*
G04 #@! TO.C,R47*
X86303571Y-95985314D02*
X86089285Y-95835314D01*
X86303571Y-95728171D02*
X85853571Y-95728171D01*
X85853571Y-95899600D01*
X85875000Y-95942457D01*
X85896428Y-95963885D01*
X85939285Y-95985314D01*
X86003571Y-95985314D01*
X86046428Y-95963885D01*
X86067857Y-95942457D01*
X86089285Y-95899600D01*
X86089285Y-95728171D01*
X86003571Y-96371028D02*
X86303571Y-96371028D01*
X85832142Y-96263885D02*
X86153571Y-96156742D01*
X86153571Y-96435314D01*
X85853571Y-96563885D02*
X85853571Y-96863885D01*
X86303571Y-96671028D01*
G04 #@! TO.C,R46*
X90303571Y-95985314D02*
X90089285Y-95835314D01*
X90303571Y-95728171D02*
X89853571Y-95728171D01*
X89853571Y-95899600D01*
X89875000Y-95942457D01*
X89896428Y-95963885D01*
X89939285Y-95985314D01*
X90003571Y-95985314D01*
X90046428Y-95963885D01*
X90067857Y-95942457D01*
X90089285Y-95899600D01*
X90089285Y-95728171D01*
X90003571Y-96371028D02*
X90303571Y-96371028D01*
X89832142Y-96263885D02*
X90153571Y-96156742D01*
X90153571Y-96435314D01*
X89853571Y-96799600D02*
X89853571Y-96713885D01*
X89875000Y-96671028D01*
X89896428Y-96649600D01*
X89960714Y-96606742D01*
X90046428Y-96585314D01*
X90217857Y-96585314D01*
X90260714Y-96606742D01*
X90282142Y-96628171D01*
X90303571Y-96671028D01*
X90303571Y-96756742D01*
X90282142Y-96799600D01*
X90260714Y-96821028D01*
X90217857Y-96842457D01*
X90110714Y-96842457D01*
X90067857Y-96821028D01*
X90046428Y-96799600D01*
X90025000Y-96756742D01*
X90025000Y-96671028D01*
X90046428Y-96628171D01*
X90067857Y-96606742D01*
X90110714Y-96585314D01*
G04 #@! TO.C,C47*
X56757053Y-83630110D02*
X56772205Y-83656355D01*
X56828755Y-83693692D01*
X56870151Y-83704784D01*
X56937793Y-83700724D01*
X56990282Y-83670419D01*
X57022072Y-83634568D01*
X57064955Y-83557321D01*
X57081594Y-83495226D01*
X57083080Y-83406886D01*
X57073474Y-83359943D01*
X57043169Y-83307454D01*
X56986620Y-83270117D01*
X56945223Y-83259025D01*
X56877582Y-83263085D01*
X56851337Y-83278237D01*
X56451035Y-83281899D02*
X56373389Y-83571677D01*
X56598896Y-83144042D02*
X56619196Y-83482249D01*
X56350117Y-83410150D01*
X56303572Y-83087095D02*
X56013795Y-83009449D01*
X56083612Y-83494031D01*
G04 #@! TO.C,C2*
X108575000Y-110160714D02*
X108596428Y-110182142D01*
X108660714Y-110203571D01*
X108703571Y-110203571D01*
X108767857Y-110182142D01*
X108810714Y-110139285D01*
X108832142Y-110096428D01*
X108853571Y-110010714D01*
X108853571Y-109946428D01*
X108832142Y-109860714D01*
X108810714Y-109817857D01*
X108767857Y-109775000D01*
X108703571Y-109753571D01*
X108660714Y-109753571D01*
X108596428Y-109775000D01*
X108575000Y-109796428D01*
X108403571Y-109796428D02*
X108382142Y-109775000D01*
X108339285Y-109753571D01*
X108232142Y-109753571D01*
X108189285Y-109775000D01*
X108167857Y-109796428D01*
X108146428Y-109839285D01*
X108146428Y-109882142D01*
X108167857Y-109946428D01*
X108425000Y-110203571D01*
X108146428Y-110203571D01*
G04 #@! TO.C,C3*
X94775000Y-106060714D02*
X94796428Y-106082142D01*
X94860714Y-106103571D01*
X94903571Y-106103571D01*
X94967857Y-106082142D01*
X95010714Y-106039285D01*
X95032142Y-105996428D01*
X95053571Y-105910714D01*
X95053571Y-105846428D01*
X95032142Y-105760714D01*
X95010714Y-105717857D01*
X94967857Y-105675000D01*
X94903571Y-105653571D01*
X94860714Y-105653571D01*
X94796428Y-105675000D01*
X94775000Y-105696428D01*
X94625000Y-105653571D02*
X94346428Y-105653571D01*
X94496428Y-105825000D01*
X94432142Y-105825000D01*
X94389285Y-105846428D01*
X94367857Y-105867857D01*
X94346428Y-105910714D01*
X94346428Y-106017857D01*
X94367857Y-106060714D01*
X94389285Y-106082142D01*
X94432142Y-106103571D01*
X94560714Y-106103571D01*
X94603571Y-106082142D01*
X94625000Y-106060714D01*
G04 #@! TO.C,C4*
X93375000Y-106960714D02*
X93396428Y-106982142D01*
X93460714Y-107003571D01*
X93503571Y-107003571D01*
X93567857Y-106982142D01*
X93610714Y-106939285D01*
X93632142Y-106896428D01*
X93653571Y-106810714D01*
X93653571Y-106746428D01*
X93632142Y-106660714D01*
X93610714Y-106617857D01*
X93567857Y-106575000D01*
X93503571Y-106553571D01*
X93460714Y-106553571D01*
X93396428Y-106575000D01*
X93375000Y-106596428D01*
X92989285Y-106703571D02*
X92989285Y-107003571D01*
X93096428Y-106532142D02*
X93203571Y-106853571D01*
X92925000Y-106853571D01*
G04 #@! TO.C,C49*
X89789285Y-53890714D02*
X89810714Y-53912142D01*
X89875000Y-53933571D01*
X89917857Y-53933571D01*
X89982142Y-53912142D01*
X90025000Y-53869285D01*
X90046428Y-53826428D01*
X90067857Y-53740714D01*
X90067857Y-53676428D01*
X90046428Y-53590714D01*
X90025000Y-53547857D01*
X89982142Y-53505000D01*
X89917857Y-53483571D01*
X89875000Y-53483571D01*
X89810714Y-53505000D01*
X89789285Y-53526428D01*
X89403571Y-53633571D02*
X89403571Y-53933571D01*
X89510714Y-53462142D02*
X89617857Y-53783571D01*
X89339285Y-53783571D01*
X89146428Y-53933571D02*
X89060714Y-53933571D01*
X89017857Y-53912142D01*
X88996428Y-53890714D01*
X88953571Y-53826428D01*
X88932142Y-53740714D01*
X88932142Y-53569285D01*
X88953571Y-53526428D01*
X88975000Y-53505000D01*
X89017857Y-53483571D01*
X89103571Y-53483571D01*
X89146428Y-53505000D01*
X89167857Y-53526428D01*
X89189285Y-53569285D01*
X89189285Y-53676428D01*
X89167857Y-53719285D01*
X89146428Y-53740714D01*
X89103571Y-53762142D01*
X89017857Y-53762142D01*
X88975000Y-53740714D01*
X88953571Y-53719285D01*
X88932142Y-53676428D01*
G04 #@! TO.C,C5*
X105338700Y-95460714D02*
X105360128Y-95482142D01*
X105424414Y-95503571D01*
X105467271Y-95503571D01*
X105531557Y-95482142D01*
X105574414Y-95439285D01*
X105595842Y-95396428D01*
X105617271Y-95310714D01*
X105617271Y-95246428D01*
X105595842Y-95160714D01*
X105574414Y-95117857D01*
X105531557Y-95075000D01*
X105467271Y-95053571D01*
X105424414Y-95053571D01*
X105360128Y-95075000D01*
X105338700Y-95096428D01*
X104931557Y-95053571D02*
X105145842Y-95053571D01*
X105167271Y-95267857D01*
X105145842Y-95246428D01*
X105102985Y-95225000D01*
X104995842Y-95225000D01*
X104952985Y-95246428D01*
X104931557Y-95267857D01*
X104910128Y-95310714D01*
X104910128Y-95417857D01*
X104931557Y-95460714D01*
X104952985Y-95482142D01*
X104995842Y-95503571D01*
X105102985Y-95503571D01*
X105145842Y-95482142D01*
X105167271Y-95460714D01*
G04 #@! TO.C,C15*
X113315485Y-107060714D02*
X113336914Y-107082142D01*
X113401200Y-107103571D01*
X113444057Y-107103571D01*
X113508342Y-107082142D01*
X113551200Y-107039285D01*
X113572628Y-106996428D01*
X113594057Y-106910714D01*
X113594057Y-106846428D01*
X113572628Y-106760714D01*
X113551200Y-106717857D01*
X113508342Y-106675000D01*
X113444057Y-106653571D01*
X113401200Y-106653571D01*
X113336914Y-106675000D01*
X113315485Y-106696428D01*
X112886914Y-107103571D02*
X113144057Y-107103571D01*
X113015485Y-107103571D02*
X113015485Y-106653571D01*
X113058342Y-106717857D01*
X113101200Y-106760714D01*
X113144057Y-106782142D01*
X112479771Y-106653571D02*
X112694057Y-106653571D01*
X112715485Y-106867857D01*
X112694057Y-106846428D01*
X112651200Y-106825000D01*
X112544057Y-106825000D01*
X112501200Y-106846428D01*
X112479771Y-106867857D01*
X112458342Y-106910714D01*
X112458342Y-107017857D01*
X112479771Y-107060714D01*
X112501200Y-107082142D01*
X112544057Y-107103571D01*
X112651200Y-107103571D01*
X112694057Y-107082142D01*
X112715485Y-107060714D01*
G04 #@! TO.C,C7*
X95975000Y-101560714D02*
X95996428Y-101582142D01*
X96060714Y-101603571D01*
X96103571Y-101603571D01*
X96167857Y-101582142D01*
X96210714Y-101539285D01*
X96232142Y-101496428D01*
X96253571Y-101410714D01*
X96253571Y-101346428D01*
X96232142Y-101260714D01*
X96210714Y-101217857D01*
X96167857Y-101175000D01*
X96103571Y-101153571D01*
X96060714Y-101153571D01*
X95996428Y-101175000D01*
X95975000Y-101196428D01*
X95825000Y-101153571D02*
X95525000Y-101153571D01*
X95717857Y-101603571D01*
G04 #@! TO.C,C8*
X102260714Y-98299600D02*
X102282142Y-98278171D01*
X102303571Y-98213885D01*
X102303571Y-98171028D01*
X102282142Y-98106742D01*
X102239285Y-98063885D01*
X102196428Y-98042457D01*
X102110714Y-98021028D01*
X102046428Y-98021028D01*
X101960714Y-98042457D01*
X101917857Y-98063885D01*
X101875000Y-98106742D01*
X101853571Y-98171028D01*
X101853571Y-98213885D01*
X101875000Y-98278171D01*
X101896428Y-98299600D01*
X102046428Y-98556742D02*
X102025000Y-98513885D01*
X102003571Y-98492457D01*
X101960714Y-98471028D01*
X101939285Y-98471028D01*
X101896428Y-98492457D01*
X101875000Y-98513885D01*
X101853571Y-98556742D01*
X101853571Y-98642457D01*
X101875000Y-98685314D01*
X101896428Y-98706742D01*
X101939285Y-98728171D01*
X101960714Y-98728171D01*
X102003571Y-98706742D01*
X102025000Y-98685314D01*
X102046428Y-98642457D01*
X102046428Y-98556742D01*
X102067857Y-98513885D01*
X102089285Y-98492457D01*
X102132142Y-98471028D01*
X102217857Y-98471028D01*
X102260714Y-98492457D01*
X102282142Y-98513885D01*
X102303571Y-98556742D01*
X102303571Y-98642457D01*
X102282142Y-98685314D01*
X102260714Y-98706742D01*
X102217857Y-98728171D01*
X102132142Y-98728171D01*
X102089285Y-98706742D01*
X102067857Y-98685314D01*
X102046428Y-98642457D01*
G04 #@! TO.C,C9*
X60975000Y-99260713D02*
X60996428Y-99282141D01*
X61060714Y-99303570D01*
X61103571Y-99303570D01*
X61167857Y-99282141D01*
X61210714Y-99239284D01*
X61232142Y-99196427D01*
X61253571Y-99110713D01*
X61253571Y-99046427D01*
X61232142Y-98960713D01*
X61210714Y-98917856D01*
X61167857Y-98874999D01*
X61103571Y-98853570D01*
X61060714Y-98853570D01*
X60996428Y-98874999D01*
X60975000Y-98896427D01*
X60760714Y-99303570D02*
X60675000Y-99303570D01*
X60632142Y-99282141D01*
X60610714Y-99260713D01*
X60567857Y-99196427D01*
X60546428Y-99110713D01*
X60546428Y-98939284D01*
X60567857Y-98896427D01*
X60589285Y-98874999D01*
X60632142Y-98853570D01*
X60717857Y-98853570D01*
X60760714Y-98874999D01*
X60782142Y-98896427D01*
X60803571Y-98939284D01*
X60803571Y-99046427D01*
X60782142Y-99089284D01*
X60760714Y-99110713D01*
X60717857Y-99132141D01*
X60632142Y-99132141D01*
X60589285Y-99110713D01*
X60567857Y-99089284D01*
X60546428Y-99046427D01*
G04 #@! TO.C,C10*
X105502985Y-110260714D02*
X105524414Y-110282142D01*
X105588700Y-110303571D01*
X105631557Y-110303571D01*
X105695842Y-110282142D01*
X105738700Y-110239285D01*
X105760128Y-110196428D01*
X105781557Y-110110714D01*
X105781557Y-110046428D01*
X105760128Y-109960714D01*
X105738700Y-109917857D01*
X105695842Y-109875000D01*
X105631557Y-109853571D01*
X105588700Y-109853571D01*
X105524414Y-109875000D01*
X105502985Y-109896428D01*
X105074414Y-110303571D02*
X105331557Y-110303571D01*
X105202985Y-110303571D02*
X105202985Y-109853571D01*
X105245842Y-109917857D01*
X105288700Y-109960714D01*
X105331557Y-109982142D01*
X104795842Y-109853571D02*
X104752985Y-109853571D01*
X104710128Y-109875000D01*
X104688700Y-109896428D01*
X104667271Y-109939285D01*
X104645842Y-110025000D01*
X104645842Y-110132142D01*
X104667271Y-110217857D01*
X104688700Y-110260714D01*
X104710128Y-110282142D01*
X104752985Y-110303571D01*
X104795842Y-110303571D01*
X104838700Y-110282142D01*
X104860128Y-110260714D01*
X104881557Y-110217857D01*
X104902985Y-110132142D01*
X104902985Y-110025000D01*
X104881557Y-109939285D01*
X104860128Y-109896428D01*
X104838700Y-109875000D01*
X104795842Y-109853571D01*
G04 #@! TO.C,C11*
X100289285Y-102560714D02*
X100310714Y-102582142D01*
X100375000Y-102603571D01*
X100417857Y-102603571D01*
X100482142Y-102582142D01*
X100525000Y-102539285D01*
X100546428Y-102496428D01*
X100567857Y-102410714D01*
X100567857Y-102346428D01*
X100546428Y-102260714D01*
X100525000Y-102217857D01*
X100482142Y-102175000D01*
X100417857Y-102153571D01*
X100375000Y-102153571D01*
X100310714Y-102175000D01*
X100289285Y-102196428D01*
X99860714Y-102603571D02*
X100117857Y-102603571D01*
X99989285Y-102603571D02*
X99989285Y-102153571D01*
X100032142Y-102217857D01*
X100075000Y-102260714D01*
X100117857Y-102282142D01*
X99432142Y-102603571D02*
X99689285Y-102603571D01*
X99560714Y-102603571D02*
X99560714Y-102153571D01*
X99603571Y-102217857D01*
X99646428Y-102260714D01*
X99689285Y-102282142D01*
G04 #@! TO.C,C12*
X101339285Y-105210714D02*
X101360714Y-105232142D01*
X101425000Y-105253571D01*
X101467857Y-105253571D01*
X101532142Y-105232142D01*
X101575000Y-105189285D01*
X101596428Y-105146428D01*
X101617857Y-105060714D01*
X101617857Y-104996428D01*
X101596428Y-104910714D01*
X101575000Y-104867857D01*
X101532142Y-104825000D01*
X101467857Y-104803571D01*
X101425000Y-104803571D01*
X101360714Y-104825000D01*
X101339285Y-104846428D01*
X100910714Y-105253571D02*
X101167857Y-105253571D01*
X101039285Y-105253571D02*
X101039285Y-104803571D01*
X101082142Y-104867857D01*
X101125000Y-104910714D01*
X101167857Y-104932142D01*
X100739285Y-104846428D02*
X100717857Y-104825000D01*
X100675000Y-104803571D01*
X100567857Y-104803571D01*
X100525000Y-104825000D01*
X100503571Y-104846428D01*
X100482142Y-104889285D01*
X100482142Y-104932142D01*
X100503571Y-104996428D01*
X100760714Y-105253571D01*
X100482142Y-105253571D01*
G04 #@! TO.C,C13*
X66664285Y-87610714D02*
X66685714Y-87632142D01*
X66750000Y-87653571D01*
X66792857Y-87653571D01*
X66857142Y-87632142D01*
X66900000Y-87589285D01*
X66921428Y-87546428D01*
X66942857Y-87460714D01*
X66942857Y-87396428D01*
X66921428Y-87310714D01*
X66900000Y-87267857D01*
X66857142Y-87225000D01*
X66792857Y-87203571D01*
X66750000Y-87203571D01*
X66685714Y-87225000D01*
X66664285Y-87246428D01*
X66235714Y-87653571D02*
X66492857Y-87653571D01*
X66364285Y-87653571D02*
X66364285Y-87203571D01*
X66407142Y-87267857D01*
X66450000Y-87310714D01*
X66492857Y-87332142D01*
X66085714Y-87203571D02*
X65807142Y-87203571D01*
X65957142Y-87375000D01*
X65892857Y-87375000D01*
X65850000Y-87396428D01*
X65828571Y-87417857D01*
X65807142Y-87460714D01*
X65807142Y-87567857D01*
X65828571Y-87610714D01*
X65850000Y-87632142D01*
X65892857Y-87653571D01*
X66021428Y-87653571D01*
X66064285Y-87632142D01*
X66085714Y-87610714D01*
G04 #@! TO.C,C37*
X89989285Y-91460714D02*
X90010714Y-91482142D01*
X90075000Y-91503571D01*
X90117857Y-91503571D01*
X90182142Y-91482142D01*
X90225000Y-91439285D01*
X90246428Y-91396428D01*
X90267857Y-91310714D01*
X90267857Y-91246428D01*
X90246428Y-91160714D01*
X90225000Y-91117857D01*
X90182142Y-91075000D01*
X90117857Y-91053571D01*
X90075000Y-91053571D01*
X90010714Y-91075000D01*
X89989285Y-91096428D01*
X89839285Y-91053571D02*
X89560714Y-91053571D01*
X89710714Y-91225000D01*
X89646428Y-91225000D01*
X89603571Y-91246428D01*
X89582142Y-91267857D01*
X89560714Y-91310714D01*
X89560714Y-91417857D01*
X89582142Y-91460714D01*
X89603571Y-91482142D01*
X89646428Y-91503571D01*
X89775000Y-91503571D01*
X89817857Y-91482142D01*
X89839285Y-91460714D01*
X89410714Y-91053571D02*
X89110714Y-91053571D01*
X89303571Y-91503571D01*
G04 #@! TO.C,C6*
X98275000Y-95560714D02*
X98296428Y-95582142D01*
X98360714Y-95603571D01*
X98403571Y-95603571D01*
X98467857Y-95582142D01*
X98510714Y-95539285D01*
X98532142Y-95496428D01*
X98553571Y-95410714D01*
X98553571Y-95346428D01*
X98532142Y-95260714D01*
X98510714Y-95217857D01*
X98467857Y-95175000D01*
X98403571Y-95153571D01*
X98360714Y-95153571D01*
X98296428Y-95175000D01*
X98275000Y-95196428D01*
X97889285Y-95153571D02*
X97975000Y-95153571D01*
X98017857Y-95175000D01*
X98039285Y-95196428D01*
X98082142Y-95260714D01*
X98103571Y-95346428D01*
X98103571Y-95517857D01*
X98082142Y-95560714D01*
X98060714Y-95582142D01*
X98017857Y-95603571D01*
X97932142Y-95603571D01*
X97889285Y-95582142D01*
X97867857Y-95560714D01*
X97846428Y-95517857D01*
X97846428Y-95410714D01*
X97867857Y-95367857D01*
X97889285Y-95346428D01*
X97932142Y-95325000D01*
X98017857Y-95325000D01*
X98060714Y-95346428D01*
X98082142Y-95367857D01*
X98103571Y-95410714D01*
G04 #@! TO.C,C1*
X114660714Y-101225000D02*
X114682142Y-101203571D01*
X114703571Y-101139285D01*
X114703571Y-101096428D01*
X114682142Y-101032142D01*
X114639285Y-100989285D01*
X114596428Y-100967857D01*
X114510714Y-100946428D01*
X114446428Y-100946428D01*
X114360714Y-100967857D01*
X114317857Y-100989285D01*
X114275000Y-101032142D01*
X114253571Y-101096428D01*
X114253571Y-101139285D01*
X114275000Y-101203571D01*
X114296428Y-101225000D01*
X114703571Y-101653571D02*
X114703571Y-101396428D01*
X114703571Y-101525000D02*
X114253571Y-101525000D01*
X114317857Y-101482142D01*
X114360714Y-101439285D01*
X114382142Y-101396428D01*
G04 #@! TO.C,C45*
X143249549Y-116517349D02*
X143266054Y-116542764D01*
X143324480Y-116577090D01*
X143366401Y-116586001D01*
X143433737Y-116578406D01*
X143484568Y-116545396D01*
X143514439Y-116507931D01*
X143553220Y-116428545D01*
X143566586Y-116365664D01*
X143563446Y-116277367D01*
X143551397Y-116230992D01*
X143518387Y-116180160D01*
X143459961Y-116145834D01*
X143418040Y-116136924D01*
X143350704Y-116144518D01*
X143325289Y-116161023D01*
X142925727Y-116185630D02*
X142863353Y-116479075D01*
X143066170Y-116040224D02*
X143104143Y-116376905D01*
X142831659Y-116318987D01*
X142516747Y-115945348D02*
X142726350Y-115989901D01*
X142702758Y-116203959D01*
X142686253Y-116178543D01*
X142648788Y-116148673D01*
X142543986Y-116126396D01*
X142497610Y-116138446D01*
X142472195Y-116154951D01*
X142442324Y-116192417D01*
X142420048Y-116297218D01*
X142432097Y-116343594D01*
X142448602Y-116369009D01*
X142486068Y-116398880D01*
X142590869Y-116421157D01*
X142637245Y-116409107D01*
X142662661Y-116392602D01*
G04 #@! TO.C,C18*
X102415486Y-71760714D02*
X102436915Y-71782142D01*
X102501201Y-71803571D01*
X102544058Y-71803571D01*
X102608343Y-71782142D01*
X102651201Y-71739285D01*
X102672629Y-71696428D01*
X102694058Y-71610714D01*
X102694058Y-71546428D01*
X102672629Y-71460714D01*
X102651201Y-71417857D01*
X102608343Y-71375000D01*
X102544058Y-71353571D01*
X102501201Y-71353571D01*
X102436915Y-71375000D01*
X102415486Y-71396428D01*
X101986915Y-71803571D02*
X102244058Y-71803571D01*
X102115486Y-71803571D02*
X102115486Y-71353571D01*
X102158343Y-71417857D01*
X102201201Y-71460714D01*
X102244058Y-71482142D01*
X101729772Y-71546428D02*
X101772629Y-71525000D01*
X101794058Y-71503571D01*
X101815486Y-71460714D01*
X101815486Y-71439285D01*
X101794058Y-71396428D01*
X101772629Y-71375000D01*
X101729772Y-71353571D01*
X101644058Y-71353571D01*
X101601201Y-71375000D01*
X101579772Y-71396428D01*
X101558343Y-71439285D01*
X101558343Y-71460714D01*
X101579772Y-71503571D01*
X101601201Y-71525000D01*
X101644058Y-71546428D01*
X101729772Y-71546428D01*
X101772629Y-71567857D01*
X101794058Y-71589285D01*
X101815486Y-71632142D01*
X101815486Y-71717857D01*
X101794058Y-71760714D01*
X101772629Y-71782142D01*
X101729772Y-71803571D01*
X101644058Y-71803571D01*
X101601201Y-71782142D01*
X101579772Y-71760714D01*
X101558343Y-71717857D01*
X101558343Y-71632142D01*
X101579772Y-71589285D01*
X101601201Y-71567857D01*
X101644058Y-71546428D01*
G04 #@! TO.C,C43*
X64118198Y-129909086D02*
X64148502Y-129909086D01*
X64209111Y-129878781D01*
X64239416Y-129848477D01*
X64269720Y-129787867D01*
X64269720Y-129727258D01*
X64254568Y-129681801D01*
X64209111Y-129606040D01*
X64163654Y-129560583D01*
X64087893Y-129515126D01*
X64042436Y-129499974D01*
X63981827Y-129499974D01*
X63921218Y-129530279D01*
X63890913Y-129560583D01*
X63860609Y-129621192D01*
X63860609Y-129651497D01*
X63663629Y-130000000D02*
X63875761Y-130212132D01*
X63618172Y-129803020D02*
X63921218Y-129954543D01*
X63724238Y-130151522D01*
X63421192Y-130030304D02*
X63224213Y-130227284D01*
X63451497Y-130242436D01*
X63406040Y-130287893D01*
X63390888Y-130333350D01*
X63390888Y-130363654D01*
X63406040Y-130409111D01*
X63481801Y-130484873D01*
X63527258Y-130500025D01*
X63557563Y-130500025D01*
X63603020Y-130484873D01*
X63693933Y-130393959D01*
X63709086Y-130348502D01*
X63709086Y-130318198D01*
G04 #@! TO.C,C41*
X88189285Y-108060714D02*
X88210714Y-108082142D01*
X88275000Y-108103571D01*
X88317857Y-108103571D01*
X88382142Y-108082142D01*
X88425000Y-108039285D01*
X88446428Y-107996428D01*
X88467857Y-107910714D01*
X88467857Y-107846428D01*
X88446428Y-107760714D01*
X88425000Y-107717857D01*
X88382142Y-107675000D01*
X88317857Y-107653571D01*
X88275000Y-107653571D01*
X88210714Y-107675000D01*
X88189285Y-107696428D01*
X87803571Y-107803571D02*
X87803571Y-108103571D01*
X87910714Y-107632142D02*
X88017857Y-107953571D01*
X87739285Y-107953571D01*
X87332142Y-108103571D02*
X87589285Y-108103571D01*
X87460714Y-108103571D02*
X87460714Y-107653571D01*
X87503571Y-107717857D01*
X87546428Y-107760714D01*
X87589285Y-107782142D01*
G04 #@! TO.C,C40*
X89889285Y-108060714D02*
X89910714Y-108082142D01*
X89975000Y-108103571D01*
X90017857Y-108103571D01*
X90082142Y-108082142D01*
X90125000Y-108039285D01*
X90146428Y-107996428D01*
X90167857Y-107910714D01*
X90167857Y-107846428D01*
X90146428Y-107760714D01*
X90125000Y-107717857D01*
X90082142Y-107675000D01*
X90017857Y-107653571D01*
X89975000Y-107653571D01*
X89910714Y-107675000D01*
X89889285Y-107696428D01*
X89503571Y-107803571D02*
X89503571Y-108103571D01*
X89610714Y-107632142D02*
X89717857Y-107953571D01*
X89439285Y-107953571D01*
X89182142Y-107653571D02*
X89139285Y-107653571D01*
X89096428Y-107675000D01*
X89075000Y-107696428D01*
X89053571Y-107739285D01*
X89032142Y-107825000D01*
X89032142Y-107932142D01*
X89053571Y-108017857D01*
X89075000Y-108060714D01*
X89096428Y-108082142D01*
X89139285Y-108103571D01*
X89182142Y-108103571D01*
X89225000Y-108082142D01*
X89246428Y-108060714D01*
X89267857Y-108017857D01*
X89289285Y-107932142D01*
X89289285Y-107825000D01*
X89267857Y-107739285D01*
X89246428Y-107696428D01*
X89225000Y-107675000D01*
X89182142Y-107653571D01*
G04 #@! TO.C,C25*
X114060714Y-96085314D02*
X114082142Y-96063885D01*
X114103571Y-95999600D01*
X114103571Y-95956742D01*
X114082142Y-95892457D01*
X114039285Y-95849600D01*
X113996428Y-95828171D01*
X113910714Y-95806742D01*
X113846428Y-95806742D01*
X113760714Y-95828171D01*
X113717857Y-95849600D01*
X113675000Y-95892457D01*
X113653571Y-95956742D01*
X113653571Y-95999600D01*
X113675000Y-96063885D01*
X113696428Y-96085314D01*
X113696428Y-96256742D02*
X113675000Y-96278171D01*
X113653571Y-96321028D01*
X113653571Y-96428171D01*
X113675000Y-96471028D01*
X113696428Y-96492457D01*
X113739285Y-96513885D01*
X113782142Y-96513885D01*
X113846428Y-96492457D01*
X114103571Y-96235314D01*
X114103571Y-96513885D01*
X113653571Y-96921028D02*
X113653571Y-96706742D01*
X113867857Y-96685314D01*
X113846428Y-96706742D01*
X113825000Y-96749600D01*
X113825000Y-96856742D01*
X113846428Y-96899600D01*
X113867857Y-96921028D01*
X113910714Y-96942457D01*
X114017857Y-96942457D01*
X114060714Y-96921028D01*
X114082142Y-96899600D01*
X114103571Y-96856742D01*
X114103571Y-96749600D01*
X114082142Y-96706742D01*
X114060714Y-96685314D01*
G04 #@! TO.C,C16*
X138939285Y-73960714D02*
X138960714Y-73982142D01*
X139025000Y-74003571D01*
X139067857Y-74003571D01*
X139132142Y-73982142D01*
X139175000Y-73939285D01*
X139196428Y-73896428D01*
X139217857Y-73810714D01*
X139217857Y-73746428D01*
X139196428Y-73660714D01*
X139175000Y-73617857D01*
X139132142Y-73575000D01*
X139067857Y-73553571D01*
X139025000Y-73553571D01*
X138960714Y-73575000D01*
X138939285Y-73596428D01*
X138510714Y-74003571D02*
X138767857Y-74003571D01*
X138639285Y-74003571D02*
X138639285Y-73553571D01*
X138682142Y-73617857D01*
X138725000Y-73660714D01*
X138767857Y-73682142D01*
X138125000Y-73553571D02*
X138210714Y-73553571D01*
X138253571Y-73575000D01*
X138275000Y-73596428D01*
X138317857Y-73660714D01*
X138339285Y-73746428D01*
X138339285Y-73917857D01*
X138317857Y-73960714D01*
X138296428Y-73982142D01*
X138253571Y-74003571D01*
X138167857Y-74003571D01*
X138125000Y-73982142D01*
X138103571Y-73960714D01*
X138082142Y-73917857D01*
X138082142Y-73810714D01*
X138103571Y-73767857D01*
X138125000Y-73746428D01*
X138167857Y-73725000D01*
X138253571Y-73725000D01*
X138296428Y-73746428D01*
X138317857Y-73767857D01*
X138339285Y-73810714D01*
G04 #@! TO.C,C42*
X93960714Y-98110714D02*
X93982142Y-98089285D01*
X94003571Y-98025000D01*
X94003571Y-97982142D01*
X93982142Y-97917857D01*
X93939285Y-97875000D01*
X93896428Y-97853571D01*
X93810714Y-97832142D01*
X93746428Y-97832142D01*
X93660714Y-97853571D01*
X93617857Y-97875000D01*
X93575000Y-97917857D01*
X93553571Y-97982142D01*
X93553571Y-98025000D01*
X93575000Y-98089285D01*
X93596428Y-98110714D01*
X93703571Y-98496428D02*
X94003571Y-98496428D01*
X93532142Y-98389285D02*
X93853571Y-98282142D01*
X93853571Y-98560714D01*
X93596428Y-98710714D02*
X93575000Y-98732142D01*
X93553571Y-98775000D01*
X93553571Y-98882142D01*
X93575000Y-98925000D01*
X93596428Y-98946428D01*
X93639285Y-98967857D01*
X93682142Y-98967857D01*
X93746428Y-98946428D01*
X94003571Y-98689285D01*
X94003571Y-98967857D01*
G04 #@! TO.C,C31*
X136118198Y-70409086D02*
X136148502Y-70409086D01*
X136209111Y-70378781D01*
X136239416Y-70348477D01*
X136269720Y-70287867D01*
X136269720Y-70227258D01*
X136254568Y-70181801D01*
X136209111Y-70106040D01*
X136163654Y-70060583D01*
X136087893Y-70015126D01*
X136042436Y-69999974D01*
X135981827Y-69999974D01*
X135921218Y-70030279D01*
X135890913Y-70060583D01*
X135860609Y-70121192D01*
X135860609Y-70151497D01*
X135724238Y-70227258D02*
X135527258Y-70424238D01*
X135754543Y-70439390D01*
X135709086Y-70484847D01*
X135693933Y-70530304D01*
X135693933Y-70560609D01*
X135709086Y-70606066D01*
X135784847Y-70681827D01*
X135830304Y-70696979D01*
X135860609Y-70696979D01*
X135906066Y-70681827D01*
X135996979Y-70590913D01*
X136012132Y-70545456D01*
X136012132Y-70515152D01*
X135542411Y-71045482D02*
X135724238Y-70863654D01*
X135633324Y-70954568D02*
X135315126Y-70636370D01*
X135390888Y-70651522D01*
X135451497Y-70651522D01*
X135496954Y-70636370D01*
G04 #@! TO.C,C30*
X104789285Y-91460714D02*
X104810714Y-91482142D01*
X104875000Y-91503571D01*
X104917857Y-91503571D01*
X104982142Y-91482142D01*
X105025000Y-91439285D01*
X105046428Y-91396428D01*
X105067857Y-91310714D01*
X105067857Y-91246428D01*
X105046428Y-91160714D01*
X105025000Y-91117857D01*
X104982142Y-91075000D01*
X104917857Y-91053571D01*
X104875000Y-91053571D01*
X104810714Y-91075000D01*
X104789285Y-91096428D01*
X104639285Y-91053571D02*
X104360714Y-91053571D01*
X104510714Y-91225000D01*
X104446428Y-91225000D01*
X104403571Y-91246428D01*
X104382142Y-91267857D01*
X104360714Y-91310714D01*
X104360714Y-91417857D01*
X104382142Y-91460714D01*
X104403571Y-91482142D01*
X104446428Y-91503571D01*
X104575000Y-91503571D01*
X104617857Y-91482142D01*
X104639285Y-91460714D01*
X104082142Y-91053571D02*
X104039285Y-91053571D01*
X103996428Y-91075000D01*
X103975000Y-91096428D01*
X103953571Y-91139285D01*
X103932142Y-91225000D01*
X103932142Y-91332142D01*
X103953571Y-91417857D01*
X103975000Y-91460714D01*
X103996428Y-91482142D01*
X104039285Y-91503571D01*
X104082142Y-91503571D01*
X104125000Y-91482142D01*
X104146428Y-91460714D01*
X104167857Y-91417857D01*
X104189285Y-91332142D01*
X104189285Y-91225000D01*
X104167857Y-91139285D01*
X104146428Y-91096428D01*
X104125000Y-91075000D01*
X104082142Y-91053571D01*
G04 #@! TO.C,C27*
X104889285Y-86260714D02*
X104910714Y-86282142D01*
X104975000Y-86303571D01*
X105017857Y-86303571D01*
X105082142Y-86282142D01*
X105125000Y-86239285D01*
X105146428Y-86196428D01*
X105167857Y-86110714D01*
X105167857Y-86046428D01*
X105146428Y-85960714D01*
X105125000Y-85917857D01*
X105082142Y-85875000D01*
X105017857Y-85853571D01*
X104975000Y-85853571D01*
X104910714Y-85875000D01*
X104889285Y-85896428D01*
X104717857Y-85896428D02*
X104696428Y-85875000D01*
X104653571Y-85853571D01*
X104546428Y-85853571D01*
X104503571Y-85875000D01*
X104482142Y-85896428D01*
X104460714Y-85939285D01*
X104460714Y-85982142D01*
X104482142Y-86046428D01*
X104739285Y-86303571D01*
X104460714Y-86303571D01*
X104310714Y-85853571D02*
X104010714Y-85853571D01*
X104203571Y-86303571D01*
G04 #@! TO.C,C34*
X89989285Y-86260714D02*
X90010714Y-86282142D01*
X90075000Y-86303571D01*
X90117857Y-86303571D01*
X90182142Y-86282142D01*
X90225000Y-86239285D01*
X90246428Y-86196428D01*
X90267857Y-86110714D01*
X90267857Y-86046428D01*
X90246428Y-85960714D01*
X90225000Y-85917857D01*
X90182142Y-85875000D01*
X90117857Y-85853571D01*
X90075000Y-85853571D01*
X90010714Y-85875000D01*
X89989285Y-85896428D01*
X89839285Y-85853571D02*
X89560714Y-85853571D01*
X89710714Y-86025000D01*
X89646428Y-86025000D01*
X89603571Y-86046428D01*
X89582142Y-86067857D01*
X89560714Y-86110714D01*
X89560714Y-86217857D01*
X89582142Y-86260714D01*
X89603571Y-86282142D01*
X89646428Y-86303571D01*
X89775000Y-86303571D01*
X89817857Y-86282142D01*
X89839285Y-86260714D01*
X89175000Y-86003571D02*
X89175000Y-86303571D01*
X89282142Y-85832142D02*
X89389285Y-86153571D01*
X89110714Y-86153571D01*
G04 #@! TO.C,C24*
X103760714Y-64810714D02*
X103782142Y-64789285D01*
X103803571Y-64725000D01*
X103803571Y-64682142D01*
X103782142Y-64617857D01*
X103739285Y-64575000D01*
X103696428Y-64553571D01*
X103610714Y-64532142D01*
X103546428Y-64532142D01*
X103460714Y-64553571D01*
X103417857Y-64575000D01*
X103375000Y-64617857D01*
X103353571Y-64682142D01*
X103353571Y-64725000D01*
X103375000Y-64789285D01*
X103396428Y-64810714D01*
X103396428Y-64982142D02*
X103375000Y-65003571D01*
X103353571Y-65046428D01*
X103353571Y-65153571D01*
X103375000Y-65196428D01*
X103396428Y-65217857D01*
X103439285Y-65239285D01*
X103482142Y-65239285D01*
X103546428Y-65217857D01*
X103803571Y-64960714D01*
X103803571Y-65239285D01*
X103503571Y-65625000D02*
X103803571Y-65625000D01*
X103332142Y-65517857D02*
X103653571Y-65410714D01*
X103653571Y-65689285D01*
G04 #@! TO.C,C23*
X102060714Y-72885314D02*
X102082142Y-72863885D01*
X102103571Y-72799600D01*
X102103571Y-72756742D01*
X102082142Y-72692457D01*
X102039285Y-72649600D01*
X101996428Y-72628171D01*
X101910714Y-72606742D01*
X101846428Y-72606742D01*
X101760714Y-72628171D01*
X101717857Y-72649600D01*
X101675000Y-72692457D01*
X101653571Y-72756742D01*
X101653571Y-72799600D01*
X101675000Y-72863885D01*
X101696428Y-72885314D01*
X101696428Y-73056742D02*
X101675000Y-73078171D01*
X101653571Y-73121028D01*
X101653571Y-73228171D01*
X101675000Y-73271028D01*
X101696428Y-73292457D01*
X101739285Y-73313885D01*
X101782142Y-73313885D01*
X101846428Y-73292457D01*
X102103571Y-73035314D01*
X102103571Y-73313885D01*
X101653571Y-73463885D02*
X101653571Y-73742457D01*
X101825000Y-73592457D01*
X101825000Y-73656742D01*
X101846428Y-73699600D01*
X101867857Y-73721028D01*
X101910714Y-73742457D01*
X102017857Y-73742457D01*
X102060714Y-73721028D01*
X102082142Y-73699600D01*
X102103571Y-73656742D01*
X102103571Y-73528171D01*
X102082142Y-73485314D01*
X102060714Y-73463885D01*
G04 #@! TO.C,C21*
X108360714Y-67996116D02*
X108382142Y-67974687D01*
X108403571Y-67910402D01*
X108403571Y-67867544D01*
X108382142Y-67803259D01*
X108339285Y-67760402D01*
X108296428Y-67738973D01*
X108210714Y-67717544D01*
X108146428Y-67717544D01*
X108060714Y-67738973D01*
X108017857Y-67760402D01*
X107975000Y-67803259D01*
X107953571Y-67867544D01*
X107953571Y-67910402D01*
X107975000Y-67974687D01*
X107996428Y-67996116D01*
X107996428Y-68167544D02*
X107975000Y-68188973D01*
X107953571Y-68231830D01*
X107953571Y-68338973D01*
X107975000Y-68381830D01*
X107996428Y-68403259D01*
X108039285Y-68424687D01*
X108082142Y-68424687D01*
X108146428Y-68403259D01*
X108403571Y-68146116D01*
X108403571Y-68424687D01*
X108403571Y-68853259D02*
X108403571Y-68596116D01*
X108403571Y-68724687D02*
X107953571Y-68724687D01*
X108017857Y-68681830D01*
X108060714Y-68638973D01*
X108082142Y-68596116D01*
G04 #@! TO.C,C19*
X98689285Y-72060714D02*
X98710714Y-72082142D01*
X98775000Y-72103571D01*
X98817857Y-72103571D01*
X98882142Y-72082142D01*
X98925000Y-72039285D01*
X98946428Y-71996428D01*
X98967857Y-71910714D01*
X98967857Y-71846428D01*
X98946428Y-71760714D01*
X98925000Y-71717857D01*
X98882142Y-71675000D01*
X98817857Y-71653571D01*
X98775000Y-71653571D01*
X98710714Y-71675000D01*
X98689285Y-71696428D01*
X98260714Y-72103571D02*
X98517857Y-72103571D01*
X98389285Y-72103571D02*
X98389285Y-71653571D01*
X98432142Y-71717857D01*
X98475000Y-71760714D01*
X98517857Y-71782142D01*
X98046428Y-72103571D02*
X97960714Y-72103571D01*
X97917857Y-72082142D01*
X97896428Y-72060714D01*
X97853571Y-71996428D01*
X97832142Y-71910714D01*
X97832142Y-71739285D01*
X97853571Y-71696428D01*
X97875000Y-71675000D01*
X97917857Y-71653571D01*
X98003571Y-71653571D01*
X98046428Y-71675000D01*
X98067857Y-71696428D01*
X98089285Y-71739285D01*
X98089285Y-71846428D01*
X98067857Y-71889285D01*
X98046428Y-71910714D01*
X98003571Y-71932142D01*
X97917857Y-71932142D01*
X97875000Y-71910714D01*
X97853571Y-71889285D01*
X97832142Y-71846428D01*
G04 #@! TO.C,C17*
X95360714Y-69085314D02*
X95382142Y-69063885D01*
X95403571Y-68999600D01*
X95403571Y-68956742D01*
X95382142Y-68892457D01*
X95339285Y-68849600D01*
X95296428Y-68828171D01*
X95210714Y-68806742D01*
X95146428Y-68806742D01*
X95060714Y-68828171D01*
X95017857Y-68849600D01*
X94975000Y-68892457D01*
X94953571Y-68956742D01*
X94953571Y-68999600D01*
X94975000Y-69063885D01*
X94996428Y-69085314D01*
X95403571Y-69513885D02*
X95403571Y-69256742D01*
X95403571Y-69385314D02*
X94953571Y-69385314D01*
X95017857Y-69342457D01*
X95060714Y-69299600D01*
X95082142Y-69256742D01*
X94953571Y-69663885D02*
X94953571Y-69963885D01*
X95403571Y-69771028D01*
G04 #@! TO.C,C29*
X102989285Y-91960714D02*
X103010714Y-91982142D01*
X103075000Y-92003571D01*
X103117857Y-92003571D01*
X103182142Y-91982142D01*
X103225000Y-91939285D01*
X103246428Y-91896428D01*
X103267857Y-91810714D01*
X103267857Y-91746428D01*
X103246428Y-91660714D01*
X103225000Y-91617857D01*
X103182142Y-91575000D01*
X103117857Y-91553571D01*
X103075000Y-91553571D01*
X103010714Y-91575000D01*
X102989285Y-91596428D01*
X102817857Y-91596428D02*
X102796428Y-91575000D01*
X102753571Y-91553571D01*
X102646428Y-91553571D01*
X102603571Y-91575000D01*
X102582142Y-91596428D01*
X102560714Y-91639285D01*
X102560714Y-91682142D01*
X102582142Y-91746428D01*
X102839285Y-92003571D01*
X102560714Y-92003571D01*
X102346428Y-92003571D02*
X102260714Y-92003571D01*
X102217857Y-91982142D01*
X102196428Y-91960714D01*
X102153571Y-91896428D01*
X102132142Y-91810714D01*
X102132142Y-91639285D01*
X102153571Y-91596428D01*
X102175000Y-91575000D01*
X102217857Y-91553571D01*
X102303571Y-91553571D01*
X102346428Y-91575000D01*
X102367857Y-91596428D01*
X102389285Y-91639285D01*
X102389285Y-91746428D01*
X102367857Y-91789285D01*
X102346428Y-91810714D01*
X102303571Y-91832142D01*
X102217857Y-91832142D01*
X102175000Y-91810714D01*
X102153571Y-91789285D01*
X102132142Y-91746428D01*
G04 #@! TO.C,C28*
X100989285Y-91960714D02*
X101010714Y-91982142D01*
X101075000Y-92003571D01*
X101117857Y-92003571D01*
X101182142Y-91982142D01*
X101225000Y-91939285D01*
X101246428Y-91896428D01*
X101267857Y-91810714D01*
X101267857Y-91746428D01*
X101246428Y-91660714D01*
X101225000Y-91617857D01*
X101182142Y-91575000D01*
X101117857Y-91553571D01*
X101075000Y-91553571D01*
X101010714Y-91575000D01*
X100989285Y-91596428D01*
X100817857Y-91596428D02*
X100796428Y-91575000D01*
X100753571Y-91553571D01*
X100646428Y-91553571D01*
X100603571Y-91575000D01*
X100582142Y-91596428D01*
X100560714Y-91639285D01*
X100560714Y-91682142D01*
X100582142Y-91746428D01*
X100839285Y-92003571D01*
X100560714Y-92003571D01*
X100303571Y-91746428D02*
X100346428Y-91725000D01*
X100367857Y-91703571D01*
X100389285Y-91660714D01*
X100389285Y-91639285D01*
X100367857Y-91596428D01*
X100346428Y-91575000D01*
X100303571Y-91553571D01*
X100217857Y-91553571D01*
X100175000Y-91575000D01*
X100153571Y-91596428D01*
X100132142Y-91639285D01*
X100132142Y-91660714D01*
X100153571Y-91703571D01*
X100175000Y-91725000D01*
X100217857Y-91746428D01*
X100303571Y-91746428D01*
X100346428Y-91767857D01*
X100367857Y-91789285D01*
X100389285Y-91832142D01*
X100389285Y-91917857D01*
X100367857Y-91960714D01*
X100346428Y-91982142D01*
X100303571Y-92003571D01*
X100217857Y-92003571D01*
X100175000Y-91982142D01*
X100153571Y-91960714D01*
X100132142Y-91917857D01*
X100132142Y-91832142D01*
X100153571Y-91789285D01*
X100175000Y-91767857D01*
X100217857Y-91746428D01*
G04 #@! TO.C,C36*
X86089285Y-91960714D02*
X86110714Y-91982142D01*
X86175000Y-92003571D01*
X86217857Y-92003571D01*
X86282142Y-91982142D01*
X86325000Y-91939285D01*
X86346428Y-91896428D01*
X86367857Y-91810714D01*
X86367857Y-91746428D01*
X86346428Y-91660714D01*
X86325000Y-91617857D01*
X86282142Y-91575000D01*
X86217857Y-91553571D01*
X86175000Y-91553571D01*
X86110714Y-91575000D01*
X86089285Y-91596428D01*
X85939285Y-91553571D02*
X85660714Y-91553571D01*
X85810714Y-91725000D01*
X85746428Y-91725000D01*
X85703571Y-91746428D01*
X85682142Y-91767857D01*
X85660714Y-91810714D01*
X85660714Y-91917857D01*
X85682142Y-91960714D01*
X85703571Y-91982142D01*
X85746428Y-92003571D01*
X85875000Y-92003571D01*
X85917857Y-91982142D01*
X85939285Y-91960714D01*
X85275000Y-91553571D02*
X85360714Y-91553571D01*
X85403571Y-91575000D01*
X85425000Y-91596428D01*
X85467857Y-91660714D01*
X85489285Y-91746428D01*
X85489285Y-91917857D01*
X85467857Y-91960714D01*
X85446428Y-91982142D01*
X85403571Y-92003571D01*
X85317857Y-92003571D01*
X85275000Y-91982142D01*
X85253571Y-91960714D01*
X85232142Y-91917857D01*
X85232142Y-91810714D01*
X85253571Y-91767857D01*
X85275000Y-91746428D01*
X85317857Y-91725000D01*
X85403571Y-91725000D01*
X85446428Y-91746428D01*
X85467857Y-91767857D01*
X85489285Y-91810714D01*
G04 #@! TO.C,C35*
X88189285Y-91960714D02*
X88210714Y-91982142D01*
X88275000Y-92003571D01*
X88317857Y-92003571D01*
X88382142Y-91982142D01*
X88425000Y-91939285D01*
X88446428Y-91896428D01*
X88467857Y-91810714D01*
X88467857Y-91746428D01*
X88446428Y-91660714D01*
X88425000Y-91617857D01*
X88382142Y-91575000D01*
X88317857Y-91553571D01*
X88275000Y-91553571D01*
X88210714Y-91575000D01*
X88189285Y-91596428D01*
X88039285Y-91553571D02*
X87760714Y-91553571D01*
X87910714Y-91725000D01*
X87846428Y-91725000D01*
X87803571Y-91746428D01*
X87782142Y-91767857D01*
X87760714Y-91810714D01*
X87760714Y-91917857D01*
X87782142Y-91960714D01*
X87803571Y-91982142D01*
X87846428Y-92003571D01*
X87975000Y-92003571D01*
X88017857Y-91982142D01*
X88039285Y-91960714D01*
X87353571Y-91553571D02*
X87567857Y-91553571D01*
X87589285Y-91767857D01*
X87567857Y-91746428D01*
X87525000Y-91725000D01*
X87417857Y-91725000D01*
X87375000Y-91746428D01*
X87353571Y-91767857D01*
X87332142Y-91810714D01*
X87332142Y-91917857D01*
X87353571Y-91960714D01*
X87375000Y-91982142D01*
X87417857Y-92003571D01*
X87525000Y-92003571D01*
X87567857Y-91982142D01*
X87589285Y-91960714D01*
G04 #@! TO.C,D1*
X105532142Y-92803571D02*
X105532142Y-92353571D01*
X105425000Y-92353571D01*
X105360714Y-92375000D01*
X105317857Y-92417857D01*
X105296428Y-92460714D01*
X105275000Y-92546428D01*
X105275000Y-92610714D01*
X105296428Y-92696428D01*
X105317857Y-92739285D01*
X105360714Y-92782142D01*
X105425000Y-92803571D01*
X105532142Y-92803571D01*
X104846428Y-92803571D02*
X105103571Y-92803571D01*
X104975000Y-92803571D02*
X104975000Y-92353571D01*
X105017857Y-92417857D01*
X105060714Y-92460714D01*
X105103571Y-92482142D01*
G04 #@! TO.C,D3*
X90732142Y-92803571D02*
X90732142Y-92353571D01*
X90625000Y-92353571D01*
X90560714Y-92375000D01*
X90517857Y-92417857D01*
X90496428Y-92460714D01*
X90475000Y-92546428D01*
X90475000Y-92610714D01*
X90496428Y-92696428D01*
X90517857Y-92739285D01*
X90560714Y-92782142D01*
X90625000Y-92803571D01*
X90732142Y-92803571D01*
X90325000Y-92353571D02*
X90046428Y-92353571D01*
X90196428Y-92525000D01*
X90132142Y-92525000D01*
X90089285Y-92546428D01*
X90067857Y-92567857D01*
X90046428Y-92610714D01*
X90046428Y-92717857D01*
X90067857Y-92760714D01*
X90089285Y-92782142D01*
X90132142Y-92803571D01*
X90260714Y-92803571D01*
X90303571Y-92782142D01*
X90325000Y-92760714D01*
G04 #@! TO.C,D2*
X100132142Y-86303571D02*
X100132142Y-85853571D01*
X100025000Y-85853571D01*
X99960714Y-85875000D01*
X99917857Y-85917857D01*
X99896428Y-85960714D01*
X99875000Y-86046428D01*
X99875000Y-86110714D01*
X99896428Y-86196428D01*
X99917857Y-86239285D01*
X99960714Y-86282142D01*
X100025000Y-86303571D01*
X100132142Y-86303571D01*
X99703571Y-85896428D02*
X99682142Y-85875000D01*
X99639285Y-85853571D01*
X99532142Y-85853571D01*
X99489285Y-85875000D01*
X99467857Y-85896428D01*
X99446428Y-85939285D01*
X99446428Y-85982142D01*
X99467857Y-86046428D01*
X99725000Y-86303571D01*
X99446428Y-86303571D01*
G04 #@! TO.C,D4*
X92632142Y-73503571D02*
X92632142Y-73053571D01*
X92525000Y-73053571D01*
X92460714Y-73075000D01*
X92417857Y-73117857D01*
X92396428Y-73160714D01*
X92375000Y-73246428D01*
X92375000Y-73310714D01*
X92396428Y-73396428D01*
X92417857Y-73439285D01*
X92460714Y-73482142D01*
X92525000Y-73503571D01*
X92632142Y-73503571D01*
X91989285Y-73203571D02*
X91989285Y-73503571D01*
X92096428Y-73032142D02*
X92203571Y-73353571D01*
X91925000Y-73353571D01*
G04 #@! TO.C,D5*
X102203571Y-94267857D02*
X101753571Y-94267857D01*
X101753571Y-94375000D01*
X101775000Y-94439285D01*
X101817857Y-94482142D01*
X101860714Y-94503571D01*
X101946428Y-94525000D01*
X102010714Y-94525000D01*
X102096428Y-94503571D01*
X102139285Y-94482142D01*
X102182142Y-94439285D01*
X102203571Y-94375000D01*
X102203571Y-94267857D01*
X101753571Y-94932142D02*
X101753571Y-94717857D01*
X101967857Y-94696428D01*
X101946428Y-94717857D01*
X101925000Y-94760714D01*
X101925000Y-94867857D01*
X101946428Y-94910714D01*
X101967857Y-94932142D01*
X102010714Y-94953571D01*
X102117857Y-94953571D01*
X102160714Y-94932142D01*
X102182142Y-94910714D01*
X102203571Y-94867857D01*
X102203571Y-94760714D01*
X102182142Y-94717857D01*
X102160714Y-94696428D01*
G04 #@! TO.C,D6*
X93990913Y-94178806D02*
X94309111Y-93860608D01*
X94233350Y-93784846D01*
X94172741Y-93754542D01*
X94112132Y-93754542D01*
X94066675Y-93769694D01*
X93990913Y-93815151D01*
X93945456Y-93860608D01*
X93900000Y-93936369D01*
X93884847Y-93981826D01*
X93884847Y-94042435D01*
X93915152Y-94103044D01*
X93990913Y-94178806D01*
X93854543Y-93406039D02*
X93915152Y-93466648D01*
X93930304Y-93512105D01*
X93930304Y-93542410D01*
X93915152Y-93618171D01*
X93869695Y-93693932D01*
X93748477Y-93815151D01*
X93703020Y-93830303D01*
X93672715Y-93830303D01*
X93627258Y-93815151D01*
X93566649Y-93754542D01*
X93551497Y-93709085D01*
X93551497Y-93678780D01*
X93566649Y-93633323D01*
X93642411Y-93557562D01*
X93687867Y-93542410D01*
X93718172Y-93542410D01*
X93763629Y-93557562D01*
X93824238Y-93618171D01*
X93839390Y-93663628D01*
X93839390Y-93693932D01*
X93824238Y-93739389D01*
G04 #@! TO.C,L1*
X106301200Y-75003571D02*
X106515485Y-75003571D01*
X106515485Y-74553571D01*
X105915485Y-75003571D02*
X106172628Y-75003571D01*
X106044057Y-75003571D02*
X106044057Y-74553571D01*
X106086914Y-74617857D01*
X106129771Y-74660714D01*
X106172628Y-74682142D01*
G04 #@! TO.C,L2*
X113275000Y-87103571D02*
X113489285Y-87103571D01*
X113489285Y-86653571D01*
X113146428Y-86696428D02*
X113125000Y-86675000D01*
X113082142Y-86653571D01*
X112975000Y-86653571D01*
X112932142Y-86675000D01*
X112910714Y-86696428D01*
X112889285Y-86739285D01*
X112889285Y-86782142D01*
X112910714Y-86846428D01*
X113167857Y-87103571D01*
X112889285Y-87103571D01*
G04 #@! TO.C,L3*
X98575000Y-87103571D02*
X98789285Y-87103571D01*
X98789285Y-86653571D01*
X98467857Y-86653571D02*
X98189285Y-86653571D01*
X98339285Y-86825000D01*
X98275000Y-86825000D01*
X98232142Y-86846428D01*
X98210714Y-86867857D01*
X98189285Y-86910714D01*
X98189285Y-87017857D01*
X98210714Y-87060714D01*
X98232142Y-87082142D01*
X98275000Y-87103571D01*
X98403571Y-87103571D01*
X98446428Y-87082142D01*
X98467857Y-87060714D01*
G04 #@! TO.C,IC1*
X98239285Y-68603571D02*
X98239285Y-68153571D01*
X97767857Y-68560714D02*
X97789285Y-68582142D01*
X97853571Y-68603571D01*
X97896428Y-68603571D01*
X97960714Y-68582142D01*
X98003571Y-68539285D01*
X98025000Y-68496428D01*
X98046428Y-68410714D01*
X98046428Y-68346428D01*
X98025000Y-68260714D01*
X98003571Y-68217857D01*
X97960714Y-68175000D01*
X97896428Y-68153571D01*
X97853571Y-68153571D01*
X97789285Y-68175000D01*
X97767857Y-68196428D01*
X97339285Y-68603571D02*
X97596428Y-68603571D01*
X97467857Y-68603571D02*
X97467857Y-68153571D01*
X97510714Y-68217857D01*
X97553571Y-68260714D01*
X97596428Y-68282142D01*
G04 #@! TO.C,U1*
X112568185Y-102583312D02*
X112825774Y-102840900D01*
X112840926Y-102886357D01*
X112840926Y-102916662D01*
X112825774Y-102962119D01*
X112765165Y-103022728D01*
X112719708Y-103037880D01*
X112689403Y-103037880D01*
X112643946Y-103022728D01*
X112386357Y-102765139D01*
X112386357Y-103401535D02*
X112568185Y-103219708D01*
X112477271Y-103310621D02*
X112159073Y-102992423D01*
X112234834Y-103007576D01*
X112295444Y-103007576D01*
X112340900Y-102992423D01*
G04 #@! TO.C,Q2*
X110942857Y-79246428D02*
X110985714Y-79225000D01*
X111028571Y-79182142D01*
X111092857Y-79117857D01*
X111135714Y-79096428D01*
X111178571Y-79096428D01*
X111157142Y-79203571D02*
X111200000Y-79182142D01*
X111242857Y-79139285D01*
X111264285Y-79053571D01*
X111264285Y-78903571D01*
X111242857Y-78817857D01*
X111200000Y-78775000D01*
X111157142Y-78753571D01*
X111071428Y-78753571D01*
X111028571Y-78775000D01*
X110985714Y-78817857D01*
X110964285Y-78903571D01*
X110964285Y-79053571D01*
X110985714Y-79139285D01*
X111028571Y-79182142D01*
X111071428Y-79203571D01*
X111157142Y-79203571D01*
X110792857Y-78796428D02*
X110771428Y-78775000D01*
X110728571Y-78753571D01*
X110621428Y-78753571D01*
X110578571Y-78775000D01*
X110557142Y-78796428D01*
X110535714Y-78839285D01*
X110535714Y-78882142D01*
X110557142Y-78946428D01*
X110814285Y-79203571D01*
X110535714Y-79203571D01*
G04 #@! TO.C,Q3*
X95842857Y-79146428D02*
X95885714Y-79125000D01*
X95928571Y-79082142D01*
X95992857Y-79017857D01*
X96035714Y-78996428D01*
X96078571Y-78996428D01*
X96057142Y-79103571D02*
X96100000Y-79082142D01*
X96142857Y-79039285D01*
X96164285Y-78953571D01*
X96164285Y-78803571D01*
X96142857Y-78717857D01*
X96100000Y-78675000D01*
X96057142Y-78653571D01*
X95971428Y-78653571D01*
X95928571Y-78675000D01*
X95885714Y-78717857D01*
X95864285Y-78803571D01*
X95864285Y-78953571D01*
X95885714Y-79039285D01*
X95928571Y-79082142D01*
X95971428Y-79103571D01*
X96057142Y-79103571D01*
X95714285Y-78653571D02*
X95435714Y-78653571D01*
X95585714Y-78825000D01*
X95521428Y-78825000D01*
X95478571Y-78846428D01*
X95457142Y-78867857D01*
X95435714Y-78910714D01*
X95435714Y-79017857D01*
X95457142Y-79060714D01*
X95478571Y-79082142D01*
X95521428Y-79103571D01*
X95650000Y-79103571D01*
X95692857Y-79082142D01*
X95714285Y-79060714D01*
G04 #@! TO.C,IC2*
X102339285Y-83003571D02*
X102339285Y-82553571D01*
X101867857Y-82960714D02*
X101889285Y-82982142D01*
X101953571Y-83003571D01*
X101996428Y-83003571D01*
X102060714Y-82982142D01*
X102103571Y-82939285D01*
X102125000Y-82896428D01*
X102146428Y-82810714D01*
X102146428Y-82746428D01*
X102125000Y-82660714D01*
X102103571Y-82617857D01*
X102060714Y-82575000D01*
X101996428Y-82553571D01*
X101953571Y-82553571D01*
X101889285Y-82575000D01*
X101867857Y-82596428D01*
X101696428Y-82596428D02*
X101675000Y-82575000D01*
X101632142Y-82553571D01*
X101525000Y-82553571D01*
X101482142Y-82575000D01*
X101460714Y-82596428D01*
X101439285Y-82639285D01*
X101439285Y-82682142D01*
X101460714Y-82746428D01*
X101717857Y-83003571D01*
X101439285Y-83003571D01*
G04 #@! TO.C,IC3*
X87539285Y-83003571D02*
X87539285Y-82553571D01*
X87067857Y-82960714D02*
X87089285Y-82982142D01*
X87153571Y-83003571D01*
X87196428Y-83003571D01*
X87260714Y-82982142D01*
X87303571Y-82939285D01*
X87325000Y-82896428D01*
X87346428Y-82810714D01*
X87346428Y-82746428D01*
X87325000Y-82660714D01*
X87303571Y-82617857D01*
X87260714Y-82575000D01*
X87196428Y-82553571D01*
X87153571Y-82553571D01*
X87089285Y-82575000D01*
X87067857Y-82596428D01*
X86917857Y-82553571D02*
X86639285Y-82553571D01*
X86789285Y-82725000D01*
X86725000Y-82725000D01*
X86682142Y-82746428D01*
X86660714Y-82767857D01*
X86639285Y-82810714D01*
X86639285Y-82917857D01*
X86660714Y-82960714D01*
X86682142Y-82982142D01*
X86725000Y-83003571D01*
X86853571Y-83003571D01*
X86896428Y-82982142D01*
X86917857Y-82960714D01*
G04 #@! TO.C,Q1*
X67342857Y-83871428D02*
X67385714Y-83850000D01*
X67428571Y-83807142D01*
X67492857Y-83742857D01*
X67535714Y-83721428D01*
X67578571Y-83721428D01*
X67557142Y-83828571D02*
X67600000Y-83807142D01*
X67642857Y-83764285D01*
X67664285Y-83678571D01*
X67664285Y-83528571D01*
X67642857Y-83442857D01*
X67600000Y-83400000D01*
X67557142Y-83378571D01*
X67471428Y-83378571D01*
X67428571Y-83400000D01*
X67385714Y-83442857D01*
X67364285Y-83528571D01*
X67364285Y-83678571D01*
X67385714Y-83764285D01*
X67428571Y-83807142D01*
X67471428Y-83828571D01*
X67557142Y-83828571D01*
X66935714Y-83828571D02*
X67192857Y-83828571D01*
X67064285Y-83828571D02*
X67064285Y-83378571D01*
X67107142Y-83442857D01*
X67150000Y-83485714D01*
X67192857Y-83507142D01*
G04 #@! TO.C,U2*
X98242857Y-100453571D02*
X98242857Y-100817857D01*
X98221428Y-100860714D01*
X98200000Y-100882142D01*
X98157142Y-100903571D01*
X98071428Y-100903571D01*
X98028571Y-100882142D01*
X98007142Y-100860714D01*
X97985714Y-100817857D01*
X97985714Y-100453571D01*
X97792857Y-100496428D02*
X97771428Y-100475000D01*
X97728571Y-100453571D01*
X97621428Y-100453571D01*
X97578571Y-100475000D01*
X97557142Y-100496428D01*
X97535714Y-100539285D01*
X97535714Y-100582142D01*
X97557142Y-100646428D01*
X97814285Y-100903571D01*
X97535714Y-100903571D01*
G04 #@! TO.C,R12*
X53089285Y-92003571D02*
X53239285Y-91789285D01*
X53346428Y-92003571D02*
X53346428Y-91553571D01*
X53175000Y-91553571D01*
X53132142Y-91575000D01*
X53110714Y-91596428D01*
X53089285Y-91639285D01*
X53089285Y-91703571D01*
X53110714Y-91746428D01*
X53132142Y-91767857D01*
X53175000Y-91789285D01*
X53346428Y-91789285D01*
X52660714Y-92003571D02*
X52917857Y-92003571D01*
X52789285Y-92003571D02*
X52789285Y-91553571D01*
X52832142Y-91617857D01*
X52875000Y-91660714D01*
X52917857Y-91682142D01*
X52489285Y-91596428D02*
X52467857Y-91575000D01*
X52425000Y-91553571D01*
X52317857Y-91553571D01*
X52275000Y-91575000D01*
X52253571Y-91596428D01*
X52232142Y-91639285D01*
X52232142Y-91682142D01*
X52253571Y-91746428D01*
X52510714Y-92003571D01*
X52232142Y-92003571D01*
G04 #@! TO.C,RT2*
X93996428Y-65078571D02*
X94146428Y-64864285D01*
X94253571Y-65078571D02*
X94253571Y-64628571D01*
X94082142Y-64628571D01*
X94039285Y-64650000D01*
X94017857Y-64671428D01*
X93996428Y-64714285D01*
X93996428Y-64778571D01*
X94017857Y-64821428D01*
X94039285Y-64842857D01*
X94082142Y-64864285D01*
X94253571Y-64864285D01*
X93867857Y-64628571D02*
X93610714Y-64628571D01*
X93739285Y-65078571D02*
X93739285Y-64628571D01*
X93482142Y-64671428D02*
X93460714Y-64650000D01*
X93417857Y-64628571D01*
X93310714Y-64628571D01*
X93267857Y-64650000D01*
X93246428Y-64671428D01*
X93225000Y-64714285D01*
X93225000Y-64757142D01*
X93246428Y-64821428D01*
X93503571Y-65078571D01*
X93225000Y-65078571D01*
G04 #@! TO.C,R22*
X98660609Y-102748502D02*
X98918198Y-102703045D01*
X98842436Y-102930330D02*
X99160634Y-102612132D01*
X99039416Y-102490913D01*
X98993959Y-102475761D01*
X98963654Y-102475761D01*
X98918198Y-102490913D01*
X98872741Y-102536370D01*
X98857588Y-102581827D01*
X98857588Y-102612132D01*
X98872741Y-102657588D01*
X98993959Y-102778807D01*
X98827284Y-102339390D02*
X98827284Y-102309086D01*
X98812132Y-102263629D01*
X98736370Y-102187867D01*
X98690913Y-102172715D01*
X98660609Y-102172715D01*
X98615152Y-102187867D01*
X98584847Y-102218172D01*
X98554543Y-102278781D01*
X98554543Y-102642436D01*
X98357563Y-102445456D01*
X98524238Y-102036345D02*
X98524238Y-102006040D01*
X98509086Y-101960583D01*
X98433324Y-101884822D01*
X98387867Y-101869669D01*
X98357563Y-101869669D01*
X98312106Y-101884822D01*
X98281801Y-101915126D01*
X98251497Y-101975735D01*
X98251497Y-102339390D01*
X98054517Y-102142411D01*
G04 #@! TO.C,R21*
X135989285Y-74003571D02*
X136139285Y-73789285D01*
X136246428Y-74003571D02*
X136246428Y-73553571D01*
X136075000Y-73553571D01*
X136032142Y-73575000D01*
X136010714Y-73596428D01*
X135989285Y-73639285D01*
X135989285Y-73703571D01*
X136010714Y-73746428D01*
X136032142Y-73767857D01*
X136075000Y-73789285D01*
X136246428Y-73789285D01*
X135817857Y-73596428D02*
X135796428Y-73575000D01*
X135753571Y-73553571D01*
X135646428Y-73553571D01*
X135603571Y-73575000D01*
X135582142Y-73596428D01*
X135560714Y-73639285D01*
X135560714Y-73682142D01*
X135582142Y-73746428D01*
X135839285Y-74003571D01*
X135560714Y-74003571D01*
X135132142Y-74003571D02*
X135389285Y-74003571D01*
X135260714Y-74003571D02*
X135260714Y-73553571D01*
X135303571Y-73617857D01*
X135346428Y-73660714D01*
X135389285Y-73682142D01*
G04 #@! TO.C,R20*
X96160609Y-104648502D02*
X96418198Y-104603045D01*
X96342436Y-104830330D02*
X96660634Y-104512132D01*
X96539416Y-104390913D01*
X96493959Y-104375761D01*
X96463654Y-104375761D01*
X96418198Y-104390913D01*
X96372741Y-104436370D01*
X96357588Y-104481827D01*
X96357588Y-104512132D01*
X96372741Y-104557588D01*
X96493959Y-104678807D01*
X96327284Y-104239390D02*
X96327284Y-104209086D01*
X96312132Y-104163629D01*
X96236370Y-104087867D01*
X96190913Y-104072715D01*
X96160609Y-104072715D01*
X96115152Y-104087867D01*
X96084847Y-104118172D01*
X96054543Y-104178781D01*
X96054543Y-104542436D01*
X95857563Y-104345456D01*
X95978781Y-103830279D02*
X95948477Y-103799974D01*
X95903020Y-103784822D01*
X95872715Y-103784822D01*
X95827258Y-103799974D01*
X95751497Y-103845431D01*
X95675735Y-103921192D01*
X95630279Y-103996954D01*
X95615126Y-104042411D01*
X95615126Y-104072715D01*
X95630279Y-104118172D01*
X95660583Y-104148477D01*
X95706040Y-104163629D01*
X95736345Y-104163629D01*
X95781801Y-104148477D01*
X95857563Y-104103020D01*
X95933324Y-104027258D01*
X95978781Y-103951497D01*
X95993933Y-103906040D01*
X95993933Y-103875735D01*
X95978781Y-103830279D01*
G04 #@! TO.C,R19*
X117015485Y-100603571D02*
X117165485Y-100389285D01*
X117272628Y-100603571D02*
X117272628Y-100153571D01*
X117101200Y-100153571D01*
X117058342Y-100175000D01*
X117036914Y-100196428D01*
X117015485Y-100239285D01*
X117015485Y-100303571D01*
X117036914Y-100346428D01*
X117058342Y-100367857D01*
X117101200Y-100389285D01*
X117272628Y-100389285D01*
X116586914Y-100603571D02*
X116844057Y-100603571D01*
X116715485Y-100603571D02*
X116715485Y-100153571D01*
X116758342Y-100217857D01*
X116801200Y-100260714D01*
X116844057Y-100282142D01*
X116372628Y-100603571D02*
X116286914Y-100603571D01*
X116244057Y-100582142D01*
X116222628Y-100560714D01*
X116179771Y-100496428D01*
X116158342Y-100410714D01*
X116158342Y-100239285D01*
X116179771Y-100196428D01*
X116201200Y-100175000D01*
X116244057Y-100153571D01*
X116329771Y-100153571D01*
X116372628Y-100175000D01*
X116394057Y-100196428D01*
X116415485Y-100239285D01*
X116415485Y-100346428D01*
X116394057Y-100389285D01*
X116372628Y-100410714D01*
X116329771Y-100432142D01*
X116244057Y-100432142D01*
X116201200Y-100410714D01*
X116179771Y-100389285D01*
X116158342Y-100346428D01*
G04 #@! TO.C,R18*
X115003571Y-103485314D02*
X114789285Y-103335314D01*
X115003571Y-103228171D02*
X114553571Y-103228171D01*
X114553571Y-103399600D01*
X114575000Y-103442457D01*
X114596428Y-103463885D01*
X114639285Y-103485314D01*
X114703571Y-103485314D01*
X114746428Y-103463885D01*
X114767857Y-103442457D01*
X114789285Y-103399600D01*
X114789285Y-103228171D01*
X115003571Y-103913885D02*
X115003571Y-103656742D01*
X115003571Y-103785314D02*
X114553571Y-103785314D01*
X114617857Y-103742457D01*
X114660714Y-103699600D01*
X114682142Y-103656742D01*
X114746428Y-104171028D02*
X114725000Y-104128171D01*
X114703571Y-104106742D01*
X114660714Y-104085314D01*
X114639285Y-104085314D01*
X114596428Y-104106742D01*
X114575000Y-104128171D01*
X114553571Y-104171028D01*
X114553571Y-104256742D01*
X114575000Y-104299600D01*
X114596428Y-104321028D01*
X114639285Y-104342457D01*
X114660714Y-104342457D01*
X114703571Y-104321028D01*
X114725000Y-104299600D01*
X114746428Y-104256742D01*
X114746428Y-104171028D01*
X114767857Y-104128171D01*
X114789285Y-104106742D01*
X114832142Y-104085314D01*
X114917857Y-104085314D01*
X114960714Y-104106742D01*
X114982142Y-104128171D01*
X115003571Y-104171028D01*
X115003571Y-104256742D01*
X114982142Y-104299600D01*
X114960714Y-104321028D01*
X114917857Y-104342457D01*
X114832142Y-104342457D01*
X114789285Y-104321028D01*
X114767857Y-104299600D01*
X114746428Y-104256742D01*
G04 #@! TO.C,R17*
X62828571Y-83623214D02*
X62614285Y-83473214D01*
X62828571Y-83366071D02*
X62378571Y-83366071D01*
X62378571Y-83537500D01*
X62400000Y-83580357D01*
X62421428Y-83601785D01*
X62464285Y-83623214D01*
X62528571Y-83623214D01*
X62571428Y-83601785D01*
X62592857Y-83580357D01*
X62614285Y-83537500D01*
X62614285Y-83366071D01*
X62828571Y-84051785D02*
X62828571Y-83794642D01*
X62828571Y-83923214D02*
X62378571Y-83923214D01*
X62442857Y-83880357D01*
X62485714Y-83837500D01*
X62507142Y-83794642D01*
X62378571Y-84201785D02*
X62378571Y-84501785D01*
X62828571Y-84308928D01*
G04 #@! TO.C,R16*
X53089285Y-94003571D02*
X53239285Y-93789285D01*
X53346428Y-94003571D02*
X53346428Y-93553571D01*
X53175000Y-93553571D01*
X53132142Y-93575000D01*
X53110714Y-93596428D01*
X53089285Y-93639285D01*
X53089285Y-93703571D01*
X53110714Y-93746428D01*
X53132142Y-93767857D01*
X53175000Y-93789285D01*
X53346428Y-93789285D01*
X52660714Y-94003571D02*
X52917857Y-94003571D01*
X52789285Y-94003571D02*
X52789285Y-93553571D01*
X52832142Y-93617857D01*
X52875000Y-93660714D01*
X52917857Y-93682142D01*
X52275000Y-93553571D02*
X52360714Y-93553571D01*
X52403571Y-93575000D01*
X52425000Y-93596428D01*
X52467857Y-93660714D01*
X52489285Y-93746428D01*
X52489285Y-93917857D01*
X52467857Y-93960714D01*
X52446428Y-93982142D01*
X52403571Y-94003571D01*
X52317857Y-94003571D01*
X52275000Y-93982142D01*
X52253571Y-93960714D01*
X52232142Y-93917857D01*
X52232142Y-93810714D01*
X52253571Y-93767857D01*
X52275000Y-93746428D01*
X52317857Y-93725000D01*
X52403571Y-93725000D01*
X52446428Y-93746428D01*
X52467857Y-93767857D01*
X52489285Y-93810714D01*
G04 #@! TO.C,R15*
X62303571Y-102210714D02*
X62089285Y-102060714D01*
X62303571Y-101953571D02*
X61853571Y-101953571D01*
X61853571Y-102125000D01*
X61875000Y-102167857D01*
X61896428Y-102189285D01*
X61939285Y-102210714D01*
X62003571Y-102210714D01*
X62046428Y-102189285D01*
X62067857Y-102167857D01*
X62089285Y-102125000D01*
X62089285Y-101953571D01*
X62303571Y-102639285D02*
X62303571Y-102382142D01*
X62303571Y-102510714D02*
X61853571Y-102510714D01*
X61917857Y-102467857D01*
X61960714Y-102425000D01*
X61982142Y-102382142D01*
X61853571Y-103046428D02*
X61853571Y-102832142D01*
X62067857Y-102810714D01*
X62046428Y-102832142D01*
X62025000Y-102875000D01*
X62025000Y-102982142D01*
X62046428Y-103025000D01*
X62067857Y-103046428D01*
X62110714Y-103067857D01*
X62217857Y-103067857D01*
X62260714Y-103046428D01*
X62282142Y-103025000D01*
X62303571Y-102982142D01*
X62303571Y-102875000D01*
X62282142Y-102832142D01*
X62260714Y-102810714D01*
G04 #@! TO.C,R14*
X55251785Y-99803571D02*
X55401785Y-99589285D01*
X55508928Y-99803571D02*
X55508928Y-99353571D01*
X55337500Y-99353571D01*
X55294642Y-99375000D01*
X55273214Y-99396428D01*
X55251785Y-99439285D01*
X55251785Y-99503571D01*
X55273214Y-99546428D01*
X55294642Y-99567857D01*
X55337500Y-99589285D01*
X55508928Y-99589285D01*
X54823214Y-99803571D02*
X55080357Y-99803571D01*
X54951785Y-99803571D02*
X54951785Y-99353571D01*
X54994642Y-99417857D01*
X55037500Y-99460714D01*
X55080357Y-99482142D01*
X54437500Y-99503571D02*
X54437500Y-99803571D01*
X54544642Y-99332142D02*
X54651785Y-99653571D01*
X54373214Y-99653571D01*
G04 #@! TO.C,R13*
X116489285Y-97303571D02*
X116639285Y-97089285D01*
X116746428Y-97303571D02*
X116746428Y-96853571D01*
X116575000Y-96853571D01*
X116532142Y-96875000D01*
X116510714Y-96896428D01*
X116489285Y-96939285D01*
X116489285Y-97003571D01*
X116510714Y-97046428D01*
X116532142Y-97067857D01*
X116575000Y-97089285D01*
X116746428Y-97089285D01*
X116060714Y-97303571D02*
X116317857Y-97303571D01*
X116189285Y-97303571D02*
X116189285Y-96853571D01*
X116232142Y-96917857D01*
X116275000Y-96960714D01*
X116317857Y-96982142D01*
X115910714Y-96853571D02*
X115632142Y-96853571D01*
X115782142Y-97025000D01*
X115717857Y-97025000D01*
X115675000Y-97046428D01*
X115653571Y-97067857D01*
X115632142Y-97110714D01*
X115632142Y-97217857D01*
X115653571Y-97260714D01*
X115675000Y-97282142D01*
X115717857Y-97303571D01*
X115846428Y-97303571D01*
X115889285Y-97282142D01*
X115910714Y-97260714D01*
G04 #@! TO.C,R26*
X105478571Y-59085714D02*
X105264285Y-58935714D01*
X105478571Y-58828571D02*
X105028571Y-58828571D01*
X105028571Y-59000000D01*
X105050000Y-59042857D01*
X105071428Y-59064285D01*
X105114285Y-59085714D01*
X105178571Y-59085714D01*
X105221428Y-59064285D01*
X105242857Y-59042857D01*
X105264285Y-59000000D01*
X105264285Y-58828571D01*
X105071428Y-59257142D02*
X105050000Y-59278571D01*
X105028571Y-59321428D01*
X105028571Y-59428571D01*
X105050000Y-59471428D01*
X105071428Y-59492857D01*
X105114285Y-59514285D01*
X105157142Y-59514285D01*
X105221428Y-59492857D01*
X105478571Y-59235714D01*
X105478571Y-59514285D01*
X105028571Y-59900000D02*
X105028571Y-59814285D01*
X105050000Y-59771428D01*
X105071428Y-59750000D01*
X105135714Y-59707142D01*
X105221428Y-59685714D01*
X105392857Y-59685714D01*
X105435714Y-59707142D01*
X105457142Y-59728571D01*
X105478571Y-59771428D01*
X105478571Y-59857142D01*
X105457142Y-59900000D01*
X105435714Y-59921428D01*
X105392857Y-59942857D01*
X105285714Y-59942857D01*
X105242857Y-59921428D01*
X105221428Y-59900000D01*
X105200000Y-59857142D01*
X105200000Y-59771428D01*
X105221428Y-59728571D01*
X105242857Y-59707142D01*
X105285714Y-59685714D01*
G04 #@! TO.C,R40*
X85803571Y-79885314D02*
X85589285Y-79735314D01*
X85803571Y-79628171D02*
X85353571Y-79628171D01*
X85353571Y-79799600D01*
X85375000Y-79842457D01*
X85396428Y-79863885D01*
X85439285Y-79885314D01*
X85503571Y-79885314D01*
X85546428Y-79863885D01*
X85567857Y-79842457D01*
X85589285Y-79799600D01*
X85589285Y-79628171D01*
X85503571Y-80271028D02*
X85803571Y-80271028D01*
X85332142Y-80163885D02*
X85653571Y-80056742D01*
X85653571Y-80335314D01*
X85353571Y-80592457D02*
X85353571Y-80635314D01*
X85375000Y-80678171D01*
X85396428Y-80699600D01*
X85439285Y-80721028D01*
X85525000Y-80742457D01*
X85632142Y-80742457D01*
X85717857Y-80721028D01*
X85760714Y-80699600D01*
X85782142Y-80678171D01*
X85803571Y-80635314D01*
X85803571Y-80592457D01*
X85782142Y-80549600D01*
X85760714Y-80528171D01*
X85717857Y-80506742D01*
X85632142Y-80485314D01*
X85525000Y-80485314D01*
X85439285Y-80506742D01*
X85396428Y-80528171D01*
X85375000Y-80549600D01*
X85353571Y-80592457D01*
G04 #@! TO.C,R27*
X92478571Y-57985714D02*
X92264285Y-57835714D01*
X92478571Y-57728571D02*
X92028571Y-57728571D01*
X92028571Y-57900000D01*
X92050000Y-57942857D01*
X92071428Y-57964285D01*
X92114285Y-57985714D01*
X92178571Y-57985714D01*
X92221428Y-57964285D01*
X92242857Y-57942857D01*
X92264285Y-57900000D01*
X92264285Y-57728571D01*
X92071428Y-58157142D02*
X92050000Y-58178571D01*
X92028571Y-58221428D01*
X92028571Y-58328571D01*
X92050000Y-58371428D01*
X92071428Y-58392857D01*
X92114285Y-58414285D01*
X92157142Y-58414285D01*
X92221428Y-58392857D01*
X92478571Y-58135714D01*
X92478571Y-58414285D01*
X92028571Y-58564285D02*
X92028571Y-58864285D01*
X92478571Y-58671428D01*
G04 #@! TO.C,R28*
X95853571Y-57235714D02*
X95639285Y-57085714D01*
X95853571Y-56978571D02*
X95403571Y-56978571D01*
X95403571Y-57150000D01*
X95425000Y-57192857D01*
X95446428Y-57214285D01*
X95489285Y-57235714D01*
X95553571Y-57235714D01*
X95596428Y-57214285D01*
X95617857Y-57192857D01*
X95639285Y-57150000D01*
X95639285Y-56978571D01*
X95446428Y-57407142D02*
X95425000Y-57428571D01*
X95403571Y-57471428D01*
X95403571Y-57578571D01*
X95425000Y-57621428D01*
X95446428Y-57642857D01*
X95489285Y-57664285D01*
X95532142Y-57664285D01*
X95596428Y-57642857D01*
X95853571Y-57385714D01*
X95853571Y-57664285D01*
X95596428Y-57921428D02*
X95575000Y-57878571D01*
X95553571Y-57857142D01*
X95510714Y-57835714D01*
X95489285Y-57835714D01*
X95446428Y-57857142D01*
X95425000Y-57878571D01*
X95403571Y-57921428D01*
X95403571Y-58007142D01*
X95425000Y-58050000D01*
X95446428Y-58071428D01*
X95489285Y-58092857D01*
X95510714Y-58092857D01*
X95553571Y-58071428D01*
X95575000Y-58050000D01*
X95596428Y-58007142D01*
X95596428Y-57921428D01*
X95617857Y-57878571D01*
X95639285Y-57857142D01*
X95682142Y-57835714D01*
X95767857Y-57835714D01*
X95810714Y-57857142D01*
X95832142Y-57878571D01*
X95853571Y-57921428D01*
X95853571Y-58007142D01*
X95832142Y-58050000D01*
X95810714Y-58071428D01*
X95767857Y-58092857D01*
X95682142Y-58092857D01*
X95639285Y-58071428D01*
X95617857Y-58050000D01*
X95596428Y-58007142D01*
G04 #@! TO.C,R30*
X108728571Y-59397813D02*
X108514285Y-59247813D01*
X108728571Y-59140670D02*
X108278571Y-59140670D01*
X108278571Y-59312099D01*
X108300000Y-59354956D01*
X108321428Y-59376384D01*
X108364285Y-59397813D01*
X108428571Y-59397813D01*
X108471428Y-59376384D01*
X108492857Y-59354956D01*
X108514285Y-59312099D01*
X108514285Y-59140670D01*
X108278571Y-59547813D02*
X108278571Y-59826384D01*
X108450000Y-59676384D01*
X108450000Y-59740670D01*
X108471428Y-59783527D01*
X108492857Y-59804956D01*
X108535714Y-59826384D01*
X108642857Y-59826384D01*
X108685714Y-59804956D01*
X108707142Y-59783527D01*
X108728571Y-59740670D01*
X108728571Y-59612099D01*
X108707142Y-59569241D01*
X108685714Y-59547813D01*
X108278571Y-60104956D02*
X108278571Y-60147813D01*
X108300000Y-60190670D01*
X108321428Y-60212099D01*
X108364285Y-60233527D01*
X108450000Y-60254956D01*
X108557142Y-60254956D01*
X108642857Y-60233527D01*
X108685714Y-60212099D01*
X108707142Y-60190670D01*
X108728571Y-60147813D01*
X108728571Y-60104956D01*
X108707142Y-60062099D01*
X108685714Y-60040670D01*
X108642857Y-60019241D01*
X108557142Y-59997813D01*
X108450000Y-59997813D01*
X108364285Y-60019241D01*
X108321428Y-60040670D01*
X108300000Y-60062099D01*
X108278571Y-60104956D01*
G04 #@! TO.C,R32*
X113473502Y-55789390D02*
X113428045Y-55531801D01*
X113655330Y-55607563D02*
X113337132Y-55289365D01*
X113215913Y-55410583D01*
X113200761Y-55456040D01*
X113200761Y-55486345D01*
X113215913Y-55531801D01*
X113261370Y-55577258D01*
X113306827Y-55592411D01*
X113337132Y-55592411D01*
X113382588Y-55577258D01*
X113503807Y-55456040D01*
X113049238Y-55577258D02*
X112852258Y-55774238D01*
X113079543Y-55789390D01*
X113034086Y-55834847D01*
X113018933Y-55880304D01*
X113018933Y-55910609D01*
X113034086Y-55956066D01*
X113109847Y-56031827D01*
X113155304Y-56046979D01*
X113185609Y-56046979D01*
X113231066Y-56031827D01*
X113321979Y-55940913D01*
X113337132Y-55895456D01*
X113337132Y-55865152D01*
X112761345Y-55925761D02*
X112731040Y-55925761D01*
X112685583Y-55940913D01*
X112609822Y-56016675D01*
X112594669Y-56062132D01*
X112594669Y-56092436D01*
X112609822Y-56137893D01*
X112640126Y-56168198D01*
X112700735Y-56198502D01*
X113064390Y-56198502D01*
X112867411Y-56395482D01*
G04 #@! TO.C,R33*
X110903571Y-96072815D02*
X110689285Y-95922815D01*
X110903571Y-95815672D02*
X110453571Y-95815672D01*
X110453571Y-95987101D01*
X110475000Y-96029958D01*
X110496428Y-96051386D01*
X110539285Y-96072815D01*
X110603571Y-96072815D01*
X110646428Y-96051386D01*
X110667857Y-96029958D01*
X110689285Y-95987101D01*
X110689285Y-95815672D01*
X110453571Y-96222815D02*
X110453571Y-96501386D01*
X110625000Y-96351386D01*
X110625000Y-96415672D01*
X110646428Y-96458529D01*
X110667857Y-96479958D01*
X110710714Y-96501386D01*
X110817857Y-96501386D01*
X110860714Y-96479958D01*
X110882142Y-96458529D01*
X110903571Y-96415672D01*
X110903571Y-96287101D01*
X110882142Y-96244243D01*
X110860714Y-96222815D01*
X110453571Y-96651386D02*
X110453571Y-96929958D01*
X110625000Y-96779958D01*
X110625000Y-96844243D01*
X110646428Y-96887101D01*
X110667857Y-96908529D01*
X110710714Y-96929958D01*
X110817857Y-96929958D01*
X110860714Y-96908529D01*
X110882142Y-96887101D01*
X110903571Y-96844243D01*
X110903571Y-96715672D01*
X110882142Y-96672815D01*
X110860714Y-96651386D01*
G04 #@! TO.C,R35*
X105515485Y-77003571D02*
X105665485Y-76789285D01*
X105772628Y-77003571D02*
X105772628Y-76553571D01*
X105601200Y-76553571D01*
X105558342Y-76575000D01*
X105536914Y-76596428D01*
X105515485Y-76639285D01*
X105515485Y-76703571D01*
X105536914Y-76746428D01*
X105558342Y-76767857D01*
X105601200Y-76789285D01*
X105772628Y-76789285D01*
X105365485Y-76553571D02*
X105086914Y-76553571D01*
X105236914Y-76725000D01*
X105172628Y-76725000D01*
X105129771Y-76746428D01*
X105108342Y-76767857D01*
X105086914Y-76810714D01*
X105086914Y-76917857D01*
X105108342Y-76960714D01*
X105129771Y-76982142D01*
X105172628Y-77003571D01*
X105301200Y-77003571D01*
X105344057Y-76982142D01*
X105365485Y-76960714D01*
X104679771Y-76553571D02*
X104894057Y-76553571D01*
X104915485Y-76767857D01*
X104894057Y-76746428D01*
X104851200Y-76725000D01*
X104744057Y-76725000D01*
X104701200Y-76746428D01*
X104679771Y-76767857D01*
X104658342Y-76810714D01*
X104658342Y-76917857D01*
X104679771Y-76960714D01*
X104701200Y-76982142D01*
X104744057Y-77003571D01*
X104851200Y-77003571D01*
X104894057Y-76982142D01*
X104915485Y-76960714D01*
G04 #@! TO.C,R37*
X100289285Y-80390670D02*
X100439285Y-80176384D01*
X100546428Y-80390670D02*
X100546428Y-79940670D01*
X100375000Y-79940670D01*
X100332142Y-79962099D01*
X100310714Y-79983527D01*
X100289285Y-80026384D01*
X100289285Y-80090670D01*
X100310714Y-80133527D01*
X100332142Y-80154956D01*
X100375000Y-80176384D01*
X100546428Y-80176384D01*
X100139285Y-79940670D02*
X99860714Y-79940670D01*
X100010714Y-80112099D01*
X99946428Y-80112099D01*
X99903571Y-80133527D01*
X99882142Y-80154956D01*
X99860714Y-80197813D01*
X99860714Y-80304956D01*
X99882142Y-80347813D01*
X99903571Y-80369241D01*
X99946428Y-80390670D01*
X100075000Y-80390670D01*
X100117857Y-80369241D01*
X100139285Y-80347813D01*
X99710714Y-79940670D02*
X99410714Y-79940670D01*
X99603571Y-80390670D01*
G04 #@! TO.C,R38*
X88589285Y-77503571D02*
X88739285Y-77289285D01*
X88846428Y-77503571D02*
X88846428Y-77053571D01*
X88675000Y-77053571D01*
X88632142Y-77075000D01*
X88610714Y-77096428D01*
X88589285Y-77139285D01*
X88589285Y-77203571D01*
X88610714Y-77246428D01*
X88632142Y-77267857D01*
X88675000Y-77289285D01*
X88846428Y-77289285D01*
X88439285Y-77053571D02*
X88160714Y-77053571D01*
X88310714Y-77225000D01*
X88246428Y-77225000D01*
X88203571Y-77246428D01*
X88182142Y-77267857D01*
X88160714Y-77310714D01*
X88160714Y-77417857D01*
X88182142Y-77460714D01*
X88203571Y-77482142D01*
X88246428Y-77503571D01*
X88375000Y-77503571D01*
X88417857Y-77482142D01*
X88439285Y-77460714D01*
X87903571Y-77246428D02*
X87946428Y-77225000D01*
X87967857Y-77203571D01*
X87989285Y-77160714D01*
X87989285Y-77139285D01*
X87967857Y-77096428D01*
X87946428Y-77075000D01*
X87903571Y-77053571D01*
X87817857Y-77053571D01*
X87775000Y-77075000D01*
X87753571Y-77096428D01*
X87732142Y-77139285D01*
X87732142Y-77160714D01*
X87753571Y-77203571D01*
X87775000Y-77225000D01*
X87817857Y-77246428D01*
X87903571Y-77246428D01*
X87946428Y-77267857D01*
X87967857Y-77289285D01*
X87989285Y-77332142D01*
X87989285Y-77417857D01*
X87967857Y-77460714D01*
X87946428Y-77482142D01*
X87903571Y-77503571D01*
X87817857Y-77503571D01*
X87775000Y-77482142D01*
X87753571Y-77460714D01*
X87732142Y-77417857D01*
X87732142Y-77332142D01*
X87753571Y-77289285D01*
X87775000Y-77267857D01*
X87817857Y-77246428D01*
G04 #@! TO.C,NTC1*
X91465485Y-62653571D02*
X91465485Y-62203571D01*
X91208342Y-62653571D01*
X91208342Y-62203571D01*
X91058342Y-62203571D02*
X90801200Y-62203571D01*
X90929771Y-62653571D02*
X90929771Y-62203571D01*
X90394057Y-62610714D02*
X90415485Y-62632142D01*
X90479771Y-62653571D01*
X90522628Y-62653571D01*
X90586914Y-62632142D01*
X90629771Y-62589285D01*
X90651200Y-62546428D01*
X90672628Y-62460714D01*
X90672628Y-62396428D01*
X90651200Y-62310714D01*
X90629771Y-62267857D01*
X90586914Y-62225000D01*
X90522628Y-62203571D01*
X90479771Y-62203571D01*
X90415485Y-62225000D01*
X90394057Y-62246428D01*
X89965485Y-62653571D02*
X90222628Y-62653571D01*
X90094057Y-62653571D02*
X90094057Y-62203571D01*
X90136914Y-62267857D01*
X90179771Y-62310714D01*
X90222628Y-62332142D01*
G04 #@! TO.C,R53*
X65103571Y-102210714D02*
X64889285Y-102060714D01*
X65103571Y-101953571D02*
X64653571Y-101953571D01*
X64653571Y-102125000D01*
X64675000Y-102167857D01*
X64696428Y-102189285D01*
X64739285Y-102210714D01*
X64803571Y-102210714D01*
X64846428Y-102189285D01*
X64867857Y-102167857D01*
X64889285Y-102125000D01*
X64889285Y-101953571D01*
X64653571Y-102617857D02*
X64653571Y-102403571D01*
X64867857Y-102382142D01*
X64846428Y-102403571D01*
X64825000Y-102446428D01*
X64825000Y-102553571D01*
X64846428Y-102596428D01*
X64867857Y-102617857D01*
X64910714Y-102639285D01*
X65017857Y-102639285D01*
X65060714Y-102617857D01*
X65082142Y-102596428D01*
X65103571Y-102553571D01*
X65103571Y-102446428D01*
X65082142Y-102403571D01*
X65060714Y-102382142D01*
X64653571Y-102789285D02*
X64653571Y-103067857D01*
X64825000Y-102917857D01*
X64825000Y-102982142D01*
X64846428Y-103025000D01*
X64867857Y-103046428D01*
X64910714Y-103067857D01*
X65017857Y-103067857D01*
X65060714Y-103046428D01*
X65082142Y-103025000D01*
X65103571Y-102982142D01*
X65103571Y-102853571D01*
X65082142Y-102810714D01*
X65060714Y-102789285D01*
G04 #@! TO.C,R52*
X53089285Y-95103571D02*
X53239285Y-94889285D01*
X53346428Y-95103571D02*
X53346428Y-94653571D01*
X53175000Y-94653571D01*
X53132142Y-94675000D01*
X53110714Y-94696428D01*
X53089285Y-94739285D01*
X53089285Y-94803571D01*
X53110714Y-94846428D01*
X53132142Y-94867857D01*
X53175000Y-94889285D01*
X53346428Y-94889285D01*
X52682142Y-94653571D02*
X52896428Y-94653571D01*
X52917857Y-94867857D01*
X52896428Y-94846428D01*
X52853571Y-94825000D01*
X52746428Y-94825000D01*
X52703571Y-94846428D01*
X52682142Y-94867857D01*
X52660714Y-94910714D01*
X52660714Y-95017857D01*
X52682142Y-95060714D01*
X52703571Y-95082142D01*
X52746428Y-95103571D01*
X52853571Y-95103571D01*
X52896428Y-95082142D01*
X52917857Y-95060714D01*
X52489285Y-94696428D02*
X52467857Y-94675000D01*
X52425000Y-94653571D01*
X52317857Y-94653571D01*
X52275000Y-94675000D01*
X52253571Y-94696428D01*
X52232142Y-94739285D01*
X52232142Y-94782142D01*
X52253571Y-94846428D01*
X52510714Y-95103571D01*
X52232142Y-95103571D01*
G04 #@! TO.C,R51*
X62473502Y-73164390D02*
X62428045Y-72906801D01*
X62655330Y-72982563D02*
X62337132Y-72664365D01*
X62215913Y-72785583D01*
X62200761Y-72831040D01*
X62200761Y-72861345D01*
X62215913Y-72906801D01*
X62261370Y-72952258D01*
X62306827Y-72967411D01*
X62337132Y-72967411D01*
X62382588Y-72952258D01*
X62503807Y-72831040D01*
X61867411Y-73134086D02*
X62018933Y-72982563D01*
X62185609Y-73118933D01*
X62155304Y-73118933D01*
X62109847Y-73134086D01*
X62034086Y-73209847D01*
X62018933Y-73255304D01*
X62018933Y-73285609D01*
X62034086Y-73331066D01*
X62109847Y-73406827D01*
X62155304Y-73421979D01*
X62185609Y-73421979D01*
X62231066Y-73406827D01*
X62306827Y-73331066D01*
X62321979Y-73285609D01*
X62321979Y-73255304D01*
X61867411Y-73770482D02*
X62049238Y-73588654D01*
X61958324Y-73679568D02*
X61640126Y-73361370D01*
X61715888Y-73376522D01*
X61776497Y-73376522D01*
X61821954Y-73361370D01*
G04 #@! TO.C,R50*
X92203571Y-97910714D02*
X91989285Y-97760714D01*
X92203571Y-97653571D02*
X91753571Y-97653571D01*
X91753571Y-97825000D01*
X91775000Y-97867857D01*
X91796428Y-97889285D01*
X91839285Y-97910714D01*
X91903571Y-97910714D01*
X91946428Y-97889285D01*
X91967857Y-97867857D01*
X91989285Y-97825000D01*
X91989285Y-97653571D01*
X91753571Y-98317857D02*
X91753571Y-98103571D01*
X91967857Y-98082142D01*
X91946428Y-98103571D01*
X91925000Y-98146428D01*
X91925000Y-98253571D01*
X91946428Y-98296428D01*
X91967857Y-98317857D01*
X92010714Y-98339285D01*
X92117857Y-98339285D01*
X92160714Y-98317857D01*
X92182142Y-98296428D01*
X92203571Y-98253571D01*
X92203571Y-98146428D01*
X92182142Y-98103571D01*
X92160714Y-98082142D01*
X91753571Y-98617857D02*
X91753571Y-98660714D01*
X91775000Y-98703571D01*
X91796428Y-98725000D01*
X91839285Y-98746428D01*
X91925000Y-98767857D01*
X92032142Y-98767857D01*
X92117857Y-98746428D01*
X92160714Y-98725000D01*
X92182142Y-98703571D01*
X92203571Y-98660714D01*
X92203571Y-98617857D01*
X92182142Y-98575000D01*
X92160714Y-98553571D01*
X92117857Y-98532142D01*
X92032142Y-98510714D01*
X91925000Y-98510714D01*
X91839285Y-98532142D01*
X91796428Y-98553571D01*
X91775000Y-98575000D01*
X91753571Y-98617857D01*
G04 #@! TO.C,R49*
X86302985Y-106703571D02*
X86452985Y-106489285D01*
X86560128Y-106703571D02*
X86560128Y-106253571D01*
X86388700Y-106253571D01*
X86345842Y-106275000D01*
X86324414Y-106296428D01*
X86302985Y-106339285D01*
X86302985Y-106403571D01*
X86324414Y-106446428D01*
X86345842Y-106467857D01*
X86388700Y-106489285D01*
X86560128Y-106489285D01*
X85917271Y-106403571D02*
X85917271Y-106703571D01*
X86024414Y-106232142D02*
X86131557Y-106553571D01*
X85852985Y-106553571D01*
X85660128Y-106703571D02*
X85574414Y-106703571D01*
X85531557Y-106682142D01*
X85510128Y-106660714D01*
X85467271Y-106596428D01*
X85445842Y-106510714D01*
X85445842Y-106339285D01*
X85467271Y-106296428D01*
X85488700Y-106275000D01*
X85531557Y-106253571D01*
X85617271Y-106253571D01*
X85660128Y-106275000D01*
X85681557Y-106296428D01*
X85702985Y-106339285D01*
X85702985Y-106446428D01*
X85681557Y-106489285D01*
X85660128Y-106510714D01*
X85617271Y-106532142D01*
X85531557Y-106532142D01*
X85488700Y-106510714D01*
X85467271Y-106489285D01*
X85445842Y-106446428D01*
G04 #@! TO.C,R48*
X92289285Y-107003571D02*
X92439285Y-106789285D01*
X92546428Y-107003571D02*
X92546428Y-106553571D01*
X92375000Y-106553571D01*
X92332142Y-106575000D01*
X92310714Y-106596428D01*
X92289285Y-106639285D01*
X92289285Y-106703571D01*
X92310714Y-106746428D01*
X92332142Y-106767857D01*
X92375000Y-106789285D01*
X92546428Y-106789285D01*
X91903571Y-106703571D02*
X91903571Y-107003571D01*
X92010714Y-106532142D02*
X92117857Y-106853571D01*
X91839285Y-106853571D01*
X91603571Y-106746428D02*
X91646428Y-106725000D01*
X91667857Y-106703571D01*
X91689285Y-106660714D01*
X91689285Y-106639285D01*
X91667857Y-106596428D01*
X91646428Y-106575000D01*
X91603571Y-106553571D01*
X91517857Y-106553571D01*
X91475000Y-106575000D01*
X91453571Y-106596428D01*
X91432142Y-106639285D01*
X91432142Y-106660714D01*
X91453571Y-106703571D01*
X91475000Y-106725000D01*
X91517857Y-106746428D01*
X91603571Y-106746428D01*
X91646428Y-106767857D01*
X91667857Y-106789285D01*
X91689285Y-106832142D01*
X91689285Y-106917857D01*
X91667857Y-106960714D01*
X91646428Y-106982142D01*
X91603571Y-107003571D01*
X91517857Y-107003571D01*
X91475000Y-106982142D01*
X91453571Y-106960714D01*
X91432142Y-106917857D01*
X91432142Y-106832142D01*
X91453571Y-106789285D01*
X91475000Y-106767857D01*
X91517857Y-106746428D01*
G04 #@! TO.C,R45*
X83403571Y-103072815D02*
X83189285Y-102922815D01*
X83403571Y-102815672D02*
X82953571Y-102815672D01*
X82953571Y-102987101D01*
X82975000Y-103029958D01*
X82996428Y-103051386D01*
X83039285Y-103072815D01*
X83103571Y-103072815D01*
X83146428Y-103051386D01*
X83167857Y-103029958D01*
X83189285Y-102987101D01*
X83189285Y-102815672D01*
X83103571Y-103458529D02*
X83403571Y-103458529D01*
X82932142Y-103351386D02*
X83253571Y-103244243D01*
X83253571Y-103522815D01*
X82953571Y-103908529D02*
X82953571Y-103694243D01*
X83167857Y-103672815D01*
X83146428Y-103694243D01*
X83125000Y-103737101D01*
X83125000Y-103844243D01*
X83146428Y-103887101D01*
X83167857Y-103908529D01*
X83210714Y-103929958D01*
X83317857Y-103929958D01*
X83360714Y-103908529D01*
X83382142Y-103887101D01*
X83403571Y-103844243D01*
X83403571Y-103737101D01*
X83382142Y-103694243D01*
X83360714Y-103672815D01*
G04 #@! TO.C,R44*
X92189285Y-100703571D02*
X92339285Y-100489285D01*
X92446428Y-100703571D02*
X92446428Y-100253571D01*
X92275000Y-100253571D01*
X92232142Y-100275000D01*
X92210714Y-100296428D01*
X92189285Y-100339285D01*
X92189285Y-100403571D01*
X92210714Y-100446428D01*
X92232142Y-100467857D01*
X92275000Y-100489285D01*
X92446428Y-100489285D01*
X91803571Y-100403571D02*
X91803571Y-100703571D01*
X91910714Y-100232142D02*
X92017857Y-100553571D01*
X91739285Y-100553571D01*
X91375000Y-100403571D02*
X91375000Y-100703571D01*
X91482142Y-100232142D02*
X91589285Y-100553571D01*
X91310714Y-100553571D01*
G04 #@! TO.C,R43*
X96289285Y-95303571D02*
X96439285Y-95089285D01*
X96546428Y-95303571D02*
X96546428Y-94853571D01*
X96375000Y-94853571D01*
X96332142Y-94875000D01*
X96310714Y-94896428D01*
X96289285Y-94939285D01*
X96289285Y-95003571D01*
X96310714Y-95046428D01*
X96332142Y-95067857D01*
X96375000Y-95089285D01*
X96546428Y-95089285D01*
X95903571Y-95003571D02*
X95903571Y-95303571D01*
X96010714Y-94832142D02*
X96117857Y-95153571D01*
X95839285Y-95153571D01*
X95710714Y-94853571D02*
X95432142Y-94853571D01*
X95582142Y-95025000D01*
X95517857Y-95025000D01*
X95475000Y-95046428D01*
X95453571Y-95067857D01*
X95432142Y-95110714D01*
X95432142Y-95217857D01*
X95453571Y-95260714D01*
X95475000Y-95282142D01*
X95517857Y-95303571D01*
X95646428Y-95303571D01*
X95689285Y-95282142D01*
X95710714Y-95260714D01*
G04 #@! TO.C,R42*
X87789285Y-98203571D02*
X87939285Y-97989285D01*
X88046428Y-98203571D02*
X88046428Y-97753571D01*
X87875000Y-97753571D01*
X87832142Y-97775000D01*
X87810714Y-97796428D01*
X87789285Y-97839285D01*
X87789285Y-97903571D01*
X87810714Y-97946428D01*
X87832142Y-97967857D01*
X87875000Y-97989285D01*
X88046428Y-97989285D01*
X87403571Y-97903571D02*
X87403571Y-98203571D01*
X87510714Y-97732142D02*
X87617857Y-98053571D01*
X87339285Y-98053571D01*
X87189285Y-97796428D02*
X87167857Y-97775000D01*
X87125000Y-97753571D01*
X87017857Y-97753571D01*
X86975000Y-97775000D01*
X86953571Y-97796428D01*
X86932142Y-97839285D01*
X86932142Y-97882142D01*
X86953571Y-97946428D01*
X87210714Y-98203571D01*
X86932142Y-98203571D01*
G04 #@! TO.C,R41*
X89189285Y-98203571D02*
X89339285Y-97989285D01*
X89446428Y-98203571D02*
X89446428Y-97753571D01*
X89275000Y-97753571D01*
X89232142Y-97775000D01*
X89210714Y-97796428D01*
X89189285Y-97839285D01*
X89189285Y-97903571D01*
X89210714Y-97946428D01*
X89232142Y-97967857D01*
X89275000Y-97989285D01*
X89446428Y-97989285D01*
X88803571Y-97903571D02*
X88803571Y-98203571D01*
X88910714Y-97732142D02*
X89017857Y-98053571D01*
X88739285Y-98053571D01*
X88332142Y-98203571D02*
X88589285Y-98203571D01*
X88460714Y-98203571D02*
X88460714Y-97753571D01*
X88503571Y-97817857D01*
X88546428Y-97860714D01*
X88589285Y-97882142D01*
G04 #@! TO.C,RT1*
X94496428Y-66478571D02*
X94646428Y-66264285D01*
X94753571Y-66478571D02*
X94753571Y-66028571D01*
X94582142Y-66028571D01*
X94539285Y-66050000D01*
X94517857Y-66071428D01*
X94496428Y-66114285D01*
X94496428Y-66178571D01*
X94517857Y-66221428D01*
X94539285Y-66242857D01*
X94582142Y-66264285D01*
X94753571Y-66264285D01*
X94367857Y-66028571D02*
X94110714Y-66028571D01*
X94239285Y-66478571D02*
X94239285Y-66028571D01*
X93725000Y-66478571D02*
X93982142Y-66478571D01*
X93853571Y-66478571D02*
X93853571Y-66028571D01*
X93896428Y-66092857D01*
X93939285Y-66135714D01*
X93982142Y-66157142D01*
G04 #@! TO.C,F1*
X94667857Y-101250000D02*
X94667857Y-101100000D01*
X94903571Y-101100000D02*
X94453571Y-101100000D01*
X94453571Y-101314285D01*
X94903571Y-101721428D02*
X94903571Y-101464285D01*
X94903571Y-101592857D02*
X94453571Y-101592857D01*
X94517857Y-101550000D01*
X94560714Y-101507142D01*
X94582142Y-101464285D01*
G04 #@! TO.C,R31*
X112907116Y-59071762D02*
X112996544Y-58825955D01*
X113155497Y-59005208D02*
X113039029Y-58570542D01*
X112873441Y-58614911D01*
X112837591Y-58646701D01*
X112822438Y-58672946D01*
X112812832Y-58719889D01*
X112829470Y-58781984D01*
X112861261Y-58817835D01*
X112887506Y-58832987D01*
X112934449Y-58842593D01*
X113100036Y-58798224D01*
X112645759Y-58675918D02*
X112376679Y-58748018D01*
X112565937Y-58874782D01*
X112503842Y-58891420D01*
X112467991Y-58923211D01*
X112452839Y-58949456D01*
X112443233Y-58996399D01*
X112470964Y-59099891D01*
X112502754Y-59135741D01*
X112528999Y-59150894D01*
X112575942Y-59160500D01*
X112700132Y-59127223D01*
X112735983Y-59095432D01*
X112751135Y-59069188D01*
X112079180Y-59293607D02*
X112327561Y-59227053D01*
X112203370Y-59260330D02*
X112086902Y-58825663D01*
X112144937Y-58876666D01*
X112197426Y-58906971D01*
X112244369Y-58916577D01*
G04 #@! TO.C,R34*
X90401740Y-60071507D02*
X90602090Y-59903346D01*
X90650121Y-60138061D02*
X90766589Y-59703394D01*
X90601002Y-59659025D01*
X90554059Y-59668631D01*
X90527815Y-59683783D01*
X90496024Y-59719634D01*
X90479386Y-59781729D01*
X90488992Y-59828672D01*
X90504144Y-59854917D01*
X90539995Y-59886707D01*
X90705582Y-59931076D01*
X90373320Y-59598018D02*
X90104240Y-59525918D01*
X90204760Y-59730328D01*
X90142665Y-59713690D01*
X90095722Y-59723296D01*
X90069477Y-59738448D01*
X90037687Y-59774299D01*
X90009956Y-59877791D01*
X90019562Y-59924734D01*
X90034715Y-59950978D01*
X90070565Y-59982769D01*
X90194756Y-60016046D01*
X90241699Y-60006440D01*
X90267943Y-59991287D01*
X89692846Y-59570977D02*
X89615200Y-59860754D01*
X89840707Y-59433120D02*
X89861007Y-59771327D01*
X89591928Y-59699227D01*
G04 #@! TO.C,254_1*
X126229636Y-123027597D02*
X126244788Y-123001353D01*
X126254394Y-122954410D01*
X126226664Y-122850918D01*
X126194873Y-122815067D01*
X126168628Y-122799915D01*
X126121685Y-122790309D01*
X126080289Y-122801401D01*
X126023740Y-122838738D01*
X125841912Y-123153672D01*
X125769813Y-122884593D01*
X126099103Y-122374854D02*
X126154564Y-122581839D01*
X125953126Y-122657998D01*
X125968278Y-122631754D01*
X125977885Y-122584811D01*
X125950154Y-122481319D01*
X125918363Y-122445468D01*
X125892119Y-122430316D01*
X125845176Y-122420709D01*
X125741684Y-122448440D01*
X125705833Y-122480231D01*
X125690681Y-122506475D01*
X125681075Y-122553418D01*
X125708805Y-122656910D01*
X125740596Y-122692761D01*
X125766840Y-122707913D01*
X125848838Y-122020407D02*
X125559060Y-122098053D01*
X126042156Y-122079531D02*
X125759410Y-122266214D01*
X125687310Y-121997135D01*
X125484386Y-121984955D02*
X125395648Y-121653780D01*
X125348307Y-121311514D02*
X125414861Y-121559895D01*
X125381584Y-121435704D02*
X125816251Y-121319235D01*
X125765248Y-121377271D01*
X125734943Y-121429760D01*
X125725337Y-121476703D01*
G04 #@! TO.C,254_2*
X59238972Y-117194442D02*
X59212727Y-117209595D01*
X59180937Y-117245445D01*
X59153206Y-117348937D01*
X59162812Y-117395880D01*
X59177965Y-117422125D01*
X59213815Y-117453915D01*
X59255212Y-117465008D01*
X59322854Y-117460948D01*
X59637788Y-117279120D01*
X59565688Y-117548200D01*
X59025645Y-117825001D02*
X59081107Y-117618017D01*
X59293637Y-117652779D01*
X59267392Y-117667932D01*
X59235602Y-117703782D01*
X59207871Y-117807275D01*
X59217477Y-117854217D01*
X59232629Y-117880462D01*
X59268480Y-117912253D01*
X59371972Y-117939983D01*
X59418915Y-117930377D01*
X59445160Y-117915225D01*
X59476950Y-117879374D01*
X59504681Y-117775882D01*
X59495075Y-117728939D01*
X59479923Y-117702695D01*
X59065158Y-118257093D02*
X59354936Y-118334739D01*
X58927301Y-118109232D02*
X59265508Y-118088932D01*
X59193408Y-118358012D01*
X59363056Y-118470022D02*
X59274318Y-118801196D01*
X58817467Y-118767521D02*
X58791222Y-118782674D01*
X58759431Y-118818524D01*
X58731701Y-118922017D01*
X58741307Y-118968959D01*
X58756459Y-118995204D01*
X58792310Y-119026995D01*
X58833707Y-119038087D01*
X58901348Y-119034027D01*
X59216283Y-118852199D01*
X59144183Y-119121279D01*
G04 #@! TO.C,J4*
X107879280Y-55185308D02*
X107823464Y-55501853D01*
X107833404Y-55568883D01*
X107868168Y-55618532D01*
X107927756Y-55650798D01*
X107969962Y-55658240D01*
X107452275Y-55262330D02*
X107400180Y-55557772D01*
X107587558Y-55112110D02*
X107637258Y-55447261D01*
X107362919Y-55398888D01*
G04 #@! TO.C,R10*
X115988514Y-127092839D02*
X116011275Y-126832262D01*
X116211206Y-126964267D02*
X115986206Y-126574556D01*
X115837745Y-126660270D01*
X115811344Y-126700256D01*
X115803500Y-126729528D01*
X115806371Y-126777358D01*
X115838514Y-126833031D01*
X115878500Y-126859432D01*
X115907772Y-126867276D01*
X115955602Y-126864405D01*
X116104063Y-126778690D01*
X115617360Y-127307124D02*
X115840052Y-127178553D01*
X115728706Y-127242839D02*
X115503706Y-126853127D01*
X115572965Y-126887372D01*
X115631509Y-126903059D01*
X115679338Y-126900188D01*
X115151110Y-127056699D02*
X115113995Y-127078127D01*
X115087594Y-127118113D01*
X115079750Y-127147385D01*
X115082621Y-127195215D01*
X115106921Y-127280160D01*
X115160492Y-127372949D01*
X115221907Y-127436465D01*
X115261893Y-127462866D01*
X115291165Y-127470710D01*
X115338995Y-127467839D01*
X115376110Y-127446410D01*
X115402511Y-127406424D01*
X115410355Y-127377152D01*
X115407484Y-127329322D01*
X115383184Y-127244377D01*
X115329613Y-127151589D01*
X115268198Y-127088072D01*
X115228212Y-127061671D01*
X115198940Y-127053828D01*
X115151110Y-127056699D01*
G04 #@! TO.C,R9*
X110827213Y-129596483D02*
X110894877Y-129343817D01*
X111068848Y-129508535D02*
X110914939Y-129085673D01*
X110753849Y-129144305D01*
X110720905Y-129179099D01*
X110708098Y-129206564D01*
X110702620Y-129254166D01*
X110724607Y-129314575D01*
X110759401Y-129347518D01*
X110786866Y-129360326D01*
X110834468Y-129365804D01*
X110995558Y-129307172D01*
X110625850Y-129669773D02*
X110545305Y-129699089D01*
X110497704Y-129693610D01*
X110470238Y-129680803D01*
X110407979Y-129635052D01*
X110358527Y-129561836D01*
X110299895Y-129400746D01*
X110305373Y-129353144D01*
X110318180Y-129325679D01*
X110351124Y-129290885D01*
X110431669Y-129261569D01*
X110479270Y-129267047D01*
X110506735Y-129279854D01*
X110541530Y-129312798D01*
X110578175Y-129413479D01*
X110572697Y-129461081D01*
X110559889Y-129488546D01*
X110526946Y-129523340D01*
X110446401Y-129552656D01*
X110398799Y-129547178D01*
X110371334Y-129534371D01*
X110336540Y-129501427D01*
G04 #@! TO.C,R8*
X105537093Y-130953780D02*
X105647604Y-130716702D01*
X105790329Y-130909127D02*
X105712187Y-130465964D01*
X105543363Y-130495732D01*
X105504878Y-130524277D01*
X105487496Y-130549101D01*
X105473835Y-130595028D01*
X105484998Y-130658337D01*
X105513544Y-130696822D01*
X105538368Y-130714204D01*
X105584295Y-130727865D01*
X105753119Y-130698097D01*
X105239204Y-130745196D02*
X105277689Y-130716651D01*
X105295071Y-130691827D01*
X105308732Y-130645899D01*
X105305011Y-130624796D01*
X105276466Y-130586311D01*
X105251642Y-130568929D01*
X105205715Y-130555269D01*
X105121303Y-130570153D01*
X105082818Y-130598698D01*
X105065436Y-130623522D01*
X105051775Y-130669449D01*
X105055496Y-130690552D01*
X105084041Y-130729037D01*
X105108865Y-130746419D01*
X105154792Y-130760080D01*
X105239204Y-130745196D01*
X105285131Y-130758857D01*
X105309955Y-130776239D01*
X105338500Y-130814724D01*
X105353385Y-130899136D01*
X105339724Y-130945063D01*
X105322342Y-130969887D01*
X105283857Y-130998432D01*
X105199445Y-131013316D01*
X105153517Y-130999655D01*
X105128693Y-130982273D01*
X105100148Y-130943788D01*
X105085264Y-130859376D01*
X105098925Y-130813449D01*
X105116307Y-130788625D01*
X105154792Y-130760080D01*
G04 #@! TO.C,R7*
X100100920Y-131448171D02*
X100250920Y-131233885D01*
X100358062Y-131448171D02*
X100358062Y-130998171D01*
X100186634Y-130998171D01*
X100143777Y-131019600D01*
X100122348Y-131041028D01*
X100100920Y-131083885D01*
X100100920Y-131148171D01*
X100122348Y-131191028D01*
X100143777Y-131212457D01*
X100186634Y-131233885D01*
X100358062Y-131233885D01*
X99950920Y-130998171D02*
X99650920Y-130998171D01*
X99843777Y-131448171D01*
G04 #@! TO.C,R6*
X94638027Y-131004827D02*
X94822959Y-130819844D01*
X94891264Y-131049479D02*
X94969405Y-130606316D01*
X94800581Y-130576547D01*
X94754654Y-130590208D01*
X94729830Y-130607590D01*
X94701285Y-130646075D01*
X94690122Y-130709385D01*
X94703783Y-130755312D01*
X94721165Y-130780136D01*
X94759650Y-130808681D01*
X94928474Y-130838449D01*
X94336315Y-130494685D02*
X94420727Y-130509569D01*
X94459212Y-130538114D01*
X94476594Y-130562938D01*
X94507637Y-130633689D01*
X94513855Y-130721822D01*
X94484087Y-130890646D01*
X94455542Y-130929131D01*
X94430718Y-130946513D01*
X94384791Y-130960174D01*
X94300379Y-130945290D01*
X94261894Y-130916745D01*
X94244512Y-130891921D01*
X94230851Y-130845994D01*
X94249456Y-130740479D01*
X94278001Y-130701994D01*
X94302825Y-130684612D01*
X94348752Y-130670951D01*
X94433164Y-130685835D01*
X94471649Y-130714380D01*
X94489031Y-130739204D01*
X94502692Y-130785131D01*
G04 #@! TO.C,R5*
X89316140Y-129647786D02*
X89530384Y-129497726D01*
X89557775Y-129735734D02*
X89711684Y-129312872D01*
X89550594Y-129254240D01*
X89502993Y-129259718D01*
X89475527Y-129272525D01*
X89440733Y-129305469D01*
X89418746Y-129365878D01*
X89424224Y-129413479D01*
X89437031Y-129440945D01*
X89469975Y-129475739D01*
X89631065Y-129534371D01*
X89087460Y-129085673D02*
X89288823Y-129158963D01*
X89235669Y-129367655D01*
X89222862Y-129340189D01*
X89189918Y-129305395D01*
X89089237Y-129268750D01*
X89041635Y-129274228D01*
X89014170Y-129287036D01*
X88979376Y-129319979D01*
X88942731Y-129420660D01*
X88948209Y-129468262D01*
X88961016Y-129495727D01*
X88993960Y-129530522D01*
X89094641Y-129567167D01*
X89142242Y-129561688D01*
X89169708Y-129548881D01*
G04 #@! TO.C,R4*
X84304366Y-127299982D02*
X84541412Y-127189405D01*
X84527058Y-127428553D02*
X84752058Y-127038842D01*
X84603596Y-126953127D01*
X84555767Y-126950256D01*
X84526495Y-126958100D01*
X84486509Y-126984501D01*
X84454366Y-127040174D01*
X84451495Y-127088004D01*
X84459338Y-127117276D01*
X84485739Y-127157262D01*
X84634201Y-127242976D01*
X84120327Y-126847317D02*
X83970327Y-127107124D01*
X84298830Y-126752427D02*
X84230904Y-127084363D01*
X83989654Y-126945078D01*
G04 #@! TO.C,R3*
X79796986Y-124083309D02*
X80049633Y-124015575D01*
X79993968Y-124248598D02*
X80283223Y-123903878D01*
X80151901Y-123793685D01*
X80105297Y-123782553D01*
X80075107Y-123785194D01*
X80031144Y-123804250D01*
X79989822Y-123853496D01*
X79978689Y-123900100D01*
X79981330Y-123930290D01*
X80000387Y-123974253D01*
X80131709Y-124084445D01*
X79971333Y-123642171D02*
X79757935Y-123463109D01*
X79762650Y-123690849D01*
X79713404Y-123649527D01*
X79666800Y-123638394D01*
X79636610Y-123641035D01*
X79592647Y-123660092D01*
X79523777Y-123742168D01*
X79512644Y-123788772D01*
X79515285Y-123818962D01*
X79534342Y-123862925D01*
X79632833Y-123945569D01*
X79679438Y-123956702D01*
X79709627Y-123954061D01*
G04 #@! TO.C,R2*
X121251200Y-122603571D02*
X121401200Y-122389285D01*
X121508342Y-122603571D02*
X121508342Y-122153571D01*
X121336914Y-122153571D01*
X121294057Y-122175000D01*
X121272628Y-122196428D01*
X121251200Y-122239285D01*
X121251200Y-122303571D01*
X121272628Y-122346428D01*
X121294057Y-122367857D01*
X121336914Y-122389285D01*
X121508342Y-122389285D01*
X121079771Y-122196428D02*
X121058342Y-122175000D01*
X121015485Y-122153571D01*
X120908342Y-122153571D01*
X120865485Y-122175000D01*
X120844057Y-122196428D01*
X120822628Y-122239285D01*
X120822628Y-122282142D01*
X120844057Y-122346428D01*
X121101200Y-122603571D01*
X120822628Y-122603571D01*
G04 #@! TO.C,R1*
X77503571Y-120574600D02*
X77289285Y-120424600D01*
X77503571Y-120317457D02*
X77053571Y-120317457D01*
X77053571Y-120488885D01*
X77075000Y-120531742D01*
X77096428Y-120553171D01*
X77139285Y-120574600D01*
X77203571Y-120574600D01*
X77246428Y-120553171D01*
X77267857Y-120531742D01*
X77289285Y-120488885D01*
X77289285Y-120317457D01*
X77503571Y-121003171D02*
X77503571Y-120746028D01*
X77503571Y-120874600D02*
X77053571Y-120874600D01*
X77117857Y-120831742D01*
X77160714Y-120788885D01*
X77182142Y-120746028D01*
G04 #@! TO.C,R11*
X120434472Y-123949151D02*
X120411639Y-123688580D01*
X120631455Y-123783863D02*
X120342201Y-123439143D01*
X120210879Y-123549335D01*
X120191822Y-123593298D01*
X120189181Y-123623487D01*
X120200314Y-123670092D01*
X120241636Y-123719338D01*
X120285599Y-123738394D01*
X120315789Y-123741035D01*
X120362393Y-123729903D01*
X120493715Y-123619710D01*
X120106168Y-124224631D02*
X120303151Y-124059343D01*
X120204659Y-124141987D02*
X119915405Y-123797267D01*
X119989557Y-123818965D01*
X120049936Y-123824247D01*
X120096540Y-123813115D01*
X119777863Y-124500112D02*
X119974846Y-124334824D01*
X119876354Y-124417468D02*
X119587100Y-124072748D01*
X119661252Y-124094445D01*
X119721631Y-124099728D01*
X119768235Y-124088595D01*
G04 #@! TO.C,R25*
X87765485Y-121803571D02*
X87915485Y-121589285D01*
X88022628Y-121803571D02*
X88022628Y-121353571D01*
X87851200Y-121353571D01*
X87808342Y-121375000D01*
X87786914Y-121396428D01*
X87765485Y-121439285D01*
X87765485Y-121503571D01*
X87786914Y-121546428D01*
X87808342Y-121567857D01*
X87851200Y-121589285D01*
X88022628Y-121589285D01*
X87594057Y-121396428D02*
X87572628Y-121375000D01*
X87529771Y-121353571D01*
X87422628Y-121353571D01*
X87379771Y-121375000D01*
X87358342Y-121396428D01*
X87336914Y-121439285D01*
X87336914Y-121482142D01*
X87358342Y-121546428D01*
X87615485Y-121803571D01*
X87336914Y-121803571D01*
X86929771Y-121353571D02*
X87144057Y-121353571D01*
X87165485Y-121567857D01*
X87144057Y-121546428D01*
X87101200Y-121525000D01*
X86994057Y-121525000D01*
X86951200Y-121546428D01*
X86929771Y-121567857D01*
X86908342Y-121610714D01*
X86908342Y-121717857D01*
X86929771Y-121760714D01*
X86951200Y-121782142D01*
X86994057Y-121803571D01*
X87101200Y-121803571D01*
X87144057Y-121782142D01*
X87165485Y-121760714D01*
G04 #@! TO.C,R23*
X112965485Y-122003571D02*
X113115485Y-121789285D01*
X113222628Y-122003571D02*
X113222628Y-121553571D01*
X113051200Y-121553571D01*
X113008342Y-121575000D01*
X112986914Y-121596428D01*
X112965485Y-121639285D01*
X112965485Y-121703571D01*
X112986914Y-121746428D01*
X113008342Y-121767857D01*
X113051200Y-121789285D01*
X113222628Y-121789285D01*
X112794057Y-121596428D02*
X112772628Y-121575000D01*
X112729771Y-121553571D01*
X112622628Y-121553571D01*
X112579771Y-121575000D01*
X112558342Y-121596428D01*
X112536914Y-121639285D01*
X112536914Y-121682142D01*
X112558342Y-121746428D01*
X112815485Y-122003571D01*
X112536914Y-122003571D01*
X112386914Y-121553571D02*
X112108342Y-121553571D01*
X112258342Y-121725000D01*
X112194057Y-121725000D01*
X112151200Y-121746428D01*
X112129771Y-121767857D01*
X112108342Y-121810714D01*
X112108342Y-121917857D01*
X112129771Y-121960714D01*
X112151200Y-121982142D01*
X112194057Y-122003571D01*
X112322628Y-122003571D01*
X112365485Y-121982142D01*
X112386914Y-121960714D01*
G04 #@! TO.C,R24*
X100165485Y-124103571D02*
X100315485Y-123889285D01*
X100422628Y-124103571D02*
X100422628Y-123653571D01*
X100251200Y-123653571D01*
X100208342Y-123675000D01*
X100186914Y-123696428D01*
X100165485Y-123739285D01*
X100165485Y-123803571D01*
X100186914Y-123846428D01*
X100208342Y-123867857D01*
X100251200Y-123889285D01*
X100422628Y-123889285D01*
X99994057Y-123696428D02*
X99972628Y-123675000D01*
X99929771Y-123653571D01*
X99822628Y-123653571D01*
X99779771Y-123675000D01*
X99758342Y-123696428D01*
X99736914Y-123739285D01*
X99736914Y-123782142D01*
X99758342Y-123846428D01*
X100015485Y-124103571D01*
X99736914Y-124103571D01*
X99351200Y-123803571D02*
X99351200Y-124103571D01*
X99458342Y-123632142D02*
X99565485Y-123953571D01*
X99286914Y-123953571D01*
G04 #@! TD*
M02*
