  0
SECTION
  2
HEADER
  9
$ACADVER
  1
AC1009
  9
$EXTMIN
 10
0.0
 20
0.0
 30
0.0
  9
$EXTMAX
 10
1000.0
 20
1000.0
 30
0.0
  9
$FILLMODE
 70
 0
  9
$SPLFRAME
 70
 1
  0
ENDSEC
  0
SECTION
  2
TABLES
  0
TABLE
  2
LAYER
 70
1
  0
LAYER
  2
0
 70
     0
 62
     7
  6
CONTINUOUS
  0
ENDTAB
  0
ENDSEC
  0
SECTION
  2
ENTITIES
  0
LINE
  8
0
 62
     6
 10
31.4193
 20
42.9782
 30
0.0
 11
31.4193
 21
42.7288
 31
0.0
  0
LINE
  8
0
 62
     6
 10
31.4193
 20
42.7288
 30
0.0
 11
31.3187
 21
41.9806
 31
0.0
  0
LINE
  8
0
 62
     6
 10
31.3187
 20
41.9806
 30
0.0
 11
31.0293
 21
41.0517
 31
0.0
  0
LINE
  8
0
 62
     6
 10
31.0293
 20
41.0517
 30
0.0
 11
30.5732
 21
40.211
 31
0.0
  0
LINE
  8
0
 62
     6
 10
30.5732
 20
40.211
 30
0.0
 11
29.9696
 21
39.4779
 31
0.0
  0
LINE
  8
0
 62
     6
 10
29.9696
 20
39.4779
 30
0.0
 11
29.2365
 21
38.8729
 31
0.0
  0
LINE
  8
0
 62
     6
 10
29.2365
 20
38.8729
 30
0.0
 11
28.3959
 21
38.4168
 31
0.0
  0
LINE
  8
0
 62
     6
 10
28.3959
 20
38.4168
 30
0.0
 11
27.4657
 21
38.1289
 31
0.0
  0
LINE
  8
0
 62
     6
 10
27.4657
 20
38.1289
 30
0.0
 11
26.7174
 21
38.027
 31
0.0
  0
LINE
  8
0
 62
     6
 10
26.7174
 20
38.027
 30
0.0
 11
26.4694
 21
38.027
 31
0.0
  0
LINE
  8
0
 62
     6
 10
26.4694
 20
38.027
 30
0.0
 11
26.2199
 21
38.027
 31
0.0
  0
LINE
  8
0
 62
     6
 10
26.2199
 20
38.027
 30
0.0
 11
25.4717
 21
38.1289
 31
0.0
  0
LINE
  8
0
 62
     6
 10
25.4717
 20
38.1289
 30
0.0
 11
24.5415
 21
38.4168
 31
0.0
  0
LINE
  8
0
 62
     6
 10
24.5415
 20
38.4168
 30
0.0
 11
23.7009
 21
38.8729
 31
0.0
  0
LINE
  8
0
 62
     6
 10
23.7009
 20
38.8729
 30
0.0
 11
22.9691
 21
39.4779
 31
0.0
  0
LINE
  8
0
 62
     6
 10
22.9691
 20
39.4779
 30
0.0
 11
22.3642
 21
40.211
 31
0.0
  0
LINE
  8
0
 62
     6
 10
22.3642
 20
40.211
 30
0.0
 11
21.9081
 21
41.0517
 31
0.0
  0
LINE
  8
0
 62
     6
 10
21.9081
 20
41.0517
 30
0.0
 11
21.6187
 21
41.9806
 31
0.0
  0
LINE
  8
0
 62
     6
 10
21.6187
 20
41.9806
 30
0.0
 11
21.5194
 21
42.7288
 31
0.0
  0
LINE
  8
0
 62
     6
 10
21.5194
 20
42.7288
 30
0.0
 11
21.5194
 21
42.9782
 31
0.0
  0
LINE
  8
0
 62
     6
 10
21.5194
 20
42.9782
 30
0.0
 11
21.5194
 21
43.2276
 31
0.0
  0
LINE
  8
0
 62
     6
 10
21.5194
 20
43.2276
 30
0.0
 11
21.6187
 21
43.9759
 31
0.0
  0
LINE
  8
0
 62
     6
 10
21.6187
 20
43.9759
 30
0.0
 11
21.9081
 21
44.9061
 31
0.0
  0
LINE
  8
0
 62
     6
 10
21.9081
 20
44.9061
 30
0.0
 11
22.3642
 21
45.7468
 31
0.0
  0
LINE
  8
0
 62
     6
 10
22.3642
 20
45.7468
 30
0.0
 11
22.9691
 21
46.4785
 31
0.0
  0
LINE
  8
0
 62
     6
 10
22.9691
 20
46.4785
 30
0.0
 11
23.7009
 21
47.0835
 31
0.0
  0
LINE
  8
0
 62
     6
 10
23.7009
 20
47.0835
 30
0.0
 11
24.5415
 21
47.5396
 31
0.0
  0
LINE
  8
0
 62
     6
 10
24.5415
 20
47.5396
 30
0.0
 11
25.4717
 21
47.8289
 31
0.0
  0
LINE
  8
0
 62
     6
 10
25.4717
 20
47.8289
 30
0.0
 11
26.2199
 21
47.928
 31
0.0
  0
LINE
  8
0
 62
     6
 10
26.2199
 20
47.928
 30
0.0
 11
26.4694
 21
47.928
 31
0.0
  0
LINE
  8
0
 62
     6
 10
26.4694
 20
47.928
 30
0.0
 11
26.7174
 21
47.928
 31
0.0
  0
LINE
  8
0
 62
     6
 10
26.7174
 20
47.928
 30
0.0
 11
27.4657
 21
47.8289
 31
0.0
  0
LINE
  8
0
 62
     6
 10
27.4657
 20
47.8289
 30
0.0
 11
28.3959
 21
47.5396
 31
0.0
  0
LINE
  8
0
 62
     6
 10
28.3959
 20
47.5396
 30
0.0
 11
29.2365
 21
47.0835
 31
0.0
  0
LINE
  8
0
 62
     6
 10
29.2365
 20
47.0835
 30
0.0
 11
29.9696
 21
46.4785
 31
0.0
  0
LINE
  8
0
 62
     6
 10
29.9696
 20
46.4785
 30
0.0
 11
30.5732
 21
45.7468
 31
0.0
  0
LINE
  8
0
 62
     6
 10
30.5732
 20
45.7468
 30
0.0
 11
31.0293
 21
44.9061
 31
0.0
  0
LINE
  8
0
 62
     6
 10
31.0293
 20
44.9061
 30
0.0
 11
31.3187
 21
43.9759
 31
0.0
  0
LINE
  8
0
 62
     6
 10
31.3187
 20
43.9759
 30
0.0
 11
31.4193
 21
43.2276
 31
0.0
  0
LINE
  8
0
 62
     6
 10
31.4193
 20
43.2276
 30
0.0
 11
31.4193
 21
42.9782
 31
0.0
  0
LINE
  8
0
 62
     6
 10
29.4487
 20
3.05098
 30
0.0
 11
29.4487
 21
2.76297
 31
0.0
  0
LINE
  8
0
 62
     6
 10
29.4487
 20
2.76297
 30
0.0
 11
29.2144
 21
1.8948
 31
0.0
  0
LINE
  8
0
 62
     6
 10
29.2144
 20
1.8948
 30
0.0
 11
28.5778
 21
0.950846
 31
0.0
  0
LINE
  8
0
 62
     6
 10
28.5778
 20
0.950846
 30
0.0
 11
27.6338
 21
0.314193
 31
0.0
  0
LINE
  8
0
 62
     6
 10
27.6338
 20
0.314193
 30
0.0
 11
26.767
 21
0.0799264
 31
0.0
  0
LINE
  8
0
 62
     6
 10
26.767
 20
0.0799264
 30
0.0
 11
26.479
 21
0.0799264
 31
0.0
  0
LINE
  8
0
 62
     6
 10
26.479
 20
0.0799264
 30
0.0
 11
26.1896
 21
0.0799264
 31
0.0
  0
LINE
  8
0
 62
     6
 10
26.1896
 20
0.0799264
 30
0.0
 11
25.3228
 21
0.314193
 31
0.0
  0
LINE
  8
0
 62
     6
 10
25.3228
 20
0.314193
 30
0.0
 11
24.3789
 21
0.950846
 31
0.0
  0
LINE
  8
0
 62
     6
 10
24.3789
 20
0.950846
 30
0.0
 11
23.7422
 21
1.8948
 31
0.0
  0
LINE
  8
0
 62
     6
 10
23.7422
 20
1.8948
 30
0.0
 11
23.5093
 21
2.76297
 31
0.0
  0
LINE
  8
0
 62
     6
 10
23.5093
 20
2.76297
 30
0.0
 11
23.5093
 21
3.05098
 31
0.0
  0
LINE
  8
0
 62
     6
 10
23.5093
 20
3.05098
 30
0.0
 11
23.5093
 21
3.34036
 31
0.0
  0
LINE
  8
0
 62
     6
 10
23.5093
 20
3.34036
 30
0.0
 11
23.7422
 21
4.20716
 31
0.0
  0
LINE
  8
0
 62
     6
 10
23.7422
 20
4.20716
 30
0.0
 11
24.3789
 21
5.15112
 31
0.0
  0
LINE
  8
0
 62
     6
 10
24.3789
 20
5.15112
 30
0.0
 11
25.3228
 21
5.78778
 31
0.0
  0
LINE
  8
0
 62
     6
 10
25.3228
 20
5.78778
 30
0.0
 11
26.1896
 21
6.02065
 31
0.0
  0
LINE
  8
0
 62
     6
 10
26.1896
 20
6.02065
 30
0.0
 11
26.479
 21
6.02065
 31
0.0
  0
LINE
  8
0
 62
     6
 10
26.479
 20
6.02065
 30
0.0
 11
26.767
 21
6.02065
 31
0.0
  0
LINE
  8
0
 62
     6
 10
26.767
 20
6.02065
 30
0.0
 11
27.6338
 21
5.78778
 31
0.0
  0
LINE
  8
0
 62
     6
 10
27.6338
 20
5.78778
 30
0.0
 11
28.5778
 21
5.15112
 31
0.0
  0
LINE
  8
0
 62
     6
 10
28.5778
 20
5.15112
 30
0.0
 11
29.2144
 21
4.20716
 31
0.0
  0
LINE
  8
0
 62
     6
 10
29.2144
 20
4.20716
 30
0.0
 11
29.4487
 21
3.34036
 31
0.0
  0
LINE
  8
0
 62
     6
 10
29.4487
 20
3.34036
 30
0.0
 11
29.4487
 21
3.05098
 31
0.0
  0
LINE
  8
0
 62
     6
 10
52.9043
 20
10.6853
 30
0.0
 11
52.9043
 21
10.3973
 31
0.0
  0
LINE
  8
0
 62
     6
 10
52.9043
 20
10.3973
 30
0.0
 11
52.6701
 21
9.5305
 31
0.0
  0
LINE
  8
0
 62
     6
 10
52.6701
 20
9.5305
 30
0.0
 11
52.0333
 21
8.58654
 31
0.0
  0
LINE
  8
0
 62
     6
 10
52.0333
 20
8.58654
 30
0.0
 11
51.0893
 21
7.94992
 31
0.0
  0
LINE
  8
0
 62
     6
 10
51.0893
 20
7.94992
 30
0.0
 11
50.2225
 21
7.71564
 31
0.0
  0
LINE
  8
0
 62
     6
 10
50.2225
 20
7.71564
 30
0.0
 11
49.9346
 21
7.71564
 31
0.0
  0
LINE
  8
0
 62
     6
 10
49.9346
 20
7.71564
 30
0.0
 11
49.6454
 21
7.71564
 31
0.0
  0
LINE
  8
0
 62
     6
 10
49.6454
 20
7.71564
 30
0.0
 11
48.7772
 21
7.94992
 31
0.0
  0
LINE
  8
0
 62
     6
 10
48.7772
 20
7.94992
 30
0.0
 11
47.8331
 21
8.58654
 31
0.0
  0
LINE
  8
0
 62
     6
 10
47.8331
 20
8.58654
 30
0.0
 11
47.1964
 21
9.5305
 31
0.0
  0
LINE
  8
0
 62
     6
 10
47.1964
 20
9.5305
 30
0.0
 11
46.9635
 21
10.3973
 31
0.0
  0
LINE
  8
0
 62
     6
 10
46.9635
 20
10.3973
 30
0.0
 11
46.9635
 21
10.6853
 31
0.0
  0
LINE
  8
0
 62
     6
 10
46.9635
 20
10.6853
 30
0.0
 11
46.9635
 21
10.9747
 31
0.0
  0
LINE
  8
0
 62
     6
 10
46.9635
 20
10.9747
 30
0.0
 11
47.1964
 21
11.8429
 31
0.0
  0
LINE
  8
0
 62
     6
 10
47.1964
 20
11.8429
 30
0.0
 11
47.8331
 21
12.7868
 31
0.0
  0
LINE
  8
0
 62
     6
 10
47.8331
 20
12.7868
 30
0.0
 11
48.7772
 21
13.4235
 31
0.0
  0
LINE
  8
0
 62
     6
 10
48.7772
 20
13.4235
 30
0.0
 11
49.6454
 21
13.6563
 31
0.0
  0
LINE
  8
0
 62
     6
 10
49.6454
 20
13.6563
 30
0.0
 11
49.9346
 21
13.6563
 31
0.0
  0
LINE
  8
0
 62
     6
 10
49.9346
 20
13.6563
 30
0.0
 11
50.2225
 21
13.6563
 31
0.0
  0
LINE
  8
0
 62
     6
 10
50.2225
 20
13.6563
 30
0.0
 11
51.0893
 21
13.4235
 31
0.0
  0
LINE
  8
0
 62
     6
 10
51.0893
 20
13.4235
 30
0.0
 11
52.0333
 21
12.7868
 31
0.0
  0
LINE
  8
0
 62
     6
 10
52.0333
 20
12.7868
 30
0.0
 11
52.6701
 21
11.8429
 31
0.0
  0
LINE
  8
0
 62
     6
 10
52.6701
 20
11.8429
 30
0.0
 11
52.9043
 21
10.9747
 31
0.0
  0
LINE
  8
0
 62
     6
 10
52.9043
 20
10.9747
 30
0.0
 11
52.9043
 21
10.6853
 31
0.0
  0
LINE
  8
0
 62
     6
 10
5.96967
 20
10.6826
 30
0.0
 11
5.96967
 21
10.3945
 31
0.0
  0
LINE
  8
0
 62
     6
 10
5.96967
 20
10.3945
 30
0.0
 11
5.73539
 21
9.52775
 31
0.0
  0
LINE
  8
0
 62
     6
 10
5.73539
 20
9.52775
 30
0.0
 11
5.09873
 21
8.58379
 31
0.0
  0
LINE
  8
0
 62
     6
 10
5.09873
 20
8.58379
 30
0.0
 11
4.15477
 21
7.94713
 31
0.0
  0
LINE
  8
0
 62
     6
 10
4.15477
 20
7.94713
 30
0.0
 11
3.288
 21
7.71289
 31
0.0
  0
LINE
  8
0
 62
     6
 10
3.288
 20
7.71289
 30
0.0
 11
2.99999
 21
7.71289
 31
0.0
  0
LINE
  8
0
 62
     6
 10
2.99999
 20
7.71289
 30
0.0
 11
2.7106
 21
7.71289
 31
0.0
  0
LINE
  8
0
 62
     6
 10
2.7106
 20
7.71289
 30
0.0
 11
1.84381
 21
7.94713
 31
0.0
  0
LINE
  8
0
 62
     6
 10
1.84381
 20
7.94713
 30
0.0
 11
0.899859
 21
8.58379
 31
0.0
  0
LINE
  8
0
 62
     6
 10
0.899859
 20
8.58379
 30
0.0
 11
0.263205
 21
9.52775
 31
0.0
  0
LINE
  8
0
 62
     6
 10
0.263205
 20
9.52775
 30
0.0
 11
0.0303168
 21
10.3945
 31
0.0
  0
LINE
  8
0
 62
     6
 10
0.0303168
 20
10.3945
 30
0.0
 11
0.0303168
 21
10.6826
 31
0.0
  0
LINE
  8
0
 62
     6
 10
0.0303168
 20
10.6826
 30
0.0
 11
0.0303168
 21
10.972
 31
0.0
  0
LINE
  8
0
 62
     6
 10
0.0303168
 20
10.972
 30
0.0
 11
0.263205
 21
11.8401
 31
0.0
  0
LINE
  8
0
 62
     6
 10
0.263205
 20
11.8401
 30
0.0
 11
0.899859
 21
12.7841
 31
0.0
  0
LINE
  8
0
 62
     6
 10
0.899859
 20
12.7841
 30
0.0
 11
1.84381
 21
13.4207
 31
0.0
  0
LINE
  8
0
 62
     6
 10
1.84381
 20
13.4207
 30
0.0
 11
2.7106
 21
13.6536
 31
0.0
  0
LINE
  8
0
 62
     6
 10
2.7106
 20
13.6536
 30
0.0
 11
2.99999
 21
13.6536
 31
0.0
  0
LINE
  8
0
 62
     6
 10
2.99999
 20
13.6536
 30
0.0
 11
3.288
 21
13.6536
 31
0.0
  0
LINE
  8
0
 62
     6
 10
3.288
 20
13.6536
 30
0.0
 11
4.15477
 21
13.4207
 31
0.0
  0
LINE
  8
0
 62
     6
 10
4.15477
 20
13.4207
 30
0.0
 11
5.09873
 21
12.7841
 31
0.0
  0
LINE
  8
0
 62
     6
 10
5.09873
 20
12.7841
 30
0.0
 11
5.73539
 21
11.8401
 31
0.0
  0
LINE
  8
0
 62
     6
 10
5.73539
 20
11.8401
 30
0.0
 11
5.96967
 21
10.972
 31
0.0
  0
LINE
  8
0
 62
     6
 10
5.96967
 20
10.972
 30
0.0
 11
5.96967
 21
10.6826
 31
0.0
  0
ENDSEC
  0
EOF
