G04 Layer_Color=255*
%FSLAX25Y25*%
%MOIN*%
G70*
G01*
G75*
G04:AMPARAMS|DCode=10|XSize=98.42mil|YSize=66.93mil|CornerRadius=16.73mil|HoleSize=0mil|Usage=FLASHONLY|Rotation=270.000|XOffset=0mil|YOffset=0mil|HoleType=Round|Shape=RoundedRectangle|*
%AMROUNDEDRECTD10*
21,1,0.09842,0.03347,0,0,270.0*
21,1,0.06496,0.06693,0,0,270.0*
1,1,0.03346,-0.01673,-0.03248*
1,1,0.03346,-0.01673,0.03248*
1,1,0.03346,0.01673,0.03248*
1,1,0.03346,0.01673,-0.03248*
%
%ADD10ROUNDEDRECTD10*%
%ADD11R,0.02756X0.03543*%
G04:AMPARAMS|DCode=12|XSize=12.6mil|YSize=27.56mil|CornerRadius=0mil|HoleSize=0mil|Usage=FLASHONLY|Rotation=168.000|XOffset=0mil|YOffset=0mil|HoleType=Round|Shape=Rectangle|*
%AMROTATEDRECTD12*
4,1,4,0.00903,0.01217,0.00330,-0.01479,-0.00903,-0.01217,-0.00330,0.01479,0.00903,0.01217,0.0*
%
%ADD12ROTATEDRECTD12*%

%ADD13R,0.07874X0.01968*%
%ADD14R,0.04921X0.13189*%
%ADD15R,0.03543X0.02756*%
%ADD16R,0.10630X0.04528*%
G04:AMPARAMS|DCode=17|XSize=39.37mil|YSize=35.43mil|CornerRadius=0mil|HoleSize=0mil|Usage=FLASHONLY|Rotation=130.000|XOffset=0mil|YOffset=0mil|HoleType=Round|Shape=Rectangle|*
%AMROTATEDRECTD17*
4,1,4,0.02623,-0.00369,-0.00092,-0.02647,-0.02623,0.00369,0.00092,0.02647,0.02623,-0.00369,0.0*
%
%ADD17ROTATEDRECTD17*%

G04:AMPARAMS|DCode=18|XSize=39.37mil|YSize=35.43mil|CornerRadius=0mil|HoleSize=0mil|Usage=FLASHONLY|Rotation=120.000|XOffset=0mil|YOffset=0mil|HoleType=Round|Shape=Rectangle|*
%AMROTATEDRECTD18*
4,1,4,0.02519,-0.00819,-0.00550,-0.02591,-0.02519,0.00819,0.00550,0.02591,0.02519,-0.00819,0.0*
%
%ADD18ROTATEDRECTD18*%

G04:AMPARAMS|DCode=19|XSize=39.37mil|YSize=35.43mil|CornerRadius=0mil|HoleSize=0mil|Usage=FLASHONLY|Rotation=110.000|XOffset=0mil|YOffset=0mil|HoleType=Round|Shape=Rectangle|*
%AMROTATEDRECTD19*
4,1,4,0.02338,-0.01244,-0.00991,-0.02456,-0.02338,0.01244,0.00991,0.02456,0.02338,-0.01244,0.0*
%
%ADD19ROTATEDRECTD19*%

G04:AMPARAMS|DCode=20|XSize=39.37mil|YSize=35.43mil|CornerRadius=0mil|HoleSize=0mil|Usage=FLASHONLY|Rotation=100.000|XOffset=0mil|YOffset=0mil|HoleType=Round|Shape=Rectangle|*
%AMROTATEDRECTD20*
4,1,4,0.02087,-0.01631,-0.01403,-0.02246,-0.02087,0.01631,0.01403,0.02246,0.02087,-0.01631,0.0*
%
%ADD20ROTATEDRECTD20*%

%ADD21R,0.03543X0.03937*%
G04:AMPARAMS|DCode=22|XSize=39.37mil|YSize=35.43mil|CornerRadius=0mil|HoleSize=0mil|Usage=FLASHONLY|Rotation=80.000|XOffset=0mil|YOffset=0mil|HoleType=Round|Shape=Rectangle|*
%AMROTATEDRECTD22*
4,1,4,0.01403,-0.02246,-0.02087,-0.01631,-0.01403,0.02246,0.02087,0.01631,0.01403,-0.02246,0.0*
%
%ADD22ROTATEDRECTD22*%

G04:AMPARAMS|DCode=23|XSize=39.37mil|YSize=35.43mil|CornerRadius=0mil|HoleSize=0mil|Usage=FLASHONLY|Rotation=70.000|XOffset=0mil|YOffset=0mil|HoleType=Round|Shape=Rectangle|*
%AMROTATEDRECTD23*
4,1,4,0.00991,-0.02456,-0.02338,-0.01244,-0.00991,0.02456,0.02338,0.01244,0.00991,-0.02456,0.0*
%
%ADD23ROTATEDRECTD23*%

G04:AMPARAMS|DCode=24|XSize=39.37mil|YSize=35.43mil|CornerRadius=0mil|HoleSize=0mil|Usage=FLASHONLY|Rotation=60.000|XOffset=0mil|YOffset=0mil|HoleType=Round|Shape=Rectangle|*
%AMROTATEDRECTD24*
4,1,4,0.00550,-0.02591,-0.02519,-0.00819,-0.00550,0.02591,0.02519,0.00819,0.00550,-0.02591,0.0*
%
%ADD24ROTATEDRECTD24*%

G04:AMPARAMS|DCode=25|XSize=39.37mil|YSize=35.43mil|CornerRadius=0mil|HoleSize=0mil|Usage=FLASHONLY|Rotation=50.000|XOffset=0mil|YOffset=0mil|HoleType=Round|Shape=Rectangle|*
%AMROTATEDRECTD25*
4,1,4,0.00092,-0.02647,-0.02623,-0.00369,-0.00092,0.02647,0.02623,0.00369,0.00092,-0.02647,0.0*
%
%ADD25ROTATEDRECTD25*%

G04:AMPARAMS|DCode=26|XSize=35.43mil|YSize=27.56mil|CornerRadius=0mil|HoleSize=0mil|Usage=FLASHONLY|Rotation=192.000|XOffset=0mil|YOffset=0mil|HoleType=Round|Shape=Rectangle|*
%AMROTATEDRECTD26*
4,1,4,0.01446,0.01716,0.02019,-0.00979,-0.01446,-0.01716,-0.02019,0.00979,0.01446,0.01716,0.0*
%
%ADD26ROTATEDRECTD26*%

G04:AMPARAMS|DCode=27|XSize=35.43mil|YSize=27.56mil|CornerRadius=0mil|HoleSize=0mil|Usage=FLASHONLY|Rotation=168.000|XOffset=0mil|YOffset=0mil|HoleType=Round|Shape=Rectangle|*
%AMROTATEDRECTD27*
4,1,4,0.02019,0.00979,0.01446,-0.01716,-0.02019,-0.00979,-0.01446,0.01716,0.02019,0.00979,0.0*
%
%ADD27ROTATEDRECTD27*%

%ADD28R,0.03347X0.05118*%
%ADD29R,0.03937X0.03543*%
%ADD30R,0.05118X0.03347*%
%ADD31R,0.03740X0.06693*%
%ADD32R,0.06693X0.03740*%
G04:AMPARAMS|DCode=33|XSize=98.42mil|YSize=66.93mil|CornerRadius=16.73mil|HoleSize=0mil|Usage=FLASHONLY|Rotation=180.000|XOffset=0mil|YOffset=0mil|HoleType=Round|Shape=RoundedRectangle|*
%AMROUNDEDRECTD33*
21,1,0.09842,0.03347,0,0,180.0*
21,1,0.06496,0.06693,0,0,180.0*
1,1,0.03346,-0.03248,0.01673*
1,1,0.03346,0.03248,0.01673*
1,1,0.03346,0.03248,-0.01673*
1,1,0.03346,-0.03248,-0.01673*
%
%ADD33ROUNDEDRECTD33*%
%ADD34R,0.03937X0.03937*%
%ADD35R,0.03937X0.03937*%
%ADD36R,0.03937X0.03937*%
%ADD37R,0.03937X0.02362*%
%ADD38R,0.03937X0.03937*%
%ADD39R,0.02362X0.03937*%
%ADD40R,0.03543X0.03150*%
G04:AMPARAMS|DCode=41|XSize=78.74mil|YSize=39.37mil|CornerRadius=0mil|HoleSize=0mil|Usage=FLASHONLY|Rotation=12.000|XOffset=0mil|YOffset=0mil|HoleType=Round|Shape=Round|*
%AMOVALD41*
21,1,0.03937,0.03937,0.00000,0.00000,12.0*
1,1,0.03937,-0.01925,-0.00409*
1,1,0.03937,0.01925,0.00409*
%
%ADD41OVALD41*%

%ADD42R,0.04331X0.02559*%
G04:AMPARAMS|DCode=43|XSize=23.62mil|YSize=57.09mil|CornerRadius=2.01mil|HoleSize=0mil|Usage=FLASHONLY|Rotation=180.000|XOffset=0mil|YOffset=0mil|HoleType=Round|Shape=RoundedRectangle|*
%AMROUNDEDRECTD43*
21,1,0.02362,0.05307,0,0,180.0*
21,1,0.01961,0.05709,0,0,180.0*
1,1,0.00402,-0.00980,0.02653*
1,1,0.00402,0.00980,0.02653*
1,1,0.00402,0.00980,-0.02653*
1,1,0.00402,-0.00980,-0.02653*
%
%ADD43ROUNDEDRECTD43*%
%ADD44O,0.07087X0.01181*%
%ADD45O,0.01181X0.07087*%
%ADD46C,0.03100*%
G04:AMPARAMS|DCode=47|XSize=216.54mil|YSize=59.05mil|CornerRadius=7.38mil|HoleSize=0mil|Usage=FLASHONLY|Rotation=180.000|XOffset=0mil|YOffset=0mil|HoleType=Round|Shape=RoundedRectangle|*
%AMROUNDEDRECTD47*
21,1,0.21654,0.04429,0,0,180.0*
21,1,0.20177,0.05905,0,0,180.0*
1,1,0.01476,-0.10089,0.02215*
1,1,0.01476,0.10089,0.02215*
1,1,0.01476,0.10089,-0.02215*
1,1,0.01476,-0.10089,-0.02215*
%
%ADD47ROUNDEDRECTD47*%
%ADD48O,0.00984X0.03740*%
%ADD49O,0.03740X0.00984*%
%ADD50R,0.09646X0.09646*%
%ADD51R,0.03937X0.08858*%
%ADD52R,0.05905X0.03937*%
%ADD53R,0.04331X0.02362*%
G04:AMPARAMS|DCode=70|XSize=70.87mil|YSize=35.43mil|CornerRadius=0mil|HoleSize=0mil|Usage=FLASHONLY|Rotation=258.000|XOffset=0mil|YOffset=0mil|HoleType=Round|Shape=Round|*
%AMOVALD70*
21,1,0.03543,0.03543,0.00000,0.00000,258.0*
1,1,0.03543,0.00368,0.01733*
1,1,0.03543,-0.00368,-0.01733*
%
%ADD70OVALD70*%

%ADD71C,0.02362*%
G04:AMPARAMS|DCode=72|XSize=62.99mil|YSize=31.5mil|CornerRadius=0mil|HoleSize=0mil|Usage=FLASHONLY|Rotation=348.000|XOffset=0mil|YOffset=0mil|HoleType=Round|Shape=Round|*
%AMOVALD72*
21,1,0.03150,0.03150,0.00000,0.00000,348.0*
1,1,0.03150,-0.01540,0.00327*
1,1,0.03150,0.01540,-0.00327*
%
%ADD72OVALD72*%

%ADD73C,0.03347*%
G04:AMPARAMS|DCode=74|XSize=59.05mil|YSize=122.05mil|CornerRadius=0mil|HoleSize=0mil|Usage=FLASHONLY|Rotation=240.000|XOffset=0mil|YOffset=0mil|HoleType=Round|Shape=Round|*
%AMOVALD74*
21,1,0.06299,0.05905,0.00000,0.00000,330.0*
1,1,0.05905,-0.02728,0.01575*
1,1,0.05905,0.02728,-0.01575*
%
%ADD74OVALD74*%

%ADD75C,0.03400*%
G04:AMPARAMS|DCode=76|XSize=59.05mil|YSize=122.05mil|CornerRadius=0mil|HoleSize=0mil|Usage=FLASHONLY|Rotation=247.000|XOffset=0mil|YOffset=0mil|HoleType=Round|Shape=Round|*
%AMOVALD76*
21,1,0.06299,0.05905,0.00000,0.00000,337.0*
1,1,0.05905,-0.02899,0.01231*
1,1,0.05905,0.02899,-0.01231*
%
%ADD76OVALD76*%

G04:AMPARAMS|DCode=77|XSize=59.05mil|YSize=122.05mil|CornerRadius=0mil|HoleSize=0mil|Usage=FLASHONLY|Rotation=228.000|XOffset=0mil|YOffset=0mil|HoleType=Round|Shape=Round|*
%AMOVALD77*
21,1,0.06299,0.05905,0.00000,0.00000,318.0*
1,1,0.05905,-0.02341,0.02108*
1,1,0.05905,0.02341,-0.02108*
%
%ADD77OVALD77*%

%ADD78O,0.05905X0.12205*%
%ADD79C,0.09449*%
D10*
X38500Y89326D02*
D03*
X38500Y105074D02*
D03*
X-63200Y156874D02*
D03*
X-63200Y141126D02*
D03*
X72000Y63874D02*
D03*
Y48126D02*
D03*
X-49000Y141126D02*
D03*
Y156874D02*
D03*
X-35500Y141126D02*
D03*
Y156874D02*
D03*
D11*
X-22244Y69600D02*
D03*
X-27756D02*
D03*
X33444Y52400D02*
D03*
X38956D02*
D03*
X-94856Y95500D02*
D03*
X-89344Y95500D02*
D03*
X-50356Y-24500D02*
D03*
X-44844Y-24500D02*
D03*
X-54156Y23500D02*
D03*
X-48644Y23500D02*
D03*
X-34744Y-6000D02*
D03*
X-40256Y-6000D02*
D03*
X-24756Y64000D02*
D03*
X-19244Y64000D02*
D03*
X-50256Y-6000D02*
D03*
X-44744Y-6000D02*
D03*
X-32744Y21000D02*
D03*
X-38256Y21000D02*
D03*
X-13144Y34300D02*
D03*
X-18656Y34300D02*
D03*
X-67644Y54000D02*
D03*
X-73156Y54000D02*
D03*
X67156Y78500D02*
D03*
X61644Y78500D02*
D03*
X-16356Y42500D02*
D03*
X-10844D02*
D03*
X12956Y61400D02*
D03*
X7444Y61400D02*
D03*
X-43956Y103200D02*
D03*
X-38444D02*
D03*
X-144744Y99500D02*
D03*
X-150256Y99500D02*
D03*
X-28756Y21000D02*
D03*
X-23244D02*
D03*
X15935Y6417D02*
D03*
X10423Y6417D02*
D03*
X20935Y43417D02*
D03*
X15423Y43417D02*
D03*
X-11356Y74200D02*
D03*
X-5844Y74200D02*
D03*
X-66644Y37200D02*
D03*
X-72156Y37200D02*
D03*
X-66644Y42000D02*
D03*
X-72156Y42000D02*
D03*
X-17533Y115096D02*
D03*
X-12021D02*
D03*
Y119996D02*
D03*
X-17533D02*
D03*
X-86700Y69000D02*
D03*
X-81188Y69000D02*
D03*
X57544Y-25500D02*
D03*
X63056Y-25500D02*
D03*
D12*
X19803Y154720D02*
D03*
X21729Y154311D02*
D03*
X23654Y153902D02*
D03*
X25579Y153492D02*
D03*
X27505Y153083D02*
D03*
X29430Y152674D02*
D03*
X31356Y152265D02*
D03*
X33281Y151855D02*
D03*
X35207Y151446D02*
D03*
X37132Y151037D02*
D03*
X39058Y150628D02*
D03*
X40983Y150218D02*
D03*
D13*
X22100Y98200D02*
D03*
X22100Y84617D02*
D03*
X53736Y73555D02*
D03*
X53736Y59973D02*
D03*
X-98953Y54661D02*
D03*
X-98953Y68244D02*
D03*
D14*
X49289Y32800D02*
D03*
X72911Y32800D02*
D03*
X49289Y16900D02*
D03*
X72911D02*
D03*
D15*
X-65200Y84944D02*
D03*
X-65200Y90456D02*
D03*
X-70247Y84883D02*
D03*
X-70247Y90395D02*
D03*
X-87053Y62917D02*
D03*
X-87053Y57406D02*
D03*
X-81799Y64367D02*
D03*
Y58855D02*
D03*
X41736Y68008D02*
D03*
Y73520D02*
D03*
X35736Y68008D02*
D03*
Y73520D02*
D03*
X-35300Y-12144D02*
D03*
X-35300Y-17656D02*
D03*
X-18500Y24244D02*
D03*
X-18500Y29756D02*
D03*
X-13500Y24244D02*
D03*
X-13500Y29756D02*
D03*
X-76200Y2744D02*
D03*
X-76200Y8256D02*
D03*
X-13700Y2744D02*
D03*
X-13700Y8256D02*
D03*
X18100Y67044D02*
D03*
X18100Y72556D02*
D03*
X-111300Y66312D02*
D03*
X-111300Y60800D02*
D03*
X28400Y133344D02*
D03*
X28400Y138856D02*
D03*
X-35500Y126744D02*
D03*
X-35500Y132256D02*
D03*
X-1600Y69044D02*
D03*
Y74556D02*
D03*
X84000Y7256D02*
D03*
Y1744D02*
D03*
X89000Y7256D02*
D03*
Y1744D02*
D03*
X158500Y33512D02*
D03*
X158500Y28000D02*
D03*
X152500Y33512D02*
D03*
X152500Y28000D02*
D03*
X110500Y-48244D02*
D03*
Y-53756D02*
D03*
X22900Y135044D02*
D03*
X22900Y140556D02*
D03*
X56700Y6056D02*
D03*
Y544D02*
D03*
D16*
X8300Y67594D02*
D03*
Y79405D02*
D03*
D17*
X75174Y-94049D02*
D03*
X80000Y-90000D02*
D03*
D18*
X58000Y-106000D02*
D03*
X63455Y-102850D02*
D03*
D19*
X38040Y-114077D02*
D03*
X43960Y-111923D02*
D03*
D20*
X17898Y-119547D02*
D03*
X24102Y-118453D02*
D03*
D21*
X-3150Y-120000D02*
D03*
X3150Y-120000D02*
D03*
X32030Y18417D02*
D03*
X38329Y18417D02*
D03*
X32030Y39417D02*
D03*
X38329Y39417D02*
D03*
X-14350Y58000D02*
D03*
X-8050Y58000D02*
D03*
X-10272Y109296D02*
D03*
X-16571D02*
D03*
X41250Y58600D02*
D03*
X34950D02*
D03*
X-84102Y74661D02*
D03*
X-77803D02*
D03*
X32030Y12417D02*
D03*
X38329Y12417D02*
D03*
X-20000Y-16800D02*
D03*
X-13701Y-16800D02*
D03*
X32030Y33417D02*
D03*
X38329Y33417D02*
D03*
X-20000Y-26800D02*
D03*
X-13701Y-26800D02*
D03*
X-20000Y-6800D02*
D03*
X-13701Y-6800D02*
D03*
X21050Y4800D02*
D03*
X27350Y4800D02*
D03*
X26030Y45417D02*
D03*
X32329Y45417D02*
D03*
D22*
X-24102Y-117453D02*
D03*
X-17898Y-118547D02*
D03*
D23*
X-43960Y-111923D02*
D03*
X-38040Y-114077D02*
D03*
D24*
X-62728Y-102425D02*
D03*
X-57272Y-105575D02*
D03*
D25*
X-79413Y-89976D02*
D03*
X-74587Y-94024D02*
D03*
D26*
X79927Y-66804D02*
D03*
X81073Y-72196D02*
D03*
D27*
X-81000Y-68000D02*
D03*
X-82146Y-73391D02*
D03*
D28*
X16425Y135396D02*
D03*
X9732D02*
D03*
X13632Y128696D02*
D03*
X20325Y128696D02*
D03*
X2154Y93500D02*
D03*
X8846Y93500D02*
D03*
X2132Y86896D02*
D03*
X8825Y86896D02*
D03*
X-3554Y98200D02*
D03*
X-10246Y98200D02*
D03*
X-6654Y19000D02*
D03*
X-13346Y19000D02*
D03*
D29*
X19178Y111446D02*
D03*
X19178Y105147D02*
D03*
X-1822Y126446D02*
D03*
X-1822Y132746D02*
D03*
X4378Y126446D02*
D03*
X4378Y132746D02*
D03*
X-40781Y125006D02*
D03*
Y118706D02*
D03*
D30*
X19679Y116450D02*
D03*
Y123143D02*
D03*
D31*
X58985Y84800D02*
D03*
X69615Y84800D02*
D03*
X86915Y84700D02*
D03*
X76285Y84700D02*
D03*
D32*
X-126700Y57485D02*
D03*
X-126700Y68115D02*
D03*
X-117800Y57485D02*
D03*
X-117800Y68115D02*
D03*
D33*
X-124274Y79200D02*
D03*
X-108526Y79200D02*
D03*
D34*
X-9353Y191226D02*
D03*
X-9353Y184533D02*
D03*
X-1479Y191226D02*
D03*
X-1479Y184533D02*
D03*
D35*
X-3347Y-16800D02*
D03*
X3347Y-16800D02*
D03*
X-3346Y-26800D02*
D03*
X3347Y-26800D02*
D03*
X-3347Y-6800D02*
D03*
X3347Y-6800D02*
D03*
D36*
X28388Y55208D02*
D03*
D37*
X28388Y61901D02*
D03*
X18939Y61901D02*
D03*
X18939Y54420D02*
D03*
D38*
X-83453Y81276D02*
D03*
D39*
X-76760Y81276D02*
D03*
X-76760Y90724D02*
D03*
X-84240Y90724D02*
D03*
D40*
X45862Y52504D02*
D03*
Y45024D02*
D03*
X53736Y48764D02*
D03*
X-91016Y74921D02*
D03*
X-91016Y82402D02*
D03*
X-98890Y78661D02*
D03*
D41*
X-25447Y183956D02*
D03*
X-48553Y179044D02*
D03*
D42*
X-40975Y-11660D02*
D03*
X-40976Y-19140D02*
D03*
X-50424Y-19140D02*
D03*
X-50424Y-15400D02*
D03*
X-50424Y-11660D02*
D03*
D43*
X25679Y36146D02*
D03*
X20679Y36146D02*
D03*
X15679Y36146D02*
D03*
X10679Y36146D02*
D03*
X25679Y14689D02*
D03*
X20679Y14689D02*
D03*
X15679D02*
D03*
X10679Y14689D02*
D03*
D44*
X-58345Y37373D02*
D03*
X-58345Y39342D02*
D03*
X-58345Y41310D02*
D03*
X-58345Y43279D02*
D03*
X-58345Y45247D02*
D03*
X-58345Y47216D02*
D03*
X-58345Y49184D02*
D03*
X-58345Y51153D02*
D03*
X-58345Y53121D02*
D03*
X-58345Y55090D02*
D03*
X-58345Y57058D02*
D03*
X-58345Y59027D02*
D03*
X-26455Y59027D02*
D03*
Y57058D02*
D03*
Y55090D02*
D03*
X-26455Y53121D02*
D03*
X-26455Y51153D02*
D03*
X-26455Y49184D02*
D03*
X-26455Y47216D02*
D03*
X-26455Y45247D02*
D03*
X-26455Y43279D02*
D03*
Y41310D02*
D03*
X-26455Y39342D02*
D03*
X-26455Y37373D02*
D03*
D45*
X-53227Y64145D02*
D03*
X-51258Y64145D02*
D03*
X-49290Y64145D02*
D03*
X-47321Y64145D02*
D03*
X-45353Y64145D02*
D03*
X-43384Y64145D02*
D03*
X-41416Y64145D02*
D03*
X-39447Y64145D02*
D03*
X-37479Y64145D02*
D03*
X-35510Y64145D02*
D03*
X-33542Y64145D02*
D03*
X-31573Y64145D02*
D03*
X-31573Y32255D02*
D03*
X-33542Y32255D02*
D03*
X-35510Y32255D02*
D03*
X-37479Y32255D02*
D03*
X-39447Y32255D02*
D03*
X-41416Y32255D02*
D03*
X-43384Y32255D02*
D03*
X-45353Y32255D02*
D03*
X-47321Y32255D02*
D03*
X-49290Y32255D02*
D03*
X-51258Y32255D02*
D03*
X-53227Y32255D02*
D03*
D46*
X-183710Y30649D02*
D03*
X-188561Y31858D02*
D03*
X-182500Y35500D02*
D03*
X-186142Y41561D02*
D03*
X-181290Y40352D02*
D03*
X-187352Y36710D02*
D03*
D47*
X-61632Y8200D02*
D03*
X-28168Y8200D02*
D03*
D48*
X9600Y119473D02*
D03*
X7631Y119473D02*
D03*
X5663Y119473D02*
D03*
X3694Y119473D02*
D03*
X1726D02*
D03*
X-243Y119473D02*
D03*
X-243Y104119D02*
D03*
X1726Y104119D02*
D03*
X3694D02*
D03*
X5663Y104119D02*
D03*
X7631Y104119D02*
D03*
X9600D02*
D03*
D49*
X-2999Y116717D02*
D03*
X-2999Y114749D02*
D03*
X-2999Y112780D02*
D03*
X-2999Y110812D02*
D03*
X-2999Y108843D02*
D03*
Y106875D02*
D03*
X12356Y106875D02*
D03*
X12356Y108843D02*
D03*
Y110812D02*
D03*
X12356Y112780D02*
D03*
X12356Y114749D02*
D03*
X12356Y116717D02*
D03*
D50*
X4679Y111796D02*
D03*
D51*
X102630Y-40800D02*
D03*
X110504D02*
D03*
X118378Y-40800D02*
D03*
X126252Y-40800D02*
D03*
X134126Y-40800D02*
D03*
X142000D02*
D03*
X149874Y-40800D02*
D03*
X157748Y-40800D02*
D03*
Y19239D02*
D03*
X149874Y19239D02*
D03*
X142000Y19239D02*
D03*
X134126Y19239D02*
D03*
X126252Y19239D02*
D03*
X118378Y19239D02*
D03*
X110504Y19239D02*
D03*
X102630Y19239D02*
D03*
D52*
X96724Y8905D02*
D03*
X96724Y1031D02*
D03*
X96724Y-6843D02*
D03*
X96724Y-14717D02*
D03*
X96724Y-22591D02*
D03*
X96724Y-30465D02*
D03*
D53*
X63560Y4240D02*
D03*
Y-3240D02*
D03*
X71040Y500D02*
D03*
D70*
X19400Y183600D02*
D03*
X53300Y176400D02*
D03*
X15486Y164332D02*
D03*
X48836Y157243D02*
D03*
D71*
X22796Y162174D02*
D03*
X25877Y161519D02*
D03*
X28958Y160864D02*
D03*
X41281Y158245D02*
D03*
X38200Y158900D02*
D03*
X35119Y159555D02*
D03*
X20683Y159806D02*
D03*
X26844Y158496D02*
D03*
X29925Y157841D02*
D03*
X42248Y155222D02*
D03*
X36087Y156532D02*
D03*
X33006Y157187D02*
D03*
D72*
X47175Y155584D02*
D03*
X16329Y162140D02*
D03*
D73*
X17070Y157958D02*
D03*
X44797Y152064D02*
D03*
D74*
X-163000Y96340D02*
D03*
X-158000Y105000D02*
D03*
D75*
X-178625Y44840D02*
D03*
X-186388Y46775D02*
D03*
X-187345Y26402D02*
D03*
D76*
X-179920Y58103D02*
D03*
X-176013Y67308D02*
D03*
X-172106Y76513D02*
D03*
X-168198Y85718D02*
D03*
D77*
X-150500Y115000D02*
D03*
X-143809Y122431D02*
D03*
X-137117Y129863D02*
D03*
X-130426Y137294D02*
D03*
D78*
X85500Y-24500D02*
D03*
X75500Y-24500D02*
D03*
X85500Y-11000D02*
D03*
X75500D02*
D03*
D79*
X72044Y108734D02*
D03*
X91683Y112909D02*
D03*
X75643Y140088D02*
D03*
X-91928Y114903D02*
D03*
X-72289Y110729D02*
D03*
X-75888Y142082D02*
D03*
X-109923Y-66329D02*
D03*
X-129563Y-62154D02*
D03*
X-125964Y-93508D02*
D03*
X129399Y-64646D02*
D03*
X109759Y-68821D02*
D03*
X125800Y-96000D02*
D03*
M02*
