G04 Layer_Color=8388736*
%FSLAX25Y25*%
%MOIN*%
G70*
G01*
G75*
%ADD13R,0.07874X0.01968*%
%ADD34R,0.03937X0.03937*%
%ADD35R,0.03937X0.03937*%
G04:AMPARAMS|DCode=92|XSize=106.42mil|YSize=74.93mil|CornerRadius=20.73mil|HoleSize=0mil|Usage=FLASHONLY|Rotation=270.000|XOffset=0mil|YOffset=0mil|HoleType=Round|Shape=RoundedRectangle|*
%AMROUNDEDRECTD92*
21,1,0.10642,0.03347,0,0,270.0*
21,1,0.06496,0.07493,0,0,270.0*
1,1,0.04146,-0.01673,-0.03248*
1,1,0.04146,-0.01673,0.03248*
1,1,0.04146,0.01673,0.03248*
1,1,0.04146,0.01673,-0.03248*
%
%ADD92ROUNDEDRECTD92*%
%ADD93R,0.03556X0.04343*%
G04:AMPARAMS|DCode=94|XSize=20.6mil|YSize=35.56mil|CornerRadius=0mil|HoleSize=0mil|Usage=FLASHONLY|Rotation=168.000|XOffset=0mil|YOffset=0mil|HoleType=Round|Shape=Rectangle|*
%AMROTATEDRECTD94*
4,1,4,0.01377,0.01525,0.00638,-0.01953,-0.01377,-0.01525,-0.00638,0.01953,0.01377,0.01525,0.0*
%
%ADD94ROTATEDRECTD94*%

%ADD95R,0.05721X0.13989*%
%ADD96R,0.04343X0.03556*%
%ADD97R,0.11430X0.05328*%
G04:AMPARAMS|DCode=98|XSize=47.37mil|YSize=43.43mil|CornerRadius=0mil|HoleSize=0mil|Usage=FLASHONLY|Rotation=130.000|XOffset=0mil|YOffset=0mil|HoleType=Round|Shape=Rectangle|*
%AMROTATEDRECTD98*
4,1,4,0.03186,-0.00418,-0.00141,-0.03210,-0.03186,0.00418,0.00141,0.03210,0.03186,-0.00418,0.0*
%
%ADD98ROTATEDRECTD98*%

G04:AMPARAMS|DCode=99|XSize=47.37mil|YSize=43.43mil|CornerRadius=0mil|HoleSize=0mil|Usage=FLASHONLY|Rotation=120.000|XOffset=0mil|YOffset=0mil|HoleType=Round|Shape=Rectangle|*
%AMROTATEDRECTD99*
4,1,4,0.03065,-0.00965,-0.00696,-0.03137,-0.03065,0.00965,0.00696,0.03137,0.03065,-0.00965,0.0*
%
%ADD99ROTATEDRECTD99*%

G04:AMPARAMS|DCode=100|XSize=47.37mil|YSize=43.43mil|CornerRadius=0mil|HoleSize=0mil|Usage=FLASHONLY|Rotation=110.000|XOffset=0mil|YOffset=0mil|HoleType=Round|Shape=Rectangle|*
%AMROTATEDRECTD100*
4,1,4,0.02851,-0.01483,-0.01231,-0.02968,-0.02851,0.01483,0.01231,0.02968,0.02851,-0.01483,0.0*
%
%ADD100ROTATEDRECTD100*%

G04:AMPARAMS|DCode=101|XSize=47.37mil|YSize=43.43mil|CornerRadius=0mil|HoleSize=0mil|Usage=FLASHONLY|Rotation=100.000|XOffset=0mil|YOffset=0mil|HoleType=Round|Shape=Rectangle|*
%AMROTATEDRECTD101*
4,1,4,0.02550,-0.01955,-0.01727,-0.02710,-0.02550,0.01955,0.01727,0.02710,0.02550,-0.01955,0.0*
%
%ADD101ROTATEDRECTD101*%

%ADD102R,0.04343X0.04737*%
G04:AMPARAMS|DCode=103|XSize=47.37mil|YSize=43.43mil|CornerRadius=0mil|HoleSize=0mil|Usage=FLASHONLY|Rotation=80.000|XOffset=0mil|YOffset=0mil|HoleType=Round|Shape=Rectangle|*
%AMROTATEDRECTD103*
4,1,4,0.01727,-0.02710,-0.02550,-0.01955,-0.01727,0.02710,0.02550,0.01955,0.01727,-0.02710,0.0*
%
%ADD103ROTATEDRECTD103*%

G04:AMPARAMS|DCode=104|XSize=47.37mil|YSize=43.43mil|CornerRadius=0mil|HoleSize=0mil|Usage=FLASHONLY|Rotation=70.000|XOffset=0mil|YOffset=0mil|HoleType=Round|Shape=Rectangle|*
%AMROTATEDRECTD104*
4,1,4,0.01231,-0.02968,-0.02851,-0.01483,-0.01231,0.02968,0.02851,0.01483,0.01231,-0.02968,0.0*
%
%ADD104ROTATEDRECTD104*%

G04:AMPARAMS|DCode=105|XSize=47.37mil|YSize=43.43mil|CornerRadius=0mil|HoleSize=0mil|Usage=FLASHONLY|Rotation=60.000|XOffset=0mil|YOffset=0mil|HoleType=Round|Shape=Rectangle|*
%AMROTATEDRECTD105*
4,1,4,0.00696,-0.03137,-0.03065,-0.00965,-0.00696,0.03137,0.03065,0.00965,0.00696,-0.03137,0.0*
%
%ADD105ROTATEDRECTD105*%

G04:AMPARAMS|DCode=106|XSize=47.37mil|YSize=43.43mil|CornerRadius=0mil|HoleSize=0mil|Usage=FLASHONLY|Rotation=50.000|XOffset=0mil|YOffset=0mil|HoleType=Round|Shape=Rectangle|*
%AMROTATEDRECTD106*
4,1,4,0.00141,-0.03210,-0.03186,-0.00418,-0.00141,0.03210,0.03186,0.00418,0.00141,-0.03210,0.0*
%
%ADD106ROTATEDRECTD106*%

G04:AMPARAMS|DCode=107|XSize=43.43mil|YSize=35.56mil|CornerRadius=0mil|HoleSize=0mil|Usage=FLASHONLY|Rotation=192.000|XOffset=0mil|YOffset=0mil|HoleType=Round|Shape=Rectangle|*
%AMROTATEDRECTD107*
4,1,4,0.01755,0.02191,0.02494,-0.01288,-0.01755,-0.02191,-0.02494,0.01288,0.01755,0.02191,0.0*
%
%ADD107ROTATEDRECTD107*%

G04:AMPARAMS|DCode=108|XSize=43.43mil|YSize=35.56mil|CornerRadius=0mil|HoleSize=0mil|Usage=FLASHONLY|Rotation=168.000|XOffset=0mil|YOffset=0mil|HoleType=Round|Shape=Rectangle|*
%AMROTATEDRECTD108*
4,1,4,0.02494,0.01288,0.01755,-0.02191,-0.02494,-0.01288,-0.01755,0.02191,0.02494,0.01288,0.0*
%
%ADD108ROTATEDRECTD108*%

%ADD109R,0.04147X0.05918*%
%ADD110R,0.04737X0.04343*%
%ADD111R,0.05918X0.04147*%
%ADD112R,0.04540X0.07493*%
%ADD113R,0.07493X0.04540*%
G04:AMPARAMS|DCode=114|XSize=106.42mil|YSize=74.93mil|CornerRadius=20.73mil|HoleSize=0mil|Usage=FLASHONLY|Rotation=180.000|XOffset=0mil|YOffset=0mil|HoleType=Round|Shape=RoundedRectangle|*
%AMROUNDEDRECTD114*
21,1,0.10642,0.03347,0,0,180.0*
21,1,0.06496,0.07493,0,0,180.0*
1,1,0.04146,-0.03248,0.01673*
1,1,0.04146,0.03248,0.01673*
1,1,0.04146,0.03248,-0.01673*
1,1,0.04146,-0.03248,-0.01673*
%
%ADD114ROUNDEDRECTD114*%
%ADD115R,0.04737X0.04737*%
%ADD116R,0.04737X0.03162*%
%ADD117R,0.04737X0.04737*%
%ADD118R,0.03162X0.04737*%
%ADD119R,0.04343X0.03950*%
G04:AMPARAMS|DCode=120|XSize=86.74mil|YSize=47.37mil|CornerRadius=0mil|HoleSize=0mil|Usage=FLASHONLY|Rotation=12.000|XOffset=0mil|YOffset=0mil|HoleType=Round|Shape=Round|*
%AMOVALD120*
21,1,0.03937,0.04737,0.00000,0.00000,12.0*
1,1,0.04737,-0.01925,-0.00409*
1,1,0.04737,0.01925,0.00409*
%
%ADD120OVALD120*%

%ADD121R,0.05131X0.03359*%
G04:AMPARAMS|DCode=122|XSize=31.62mil|YSize=65.09mil|CornerRadius=6.01mil|HoleSize=0mil|Usage=FLASHONLY|Rotation=180.000|XOffset=0mil|YOffset=0mil|HoleType=Round|Shape=RoundedRectangle|*
%AMROUNDEDRECTD122*
21,1,0.03162,0.05307,0,0,180.0*
21,1,0.01961,0.06509,0,0,180.0*
1,1,0.01202,-0.00980,0.02653*
1,1,0.01202,0.00980,0.02653*
1,1,0.01202,0.00980,-0.02653*
1,1,0.01202,-0.00980,-0.02653*
%
%ADD122ROUNDEDRECTD122*%
%ADD123O,0.07887X0.01981*%
%ADD124O,0.01981X0.07887*%
%ADD125C,0.03900*%
G04:AMPARAMS|DCode=126|XSize=224.53mil|YSize=67.06mil|CornerRadius=11.38mil|HoleSize=0mil|Usage=FLASHONLY|Rotation=180.000|XOffset=0mil|YOffset=0mil|HoleType=Round|Shape=RoundedRectangle|*
%AMROUNDEDRECTD126*
21,1,0.22453,0.04429,0,0,180.0*
21,1,0.20177,0.06706,0,0,180.0*
1,1,0.02276,-0.10089,0.02215*
1,1,0.02276,0.10089,0.02215*
1,1,0.02276,0.10089,-0.02215*
1,1,0.02276,-0.10089,-0.02215*
%
%ADD126ROUNDEDRECTD126*%
%ADD127O,0.01784X0.04540*%
%ADD128O,0.04540X0.01784*%
%ADD129R,0.10446X0.10446*%
%ADD130R,0.04737X0.09658*%
%ADD131R,0.06706X0.04737*%
%ADD132R,0.05131X0.03162*%
G04:AMPARAMS|DCode=133|XSize=78.87mil|YSize=43.43mil|CornerRadius=0mil|HoleSize=0mil|Usage=FLASHONLY|Rotation=258.000|XOffset=0mil|YOffset=0mil|HoleType=Round|Shape=Round|*
%AMOVALD133*
21,1,0.03543,0.04343,0.00000,0.00000,258.0*
1,1,0.04343,0.00368,0.01733*
1,1,0.04343,-0.00368,-0.01733*
%
%ADD133OVALD133*%

%ADD134C,0.03162*%
G04:AMPARAMS|DCode=135|XSize=70.99mil|YSize=39.5mil|CornerRadius=0mil|HoleSize=0mil|Usage=FLASHONLY|Rotation=348.000|XOffset=0mil|YOffset=0mil|HoleType=Round|Shape=Round|*
%AMOVALD135*
21,1,0.03150,0.03950,0.00000,0.00000,348.0*
1,1,0.03950,-0.01540,0.00327*
1,1,0.03950,0.01540,-0.00327*
%
%ADD135OVALD135*%

%ADD136C,0.04147*%
G04:AMPARAMS|DCode=137|XSize=67.06mil|YSize=130.05mil|CornerRadius=0mil|HoleSize=0mil|Usage=FLASHONLY|Rotation=240.000|XOffset=0mil|YOffset=0mil|HoleType=Round|Shape=Round|*
%AMOVALD137*
21,1,0.06299,0.06706,0.00000,0.00000,330.0*
1,1,0.06706,-0.02728,0.01575*
1,1,0.06706,0.02728,-0.01575*
%
%ADD137OVALD137*%

%ADD138C,0.04200*%
G04:AMPARAMS|DCode=139|XSize=67.06mil|YSize=130.05mil|CornerRadius=0mil|HoleSize=0mil|Usage=FLASHONLY|Rotation=247.000|XOffset=0mil|YOffset=0mil|HoleType=Round|Shape=Round|*
%AMOVALD139*
21,1,0.06299,0.06706,0.00000,0.00000,337.0*
1,1,0.06706,-0.02899,0.01231*
1,1,0.06706,0.02899,-0.01231*
%
%ADD139OVALD139*%

G04:AMPARAMS|DCode=140|XSize=67.06mil|YSize=130.05mil|CornerRadius=0mil|HoleSize=0mil|Usage=FLASHONLY|Rotation=228.000|XOffset=0mil|YOffset=0mil|HoleType=Round|Shape=Round|*
%AMOVALD140*
21,1,0.06299,0.06706,0.00000,0.00000,318.0*
1,1,0.06706,-0.02341,0.02108*
1,1,0.06706,0.02341,-0.02108*
%
%ADD140OVALD140*%

%ADD141O,0.06706X0.13005*%
%ADD142C,0.10249*%
G36*
X16074Y165763D02*
X16547Y165441D01*
X16860Y164962D01*
X16964Y164399D01*
X16904Y164119D01*
X16904D01*
X16800Y163500D01*
X17900Y163400D01*
X18181Y163332D01*
X18652Y162996D01*
X18963Y162508D01*
X19069Y161940D01*
X18955Y161372D01*
X18638Y160889D01*
X18162Y160559D01*
X17598Y160431D01*
X17312Y160477D01*
X14700Y161000D01*
X14422Y161060D01*
X13953Y161383D01*
X13643Y161861D01*
X13540Y162422D01*
X13600Y162700D01*
Y162700D01*
X14100Y164700D01*
X14156Y164980D01*
X14475Y165455D01*
X14952Y165771D01*
X15514Y165879D01*
X16074Y165763D01*
D02*
G37*
G36*
X16816Y160125D02*
X16922Y160102D01*
X18077Y159857D01*
X18183Y159834D01*
X18389Y159767D01*
X18587Y159679D01*
X18775Y159571D01*
X18950Y159443D01*
X19111Y159299D01*
X19256Y159137D01*
X19383Y158962D01*
X19492Y158775D01*
X19580Y158577D01*
X19647Y158371D01*
X19692Y158159D01*
X19714Y157943D01*
Y157727D01*
X19692Y157511D01*
X19647Y157299D01*
X19580Y157093D01*
X19492Y156895D01*
X19383Y156708D01*
X19256Y156532D01*
X19111Y156371D01*
X18950Y156226D01*
X18775Y156099D01*
X18587Y155991D01*
X18389Y155903D01*
X18183Y155836D01*
X17971Y155791D01*
X17756Y155768D01*
X17539Y155768D01*
X17324Y155791D01*
X17218Y155813D01*
X16062Y156059D01*
X15957Y156081D01*
X15751Y156148D01*
X15553Y156236D01*
X15365Y156344D01*
X15190Y156472D01*
X15029Y156617D01*
X14884Y156778D01*
X14757Y156953D01*
X14648Y157141D01*
X14560Y157339D01*
X14493Y157545D01*
X14448Y157756D01*
X14425Y157972D01*
Y158189D01*
X14448Y158404D01*
X14493Y158616D01*
X14560Y158822D01*
X14648Y159020D01*
X14756Y159208D01*
X14884Y159383D01*
X15029Y159544D01*
X15190Y159689D01*
X15365Y159816D01*
X15552Y159924D01*
X15750Y160013D01*
X15957Y160080D01*
X16168Y160125D01*
X16384Y160147D01*
X16600Y160147D01*
X16816Y160125D01*
D02*
G37*
G36*
X27986Y100471D02*
X28038Y100467D01*
X28090Y100457D01*
X28139Y100440D01*
X28187Y100417D01*
X28230Y100388D01*
X28269Y100353D01*
X28269Y100353D01*
D01*
D01*
X30041Y98582D01*
Y98582D01*
X30041D01*
X30076Y98542D01*
X30105Y98499D01*
X30128Y98452D01*
X30136Y98427D01*
X30145Y98402D01*
X30155Y98351D01*
X30158Y98298D01*
Y98298D01*
D01*
X30158Y94361D01*
X30155Y94309D01*
X30145Y94258D01*
X30139Y94241D01*
X30128Y94208D01*
X30105Y94161D01*
X30075Y94117D01*
X30041Y94078D01*
X30041D01*
Y94078D01*
X30002Y94043D01*
X29958Y94014D01*
X29911Y93991D01*
X29878Y93980D01*
X29861Y93974D01*
X29810Y93964D01*
X29757Y93961D01*
X26647D01*
X26595Y93964D01*
X26544Y93974D01*
X26494Y93991D01*
X26447Y94014D01*
X26403Y94043D01*
X26364Y94078D01*
X24198Y96244D01*
X20002Y96244D01*
X17836Y94078D01*
X17797Y94043D01*
X17753Y94014D01*
X17706Y93991D01*
X17657Y93974D01*
X17605Y93964D01*
X17553Y93961D01*
X14443Y93961D01*
X14443D01*
X14443D01*
X14390Y93964D01*
X14339Y93974D01*
X14322Y93980D01*
X14289Y93991D01*
X14242Y94014D01*
X14198Y94043D01*
X14159Y94078D01*
Y94078D01*
X14159D01*
X14124Y94117D01*
X14095Y94161D01*
X14072Y94208D01*
X14061Y94241D01*
X14055Y94258D01*
X14045Y94309D01*
X14042Y94361D01*
Y94361D01*
Y94362D01*
X14042Y98318D01*
X14043Y98342D01*
X14045Y98370D01*
X14045Y98370D01*
Y98370D01*
X14055Y98422D01*
X14063Y98444D01*
X14072Y98471D01*
X14096Y98518D01*
X14125Y98562D01*
X14125Y98562D01*
X14125Y98562D01*
X14132Y98570D01*
X14159Y98601D01*
X15911Y100354D01*
X15911Y100354D01*
X15911Y100354D01*
X15933Y100373D01*
X15950Y100388D01*
X15950Y100388D01*
X15950Y100388D01*
X15979Y100407D01*
X15994Y100417D01*
X15994Y100417D01*
X15994Y100417D01*
X16011Y100426D01*
X16041Y100441D01*
X16091Y100457D01*
X16091Y100457D01*
D01*
X16091Y100457D01*
X16142Y100468D01*
X16194Y100471D01*
X16194D01*
X16195D01*
X27986Y100471D01*
D02*
G37*
G36*
X29757Y88857D02*
X29810Y88853D01*
X29861Y88843D01*
X29878Y88837D01*
X29911Y88826D01*
X29958Y88803D01*
X30002Y88774D01*
X30041Y88739D01*
Y88739D01*
X30041D01*
X30075Y88700D01*
X30105Y88656D01*
X30128Y88609D01*
X30139Y88577D01*
X30145Y88560D01*
X30155Y88508D01*
X30158Y88456D01*
X30158Y84519D01*
Y84519D01*
Y84519D01*
X30155Y84467D01*
X30145Y84415D01*
X30128Y84366D01*
X30116Y84342D01*
X30105Y84319D01*
X30085Y84289D01*
X30076Y84275D01*
X30041Y84236D01*
X30041D01*
Y84236D01*
X28269Y82464D01*
D01*
D01*
X28269Y82464D01*
X28230Y82429D01*
X28187Y82400D01*
X28139Y82377D01*
X28090Y82360D01*
X28038Y82350D01*
X27986Y82347D01*
X16195Y82346D01*
X16194D01*
X16194D01*
X16174Y82348D01*
X16142Y82350D01*
X16142Y82350D01*
X16142D01*
X16132Y82352D01*
X16091Y82360D01*
X16091Y82360D01*
D01*
X16041Y82377D01*
X15995Y82399D01*
X15994Y82400D01*
D01*
X15994Y82400D01*
X15968Y82418D01*
X15950Y82429D01*
X15950Y82429D01*
X15950Y82429D01*
X15935Y82442D01*
X15911Y82464D01*
X15911Y82464D01*
X15911Y82464D01*
X14159Y84216D01*
X14138Y84240D01*
X14125Y84255D01*
X14125Y84255D01*
X14125Y84255D01*
X14096Y84298D01*
X14096Y84299D01*
D01*
X14096Y84299D01*
X14072Y84346D01*
X14066Y84364D01*
X14055Y84396D01*
X14045Y84447D01*
Y84447D01*
X14045Y84447D01*
X14043Y84475D01*
X14042Y84499D01*
X14042Y88456D01*
Y88456D01*
Y88456D01*
X14045Y88508D01*
X14055Y88560D01*
X14067Y88593D01*
X14072Y88609D01*
X14095Y88656D01*
X14124Y88700D01*
X14159Y88739D01*
X14159D01*
Y88739D01*
X14198Y88774D01*
X14242Y88803D01*
X14289Y88826D01*
X14305Y88832D01*
X14339Y88843D01*
X14390Y88853D01*
X14443Y88857D01*
X14443D01*
X14443D01*
X17553Y88857D01*
X17605Y88853D01*
X17657Y88843D01*
X17706Y88826D01*
X17753Y88803D01*
X17797Y88774D01*
X17836Y88739D01*
X20002Y86573D01*
X24198Y86573D01*
X26364Y88739D01*
X26403Y88774D01*
X26447Y88803D01*
X26494Y88826D01*
X26544Y88843D01*
X26595Y88853D01*
X26647Y88857D01*
X29757Y88857D01*
D02*
G37*
G36*
X59662Y75825D02*
X59694Y75823D01*
X59694Y75823D01*
X59694D01*
X59704Y75821D01*
X59746Y75813D01*
X59746Y75813D01*
D01*
X59795Y75796D01*
X59825Y75781D01*
X59842Y75773D01*
X59842Y75773D01*
X59842Y75772D01*
X59857Y75762D01*
X59886Y75743D01*
X59886Y75743D01*
X59886Y75743D01*
X59901Y75730D01*
X59925Y75709D01*
X59925Y75709D01*
X59925Y75709D01*
X61677Y73957D01*
X61704Y73925D01*
X61712Y73917D01*
X61712Y73917D01*
X61712Y73917D01*
X61741Y73874D01*
X61764Y73826D01*
X61773Y73799D01*
X61781Y73777D01*
X61791Y73725D01*
Y73725D01*
X61791Y73725D01*
X61793Y73694D01*
X61794Y73673D01*
X61795Y69717D01*
D01*
Y69717D01*
X61791Y69664D01*
X61781Y69613D01*
X61775Y69596D01*
X61764Y69563D01*
X61741Y69516D01*
X61712Y69473D01*
X61677Y69433D01*
X61677D01*
Y69433D01*
X61638Y69399D01*
X61594Y69369D01*
X61547Y69346D01*
X61514Y69335D01*
X61497Y69329D01*
X61446Y69319D01*
X61394Y69316D01*
D01*
X61394D01*
X58283Y69316D01*
X58231Y69319D01*
X58180Y69329D01*
X58130Y69346D01*
X58083Y69369D01*
X58039Y69398D01*
X58000Y69433D01*
X55834Y71599D01*
X51639Y71599D01*
X49472Y69433D01*
X49433Y69398D01*
X49389Y69369D01*
X49342Y69346D01*
X49293Y69329D01*
X49241Y69319D01*
X49189Y69316D01*
X46079Y69316D01*
X46026Y69319D01*
X45975Y69329D01*
X45941Y69341D01*
X45925Y69346D01*
X45878Y69369D01*
X45835Y69398D01*
X45795Y69433D01*
Y69433D01*
X45795D01*
X45761Y69472D01*
X45732Y69516D01*
X45708Y69563D01*
X45703Y69579D01*
X45691Y69613D01*
X45681Y69664D01*
X45678Y69717D01*
X45678Y73653D01*
Y73653D01*
Y73653D01*
X45681Y73706D01*
X45691Y73757D01*
X45708Y73807D01*
X45720Y73830D01*
X45731Y73854D01*
X45761Y73897D01*
X45795Y73937D01*
X45795D01*
Y73937D01*
X47567Y75708D01*
D01*
D01*
X47567Y75709D01*
X47606Y75743D01*
X47650Y75772D01*
X47697Y75795D01*
X47746Y75812D01*
X47798Y75822D01*
X47850Y75826D01*
X59642Y75826D01*
X59642D01*
X59642D01*
X59662Y75825D01*
D02*
G37*
G36*
X-93067Y70515D02*
X-93014Y70511D01*
X-92963Y70501D01*
X-92913Y70484D01*
X-92898Y70477D01*
X-92866Y70461D01*
X-92823Y70432D01*
X-92783Y70397D01*
X-91012Y68626D01*
X-91012Y68626D01*
X-91012Y68626D01*
X-90977Y68586D01*
X-90965Y68569D01*
X-90948Y68543D01*
X-90926Y68498D01*
X-90925Y68496D01*
X-90908Y68448D01*
X-90908Y68446D01*
D01*
X-90908Y68446D01*
X-90904Y68425D01*
X-90898Y68395D01*
X-90894Y68342D01*
Y68342D01*
Y68342D01*
X-90894Y64406D01*
X-90898Y64353D01*
X-90908Y64302D01*
X-90920Y64268D01*
X-90925Y64252D01*
X-90948Y64205D01*
D01*
X-90948Y64205D01*
X-90963Y64183D01*
X-90977Y64161D01*
X-91012Y64122D01*
X-91012D01*
Y64122D01*
X-91051Y64087D01*
X-91073Y64073D01*
X-91095Y64058D01*
X-91095Y64058D01*
D01*
X-91142Y64035D01*
X-91158Y64030D01*
X-91192Y64018D01*
X-91243Y64008D01*
X-91295Y64005D01*
X-94406Y64005D01*
X-94458Y64008D01*
X-94509Y64018D01*
X-94559Y64035D01*
X-94606Y64058D01*
X-94650Y64087D01*
X-94689Y64122D01*
X-96855Y66288D01*
X-101050Y66288D01*
X-103217Y64122D01*
X-103256Y64087D01*
X-103300Y64058D01*
X-103347Y64035D01*
X-103396Y64018D01*
X-103439Y64010D01*
X-103448Y64008D01*
X-103500Y64005D01*
D01*
X-103500D01*
X-106610Y64005D01*
X-106663Y64008D01*
X-106714Y64018D01*
X-106731Y64024D01*
X-106764Y64035D01*
X-106811Y64058D01*
X-106854Y64087D01*
X-106894Y64122D01*
Y64122D01*
X-106894D01*
X-106928Y64161D01*
X-106957Y64205D01*
X-106981Y64252D01*
X-106992Y64285D01*
X-106998Y64302D01*
X-107008Y64353D01*
X-107011Y64406D01*
X-107011Y68362D01*
X-107009Y68386D01*
X-107008Y68414D01*
X-107008Y68414D01*
Y68414D01*
X-106997Y68466D01*
X-106989Y68491D01*
X-106981Y68515D01*
X-106957Y68563D01*
X-106957Y68563D01*
D01*
X-106957Y68563D01*
X-106928Y68606D01*
X-106894Y68646D01*
X-105142Y70398D01*
X-105142Y70398D01*
X-105142Y70398D01*
X-105118Y70419D01*
X-105103Y70432D01*
X-105102Y70432D01*
X-105102Y70432D01*
X-105085Y70444D01*
X-105059Y70461D01*
X-105059Y70461D01*
D01*
X-105058Y70462D01*
X-105012Y70485D01*
X-104962Y70502D01*
D01*
X-104962Y70502D01*
X-104928Y70508D01*
X-104911Y70512D01*
X-104911D01*
X-104911Y70512D01*
X-104883Y70514D01*
X-104859Y70515D01*
X-104858D01*
X-104858D01*
X-93067Y70515D01*
D02*
G37*
G36*
X61394Y64212D02*
D01*
X61394D01*
X61446Y64209D01*
X61497Y64198D01*
X61547Y64181D01*
X61570Y64170D01*
X61594Y64158D01*
X61638Y64129D01*
X61677Y64095D01*
Y64095D01*
X61677D01*
X61712Y64055D01*
X61741Y64012D01*
X61753Y63988D01*
X61764Y63964D01*
X61781Y63915D01*
X61791Y63863D01*
X61795Y63811D01*
D01*
Y63811D01*
X61794Y59855D01*
X61793Y59831D01*
X61791Y59802D01*
X61791Y59802D01*
Y59802D01*
X61781Y59751D01*
X61767Y59710D01*
X61764Y59701D01*
X61764Y59701D01*
X61764Y59701D01*
X61757Y59687D01*
X61741Y59654D01*
X61741Y59654D01*
D01*
X61741Y59654D01*
X61712Y59610D01*
X61677Y59571D01*
X59925Y57819D01*
X59925Y57819D01*
X59925Y57819D01*
X59901Y57798D01*
X59886Y57784D01*
X59886Y57784D01*
X59886Y57784D01*
X59869Y57773D01*
X59842Y57755D01*
X59842Y57755D01*
D01*
X59841Y57754D01*
X59795Y57732D01*
X59746Y57715D01*
D01*
X59746Y57715D01*
X59704Y57707D01*
X59694Y57705D01*
X59694D01*
X59694Y57705D01*
X59662Y57703D01*
X59642Y57701D01*
X59642D01*
X59642D01*
X47850Y57702D01*
X47798Y57705D01*
X47746Y57715D01*
X47697Y57732D01*
X47681Y57740D01*
X47650Y57755D01*
X47606Y57785D01*
X47567Y57819D01*
X45795Y59591D01*
X45795Y59591D01*
X45795Y59591D01*
X45787Y59600D01*
X45761Y59630D01*
X45731Y59674D01*
X45709Y59718D01*
X45708Y59721D01*
X45692Y59769D01*
X45691Y59770D01*
D01*
X45691Y59770D01*
X45687Y59791D01*
X45681Y59822D01*
X45678Y59874D01*
Y59874D01*
Y59874D01*
X45678Y63811D01*
X45681Y63863D01*
X45691Y63915D01*
X45703Y63949D01*
X45708Y63964D01*
X45732Y64012D01*
D01*
X45732Y64012D01*
X45746Y64033D01*
X45761Y64055D01*
X45795Y64095D01*
X45795D01*
Y64095D01*
X45835Y64129D01*
X45856Y64144D01*
X45878Y64158D01*
X45878Y64158D01*
D01*
X45925Y64181D01*
X45941Y64187D01*
X45975Y64198D01*
X46026Y64209D01*
X46079Y64212D01*
X49189Y64212D01*
X49241Y64209D01*
X49293Y64198D01*
X49342Y64181D01*
X49389Y64158D01*
X49433Y64129D01*
X49472Y64095D01*
X51639Y61928D01*
X55834Y61928D01*
X58000Y64095D01*
X58039Y64129D01*
X58083Y64158D01*
X58130Y64181D01*
X58180Y64198D01*
X58231Y64209D01*
X58284Y64212D01*
X61394Y64212D01*
D02*
G37*
G36*
X-91295Y58901D02*
X-91243Y58897D01*
X-91192Y58887D01*
X-91158Y58876D01*
X-91142Y58870D01*
X-91095Y58847D01*
D01*
X-91095Y58847D01*
X-91051Y58818D01*
X-91022Y58792D01*
X-91012Y58783D01*
X-91012Y58783D01*
X-91012Y58783D01*
X-91003Y58774D01*
X-90977Y58744D01*
X-90948Y58700D01*
X-90948Y58700D01*
D01*
X-90925Y58653D01*
X-90920Y58637D01*
X-90908Y58604D01*
X-90898Y58552D01*
X-90894Y58500D01*
X-90894Y54563D01*
X-90898Y54511D01*
X-90908Y54459D01*
X-90925Y54410D01*
X-90948Y54363D01*
X-90977Y54319D01*
X-91012Y54280D01*
X-92783Y52508D01*
D01*
D01*
X-92783Y52508D01*
X-92823Y52473D01*
X-92866Y52444D01*
X-92913Y52421D01*
X-92963Y52404D01*
X-93014Y52394D01*
X-93067Y52391D01*
X-104858Y52390D01*
X-104858D01*
X-104858D01*
X-104911Y52394D01*
X-104962Y52404D01*
X-104962Y52404D01*
D01*
X-104962Y52404D01*
X-105012Y52421D01*
X-105042Y52436D01*
X-105059Y52444D01*
X-105059Y52444D01*
X-105059Y52444D01*
X-105068Y52450D01*
X-105102Y52473D01*
X-105142Y52508D01*
X-105142Y52508D01*
X-105142Y52508D01*
X-106894Y54260D01*
X-106913Y54282D01*
X-106928Y54299D01*
X-106928Y54299D01*
X-106928Y54299D01*
X-106957Y54343D01*
X-106981Y54390D01*
X-106990Y54418D01*
X-106997Y54440D01*
X-107008Y54491D01*
Y54491D01*
X-107008Y54491D01*
X-107010Y54523D01*
X-107011Y54543D01*
X-107011Y58500D01*
Y58500D01*
D01*
X-107008Y58552D01*
X-106998Y58604D01*
X-106992Y58621D01*
X-106981Y58653D01*
X-106957Y58700D01*
X-106928Y58744D01*
X-106894Y58783D01*
X-106894D01*
Y58783D01*
X-106854Y58818D01*
X-106811Y58847D01*
X-106764Y58870D01*
X-106731Y58881D01*
X-106714Y58887D01*
X-106663Y58897D01*
X-106610Y58901D01*
X-106610D01*
D01*
X-103500Y58901D01*
X-103500D01*
D01*
X-103448Y58897D01*
X-103396Y58887D01*
X-103347Y58870D01*
X-103300Y58847D01*
X-103256Y58818D01*
X-103217Y58784D01*
X-101050Y56617D01*
X-96855D01*
X-94689Y58784D01*
X-94650Y58818D01*
X-94606Y58847D01*
X-94560Y58870D01*
X-94559Y58870D01*
X-94535Y58879D01*
X-94509Y58887D01*
X-94458Y58898D01*
X-94406Y58901D01*
X-94406D01*
X-94406D01*
X-91295Y58901D01*
D02*
G37*
D13*
X22100Y98200D02*
D03*
X22100Y84617D02*
D03*
X53736Y73555D02*
D03*
X53736Y59973D02*
D03*
X-98953Y54661D02*
D03*
X-98953Y68244D02*
D03*
D34*
X-9353Y191226D02*
D03*
X-9353Y184533D02*
D03*
X-1479Y191226D02*
D03*
X-1479Y184533D02*
D03*
D35*
X-3347Y-16800D02*
D03*
X3347Y-16800D02*
D03*
X-3346Y-26800D02*
D03*
X3347Y-26800D02*
D03*
X-3347Y-6800D02*
D03*
X3347Y-6800D02*
D03*
D92*
X38500Y89326D02*
D03*
X38500Y105074D02*
D03*
X-63200Y156874D02*
D03*
X-63200Y141126D02*
D03*
X72000Y63874D02*
D03*
Y48126D02*
D03*
X-49000Y141126D02*
D03*
Y156874D02*
D03*
X-35500Y141126D02*
D03*
Y156874D02*
D03*
D93*
X-22244Y69600D02*
D03*
X-27756D02*
D03*
X33444Y52400D02*
D03*
X38956D02*
D03*
X-94856Y95500D02*
D03*
X-89344Y95500D02*
D03*
X-50356Y-24500D02*
D03*
X-44844Y-24500D02*
D03*
X-54156Y23500D02*
D03*
X-48644Y23500D02*
D03*
X-34744Y-6000D02*
D03*
X-40256Y-6000D02*
D03*
X-24756Y64000D02*
D03*
X-19244Y64000D02*
D03*
X-50256Y-6000D02*
D03*
X-44744Y-6000D02*
D03*
X-32744Y21000D02*
D03*
X-38256Y21000D02*
D03*
X-13144Y34300D02*
D03*
X-18656Y34300D02*
D03*
X-67644Y54000D02*
D03*
X-73156Y54000D02*
D03*
X67156Y78500D02*
D03*
X61644Y78500D02*
D03*
X-16356Y42500D02*
D03*
X-10844D02*
D03*
X12956Y61400D02*
D03*
X7444Y61400D02*
D03*
X-43956Y103200D02*
D03*
X-38444D02*
D03*
X-144744Y99500D02*
D03*
X-150256Y99500D02*
D03*
X-28756Y21000D02*
D03*
X-23244D02*
D03*
X15935Y6417D02*
D03*
X10423Y6417D02*
D03*
X20935Y43417D02*
D03*
X15423Y43417D02*
D03*
X-11356Y74200D02*
D03*
X-5844Y74200D02*
D03*
X-66644Y37200D02*
D03*
X-72156Y37200D02*
D03*
X-66644Y42000D02*
D03*
X-72156Y42000D02*
D03*
X-17533Y115096D02*
D03*
X-12021D02*
D03*
Y119996D02*
D03*
X-17533D02*
D03*
X-86700Y69000D02*
D03*
X-81188Y69000D02*
D03*
X57544Y-25500D02*
D03*
X63056Y-25500D02*
D03*
D94*
X19803Y154720D02*
D03*
X21729Y154311D02*
D03*
X23654Y153902D02*
D03*
X25579Y153492D02*
D03*
X27505Y153083D02*
D03*
X29430Y152674D02*
D03*
X31356Y152265D02*
D03*
X33281Y151855D02*
D03*
X35207Y151446D02*
D03*
X37132Y151037D02*
D03*
X39058Y150628D02*
D03*
X40983Y150218D02*
D03*
D95*
X49289Y32800D02*
D03*
X72911Y32800D02*
D03*
X49289Y16900D02*
D03*
X72911D02*
D03*
D96*
X-65200Y84944D02*
D03*
X-65200Y90456D02*
D03*
X-70247Y84883D02*
D03*
X-70247Y90395D02*
D03*
X-87053Y62917D02*
D03*
X-87053Y57406D02*
D03*
X-81799Y64367D02*
D03*
Y58855D02*
D03*
X41736Y68008D02*
D03*
Y73520D02*
D03*
X35736Y68008D02*
D03*
Y73520D02*
D03*
X-35300Y-12144D02*
D03*
X-35300Y-17656D02*
D03*
X-18500Y24244D02*
D03*
X-18500Y29756D02*
D03*
X-13500Y24244D02*
D03*
X-13500Y29756D02*
D03*
X-76200Y2744D02*
D03*
X-76200Y8256D02*
D03*
X-13700Y2744D02*
D03*
X-13700Y8256D02*
D03*
X18100Y67044D02*
D03*
X18100Y72556D02*
D03*
X-111300Y66312D02*
D03*
X-111300Y60800D02*
D03*
X28400Y133344D02*
D03*
X28400Y138856D02*
D03*
X-35500Y126744D02*
D03*
X-35500Y132256D02*
D03*
X-1600Y69044D02*
D03*
Y74556D02*
D03*
X84000Y7256D02*
D03*
Y1744D02*
D03*
X89000Y7256D02*
D03*
Y1744D02*
D03*
X158500Y33512D02*
D03*
X158500Y28000D02*
D03*
X152500Y33512D02*
D03*
X152500Y28000D02*
D03*
X110500Y-48244D02*
D03*
Y-53756D02*
D03*
X22900Y135044D02*
D03*
X22900Y140556D02*
D03*
X56700Y6056D02*
D03*
Y544D02*
D03*
D97*
X8300Y67594D02*
D03*
Y79405D02*
D03*
D98*
X75174Y-94049D02*
D03*
X80000Y-90000D02*
D03*
D99*
X58000Y-106000D02*
D03*
X63455Y-102850D02*
D03*
D100*
X38040Y-114077D02*
D03*
X43960Y-111923D02*
D03*
D101*
X17898Y-119547D02*
D03*
X24102Y-118453D02*
D03*
D102*
X-3150Y-120000D02*
D03*
X3150Y-120000D02*
D03*
X32030Y18417D02*
D03*
X38329Y18417D02*
D03*
X32030Y39417D02*
D03*
X38329Y39417D02*
D03*
X-14350Y58000D02*
D03*
X-8050Y58000D02*
D03*
X-10272Y109296D02*
D03*
X-16571D02*
D03*
X41250Y58600D02*
D03*
X34950D02*
D03*
X-84102Y74661D02*
D03*
X-77803D02*
D03*
X32030Y12417D02*
D03*
X38329Y12417D02*
D03*
X-20000Y-16800D02*
D03*
X-13701Y-16800D02*
D03*
X32030Y33417D02*
D03*
X38329Y33417D02*
D03*
X-20000Y-26800D02*
D03*
X-13701Y-26800D02*
D03*
X-20000Y-6800D02*
D03*
X-13701Y-6800D02*
D03*
X21050Y4800D02*
D03*
X27350Y4800D02*
D03*
X26030Y45417D02*
D03*
X32329Y45417D02*
D03*
D103*
X-24102Y-117453D02*
D03*
X-17898Y-118547D02*
D03*
D104*
X-43960Y-111923D02*
D03*
X-38040Y-114077D02*
D03*
D105*
X-62728Y-102425D02*
D03*
X-57272Y-105575D02*
D03*
D106*
X-79413Y-89976D02*
D03*
X-74587Y-94024D02*
D03*
D107*
X79927Y-66804D02*
D03*
X81073Y-72196D02*
D03*
D108*
X-81000Y-68000D02*
D03*
X-82146Y-73391D02*
D03*
D109*
X16425Y135396D02*
D03*
X9732D02*
D03*
X13632Y128696D02*
D03*
X20325Y128696D02*
D03*
X2154Y93500D02*
D03*
X8846Y93500D02*
D03*
X2132Y86896D02*
D03*
X8825Y86896D02*
D03*
X-3554Y98200D02*
D03*
X-10246Y98200D02*
D03*
X-6654Y19000D02*
D03*
X-13346Y19000D02*
D03*
D110*
X19178Y111446D02*
D03*
X19178Y105147D02*
D03*
X-1822Y126446D02*
D03*
X-1822Y132746D02*
D03*
X4378Y126446D02*
D03*
X4378Y132746D02*
D03*
X-40781Y125006D02*
D03*
Y118706D02*
D03*
D111*
X19679Y116450D02*
D03*
Y123143D02*
D03*
D112*
X58985Y84800D02*
D03*
X69615Y84800D02*
D03*
X86915Y84700D02*
D03*
X76285Y84700D02*
D03*
D113*
X-126700Y57485D02*
D03*
X-126700Y68115D02*
D03*
X-117800Y57485D02*
D03*
X-117800Y68115D02*
D03*
D114*
X-124274Y79200D02*
D03*
X-108526Y79200D02*
D03*
D115*
X28388Y55208D02*
D03*
D116*
X28388Y61901D02*
D03*
X18939Y61901D02*
D03*
X18939Y54420D02*
D03*
D117*
X-83453Y81276D02*
D03*
D118*
X-76760Y81276D02*
D03*
X-76760Y90724D02*
D03*
X-84240Y90724D02*
D03*
D119*
X45862Y52504D02*
D03*
Y45024D02*
D03*
X53736Y48764D02*
D03*
X-91016Y74921D02*
D03*
X-91016Y82402D02*
D03*
X-98890Y78661D02*
D03*
D120*
X-25447Y183956D02*
D03*
X-48553Y179044D02*
D03*
D121*
X-40975Y-11660D02*
D03*
X-40976Y-19140D02*
D03*
X-50424Y-19140D02*
D03*
X-50424Y-15400D02*
D03*
X-50424Y-11660D02*
D03*
D122*
X25679Y36146D02*
D03*
X20679Y36146D02*
D03*
X15679Y36146D02*
D03*
X10679Y36146D02*
D03*
X25679Y14689D02*
D03*
X20679Y14689D02*
D03*
X15679D02*
D03*
X10679Y14689D02*
D03*
D123*
X-58345Y37373D02*
D03*
X-58345Y39342D02*
D03*
X-58345Y41310D02*
D03*
X-58345Y43279D02*
D03*
X-58345Y45247D02*
D03*
X-58345Y47216D02*
D03*
X-58345Y49184D02*
D03*
X-58345Y51153D02*
D03*
X-58345Y53121D02*
D03*
X-58345Y55090D02*
D03*
X-58345Y57058D02*
D03*
X-58345Y59027D02*
D03*
X-26455Y59027D02*
D03*
Y57058D02*
D03*
Y55090D02*
D03*
X-26455Y53121D02*
D03*
X-26455Y51153D02*
D03*
X-26455Y49184D02*
D03*
X-26455Y47216D02*
D03*
X-26455Y45247D02*
D03*
X-26455Y43279D02*
D03*
Y41310D02*
D03*
X-26455Y39342D02*
D03*
X-26455Y37373D02*
D03*
D124*
X-53227Y64145D02*
D03*
X-51258Y64145D02*
D03*
X-49290Y64145D02*
D03*
X-47321Y64145D02*
D03*
X-45353Y64145D02*
D03*
X-43384Y64145D02*
D03*
X-41416Y64145D02*
D03*
X-39447Y64145D02*
D03*
X-37479Y64145D02*
D03*
X-35510Y64145D02*
D03*
X-33542Y64145D02*
D03*
X-31573Y64145D02*
D03*
X-31573Y32255D02*
D03*
X-33542Y32255D02*
D03*
X-35510Y32255D02*
D03*
X-37479Y32255D02*
D03*
X-39447Y32255D02*
D03*
X-41416Y32255D02*
D03*
X-43384Y32255D02*
D03*
X-45353Y32255D02*
D03*
X-47321Y32255D02*
D03*
X-49290Y32255D02*
D03*
X-51258Y32255D02*
D03*
X-53227Y32255D02*
D03*
D125*
X-183710Y30649D02*
D03*
X-188561Y31858D02*
D03*
X-182500Y35500D02*
D03*
X-186142Y41561D02*
D03*
X-181290Y40352D02*
D03*
X-187352Y36710D02*
D03*
D126*
X-61632Y8200D02*
D03*
X-28168Y8200D02*
D03*
D127*
X9600Y119473D02*
D03*
X7631Y119473D02*
D03*
X5663Y119473D02*
D03*
X3694Y119473D02*
D03*
X1726D02*
D03*
X-243Y119473D02*
D03*
X-243Y104119D02*
D03*
X1726Y104119D02*
D03*
X3694D02*
D03*
X5663Y104119D02*
D03*
X7631Y104119D02*
D03*
X9600D02*
D03*
D128*
X-2999Y116717D02*
D03*
X-2999Y114749D02*
D03*
X-2999Y112780D02*
D03*
X-2999Y110812D02*
D03*
X-2999Y108843D02*
D03*
Y106875D02*
D03*
X12356Y106875D02*
D03*
X12356Y108843D02*
D03*
Y110812D02*
D03*
X12356Y112780D02*
D03*
X12356Y114749D02*
D03*
X12356Y116717D02*
D03*
D129*
X4679Y111796D02*
D03*
D130*
X102630Y-40800D02*
D03*
X110504D02*
D03*
X118378Y-40800D02*
D03*
X126252Y-40800D02*
D03*
X134126Y-40800D02*
D03*
X142000D02*
D03*
X149874Y-40800D02*
D03*
X157748Y-40800D02*
D03*
Y19239D02*
D03*
X149874Y19239D02*
D03*
X142000Y19239D02*
D03*
X134126Y19239D02*
D03*
X126252Y19239D02*
D03*
X118378Y19239D02*
D03*
X110504Y19239D02*
D03*
X102630Y19239D02*
D03*
D131*
X96724Y8905D02*
D03*
X96724Y1031D02*
D03*
X96724Y-6843D02*
D03*
X96724Y-14717D02*
D03*
X96724Y-22591D02*
D03*
X96724Y-30465D02*
D03*
D132*
X63560Y4240D02*
D03*
Y-3240D02*
D03*
X71040Y500D02*
D03*
D133*
X19400Y183600D02*
D03*
X53300Y176400D02*
D03*
X15486Y164332D02*
D03*
X48836Y157243D02*
D03*
D134*
X22796Y162174D02*
D03*
X25877Y161519D02*
D03*
X28958Y160864D02*
D03*
X41281Y158245D02*
D03*
X38200Y158900D02*
D03*
X35119Y159555D02*
D03*
X20683Y159806D02*
D03*
X26844Y158496D02*
D03*
X29925Y157841D02*
D03*
X42248Y155222D02*
D03*
X36087Y156532D02*
D03*
X33006Y157187D02*
D03*
D135*
X47175Y155584D02*
D03*
X16329Y162140D02*
D03*
D136*
X17070Y157958D02*
D03*
X44797Y152064D02*
D03*
D137*
X-163000Y96340D02*
D03*
X-158000Y105000D02*
D03*
D138*
X-178625Y44840D02*
D03*
X-186388Y46775D02*
D03*
X-187345Y26402D02*
D03*
D139*
X-179920Y58103D02*
D03*
X-176013Y67308D02*
D03*
X-172106Y76513D02*
D03*
X-168198Y85718D02*
D03*
D140*
X-150500Y115000D02*
D03*
X-143809Y122431D02*
D03*
X-137117Y129863D02*
D03*
X-130426Y137294D02*
D03*
D141*
X85500Y-24500D02*
D03*
X75500Y-24500D02*
D03*
X85500Y-11000D02*
D03*
X75500D02*
D03*
D142*
X72044Y108734D02*
D03*
X91683Y112909D02*
D03*
X75643Y140088D02*
D03*
X-91928Y114903D02*
D03*
X-72289Y110729D02*
D03*
X-75888Y142082D02*
D03*
X-109923Y-66329D02*
D03*
X-129563Y-62154D02*
D03*
X-125964Y-93508D02*
D03*
X129399Y-64646D02*
D03*
X109759Y-68821D02*
D03*
X125800Y-96000D02*
D03*
M02*
