M48
;Layer_Color=9474304
;FILE_FORMAT=2:5
INCH,TZ
;TYPE=PLATED
T1F00S00C0.01181
T2F00S00C0.01575
T3F00S00C0.02000
T4F00S00C0.02362
T5F00S00C0.03937
T6F00S00C0.07480
;TYPE=NON_PLATED
T7F00S00C0.03346
T8F00S00C0.03500
%
T01
X85316Y-71200
X97914
Y-58601
X110513
X123111
X135710
X148308
X160906
X173505
Y-71200
Y-83798
X160906
Y-71200
X148308
Y-83798
Y-96397
X160906
Y-108995
X148308
Y-121594
X135710Y-108995
Y-96397
Y-83798
Y-71200
X123111
Y-83798
X110513
Y-33405
X123111
X135710
X148308Y-20806
Y-8208
X135710
X123111Y-20806
X110513
Y-8208
X97914Y-46003
X85316
Y-33405
Y-58601
X72717Y-46003
Y-33405
X60119Y-20806
X56300Y-17200
X56500Y-8500
X41000Y-8700
X39961Y-17000
X39500Y-22500
X52600Y-24700
X22324Y-8208
X9725Y-20806
X-23000Y-23000
X-24000Y-14500
X-28900Y-15200
X-30000Y-8000
X-57400Y-4700
X-71400Y-6300
X-67400Y-15400
X-55800Y-21300
X-57000Y-31300
X-55500Y-34000
X-58500Y-36500
X-68000Y-40000
X-78464Y-33405
Y-58601
X-21149Y-113286
X28000Y-117000
X-91062Y-71200
Y-58601
Y-46003
Y-33405
Y-20806
Y-8208
X-103661
Y-20806
Y-33405
Y-46003
Y-58601
Y-71200
Y-83798
X-116259
Y-71200
Y-58601
Y-46003
Y-33405
Y-20806
Y-8208
X-128858
Y-20806
Y-33405
Y-46003
X-141456
Y-33405
Y-20806
Y-8208
X-154054
Y-20806
Y-33405
Y-46003
Y-58601
X-141456
Y-71200
X-128858
Y-83798
X-141456
Y-96397
Y-108995
X-154054
Y-96397
Y-83798
Y-71200
X-166653
Y-58601
Y-46003
Y-33405
Y-20806
Y-8208
X-179251
Y-20806
Y-33405
Y-46003
Y-58601
Y-71200
X-166653Y-83798
Y-96397
X-116259
X-191850Y-33405
Y-20806
Y-8208
Y4391
X-179251
X-166653
X-154054
X-141456
X-128858
X-116259
X-103661
Y16989
X-91062
X-91000Y26500
X-90900Y30600
X-90400Y33700
X-87500Y34500
X-85143Y37257
X-82772Y39128
X-91062Y42186
X-103661
X-105100Y50100
X-86400Y50200
X-116259Y42186
X-130500Y37000
X-134300Y34500
X-144200
X-141456Y16989
X-128858
X-116259
X-154054
X-166653
X-179251
X-191850
X-190919Y29500
X-191100Y37258
X-177853Y35853
X-170500Y26500
X-168000Y53500
X-133500Y66000
Y70500
Y75000
X-128858Y92580
X-141456
X-151987Y92513
X-137500Y109000
X-116259Y105178
X-103661
X-91062
Y130375
Y142973
Y155572
X-103661
Y142973
Y130375
Y117777
X-110500Y116300
X-116259Y117777
Y130375
Y142973
Y155572
X-128858Y142973
Y130375
X-103661Y92580
X-78464Y105178
X-65865Y117777
X-53267
Y130375
X-40668
X-28070
Y142973
X-28400Y149200
X-28500Y157000
X-40668Y155572
X-69800Y157000
X-78464Y155572
X-65865Y130375
X-35500Y121200
X-28070Y117777
X-22244Y115500
X-20500Y111100
X-27500Y110244
X-28070Y105178
X-7218Y113093
X-8500Y116000
X-7590Y122501
X-5700Y124800
X2513Y113962
X6844Y113962
X6844Y109631
X2513Y109631
X13800Y123300
X25500Y127000
X24179Y116396
X30000Y116100
X29000Y112500
X34922Y117777
X47521
X60119
Y130375
Y142973
Y155572
X72717
X47521Y142973
Y130375
X34922
X26700Y142600
X30500Y149000
X30000Y80800
X35600Y81500
X41000Y79000
X47521Y79981
X50500Y79000
X60119Y92580
X42000Y64000
X36000
X21444Y67044
X14000Y72000
X2700Y73900
X3500Y63500
Y58500
X9000Y57500
X10300Y51000
X11200Y44600
X1700Y50700
X-500Y54500
X-3800Y56700
X-7000Y46900
X-2873Y42186
X-5000Y34300
X4900Y35000
X9000Y28200
X14600Y27800
X22324Y29588
X34922
X54500Y28500
Y33000
Y37500
X60119Y29588
X54500Y21000
Y17000
Y13000
X36500Y4900
X400Y12100
X4900Y23900
X-22500Y26600
X-26500Y26500
X-27255Y32255
X-22900Y33200
X-36788Y37580
X-33500Y42000
X-31500Y47500
X-33000Y52300
X-41500Y54218
X-43800Y57500
X-48000Y53500
X-51000Y56000
X-53447Y51153
X-65900Y53700
X-64100Y58100
X-69473Y59027
X-63400Y64700
X-56300Y66500
X-49290Y69290
X-50400Y76342
X-43700Y74000
X-35800Y72716
X-37500Y70000
X-33500Y75500
X-21600Y73700
X-20700Y60000
X-20500Y52300
X-18100Y48700
X-10900Y63300
X-6600Y69000
X-28700Y65500
X-39900Y47100
X-41000Y42500
X-45500Y41000
X-41200Y23600
X-36000Y17500
X-49600Y19200
X-59000Y20000
X-61800Y23700
X-65865Y16989
X-71700Y13800
X-75600Y19900
X-71500Y29400
X-66200Y33000
X-75900Y35300
X-75400Y39800
X-77100Y69100
X-73500Y72000
X-67900Y81000
X-53267Y92580
X-40668Y4391
X-19900Y13300
X-9600Y4700
X-80400Y5400
X28200Y51100
X85316Y54784
X97914
X110513
X123111
X135710
Y67383
X148308
X160906
X173505
Y79981
X160906
Y92580
Y105178
X148308
Y117777
X135710
Y130375
X123111
Y142973
X110513
Y155572
X97914
Y142973
Y130375
X110513
Y117777
X123111
Y105178
X135710
Y92580
X148308
Y79981
X135710
X123111
Y92580
X110513
Y105178
X97914
Y117777
Y92580
Y79981
X110513
Y67383
X123111
X97914
X85316
Y92580
Y105178
Y130375
Y142973
Y155572
Y16989
X108458Y25500
X110513Y29588
X135710
X144200Y25700
X148308Y4391
X135710
X123111
X110513
X173505Y42186
Y54784
X97914Y168170
X85316
X72717
Y180769
X60119
Y168170
X47521
Y180769
X34922
Y168170
X22324
Y180769
X9725
Y168170
X-5100Y180100
X-5700Y188000
X-28070Y168170
X-40668
Y180769
X-53267Y168170
X-65865
Y180769
X-78464Y168170
X-91062
T02
X33006Y157187
X36087Y156532
X42248Y155222
X41281Y158245
X38200Y158900
X35119Y159555
X29925Y157841
X26844Y158496
X25877Y161519
X28958Y160864
X22796Y162174
X20683Y159806
T03
X-5300Y86400
X-2000
Y89700
X-5300
Y93000
X-2000
X8500Y99300
X11900
X39500Y119300
X43800Y115100
T04
X47175Y155584
X48836Y157243
X53300Y176400
X19400Y183600
X15486Y164332
X16329Y162140
T05
X85500Y-24500
Y-11000
X75500
X75500Y-24500
X-179920Y58103
X-176013Y67308
X-172106Y76513
X-168198Y85718
X-163000Y96340
X-158000Y105000
X-150500Y115000
X-143809Y122431
X-137117Y129863
X-130426Y137294
T06
X125800Y-96000
X129399Y-64646
X109759Y-68821
X-109923Y-66329
X-129563Y-62154
X-125964Y-93508
X-91928Y114903
X-72289Y110729
X-75888Y142082
X75643Y140088
X72044Y108734
X91683Y112909
T07
X44797Y152064
X17070Y157958
T08
X-187345Y26402
X-186388Y46775
X-178625Y44840
M30
