G04 Layer_Physical_Order=2*
G04 Layer_Color=16711680*
%FSLAX25Y25*%
%MOIN*%
G70*
G01*
G75*
%ADD54C,0.01200*%
%ADD55C,0.01181*%
%ADD56C,0.01500*%
%ADD57C,0.00800*%
%ADD58C,0.01968*%
%ADD60C,0.01575*%
%ADD61C,0.00600*%
%ADD62C,0.00787*%
%ADD65C,0.01000*%
%ADD68C,0.05000*%
%ADD69C,0.10000*%
G04:AMPARAMS|DCode=70|XSize=70.87mil|YSize=35.43mil|CornerRadius=0mil|HoleSize=0mil|Usage=FLASHONLY|Rotation=258.000|XOffset=0mil|YOffset=0mil|HoleType=Round|Shape=Round|*
%AMOVALD70*
21,1,0.03543,0.03543,0.00000,0.00000,258.0*
1,1,0.03543,0.00368,0.01733*
1,1,0.03543,-0.00368,-0.01733*
%
%ADD70OVALD70*%

%ADD71C,0.02362*%
G04:AMPARAMS|DCode=72|XSize=62.99mil|YSize=31.5mil|CornerRadius=0mil|HoleSize=0mil|Usage=FLASHONLY|Rotation=348.000|XOffset=0mil|YOffset=0mil|HoleType=Round|Shape=Round|*
%AMOVALD72*
21,1,0.03150,0.03150,0.00000,0.00000,348.0*
1,1,0.03150,-0.01540,0.00327*
1,1,0.03150,0.01540,-0.00327*
%
%ADD72OVALD72*%

%ADD73C,0.03347*%
G04:AMPARAMS|DCode=74|XSize=59.05mil|YSize=122.05mil|CornerRadius=0mil|HoleSize=0mil|Usage=FLASHONLY|Rotation=240.000|XOffset=0mil|YOffset=0mil|HoleType=Round|Shape=Round|*
%AMOVALD74*
21,1,0.06299,0.05905,0.00000,0.00000,330.0*
1,1,0.05905,-0.02728,0.01575*
1,1,0.05905,0.02728,-0.01575*
%
%ADD74OVALD74*%

%ADD75C,0.03400*%
G04:AMPARAMS|DCode=76|XSize=59.05mil|YSize=122.05mil|CornerRadius=0mil|HoleSize=0mil|Usage=FLASHONLY|Rotation=247.000|XOffset=0mil|YOffset=0mil|HoleType=Round|Shape=Round|*
%AMOVALD76*
21,1,0.06299,0.05905,0.00000,0.00000,337.0*
1,1,0.05905,-0.02899,0.01231*
1,1,0.05905,0.02899,-0.01231*
%
%ADD76OVALD76*%

G04:AMPARAMS|DCode=77|XSize=59.05mil|YSize=122.05mil|CornerRadius=0mil|HoleSize=0mil|Usage=FLASHONLY|Rotation=228.000|XOffset=0mil|YOffset=0mil|HoleType=Round|Shape=Round|*
%AMOVALD77*
21,1,0.06299,0.05905,0.00000,0.00000,318.0*
1,1,0.05905,-0.02341,0.02108*
1,1,0.05905,0.02341,-0.02108*
%
%ADD77OVALD77*%

%ADD78O,0.05905X0.12205*%
%ADD79C,0.09449*%
%ADD80C,0.03000*%
%ADD81C,0.23622*%
G36*
X-133371Y35246D02*
X-133284Y35173D01*
X-133193Y35109D01*
X-133099Y35054D01*
X-133003Y35007D01*
X-132904Y34968D01*
X-132802Y34938D01*
X-132698Y34917D01*
X-132590Y34904D01*
X-132480Y34900D01*
Y34100D01*
X-132590Y34096D01*
X-132698Y34083D01*
X-132802Y34062D01*
X-132904Y34032D01*
X-133003Y33993D01*
X-133099Y33946D01*
X-133193Y33891D01*
X-133284Y33827D01*
X-133371Y33754D01*
X-133457Y33673D01*
Y35327D01*
X-133371Y35246D01*
D02*
G37*
G36*
X-145044Y33673D02*
X-145129Y33754D01*
X-145216Y33827D01*
X-145307Y33891D01*
X-145401Y33946D01*
X-145497Y33993D01*
X-145596Y34032D01*
X-145698Y34062D01*
X-145802Y34083D01*
X-145910Y34096D01*
X-146020Y34100D01*
Y34900D01*
X-145910Y34904D01*
X-145802Y34917D01*
X-145698Y34938D01*
X-145596Y34968D01*
X-145497Y35007D01*
X-145401Y35054D01*
X-145307Y35109D01*
X-145216Y35173D01*
X-145129Y35246D01*
X-145044Y35327D01*
Y33673D01*
D02*
G37*
G36*
X-86718Y33606D02*
X-86758Y33547D01*
X-86794Y33479D01*
X-86824Y33403D01*
X-86850Y33319D01*
X-86872Y33226D01*
X-86888Y33124D01*
X-86900Y33014D01*
X-86910Y32768D01*
X-88090D01*
X-88093Y32895D01*
X-88112Y33124D01*
X-88128Y33226D01*
X-88150Y33319D01*
X-88176Y33403D01*
X-88206Y33479D01*
X-88242Y33547D01*
X-88282Y33606D01*
X-88327Y33656D01*
X-86673D01*
X-86718Y33606D01*
D02*
G37*
G36*
X-129316Y36871D02*
X-129305Y36757D01*
X-129287Y36648D01*
X-129260Y36543D01*
X-129225Y36441D01*
X-129182Y36344D01*
X-129131Y36251D01*
X-129072Y36162D01*
X-129005Y36077D01*
X-128930Y35996D01*
X-129496Y35430D01*
X-129577Y35505D01*
X-129662Y35572D01*
X-129751Y35631D01*
X-129844Y35682D01*
X-129941Y35725D01*
X-130043Y35760D01*
X-130148Y35787D01*
X-130257Y35805D01*
X-130371Y35816D01*
X-130488Y35819D01*
X-129319Y36988D01*
X-129316Y36871D01*
D02*
G37*
G36*
X-36799Y36399D02*
X-36867Y36395D01*
X-36937Y36381D01*
X-37010Y36358D01*
X-37085Y36326D01*
X-37163Y36285D01*
X-37244Y36234D01*
X-37328Y36174D01*
X-37414Y36105D01*
X-37594Y35938D01*
X-38429Y36773D01*
X-38341Y36864D01*
X-38193Y37039D01*
X-38133Y37123D01*
X-38082Y37204D01*
X-38041Y37282D01*
X-38009Y37357D01*
X-37986Y37430D01*
X-37973Y37500D01*
X-37969Y37568D01*
X-36799Y36399D01*
D02*
G37*
G36*
X-190318Y36364D02*
X-190358Y36305D01*
X-190394Y36237D01*
X-190424Y36162D01*
X-190450Y36077D01*
X-190472Y35984D01*
X-190488Y35882D01*
X-190500Y35772D01*
X-190509Y35527D01*
X-191691D01*
X-191693Y35654D01*
X-191712Y35882D01*
X-191728Y35984D01*
X-191750Y36077D01*
X-191776Y36162D01*
X-191806Y36237D01*
X-191842Y36305D01*
X-191882Y36364D01*
X-191927Y36415D01*
X-190273D01*
X-190318Y36364D01*
D02*
G37*
G36*
X-84350Y36373D02*
X-84389Y36314D01*
X-84424Y36246D01*
X-84454Y36169D01*
X-84480Y36085D01*
X-84501Y35991D01*
X-84517Y35890D01*
X-84528Y35780D01*
X-84538Y35534D01*
X-85719Y35517D01*
X-85721Y35644D01*
X-85741Y35872D01*
X-85757Y35974D01*
X-85779Y36066D01*
X-85805Y36151D01*
X-85837Y36227D01*
X-85873Y36294D01*
X-85914Y36353D01*
X-85959Y36403D01*
X-84306Y36424D01*
X-84350Y36373D01*
D02*
G37*
G36*
X-179550Y35941D02*
X-179567Y35853D01*
X-179437Y35197D01*
X-179065Y34641D01*
X-178509Y34269D01*
X-177853Y34139D01*
X-177451Y34219D01*
X-177351Y34152D01*
X-177225Y34127D01*
X-176949Y33851D01*
X-176651Y33652D01*
X-176300Y33582D01*
X-146091D01*
X-146041Y33559D01*
X-145952Y33556D01*
X-145889Y33548D01*
X-145828Y33536D01*
X-145770Y33519D01*
X-145714Y33497D01*
X-145658Y33470D01*
X-145602Y33436D01*
X-145545Y33397D01*
X-145488Y33349D01*
X-145417Y33281D01*
X-145382Y33268D01*
X-144924Y32962D01*
X-144932Y32688D01*
X-145007Y32462D01*
X-183029D01*
X-183236Y32962D01*
X-180010Y36187D01*
X-179550Y35941D01*
D02*
G37*
G36*
X8988Y27019D02*
X8963Y27014D01*
X8930Y27000D01*
X8889Y26975D01*
X8840Y26940D01*
X8719Y26841D01*
X8567Y26702D01*
X8384Y26523D01*
X7323Y27584D01*
X7418Y27679D01*
X7775Y28089D01*
X7800Y28130D01*
X7814Y28163D01*
X7819Y28188D01*
X8988Y27019D01*
D02*
G37*
G36*
X57000Y26000D02*
X51500D01*
Y39500D01*
X57000D01*
Y26000D01*
D02*
G37*
G36*
X-91843Y25673D02*
X-91858Y25681D01*
X-91886Y25687D01*
X-91927Y25693D01*
X-92049Y25703D01*
X-92454Y25712D01*
X-92589Y25713D01*
Y27287D01*
X-91843Y27327D01*
Y25673D01*
D02*
G37*
G36*
X-190054Y30312D02*
X-190021Y30299D01*
X-189974Y30288D01*
X-189915Y30278D01*
X-189760Y30262D01*
X-189554Y30253D01*
X-189298Y30250D01*
Y28750D01*
X-189432Y28749D01*
X-189974Y28712D01*
X-190021Y28701D01*
X-190054Y28688D01*
X-190076Y28673D01*
Y30327D01*
X-190054Y30312D01*
D02*
G37*
G36*
X-26473Y31361D02*
X-26513Y31302D01*
X-26549Y31234D01*
X-26579Y31158D01*
X-26605Y31074D01*
X-26627Y30981D01*
X-26643Y30879D01*
X-26655Y30769D01*
X-26665Y30524D01*
X-27846D01*
X-27848Y30651D01*
X-27867Y30879D01*
X-27883Y30981D01*
X-27905Y31074D01*
X-27931Y31158D01*
X-27961Y31234D01*
X-27997Y31302D01*
X-28037Y31361D01*
X-28082Y31412D01*
X-26428D01*
X-26473Y31361D01*
D02*
G37*
G36*
X-184128Y32800D02*
X-184273Y32619D01*
X-184373Y32460D01*
X-184428Y32322D01*
X-184438Y32206D01*
X-184404Y32110D01*
X-184325Y32036D01*
X-184201Y31983D01*
X-184031Y31951D01*
X-183818Y31941D01*
X-184999Y30759D01*
X-185234Y30749D01*
X-185466Y30717D01*
X-185697Y30664D01*
X-185924Y30590D01*
X-186150Y30494D01*
X-186373Y30378D01*
X-186593Y30240D01*
X-186811Y30081D01*
X-187027Y29900D01*
X-187241Y29699D01*
X-187180Y31880D01*
X-186120Y32941D01*
X-183938Y33001D01*
X-184128Y32800D01*
D02*
G37*
G36*
X-91195Y29456D02*
X-91244Y29466D01*
X-91313Y29475D01*
X-91509Y29489D01*
X-92565Y29507D01*
X-92753Y30307D01*
X-92635Y30312D01*
X-92529Y30326D01*
X-92433Y30349D01*
X-92348Y30382D01*
X-92274Y30424D01*
X-92211Y30476D01*
X-92159Y30536D01*
X-92118Y30606D01*
X-92088Y30686D01*
X-92068Y30775D01*
X-91195Y29456D01*
D02*
G37*
G36*
X-30902Y52146D02*
X-31538Y51112D01*
X-31632Y51201D01*
X-31801Y51342D01*
X-31877Y51393D01*
X-31947Y51431D01*
X-32011Y51455D01*
X-32069Y51467D01*
X-32121Y51466D01*
X-32167Y51452D01*
X-32208Y51424D01*
X-32022Y52962D01*
X-30902Y52146D01*
D02*
G37*
G36*
X-33882Y54310D02*
X-33960Y53680D01*
X-34212Y53512D01*
X-34584Y52956D01*
X-34714Y52300D01*
X-34584Y51644D01*
X-34212Y51088D01*
X-33656Y50716D01*
X-33000Y50586D01*
X-32344Y50716D01*
X-32095Y50883D01*
X-31993Y50798D01*
X-31914Y50722D01*
X-31868Y50704D01*
X-31841Y50677D01*
X-31822Y50651D01*
X-31813Y50649D01*
X-30721Y49557D01*
X-30982Y49111D01*
X-31500Y49214D01*
X-32156Y49084D01*
X-32712Y48712D01*
X-32822Y48548D01*
X-32926Y48527D01*
X-33286Y48286D01*
X-33286Y48286D01*
X-33808Y47764D01*
X-33926Y47670D01*
X-33955Y47618D01*
X-34415Y47158D01*
X-34656Y46797D01*
X-34740Y46372D01*
X-34740Y46372D01*
Y43700D01*
X-34760Y43654D01*
X-34762Y43535D01*
X-34766Y43442D01*
X-34786Y43265D01*
X-34797Y43207D01*
X-34809Y43156D01*
X-34821Y43120D01*
X-34831Y43097D01*
X-34835Y43089D01*
X-34854Y43063D01*
X-34876Y42966D01*
X-35084Y42656D01*
X-35132Y42412D01*
X-35675Y42247D01*
X-36388Y42961D01*
Y56151D01*
X-36001Y56307D01*
X-35888Y56316D01*
X-33882Y54310D01*
D02*
G37*
G36*
X-39124Y69545D02*
X-39084Y69344D01*
X-38746Y68839D01*
X-38732Y68797D01*
X-38710Y68773D01*
X-38707Y68768D01*
X-38698Y68752D01*
X-38686Y68722D01*
X-38673Y68679D01*
X-38660Y68622D01*
X-38649Y68558D01*
X-38634Y68368D01*
X-38632Y68258D01*
X-38612Y68213D01*
Y42500D01*
X-38612Y42500D01*
X-38527Y42074D01*
X-38286Y41714D01*
X-36274Y39701D01*
X-36520Y39240D01*
X-36788Y39294D01*
X-37444Y39163D01*
X-37999Y38791D01*
X-38371Y38236D01*
X-38490Y37639D01*
X-38509Y37600D01*
X-38511Y37567D01*
X-38512Y37562D01*
X-38517Y37544D01*
X-38530Y37515D01*
X-38551Y37475D01*
X-38582Y37425D01*
X-38620Y37373D01*
X-38743Y37227D01*
X-38819Y37148D01*
X-38837Y37102D01*
X-54828Y21112D01*
X-57205D01*
X-57248Y21131D01*
X-57475Y21140D01*
X-57552Y21148D01*
X-57622Y21160D01*
X-57679Y21173D01*
X-57722Y21186D01*
X-57752Y21198D01*
X-57768Y21207D01*
X-57773Y21210D01*
X-57797Y21231D01*
X-57839Y21246D01*
X-58344Y21584D01*
X-59000Y21714D01*
X-59656Y21584D01*
X-60026Y21337D01*
X-60526Y21574D01*
Y22034D01*
X-60509Y22072D01*
X-60506Y22319D01*
X-60498Y22502D01*
X-60486Y22624D01*
X-60483Y22640D01*
X-60483Y22641D01*
Y22641D01*
X-60482Y22645D01*
X-60481Y22648D01*
X-60216Y23044D01*
X-60086Y23700D01*
X-60216Y24356D01*
X-60588Y24912D01*
X-61144Y25284D01*
X-61800Y25414D01*
X-62456Y25284D01*
X-63012Y24912D01*
X-63384Y24356D01*
X-63514Y23700D01*
X-63384Y23044D01*
X-63123Y22655D01*
X-63092Y22193D01*
X-63091Y22076D01*
X-63074Y22036D01*
Y18900D01*
X-62977Y18412D01*
X-62701Y17999D01*
X-61270Y16568D01*
X-60857Y16291D01*
X-60369Y16194D01*
X-51976D01*
X-51550Y15768D01*
X-51136Y15491D01*
X-50648Y15394D01*
X-48552D01*
X-48064Y15491D01*
X-47650Y15768D01*
X-46544Y16874D01*
X-37975D01*
X-37953Y16862D01*
X-37900Y16859D01*
X-37896Y16858D01*
X-37844Y16857D01*
X-37584Y16844D01*
X-37212Y16288D01*
X-36656Y15916D01*
X-36000Y15786D01*
X-35344Y15916D01*
X-34788Y16288D01*
X-34416Y16844D01*
X-34286Y17500D01*
X-34395Y18046D01*
X-34374Y18149D01*
X-34471Y18636D01*
X-34747Y19050D01*
X-35161Y19326D01*
X-35649Y19423D01*
X-37557D01*
X-37593Y19430D01*
X-37612Y19426D01*
X-37628Y19436D01*
X-37673Y19423D01*
X-47072D01*
X-47560Y19326D01*
X-47973Y19050D01*
X-49079Y17943D01*
X-50121D01*
X-50547Y18370D01*
X-50961Y18646D01*
X-51448Y18743D01*
X-53385D01*
X-53541Y19117D01*
X-53551Y19243D01*
X-37270Y35524D01*
X-37227Y35541D01*
X-37060Y35695D01*
X-37000Y35743D01*
X-36942Y35785D01*
X-36893Y35816D01*
X-36852Y35837D01*
X-36823Y35850D01*
X-36805Y35855D01*
X-36800Y35856D01*
X-36767Y35858D01*
X-36728Y35877D01*
X-36132Y35996D01*
X-35576Y36367D01*
X-35204Y36924D01*
X-35074Y37580D01*
X-35127Y37847D01*
X-34666Y38094D01*
X-31765Y35192D01*
Y24780D01*
X-31765Y24780D01*
X-31680Y24354D01*
X-31439Y23994D01*
X-29006Y21561D01*
X-29006Y21561D01*
X-28646Y21320D01*
X-28353Y21262D01*
X-25240Y18149D01*
Y-9022D01*
X-25286Y-9068D01*
X-25527Y-9428D01*
X-25612Y-9854D01*
X-25612Y-9854D01*
Y-12671D01*
X-25632Y-12719D01*
X-25638Y-13997D01*
X-25639Y-14014D01*
X-25639Y-14015D01*
X-25639Y-14015D01*
X-25640Y-14032D01*
X-25627Y-14065D01*
X-25714Y-14500D01*
X-25584Y-15156D01*
X-25212Y-15712D01*
X-24656Y-16084D01*
X-24000Y-16214D01*
X-23344Y-16084D01*
X-22788Y-15712D01*
X-22416Y-15156D01*
X-22286Y-14500D01*
X-22416Y-13844D01*
X-22788Y-13288D01*
X-23336Y-12922D01*
X-23339Y-12913D01*
X-23350Y-12865D01*
X-23359Y-12798D01*
X-23366Y-12714D01*
X-23368Y-12601D01*
X-23376Y-12583D01*
X-23370Y-12565D01*
X-23388Y-12531D01*
Y-10315D01*
X-23342Y-10269D01*
X-23342Y-10269D01*
X-23101Y-9908D01*
X-23016Y-9482D01*
Y17791D01*
X-22555Y17982D01*
X-16112Y11539D01*
Y-40400D01*
X-65800D01*
X-73500Y-62400D01*
X-149789Y-127220D01*
X-150287Y-127180D01*
X-152846Y-124167D01*
X-158129Y-117365D01*
X-163110Y-110338D01*
X-167779Y-103100D01*
X-172127Y-95664D01*
X-176145Y-88046D01*
X-179827Y-80259D01*
X-183165Y-72319D01*
X-186152Y-64241D01*
X-188783Y-56039D01*
X-191053Y-47730D01*
X-192957Y-39331D01*
X-194492Y-30855D01*
X-195656Y-22321D01*
X-196444Y-13744D01*
X-196858Y-5141D01*
X-196894Y3472D01*
X-196554Y12079D01*
X-195838Y20662D01*
X-195012Y27130D01*
X-194512Y27098D01*
Y24300D01*
X-194512Y24300D01*
X-194427Y23875D01*
X-194186Y23514D01*
X-192486Y21814D01*
X-192486Y21814D01*
X-192125Y21573D01*
X-191700Y21488D01*
X-182200D01*
X-182200Y21488D01*
X-181774Y21573D01*
X-181414Y21814D01*
X-174770Y28457D01*
X-171497D01*
X-171345Y27957D01*
X-171712Y27712D01*
X-172084Y27156D01*
X-172214Y26500D01*
X-172084Y25844D01*
X-171712Y25288D01*
X-171156Y24916D01*
X-170500Y24786D01*
X-169844Y24916D01*
X-169511Y25139D01*
X-168883Y25172D01*
X-168851Y25187D01*
X-92629D01*
X-92591Y25171D01*
X-92461Y25171D01*
X-92076Y25162D01*
X-92017Y25157D01*
X-91656Y24916D01*
X-91000Y24786D01*
X-90344Y24916D01*
X-89788Y25288D01*
X-89416Y25844D01*
X-89286Y26500D01*
X-89416Y27156D01*
X-89788Y27712D01*
X-90344Y28084D01*
X-91000Y28214D01*
X-91656Y28084D01*
X-91989Y27861D01*
X-92617Y27828D01*
X-92649Y27813D01*
X-168871D01*
X-168909Y27829D01*
X-169039Y27829D01*
X-169170Y27832D01*
X-169277Y27957D01*
X-169047Y28457D01*
X-142912D01*
X-142912Y28457D01*
X-142487Y28542D01*
X-142126Y28783D01*
X-136504Y34405D01*
X-135962Y34239D01*
X-135884Y33844D01*
X-135512Y33288D01*
X-134956Y32916D01*
X-134300Y32786D01*
X-133644Y32916D01*
X-133118Y33268D01*
X-133083Y33281D01*
X-133012Y33349D01*
X-132955Y33397D01*
X-132898Y33436D01*
X-132842Y33470D01*
X-132786Y33497D01*
X-132730Y33519D01*
X-132672Y33536D01*
X-132612Y33548D01*
X-132548Y33556D01*
X-132459Y33559D01*
X-132409Y33582D01*
X-132153D01*
X-127829Y29258D01*
X-127532Y29059D01*
X-127180Y28989D01*
X-92629D01*
X-92575Y28966D01*
X-91533Y28948D01*
X-91366Y28936D01*
X-91330Y28931D01*
X-91299Y28925D01*
X-91199Y28945D01*
X-90900Y28886D01*
X-90244Y29016D01*
X-89688Y29388D01*
X-89316Y29944D01*
X-89186Y30600D01*
X-89316Y31256D01*
X-89589Y31664D01*
X-89662Y31876D01*
X-89494Y32284D01*
X-89188Y32488D01*
X-89112Y32602D01*
X-88612Y32450D01*
Y-11900D01*
X-88612Y-11900D01*
X-88527Y-12325D01*
X-88286Y-12686D01*
X-69112Y-31861D01*
Y-38205D01*
X-69131Y-38248D01*
X-69140Y-38475D01*
X-69148Y-38552D01*
X-69160Y-38622D01*
X-69173Y-38679D01*
X-69186Y-38722D01*
X-69198Y-38752D01*
X-69207Y-38768D01*
X-69210Y-38773D01*
X-69231Y-38797D01*
X-69246Y-38839D01*
X-69584Y-39344D01*
X-69714Y-40000D01*
X-69584Y-40656D01*
X-69212Y-41212D01*
X-68656Y-41584D01*
X-68000Y-41714D01*
X-67344Y-41584D01*
X-66788Y-41212D01*
X-66416Y-40656D01*
X-66286Y-40000D01*
X-66416Y-39344D01*
X-66754Y-38839D01*
X-66768Y-38797D01*
X-66790Y-38773D01*
X-66793Y-38768D01*
X-66802Y-38752D01*
X-66814Y-38722D01*
X-66827Y-38679D01*
X-66840Y-38622D01*
X-66851Y-38558D01*
X-66866Y-38368D01*
X-66868Y-38258D01*
X-66888Y-38213D01*
Y-31400D01*
X-66890Y-31389D01*
X-66429Y-31143D01*
X-60955Y-36618D01*
X-60926Y-36670D01*
X-60808Y-36764D01*
X-59786Y-37786D01*
X-59786Y-37786D01*
X-59425Y-38027D01*
X-59162Y-38080D01*
X-59156Y-38084D01*
X-58500Y-38214D01*
X-57844Y-38084D01*
X-57288Y-37712D01*
X-56916Y-37156D01*
X-56786Y-36500D01*
X-56916Y-35844D01*
X-56689Y-35458D01*
X-56458Y-35381D01*
X-56156Y-35584D01*
X-55500Y-35714D01*
X-54844Y-35584D01*
X-54288Y-35212D01*
X-53916Y-34656D01*
X-53786Y-34000D01*
X-53916Y-33344D01*
X-54288Y-32788D01*
X-54844Y-32416D01*
X-55090Y-32368D01*
X-55416Y-31956D01*
X-55286Y-31300D01*
X-55416Y-30644D01*
X-55788Y-30088D01*
X-56344Y-29716D01*
X-56940Y-29598D01*
X-56980Y-29579D01*
X-57012Y-29577D01*
X-57018Y-29576D01*
X-57035Y-29570D01*
X-57065Y-29558D01*
X-57105Y-29537D01*
X-57155Y-29505D01*
X-57207Y-29468D01*
X-57352Y-29344D01*
X-57431Y-29268D01*
X-57477Y-29250D01*
X-78703Y-8024D01*
X-78773Y-7675D01*
X-79014Y-7314D01*
X-79288Y-7039D01*
Y3605D01*
X-79269Y3648D01*
X-79260Y3875D01*
X-79252Y3952D01*
X-79240Y4022D01*
X-79227Y4079D01*
X-79214Y4122D01*
X-79202Y4152D01*
X-79193Y4168D01*
X-79190Y4173D01*
X-79168Y4197D01*
X-79154Y4239D01*
X-78816Y4744D01*
X-78772Y4966D01*
X-78230Y5130D01*
X-49314Y-23786D01*
X-49314Y-23786D01*
X-48953Y-24027D01*
X-48527Y-24112D01*
X-48527Y-24112D01*
X-24795D01*
X-24752Y-24131D01*
X-24525Y-24140D01*
X-24448Y-24148D01*
X-24378Y-24160D01*
X-24321Y-24173D01*
X-24278Y-24186D01*
X-24248Y-24198D01*
X-24232Y-24207D01*
X-24227Y-24210D01*
X-24203Y-24231D01*
X-24161Y-24246D01*
X-23656Y-24584D01*
X-23000Y-24714D01*
X-22344Y-24584D01*
X-21788Y-24212D01*
X-21416Y-23656D01*
X-21286Y-23000D01*
X-21416Y-22344D01*
X-21788Y-21788D01*
X-22344Y-21416D01*
X-23000Y-21286D01*
X-23656Y-21416D01*
X-24161Y-21754D01*
X-24203Y-21768D01*
X-24227Y-21790D01*
X-24232Y-21793D01*
X-24248Y-21802D01*
X-24278Y-21814D01*
X-24321Y-21827D01*
X-24378Y-21840D01*
X-24442Y-21851D01*
X-24632Y-21866D01*
X-24742Y-21868D01*
X-24787Y-21888D01*
X-48067D01*
X-59960Y-9995D01*
X-59822Y-9426D01*
X-59614Y-9286D01*
X-59614Y-9286D01*
X-59439Y-9112D01*
X-31795D01*
X-31752Y-9131D01*
X-31525Y-9140D01*
X-31448Y-9148D01*
X-31378Y-9160D01*
X-31321Y-9173D01*
X-31278Y-9186D01*
X-31248Y-9198D01*
X-31232Y-9207D01*
X-31227Y-9210D01*
X-31203Y-9232D01*
X-31161Y-9246D01*
X-30656Y-9584D01*
X-30000Y-9714D01*
X-29344Y-9584D01*
X-28788Y-9212D01*
X-28416Y-8656D01*
X-28286Y-8000D01*
X-28416Y-7344D01*
X-28788Y-6788D01*
X-29344Y-6416D01*
X-30000Y-6286D01*
X-30656Y-6416D01*
X-31161Y-6754D01*
X-31203Y-6769D01*
X-31227Y-6790D01*
X-31232Y-6793D01*
X-31248Y-6802D01*
X-31278Y-6814D01*
X-31321Y-6827D01*
X-31378Y-6840D01*
X-31442Y-6851D01*
X-31632Y-6866D01*
X-31742Y-6868D01*
X-31787Y-6888D01*
X-59900D01*
X-59900Y-6888D01*
X-60325Y-6973D01*
X-60343Y-6984D01*
X-77688Y10361D01*
Y36838D01*
X-77592Y36983D01*
X-77507Y37408D01*
Y39213D01*
X-77007Y39262D01*
X-76984Y39144D01*
X-76612Y38588D01*
X-76056Y38216D01*
X-75400Y38086D01*
X-74744Y38216D01*
X-74218Y38568D01*
X-74183Y38581D01*
X-74112Y38649D01*
X-74055Y38697D01*
X-73998Y38736D01*
X-73942Y38770D01*
X-73886Y38797D01*
X-73830Y38819D01*
X-73772Y38836D01*
X-73712Y38848D01*
X-73648Y38856D01*
X-73559Y38859D01*
X-73509Y38882D01*
X-46700D01*
X-46349Y38952D01*
X-46158Y39080D01*
X-46050Y39120D01*
X-45912Y39247D01*
X-45869Y39281D01*
X-45832Y39308D01*
X-45809Y39321D01*
X-45793Y39315D01*
X-45745Y39335D01*
X-45500Y39286D01*
X-44844Y39416D01*
X-44288Y39788D01*
X-43916Y40344D01*
X-43786Y41000D01*
X-43916Y41656D01*
X-44288Y42212D01*
X-44844Y42584D01*
X-45500Y42714D01*
X-46156Y42584D01*
X-46712Y42212D01*
X-47084Y41656D01*
X-47214Y41000D01*
X-47668Y40718D01*
X-73509D01*
X-73559Y40741D01*
X-73648Y40744D01*
X-73712Y40752D01*
X-73772Y40764D01*
X-73830Y40781D01*
X-73886Y40803D01*
X-73942Y40830D01*
X-73998Y40864D01*
X-74055Y40903D01*
X-74112Y40951D01*
X-74183Y41019D01*
X-74218Y41032D01*
X-74744Y41384D01*
X-75400Y41514D01*
X-76056Y41384D01*
X-76612Y41012D01*
X-76984Y40456D01*
X-77482Y40511D01*
X-77507Y40848D01*
X-77592Y41274D01*
X-77688Y41418D01*
Y43552D01*
X-66196Y55044D01*
X-66044D01*
X-66044Y55044D01*
X-65618Y55129D01*
X-65257Y55370D01*
X-64218Y56410D01*
X-64100Y56386D01*
X-63444Y56516D01*
X-62888Y56888D01*
X-62516Y57444D01*
X-62386Y58100D01*
X-62516Y58756D01*
X-62888Y59312D01*
X-63140Y59480D01*
X-63218Y60110D01*
X-62614Y60714D01*
X-62614Y60714D01*
X-62373Y61075D01*
X-62288Y61500D01*
X-62288Y61500D01*
Y62905D01*
X-62269Y62948D01*
X-62260Y63175D01*
X-62252Y63252D01*
X-62240Y63322D01*
X-62227Y63379D01*
X-62214Y63422D01*
X-62202Y63452D01*
X-62193Y63468D01*
X-62190Y63473D01*
X-62169Y63497D01*
X-62154Y63539D01*
X-61816Y64044D01*
X-61686Y64700D01*
X-61737Y64958D01*
X-61276Y65204D01*
X-58760Y62688D01*
Y52000D01*
X-58760Y52000D01*
X-58676Y51574D01*
X-58435Y51214D01*
X-55216Y47995D01*
X-55216Y47995D01*
X-54855Y47754D01*
X-54430Y47669D01*
X-46937D01*
X-46937Y47669D01*
X-46512Y47754D01*
X-46151Y47995D01*
X-41983Y52163D01*
X-41939Y52179D01*
X-41772Y52333D01*
X-41712Y52382D01*
X-41655Y52424D01*
X-41605Y52455D01*
X-41565Y52476D01*
X-41535Y52488D01*
X-41518Y52494D01*
X-41512Y52495D01*
X-41480Y52497D01*
X-41440Y52516D01*
X-40844Y52635D01*
X-40288Y53006D01*
X-39916Y53562D01*
X-39786Y54218D01*
X-39916Y54874D01*
X-40288Y55430D01*
X-40844Y55802D01*
X-41500Y55932D01*
X-42156Y55802D01*
X-42712Y55430D01*
X-43084Y54874D01*
X-43202Y54278D01*
X-43221Y54238D01*
X-43223Y54206D01*
X-43224Y54200D01*
X-43230Y54183D01*
X-43242Y54153D01*
X-43264Y54113D01*
X-43295Y54064D01*
X-43332Y54011D01*
X-43455Y53866D01*
X-43532Y53787D01*
X-43550Y53741D01*
X-47398Y49893D01*
X-51666D01*
X-51933Y50393D01*
X-51864Y50497D01*
X-51733Y51153D01*
X-51864Y51809D01*
X-52216Y52335D01*
X-52229Y52370D01*
X-52298Y52442D01*
X-52347Y52501D01*
X-52388Y52559D01*
X-52422Y52616D01*
X-52450Y52672D01*
X-52472Y52729D01*
X-52489Y52786D01*
X-52502Y52846D01*
X-52509Y52909D01*
X-52513Y52996D01*
X-52536Y53047D01*
Y54441D01*
X-52036Y54670D01*
X-51656Y54416D01*
X-51000Y54286D01*
X-50344Y54416D01*
X-49788Y54788D01*
X-49686Y54940D01*
X-49660Y54941D01*
X-49180Y54798D01*
X-49180Y54758D01*
X-49218Y54717D01*
X-49232Y54682D01*
X-49584Y54156D01*
X-49714Y53500D01*
X-49584Y52844D01*
X-49212Y52288D01*
X-48656Y51916D01*
X-48000Y51786D01*
X-47344Y51916D01*
X-46788Y52288D01*
X-46416Y52844D01*
X-46286Y53500D01*
X-46416Y54156D01*
X-46768Y54682D01*
X-46782Y54717D01*
X-46849Y54788D01*
X-46897Y54845D01*
X-46936Y54902D01*
X-46970Y54958D01*
X-46997Y55014D01*
X-47019Y55070D01*
X-47036Y55128D01*
X-47048Y55189D01*
X-47056Y55252D01*
X-47059Y55341D01*
X-47082Y55391D01*
Y63433D01*
X-46881Y63473D01*
X-46583Y63672D01*
X-43672Y66583D01*
X-43474Y66881D01*
X-43404Y67232D01*
Y67383D01*
X-42673Y68114D01*
X-41642D01*
X-41291Y68184D01*
X-40993Y68383D01*
X-39666Y69710D01*
X-39124Y69545D01*
D02*
G37*
G36*
X-51345Y69772D02*
X-51329Y69729D01*
X-51174Y69562D01*
X-51126Y69502D01*
X-51084Y69444D01*
X-51053Y69395D01*
X-51032Y69354D01*
X-51020Y69325D01*
X-51014Y69308D01*
X-51013Y69302D01*
X-51011Y69269D01*
X-50992Y69230D01*
X-50873Y68634D01*
X-50502Y68078D01*
X-50173Y67858D01*
X-50065Y67259D01*
X-54092Y63232D01*
X-54289Y62937D01*
X-54359Y62588D01*
Y53047D01*
X-54382Y52996D01*
X-54385Y52909D01*
X-54393Y52846D01*
X-54405Y52786D01*
X-54422Y52729D01*
X-54445Y52672D01*
X-54473Y52616D01*
X-54507Y52559D01*
X-54548Y52501D01*
X-54596Y52442D01*
X-54665Y52370D01*
X-54679Y52335D01*
X-55031Y51809D01*
X-55055Y51686D01*
X-55598Y51522D01*
X-56537Y52461D01*
Y63148D01*
X-56537Y63148D01*
X-56621Y63574D01*
X-56862Y63935D01*
X-56862Y63935D01*
X-60964Y68036D01*
X-59012Y69988D01*
X-51561D01*
X-51345Y69772D01*
D02*
G37*
G36*
X-41512Y53037D02*
X-41579Y53033D01*
X-41649Y53020D01*
X-41722Y52997D01*
X-41798Y52965D01*
X-41876Y52924D01*
X-41957Y52873D01*
X-42040Y52813D01*
X-42126Y52743D01*
X-42307Y52576D01*
X-43142Y53411D01*
X-43054Y53503D01*
X-42906Y53678D01*
X-42845Y53761D01*
X-42795Y53842D01*
X-42753Y53920D01*
X-42721Y53996D01*
X-42698Y54069D01*
X-42685Y54139D01*
X-42681Y54206D01*
X-41512Y53037D01*
D02*
G37*
G36*
X-53049Y52865D02*
X-53036Y52759D01*
X-53015Y52654D01*
X-52984Y52552D01*
X-52945Y52453D01*
X-52898Y52357D01*
X-52841Y52263D01*
X-52776Y52171D01*
X-52703Y52082D01*
X-52621Y51996D01*
X-54274D01*
X-54192Y52082D01*
X-54118Y52171D01*
X-54053Y52263D01*
X-53997Y52357D01*
X-53949Y52453D01*
X-53910Y52552D01*
X-53880Y52654D01*
X-53858Y52759D01*
X-53845Y52865D01*
X-53841Y52975D01*
X-53053D01*
X-53049Y52865D01*
D02*
G37*
G36*
X-168012Y52319D02*
X-168037Y52314D01*
X-168070Y52299D01*
X-168111Y52275D01*
X-168160Y52240D01*
X-168281Y52141D01*
X-168433Y52002D01*
X-168616Y51823D01*
X-169677Y52884D01*
X-169582Y52979D01*
X-169225Y53389D01*
X-169201Y53430D01*
X-169186Y53463D01*
X-169181Y53488D01*
X-168012Y52319D01*
D02*
G37*
G36*
X-17335Y47789D02*
X-17391Y47717D01*
X-17440Y47638D01*
X-17482Y47553D01*
X-17518Y47463D01*
X-17548Y47366D01*
X-17571Y47264D01*
X-17587Y47155D01*
X-17597Y47041D01*
X-17600Y46921D01*
X-18600D01*
X-18603Y47041D01*
X-18613Y47155D01*
X-18629Y47264D01*
X-18652Y47366D01*
X-18682Y47463D01*
X-18718Y47553D01*
X-18760Y47638D01*
X-18809Y47717D01*
X-18865Y47789D01*
X-18927Y47857D01*
X-17273D01*
X-17335Y47789D01*
D02*
G37*
G36*
X-45793Y39856D02*
X-45840Y39863D01*
X-45891Y39861D01*
X-45945Y39850D01*
X-46002Y39830D01*
X-46063Y39800D01*
X-46127Y39762D01*
X-46194Y39714D01*
X-46265Y39658D01*
X-46417Y39517D01*
X-46983Y40083D01*
X-46908Y40161D01*
X-46786Y40306D01*
X-46738Y40373D01*
X-46700Y40437D01*
X-46670Y40498D01*
X-46650Y40555D01*
X-46639Y40609D01*
X-46637Y40660D01*
X-46644Y40707D01*
X-45793Y39856D01*
D02*
G37*
G36*
X-74471Y40546D02*
X-74384Y40473D01*
X-74293Y40409D01*
X-74199Y40354D01*
X-74103Y40307D01*
X-74004Y40268D01*
X-73902Y40238D01*
X-73798Y40217D01*
X-73690Y40204D01*
X-73580Y40200D01*
Y39400D01*
X-73690Y39396D01*
X-73798Y39383D01*
X-73902Y39362D01*
X-74004Y39332D01*
X-74103Y39293D01*
X-74199Y39246D01*
X-74293Y39191D01*
X-74384Y39127D01*
X-74471Y39054D01*
X-74556Y38973D01*
Y40627D01*
X-74471Y40546D01*
D02*
G37*
G36*
X-81885Y38340D02*
X-81917Y38280D01*
X-81945Y38211D01*
X-81970Y38134D01*
X-81990Y38049D01*
X-82007Y37955D01*
X-82030Y37741D01*
X-82036Y37622D01*
X-82038Y37494D01*
X-83219Y37326D01*
X-83222Y37453D01*
X-83243Y37680D01*
X-83262Y37780D01*
X-83287Y37871D01*
X-83316Y37953D01*
X-83352Y38026D01*
X-83392Y38090D01*
X-83438Y38145D01*
X-83490Y38191D01*
X-81849Y38391D01*
X-81885Y38340D01*
D02*
G37*
G36*
X-78242Y48894D02*
X-78155Y48607D01*
X-81505Y45257D01*
X-81746Y44897D01*
X-81831Y44471D01*
X-81831Y44471D01*
Y41077D01*
X-82331Y40755D01*
X-82772Y40842D01*
X-83428Y40712D01*
X-83984Y40340D01*
X-84355Y39784D01*
X-84486Y39128D01*
X-84957Y38934D01*
X-85143Y38971D01*
X-85500Y39263D01*
Y43500D01*
X-79912Y49088D01*
X-78382D01*
X-78242Y48894D01*
D02*
G37*
G36*
X-32217Y46561D02*
X-32263Y46588D01*
X-32315Y46602D01*
X-32372Y46604D01*
X-32434Y46592D01*
X-32501Y46567D01*
X-32573Y46530D01*
X-32651Y46479D01*
X-32734Y46416D01*
X-32822Y46339D01*
X-32915Y46250D01*
X-33588Y47247D01*
X-32511Y48110D01*
X-32217Y46561D01*
D02*
G37*
G36*
X-33035Y43669D02*
X-33014Y43442D01*
X-32995Y43342D01*
X-32971Y43251D01*
X-32941Y43168D01*
X-32906Y43095D01*
X-32866Y43031D01*
X-32821Y42975D01*
X-32770Y42928D01*
X-34413Y42749D01*
X-34376Y42800D01*
X-34343Y42860D01*
X-34314Y42929D01*
X-34289Y43006D01*
X-34268Y43092D01*
X-34250Y43186D01*
X-34227Y43399D01*
X-34221Y43518D01*
X-34219Y43646D01*
X-33038Y43796D01*
X-33035Y43669D01*
D02*
G37*
G36*
X139159Y43483D02*
X134889Y41854D01*
X132660Y46696D01*
X138989Y53482D01*
X139159Y43483D01*
D02*
G37*
G36*
X38785Y-20946D02*
X38960Y-21094D01*
X39043Y-21155D01*
X39124Y-21205D01*
X39202Y-21247D01*
X39278Y-21279D01*
X39351Y-21302D01*
X39421Y-21315D01*
X39488Y-21319D01*
X38319Y-22488D01*
X38315Y-22421D01*
X38302Y-22351D01*
X38279Y-22278D01*
X38247Y-22202D01*
X38205Y-22124D01*
X38155Y-22043D01*
X38094Y-21960D01*
X38025Y-21874D01*
X37858Y-21693D01*
X38693Y-20858D01*
X38785Y-20946D01*
D02*
G37*
G36*
X-23844Y-23827D02*
X-23894Y-23782D01*
X-23953Y-23742D01*
X-24021Y-23706D01*
X-24097Y-23676D01*
X-24181Y-23650D01*
X-24274Y-23628D01*
X-24376Y-23612D01*
X-24486Y-23600D01*
X-24732Y-23591D01*
Y-22410D01*
X-24604Y-22407D01*
X-24376Y-22388D01*
X-24274Y-22372D01*
X-24181Y-22350D01*
X-24097Y-22324D01*
X-24021Y-22294D01*
X-23953Y-22258D01*
X-23894Y-22218D01*
X-23844Y-22173D01*
Y-23827D01*
D02*
G37*
G36*
X53352Y-25610D02*
X53303Y-25658D01*
X53258Y-25715D01*
X53219Y-25780D01*
X53185Y-25854D01*
X53156Y-25937D01*
X53132Y-26028D01*
X53114Y-26129D01*
X53101Y-26238D01*
X53093Y-26356D01*
X53091Y-26483D01*
X51910Y-26367D01*
X51907Y-26239D01*
X51891Y-26010D01*
X51877Y-25907D01*
X51858Y-25813D01*
X51836Y-25728D01*
X51809Y-25651D01*
X51779Y-25582D01*
X51744Y-25522D01*
X51705Y-25470D01*
X53352Y-25610D01*
D02*
G37*
G36*
X39246Y-15446D02*
X39421Y-15595D01*
X39504Y-15655D01*
X39585Y-15705D01*
X39663Y-15747D01*
X39739Y-15779D01*
X39811Y-15802D01*
X39882Y-15815D01*
X39949Y-15819D01*
X38780Y-16988D01*
X38776Y-16921D01*
X38763Y-16851D01*
X38740Y-16778D01*
X38708Y-16702D01*
X38666Y-16624D01*
X38616Y-16543D01*
X38555Y-16460D01*
X38486Y-16374D01*
X38319Y-16193D01*
X39154Y-15358D01*
X39246Y-15446D01*
D02*
G37*
G36*
X-30843Y-8827D02*
X-30894Y-8782D01*
X-30953Y-8742D01*
X-31021Y-8706D01*
X-31097Y-8676D01*
X-31181Y-8650D01*
X-31274Y-8628D01*
X-31376Y-8612D01*
X-31486Y-8600D01*
X-31732Y-8591D01*
Y-7409D01*
X-31604Y-7407D01*
X-31376Y-7388D01*
X-31274Y-7372D01*
X-31181Y-7350D01*
X-31097Y-7324D01*
X-31021Y-7294D01*
X-30953Y-7258D01*
X-30894Y-7218D01*
X-30843Y-7173D01*
Y-8827D01*
D02*
G37*
G36*
X40156Y-9527D02*
X40106Y-9482D01*
X40047Y-9442D01*
X39979Y-9406D01*
X39903Y-9376D01*
X39819Y-9350D01*
X39726Y-9328D01*
X39624Y-9312D01*
X39514Y-9300D01*
X39268Y-9291D01*
Y-8109D01*
X39395Y-8107D01*
X39624Y-8088D01*
X39726Y-8072D01*
X39819Y-8050D01*
X39903Y-8024D01*
X39979Y-7994D01*
X40047Y-7958D01*
X40106Y-7918D01*
X40156Y-7873D01*
Y-9527D01*
D02*
G37*
G36*
X-23906Y-12741D02*
X-23897Y-12858D01*
X-23882Y-12963D01*
X-23861Y-13057D01*
X-23834Y-13140D01*
X-23801Y-13211D01*
X-23762Y-13272D01*
X-23717Y-13321D01*
X-23665Y-13359D01*
X-23608Y-13386D01*
X-25101Y-14072D01*
X-25099Y-14054D01*
X-25097Y-14009D01*
X-25091Y-12721D01*
X-23910Y-12614D01*
X-23906Y-12741D01*
D02*
G37*
G36*
X-57715Y-29746D02*
X-57540Y-29895D01*
X-57457Y-29955D01*
X-57376Y-30005D01*
X-57298Y-30047D01*
X-57222Y-30079D01*
X-57149Y-30102D01*
X-57079Y-30115D01*
X-57012Y-30119D01*
X-58181Y-31288D01*
X-58185Y-31221D01*
X-58198Y-31150D01*
X-58221Y-31078D01*
X-58253Y-31002D01*
X-58295Y-30924D01*
X-58345Y-30843D01*
X-58406Y-30760D01*
X-58475Y-30674D01*
X-58642Y-30493D01*
X-57807Y-29658D01*
X-57715Y-29746D01*
D02*
G37*
G36*
X-20556Y-111682D02*
X-20537Y-111910D01*
X-20520Y-112012D01*
X-20499Y-112105D01*
X-20473Y-112189D01*
X-20442Y-112266D01*
X-20407Y-112333D01*
X-20367Y-112392D01*
X-20322Y-112443D01*
X-21975D01*
X-21930Y-112392D01*
X-21890Y-112333D01*
X-21855Y-112266D01*
X-21824Y-112189D01*
X-21798Y-112105D01*
X-21777Y-112012D01*
X-21760Y-111910D01*
X-21749Y-111800D01*
X-21739Y-111555D01*
X-20558D01*
X-20556Y-111682D01*
D02*
G37*
G36*
X28593Y-115395D02*
X28612Y-115624D01*
X28628Y-115726D01*
X28650Y-115819D01*
X28676Y-115903D01*
X28706Y-115979D01*
X28742Y-116047D01*
X28782Y-116106D01*
X28827Y-116156D01*
X27173D01*
X27218Y-116106D01*
X27258Y-116047D01*
X27294Y-115979D01*
X27324Y-115903D01*
X27350Y-115819D01*
X27372Y-115726D01*
X27388Y-115624D01*
X27400Y-115514D01*
X27409Y-115269D01*
X28591D01*
X28593Y-115395D01*
D02*
G37*
G36*
X11775Y-156411D02*
X11820Y-156512D01*
X11887Y-156600D01*
X11976Y-156677D01*
X12088Y-156742D01*
X12222Y-156795D01*
X12377Y-156837D01*
X12555Y-156866D01*
X12755Y-156884D01*
X12977Y-156890D01*
Y-158071D01*
X12755Y-158077D01*
X12555Y-158095D01*
X12377Y-158124D01*
X12222Y-158165D01*
X12088Y-158219D01*
X11976Y-158283D01*
X11887Y-158360D01*
X11820Y-158449D01*
X11775Y-158549D01*
X11752Y-158661D01*
Y-156299D01*
X11775Y-156411D01*
D02*
G37*
G36*
X26888Y-28461D02*
Y-40400D01*
X-13888D01*
Y11609D01*
X-13388Y11816D01*
X26888Y-28461D01*
D02*
G37*
G36*
X-56344Y-34827D02*
X-56394Y-34782D01*
X-56453Y-34742D01*
X-56521Y-34706D01*
X-56597Y-34676D01*
X-56681Y-34650D01*
X-56774Y-34628D01*
X-56876Y-34612D01*
X-56986Y-34600D01*
X-57231Y-34591D01*
Y-33409D01*
X-57104Y-33407D01*
X-56876Y-33388D01*
X-56774Y-33372D01*
X-56681Y-33350D01*
X-56597Y-33324D01*
X-56521Y-33294D01*
X-56453Y-33258D01*
X-56394Y-33218D01*
X-56344Y-33173D01*
Y-34827D01*
D02*
G37*
G36*
X-59821Y-35339D02*
X-59651Y-35479D01*
X-59573Y-35530D01*
X-59501Y-35567D01*
X-59434Y-35592D01*
X-59372Y-35603D01*
X-59315Y-35602D01*
X-59263Y-35588D01*
X-59216Y-35561D01*
X-59511Y-37110D01*
X-60588Y-36248D01*
X-59915Y-35250D01*
X-59821Y-35339D01*
D02*
G37*
G36*
X-67407Y-38396D02*
X-67388Y-38624D01*
X-67372Y-38726D01*
X-67350Y-38819D01*
X-67324Y-38903D01*
X-67294Y-38979D01*
X-67258Y-39047D01*
X-67218Y-39106D01*
X-67173Y-39156D01*
X-68827D01*
X-68782Y-39106D01*
X-68742Y-39047D01*
X-68706Y-38979D01*
X-68676Y-38903D01*
X-68650Y-38819D01*
X-68628Y-38726D01*
X-68612Y-38624D01*
X-68600Y-38514D01*
X-68590Y-38269D01*
X-67409D01*
X-67407Y-38396D01*
D02*
G37*
G36*
X6547Y24687D02*
X6453Y24591D01*
X6181Y24281D01*
X6139Y24221D01*
X6106Y24169D01*
X6084Y24123D01*
X6073Y24084D01*
X6071Y24053D01*
X4770Y25074D01*
X4784Y25080D01*
X4808Y25096D01*
X4840Y25122D01*
X4991Y25258D01*
X5319Y25579D01*
X6547Y24687D01*
D02*
G37*
G36*
X-176596Y29776D02*
X-182661Y23712D01*
X-186699D01*
X-186786Y24212D01*
X-186742Y24228D01*
X-186467Y24282D01*
X-186325Y24378D01*
X-186163Y24435D01*
X-185956Y24624D01*
X-185723Y24780D01*
X-185628Y24922D01*
X-185501Y25037D01*
X-185381Y25291D01*
X-185225Y25524D01*
X-185192Y25692D01*
X-185119Y25847D01*
X-185106Y26127D01*
X-185051Y26402D01*
X-185084Y26570D01*
X-185076Y26741D01*
X-185171Y27005D01*
X-185225Y27280D01*
X-185321Y27422D01*
X-185379Y27583D01*
X-185567Y27791D01*
X-185723Y28024D01*
X-185865Y28119D01*
X-185980Y28246D01*
X-186234Y28366D01*
X-186467Y28521D01*
X-186635Y28555D01*
X-186790Y28628D01*
X-186898Y29108D01*
X-186869Y29305D01*
X-186668Y29496D01*
X-186478Y29654D01*
X-186290Y29791D01*
X-186103Y29908D01*
X-185918Y30005D01*
X-185735Y30082D01*
X-185552Y30142D01*
X-185369Y30184D01*
X-185185Y30209D01*
X-184974Y30219D01*
X-184933Y30238D01*
X-176788D01*
X-176596Y29776D01*
D02*
G37*
G36*
X-60988Y22835D02*
X-61001Y22801D01*
X-61012Y22755D01*
X-61022Y22696D01*
X-61038Y22540D01*
X-61047Y22335D01*
X-61050Y22079D01*
X-62550D01*
X-62551Y22213D01*
X-62588Y22755D01*
X-62599Y22801D01*
X-62612Y22835D01*
X-62627Y22857D01*
X-60973D01*
X-60988Y22835D01*
D02*
G37*
G36*
X109158Y26456D02*
X109181Y26455D01*
X109868Y26450D01*
X110212Y24950D01*
X110078Y24949D01*
X109667Y24919D01*
X109595Y24906D01*
X109535Y24890D01*
X109487Y24872D01*
X109452Y24851D01*
X109429Y24828D01*
X109149Y26458D01*
X109158Y26456D01*
D02*
G37*
G36*
X-169642Y27319D02*
X-169614Y27313D01*
X-169573Y27307D01*
X-169451Y27297D01*
X-169046Y27288D01*
X-168911Y27287D01*
Y25713D01*
X-169657Y25673D01*
Y27327D01*
X-169642Y27319D01*
D02*
G37*
G36*
X143357Y24873D02*
X143335Y24888D01*
X143301Y24901D01*
X143255Y24912D01*
X143196Y24922D01*
X143041Y24938D01*
X142835Y24947D01*
X142579Y24950D01*
Y26450D01*
X142713Y26451D01*
X143255Y26488D01*
X143301Y26499D01*
X143335Y26512D01*
X143357Y26527D01*
Y24873D01*
D02*
G37*
G36*
X-25315Y26421D02*
X-25302Y26351D01*
X-25279Y26278D01*
X-25247Y26202D01*
X-25205Y26124D01*
X-25155Y26043D01*
X-25095Y25960D01*
X-25025Y25874D01*
X-24858Y25693D01*
X-25693Y24858D01*
X-25785Y24946D01*
X-25960Y25095D01*
X-26043Y25155D01*
X-26124Y25205D01*
X-26202Y25247D01*
X-26278Y25279D01*
X-26351Y25302D01*
X-26421Y25315D01*
X-26488Y25319D01*
X-25319Y26488D01*
X-25315Y26421D01*
D02*
G37*
G36*
X88860Y35640D02*
X73247Y20026D01*
X57541D01*
Y23500D01*
X57383Y23883D01*
X57000Y24041D01*
X51500D01*
X51126Y24291D01*
Y25073D01*
X51500Y25459D01*
X57000D01*
X57383Y25617D01*
X57541Y26000D01*
Y39500D01*
X57383Y39883D01*
X57099Y40000D01*
X57199Y40500D01*
X84000D01*
X88860Y35640D01*
D02*
G37*
G36*
X35690Y4041D02*
X35639Y4080D01*
X35584Y4106D01*
X35525Y4118D01*
X35462Y4117D01*
X35394Y4102D01*
X35323Y4074D01*
X35248Y4032D01*
X35169Y3976D01*
X35085Y3907D01*
X34998Y3824D01*
X34465Y4706D01*
X35531Y5575D01*
X35690Y4041D01*
D02*
G37*
G36*
X-79618Y4506D02*
X-79658Y4447D01*
X-79694Y4379D01*
X-79724Y4303D01*
X-79750Y4219D01*
X-79772Y4126D01*
X-79788Y4024D01*
X-79800Y3914D01*
X-79809Y3669D01*
X-80990D01*
X-80993Y3796D01*
X-81012Y4024D01*
X-81028Y4126D01*
X-81050Y4219D01*
X-81076Y4303D01*
X-81106Y4379D01*
X-81142Y4447D01*
X-81182Y4506D01*
X-81227Y4557D01*
X-79573D01*
X-79618Y4506D01*
D02*
G37*
G36*
X-27240Y71026D02*
X-27217Y70993D01*
X-24307Y68083D01*
X-24009Y67884D01*
X-23658Y67814D01*
X-19542D01*
X-19191Y67884D01*
X-18893Y68083D01*
X-15503Y71473D01*
X-712Y56682D01*
X-876Y56139D01*
X-1156Y56084D01*
X-1712Y55712D01*
X-2084Y55156D01*
X-2214Y54500D01*
X-2084Y53844D01*
X-1712Y53288D01*
X-1156Y52916D01*
X-500Y52786D01*
X156Y52916D01*
X712Y53288D01*
X1084Y53844D01*
X1139Y54124D01*
X1682Y54288D01*
X7970Y48000D01*
X36500D01*
X44000Y40500D01*
X51301D01*
X51401Y40000D01*
X51117Y39883D01*
X50959Y39500D01*
Y33738D01*
X45960Y28740D01*
X45480Y28113D01*
X45177Y27383D01*
X45074Y26600D01*
Y-40400D01*
X29112D01*
Y-28000D01*
X29112Y-28000D01*
X29027Y-27575D01*
X28786Y-27214D01*
X-24445Y26017D01*
X-24461Y26061D01*
X-24615Y26228D01*
X-24664Y26288D01*
X-24705Y26346D01*
X-24736Y26395D01*
X-24758Y26435D01*
X-24770Y26465D01*
X-24776Y26482D01*
X-24777Y26488D01*
X-24779Y26520D01*
X-24798Y26560D01*
X-24916Y27156D01*
X-25288Y27712D01*
X-25844Y28084D01*
X-26000Y28115D01*
X-26230Y28670D01*
X-26228Y28673D01*
X-26143Y29099D01*
X-26143Y29099D01*
Y30461D01*
X-26124Y30503D01*
X-26115Y30730D01*
X-26107Y30807D01*
X-26095Y30877D01*
X-26082Y30934D01*
X-26069Y30977D01*
X-26057Y31007D01*
X-26048Y31023D01*
X-26045Y31028D01*
X-26024Y31052D01*
X-26009Y31094D01*
X-25671Y31599D01*
X-25541Y32255D01*
X-25671Y32911D01*
X-26043Y33467D01*
X-26599Y33839D01*
X-27255Y33969D01*
X-27911Y33839D01*
X-28467Y33467D01*
X-28839Y32911D01*
X-28969Y32255D01*
X-28839Y31599D01*
X-28501Y31094D01*
X-28487Y31052D01*
X-28465Y31028D01*
X-28462Y31023D01*
X-28453Y31007D01*
X-28441Y30977D01*
X-28428Y30934D01*
X-28415Y30877D01*
X-28405Y30813D01*
X-28389Y30623D01*
X-28387Y30514D01*
X-28367Y30468D01*
Y29559D01*
X-29079Y28848D01*
X-29541Y29039D01*
Y35653D01*
X-29625Y36078D01*
X-29866Y36439D01*
X-29866Y36439D01*
X-33253Y39825D01*
X-33088Y40368D01*
X-32844Y40416D01*
X-32288Y40788D01*
X-31916Y41344D01*
X-31786Y42000D01*
X-31916Y42656D01*
X-32288Y43212D01*
X-32379Y43273D01*
X-32404Y43328D01*
X-32426Y43347D01*
X-32431Y43355D01*
X-32441Y43376D01*
X-32454Y43411D01*
X-32467Y43461D01*
X-32477Y43517D01*
X-32495Y43700D01*
X-32497Y43807D01*
X-32509Y43835D01*
X-32501Y43864D01*
X-32516Y43891D01*
Y45556D01*
X-32408Y45665D01*
X-32019Y45889D01*
X-31500Y45786D01*
X-30844Y45916D01*
X-30288Y46288D01*
X-29916Y46844D01*
X-29786Y47500D01*
X-29889Y48018D01*
X-29443Y48279D01*
X-13246Y32082D01*
Y31345D01*
X-13246Y31345D01*
X-13161Y30920D01*
X-12920Y30559D01*
X-8741Y26380D01*
X-8380Y26139D01*
X-7955Y26054D01*
X-7955Y26054D01*
X-7218D01*
X-3346Y22182D01*
Y20945D01*
X-3346Y20945D01*
X-3261Y20520D01*
X-3020Y20159D01*
X30187Y-13048D01*
X30187Y-13048D01*
X30548Y-13289D01*
X30973Y-13374D01*
X30974Y-13374D01*
X31688D01*
Y-15800D01*
X31688Y-15800D01*
X31773Y-16226D01*
X32014Y-16586D01*
X37445Y-22017D01*
X37461Y-22061D01*
X37615Y-22228D01*
X37664Y-22288D01*
X37705Y-22345D01*
X37736Y-22395D01*
X37758Y-22435D01*
X37770Y-22465D01*
X37776Y-22482D01*
X37777Y-22488D01*
X37779Y-22520D01*
X37798Y-22560D01*
X37916Y-23156D01*
X38288Y-23712D01*
X38844Y-24084D01*
X39500Y-24214D01*
X40156Y-24084D01*
X40712Y-23712D01*
X41084Y-23156D01*
X41214Y-22500D01*
X41084Y-21844D01*
X40712Y-21288D01*
X40156Y-20916D01*
X39560Y-20798D01*
X39520Y-20779D01*
X39488Y-20777D01*
X39482Y-20776D01*
X39465Y-20770D01*
X39435Y-20758D01*
X39395Y-20737D01*
X39345Y-20705D01*
X39293Y-20668D01*
X39148Y-20545D01*
X39069Y-20468D01*
X39023Y-20450D01*
X33912Y-15339D01*
Y-13177D01*
X34374Y-12986D01*
X37906Y-16517D01*
X37922Y-16561D01*
X38076Y-16728D01*
X38125Y-16788D01*
X38166Y-16846D01*
X38197Y-16895D01*
X38219Y-16935D01*
X38231Y-16964D01*
X38237Y-16982D01*
X38238Y-16988D01*
X38240Y-17020D01*
X38259Y-17060D01*
X38377Y-17656D01*
X38749Y-18212D01*
X39305Y-18584D01*
X39961Y-18714D01*
X40617Y-18584D01*
X41173Y-18212D01*
X41544Y-17656D01*
X41675Y-17000D01*
X41544Y-16344D01*
X41173Y-15788D01*
X40617Y-15416D01*
X40021Y-15298D01*
X39981Y-15279D01*
X39948Y-15277D01*
X39943Y-15276D01*
X39925Y-15270D01*
X39896Y-15258D01*
X39856Y-15236D01*
X39806Y-15205D01*
X39754Y-15168D01*
X39609Y-15044D01*
X39530Y-14968D01*
X39484Y-14950D01*
X35484Y-10951D01*
X35367Y-10776D01*
X35367Y-10776D01*
X34865Y-10274D01*
X35056Y-9812D01*
X39205D01*
X39248Y-9831D01*
X39475Y-9840D01*
X39552Y-9848D01*
X39622Y-9860D01*
X39679Y-9873D01*
X39722Y-9886D01*
X39752Y-9898D01*
X39768Y-9907D01*
X39773Y-9910D01*
X39797Y-9932D01*
X39839Y-9946D01*
X40344Y-10284D01*
X41000Y-10414D01*
X41656Y-10284D01*
X42212Y-9912D01*
X42584Y-9356D01*
X42714Y-8700D01*
X42584Y-8044D01*
X42212Y-7488D01*
X41656Y-7116D01*
X41000Y-6986D01*
X40344Y-7116D01*
X39839Y-7454D01*
X39797Y-7468D01*
X39773Y-7490D01*
X39768Y-7493D01*
X39752Y-7502D01*
X39722Y-7514D01*
X39679Y-7527D01*
X39622Y-7540D01*
X39558Y-7551D01*
X39368Y-7566D01*
X39258Y-7568D01*
X39213Y-7588D01*
X32627D01*
X22342Y2696D01*
X22534Y3158D01*
X34644D01*
X35035Y3236D01*
X35206Y3350D01*
X35278Y3361D01*
X35313Y3410D01*
X35370Y3431D01*
X35444Y3502D01*
X35497Y3545D01*
X35499Y3547D01*
X35844Y3316D01*
X36500Y3186D01*
X37156Y3316D01*
X37712Y3688D01*
X38084Y4244D01*
X38214Y4900D01*
X38084Y5556D01*
X37712Y6112D01*
X37156Y6484D01*
X36500Y6614D01*
X35844Y6484D01*
X35288Y6112D01*
X35214Y6002D01*
X35188Y5994D01*
X35140Y5955D01*
X35076Y5942D01*
X34745Y5721D01*
X34268Y5243D01*
X34212Y5198D01*
X21960D01*
X5335Y21823D01*
X5480Y22301D01*
X5556Y22316D01*
X6112Y22688D01*
X6484Y23244D01*
X6614Y23900D01*
X6605Y23944D01*
X6606Y23945D01*
X6850Y24223D01*
X6933Y24307D01*
X6949Y24346D01*
X6985Y24368D01*
X6989Y24387D01*
X8723Y26120D01*
X8762Y26136D01*
X8939Y26309D01*
X9074Y26432D01*
X9169Y26510D01*
X9182Y26519D01*
X9182Y26520D01*
X9183Y26520D01*
X9185Y26522D01*
X9188Y26523D01*
X9656Y26616D01*
X10212Y26988D01*
X10584Y27544D01*
X10714Y28200D01*
X10584Y28856D01*
X10212Y29412D01*
X9656Y29784D01*
X9000Y29914D01*
X8344Y29784D01*
X7788Y29412D01*
X7416Y28856D01*
X7325Y28396D01*
X7021Y28048D01*
X6938Y27965D01*
X6922Y27925D01*
X4980Y25982D01*
X4940Y25966D01*
X4620Y25652D01*
X4489Y25534D01*
X4486Y25532D01*
X4244Y25484D01*
X4124Y25404D01*
X3509Y25594D01*
X3440Y25697D01*
X-3703Y32840D01*
X-4033Y33061D01*
X-4423Y33138D01*
X-5481D01*
X-6162Y33819D01*
Y34876D01*
X-6239Y35267D01*
X-6460Y35597D01*
X-17080Y46218D01*
Y46859D01*
X-17059Y46907D01*
X-17056Y47011D01*
X-17049Y47092D01*
X-17038Y47164D01*
X-17024Y47228D01*
X-17007Y47284D01*
X-16988Y47332D01*
X-16967Y47373D01*
X-16945Y47409D01*
X-16921Y47441D01*
X-16876Y47489D01*
X-16862Y47527D01*
X-16516Y48044D01*
X-16386Y48700D01*
X-16516Y49356D01*
X-16888Y49912D01*
X-17444Y50284D01*
X-18100Y50414D01*
X-18756Y50284D01*
X-19312Y49912D01*
X-19684Y49356D01*
X-19814Y48700D01*
X-19684Y48044D01*
X-19338Y47527D01*
X-19324Y47489D01*
X-19279Y47441D01*
X-19255Y47409D01*
X-19233Y47373D01*
X-19212Y47332D01*
X-19193Y47284D01*
X-19176Y47228D01*
X-19162Y47164D01*
X-19151Y47092D01*
X-19144Y47011D01*
X-19141Y46907D01*
X-19538Y46618D01*
X-19581Y46600D01*
X-32235Y59254D01*
Y73820D01*
X-32216Y73866D01*
X-32214Y73985D01*
X-32209Y74080D01*
X-32191Y74259D01*
X-32180Y74318D01*
X-32168Y74370D01*
X-32156Y74407D01*
X-32147Y74431D01*
X-32142Y74439D01*
X-32125Y74465D01*
X-32104Y74564D01*
X-31916Y74844D01*
X-31891Y74971D01*
X-31349Y75135D01*
X-27240Y71026D01*
D02*
G37*
G36*
X100500Y24000D02*
X107677D01*
X107802Y23916D01*
X108458Y23786D01*
X109114Y23916D01*
X109239Y24000D01*
X144130D01*
X144200Y23986D01*
X144271Y24000D01*
X160317D01*
X160317Y24000D01*
X160317Y-42317D01*
X185095Y-67095D01*
X183212Y-72199D01*
X179880Y-80141D01*
X176203Y-87930D01*
X172190Y-95551D01*
X167847Y-102989D01*
X163183Y-110230D01*
X158206Y-117261D01*
X152928Y-124066D01*
X150142Y-127351D01*
X73700Y-62600D01*
X65800Y-40400D01*
X53612D01*
Y-26568D01*
X53629Y-26536D01*
X53623Y-26515D01*
X53632Y-26494D01*
X53634Y-26380D01*
X53640Y-26288D01*
X53649Y-26210D01*
X53661Y-26144D01*
X53675Y-26093D01*
X53687Y-26056D01*
X53698Y-26033D01*
X53704Y-26023D01*
X53704Y-26023D01*
X53727Y-26001D01*
X53747Y-25956D01*
X53812Y-25912D01*
X54184Y-25356D01*
X54314Y-24700D01*
X54184Y-24044D01*
X53812Y-23488D01*
X53256Y-23116D01*
X52600Y-22986D01*
X51944Y-23116D01*
X51626Y-23329D01*
X51126Y-23062D01*
Y9209D01*
X51500Y9459D01*
X56500D01*
X56500Y9459D01*
X56883Y9617D01*
X56883Y9617D01*
X57383Y10117D01*
X57541Y10500D01*
X57541Y10500D01*
Y13974D01*
X74500D01*
X75283Y14077D01*
X76013Y14379D01*
X76640Y14860D01*
X93140Y31360D01*
X100500Y24000D01*
D02*
G37*
G36*
X-58106Y20782D02*
X-58047Y20742D01*
X-57979Y20706D01*
X-57903Y20676D01*
X-57819Y20650D01*
X-57726Y20628D01*
X-57624Y20612D01*
X-57514Y20600D01*
X-57269Y20591D01*
Y19410D01*
X-57395Y19407D01*
X-57624Y19388D01*
X-57726Y19372D01*
X-57819Y19350D01*
X-57903Y19324D01*
X-57979Y19294D01*
X-58047Y19258D01*
X-58106Y19218D01*
X-58157Y19173D01*
Y20827D01*
X-58106Y20782D01*
D02*
G37*
G36*
X-36327Y18635D02*
X-37159Y17272D01*
X-37171Y17296D01*
X-37196Y17318D01*
X-37235Y17337D01*
X-37287Y17353D01*
X-37353Y17367D01*
X-37432Y17378D01*
X-37632Y17394D01*
X-37885Y17399D01*
X-37696Y18899D01*
X-36327Y18635D01*
D02*
G37*
G36*
X57000Y10500D02*
X56500Y10000D01*
X51500D01*
Y23500D01*
X57000D01*
Y10500D01*
D02*
G37*
G36*
X-138883Y119012D02*
X-138928Y118917D01*
X-138946Y118810D01*
X-138935Y118691D01*
X-138895Y118561D01*
X-138828Y118418D01*
X-138732Y118264D01*
X-138608Y118099D01*
X-138455Y117921D01*
X-138274Y117732D01*
X-139157Y116945D01*
X-139347Y117127D01*
X-139695Y117408D01*
X-139853Y117508D01*
X-140000Y117580D01*
X-140136Y117626D01*
X-140262Y117643D01*
X-140376Y117634D01*
X-140480Y117597D01*
X-140574Y117533D01*
X-138809Y119096D01*
X-138883Y119012D01*
D02*
G37*
G36*
X-34718Y120306D02*
X-34758Y120247D01*
X-34794Y120179D01*
X-34824Y120103D01*
X-34850Y120019D01*
X-34872Y119926D01*
X-34888Y119824D01*
X-34900Y119714D01*
X-34909Y119468D01*
X-36090D01*
X-36093Y119596D01*
X-36112Y119824D01*
X-36128Y119926D01*
X-36150Y120019D01*
X-36176Y120103D01*
X-36206Y120179D01*
X-36242Y120247D01*
X-36282Y120306D01*
X-36327Y120357D01*
X-34673D01*
X-34718Y120306D01*
D02*
G37*
G36*
X-44523Y73153D02*
X-44574Y73196D01*
X-44633Y73234D01*
X-44701Y73269D01*
X-44778Y73298D01*
X-44863Y73323D01*
X-44956Y73344D01*
X-45058Y73360D01*
X-45168Y73371D01*
X-45414Y73380D01*
X-45448Y74561D01*
X-45321Y74564D01*
X-45093Y74583D01*
X-44991Y74600D01*
X-44899Y74622D01*
X-44815Y74649D01*
X-44739Y74681D01*
X-44672Y74717D01*
X-44614Y74759D01*
X-44564Y74805D01*
X-44523Y73153D01*
D02*
G37*
G36*
X-50005Y70843D02*
X-49830Y70695D01*
X-49747Y70635D01*
X-49666Y70584D01*
X-49588Y70543D01*
X-49512Y70511D01*
X-49439Y70488D01*
X-49369Y70475D01*
X-49301Y70471D01*
X-50471Y69301D01*
X-50475Y69369D01*
X-50488Y69439D01*
X-50511Y69512D01*
X-50543Y69587D01*
X-50584Y69666D01*
X-50635Y69747D01*
X-50695Y69830D01*
X-50765Y69916D01*
X-50932Y70096D01*
X-50096Y70932D01*
X-50005Y70843D01*
D02*
G37*
G36*
X-34538Y71036D02*
X-35719Y70829D01*
X-35722Y70958D01*
X-35744Y71177D01*
X-35764Y71268D01*
X-35789Y71347D01*
X-35820Y71413D01*
X-35857Y71466D01*
X-35899Y71508D01*
X-35947Y71536D01*
X-36000Y71552D01*
X-34660Y72406D01*
X-34538Y71036D01*
D02*
G37*
G36*
X-72606Y72782D02*
X-72547Y72742D01*
X-72479Y72706D01*
X-72403Y72676D01*
X-72319Y72650D01*
X-72226Y72628D01*
X-72124Y72612D01*
X-72014Y72600D01*
X-71768Y72591D01*
Y71409D01*
X-71895Y71407D01*
X-72124Y71388D01*
X-72226Y71372D01*
X-72319Y71350D01*
X-72403Y71324D01*
X-72479Y71294D01*
X-72547Y71258D01*
X-72606Y71218D01*
X-72657Y71173D01*
Y72827D01*
X-72606Y72782D01*
D02*
G37*
G36*
X-51244Y75515D02*
X-51294Y75560D01*
X-51353Y75600D01*
X-51421Y75636D01*
X-51497Y75667D01*
X-51581Y75693D01*
X-51674Y75714D01*
X-51776Y75730D01*
X-51886Y75742D01*
X-52131Y75752D01*
Y76933D01*
X-52004Y76935D01*
X-51776Y76954D01*
X-51674Y76971D01*
X-51581Y76992D01*
X-51497Y77018D01*
X-51421Y77048D01*
X-51353Y77084D01*
X-51294Y77124D01*
X-51244Y77169D01*
Y75515D01*
D02*
G37*
G36*
X-6751Y124260D02*
X-6804Y124353D01*
X-6865Y124437D01*
X-6932Y124510D01*
X-7005Y124574D01*
X-7086Y124628D01*
X-7173Y124672D01*
X-7267Y124706D01*
X-7367Y124730D01*
X-7475Y124745D01*
X-7589Y124750D01*
X-7321Y125550D01*
X-7216Y125553D01*
X-7111Y125562D01*
X-7006Y125576D01*
X-6900Y125596D01*
X-6688Y125654D01*
X-6582Y125692D01*
X-6368Y125785D01*
X-6261Y125840D01*
X-6751Y124260D01*
D02*
G37*
G36*
X-132192Y126444D02*
X-132237Y126348D01*
X-132254Y126241D01*
X-132243Y126122D01*
X-132204Y125992D01*
X-132136Y125850D01*
X-132040Y125696D01*
X-131916Y125530D01*
X-131764Y125353D01*
X-131583Y125164D01*
X-132466Y124376D01*
X-132656Y124558D01*
X-133004Y124840D01*
X-133161Y124939D01*
X-133309Y125012D01*
X-133445Y125057D01*
X-133570Y125075D01*
X-133685Y125066D01*
X-133789Y125029D01*
X-133882Y124965D01*
X-132118Y126528D01*
X-132192Y126444D01*
D02*
G37*
G36*
X-32606Y74719D02*
X-32638Y74659D01*
X-32666Y74590D01*
X-32690Y74514D01*
X-32710Y74428D01*
X-32727Y74334D01*
X-32749Y74121D01*
X-32755Y74001D01*
X-32757Y73874D01*
X-33938Y73694D01*
X-33941Y73821D01*
X-33962Y74048D01*
X-33981Y74147D01*
X-34006Y74238D01*
X-34036Y74320D01*
X-34071Y74393D01*
X-34113Y74456D01*
X-34159Y74511D01*
X-34211Y74557D01*
X-32571Y74770D01*
X-32606Y74719D01*
D02*
G37*
G36*
X-8032Y121405D02*
X-8130Y121439D01*
X-8227Y121461D01*
X-8323Y121470D01*
X-8417Y121467D01*
X-8509Y121451D01*
X-8600Y121423D01*
X-8689Y121382D01*
X-8777Y121329D01*
X-8863Y121264D01*
X-8948Y121187D01*
X-9272Y121994D01*
X-9201Y122069D01*
X-9067Y122230D01*
X-9005Y122317D01*
X-8889Y122502D01*
X-8836Y122601D01*
X-8738Y122810D01*
X-8694Y122921D01*
X-8032Y121405D01*
D02*
G37*
G36*
X-21007Y75305D02*
X-20988Y75076D01*
X-20972Y74974D01*
X-20950Y74881D01*
X-20924Y74797D01*
X-20894Y74721D01*
X-20858Y74653D01*
X-20818Y74594D01*
X-20773Y74543D01*
X-22427D01*
X-22382Y74594D01*
X-22342Y74653D01*
X-22306Y74721D01*
X-22276Y74797D01*
X-22250Y74881D01*
X-22228Y74974D01*
X-22212Y75076D01*
X-22200Y75186D01*
X-22190Y75432D01*
X-21010D01*
X-21007Y75305D01*
D02*
G37*
G36*
X-50596Y57710D02*
X-50583Y57602D01*
X-50562Y57498D01*
X-50532Y57396D01*
X-50493Y57297D01*
X-50446Y57200D01*
X-50391Y57107D01*
X-50327Y57016D01*
X-50254Y56928D01*
X-50173Y56844D01*
X-51827D01*
X-51746Y56928D01*
X-51673Y57016D01*
X-51609Y57107D01*
X-51554Y57200D01*
X-51507Y57297D01*
X-51468Y57396D01*
X-51438Y57498D01*
X-51417Y57602D01*
X-51404Y57710D01*
X-51400Y57820D01*
X-50600D01*
X-50596Y57710D01*
D02*
G37*
G36*
X3488Y57319D02*
X3421Y57315D01*
X3351Y57302D01*
X3278Y57279D01*
X3202Y57247D01*
X3124Y57205D01*
X3043Y57155D01*
X2960Y57095D01*
X2874Y57025D01*
X2693Y56858D01*
X1858Y57693D01*
X1946Y57785D01*
X2094Y57960D01*
X2155Y58043D01*
X2205Y58124D01*
X2247Y58202D01*
X2279Y58278D01*
X2302Y58350D01*
X2315Y58421D01*
X2319Y58488D01*
X3488Y57319D01*
D02*
G37*
G36*
X1142Y55307D02*
X1054Y55215D01*
X905Y55040D01*
X845Y54957D01*
X795Y54876D01*
X753Y54798D01*
X721Y54722D01*
X698Y54650D01*
X685Y54579D01*
X681Y54512D01*
X-488Y55681D01*
X-421Y55685D01*
X-351Y55698D01*
X-278Y55721D01*
X-202Y55753D01*
X-124Y55795D01*
X-43Y55845D01*
X40Y55905D01*
X126Y55975D01*
X307Y56142D01*
X1142Y55307D01*
D02*
G37*
G36*
X-8061Y112266D02*
X-8147Y112348D01*
X-8236Y112422D01*
X-8328Y112487D01*
X-8422Y112543D01*
X-8518Y112591D01*
X-8618Y112630D01*
X-8719Y112660D01*
X-8824Y112682D01*
X-8930Y112695D01*
X-9040Y112699D01*
Y113487D01*
X-8930Y113491D01*
X-8824Y113504D01*
X-8719Y113526D01*
X-8618Y113556D01*
X-8518Y113595D01*
X-8422Y113643D01*
X-8328Y113699D01*
X-8236Y113764D01*
X-8147Y113837D01*
X-8061Y113920D01*
Y112266D01*
D02*
G37*
G36*
X-47596Y55210D02*
X-47583Y55102D01*
X-47562Y54998D01*
X-47532Y54896D01*
X-47493Y54797D01*
X-47446Y54700D01*
X-47391Y54607D01*
X-47327Y54516D01*
X-47254Y54428D01*
X-47173Y54343D01*
X-48827D01*
X-48746Y54428D01*
X-48673Y54516D01*
X-48609Y54607D01*
X-48554Y54700D01*
X-48507Y54797D01*
X-48468Y54896D01*
X-48438Y54998D01*
X-48417Y55102D01*
X-48404Y55210D01*
X-48400Y55320D01*
X-47600D01*
X-47596Y55210D01*
D02*
G37*
G36*
X12847Y196505D02*
X21427Y195755D01*
X29967Y194631D01*
X38449Y193135D01*
X46858Y191269D01*
X55177Y189037D01*
X63390Y186443D01*
X71482Y183493D01*
X79437Y180192D01*
X87241Y176546D01*
X94877Y172562D01*
X102332Y168248D01*
X109592Y163612D01*
X116641Y158664D01*
X123468Y153411D01*
X130058Y147866D01*
X136399Y142037D01*
X142480Y135937D01*
X148288Y129576D01*
X153812Y122968D01*
X159042Y116125D01*
X163968Y109059D01*
X168580Y101785D01*
X172870Y94316D01*
X176828Y86666D01*
X180449Y78851D01*
X183724Y70885D01*
X186648Y62783D01*
X189215Y54562D01*
X189563Y53247D01*
X161817Y25500D01*
X146078Y25500D01*
X145914Y25700D01*
X145784Y26356D01*
X145412Y26912D01*
X144856Y27284D01*
X144200Y27414D01*
X143544Y27284D01*
X143155Y27023D01*
X142693Y26992D01*
X142576Y26991D01*
X142536Y26974D01*
X109912D01*
X109872Y26991D01*
X109245Y26996D01*
X109114Y27084D01*
X108458Y27214D01*
X107802Y27084D01*
X107246Y26712D01*
X106874Y26156D01*
X106744Y25500D01*
X106744Y25500D01*
X101000D01*
X94140Y32360D01*
X100253Y38474D01*
X131000D01*
X131783Y38577D01*
X132513Y38879D01*
X133140Y39360D01*
X135155Y41376D01*
X138920Y42812D01*
X139782Y41405D01*
X141041Y39932D01*
X142514Y38673D01*
X144166Y37661D01*
X145957Y36919D01*
X147841Y36467D01*
X149773Y36315D01*
X151705Y36467D01*
X153589Y36919D01*
X155379Y37661D01*
X157031Y38673D01*
X158505Y39932D01*
X159763Y41405D01*
X160776Y43058D01*
X161517Y44848D01*
X161970Y46732D01*
X162122Y48664D01*
X161970Y50596D01*
X161517Y52480D01*
X160776Y54270D01*
X159763Y55923D01*
X158505Y57396D01*
X157031Y58655D01*
X155379Y59667D01*
X153589Y60409D01*
X151705Y60861D01*
X149773Y61013D01*
X147841Y60861D01*
X145957Y60409D01*
X144166Y59667D01*
X142514Y58655D01*
X141041Y57396D01*
X139782Y55923D01*
X138769Y54270D01*
X138596Y53852D01*
X138593Y53851D01*
X132264Y47065D01*
X132252Y47031D01*
X129747Y44526D01*
X99000D01*
X98217Y44423D01*
X97487Y44120D01*
X96860Y43640D01*
X89860Y36640D01*
X85000Y41500D01*
X44500Y41500D01*
X37000Y49000D01*
X9000D01*
X2286Y55714D01*
X3017Y56445D01*
X3061Y56461D01*
X3228Y56615D01*
X3288Y56664D01*
X3345Y56705D01*
X3395Y56736D01*
X3435Y56758D01*
X3464Y56770D01*
X3482Y56776D01*
X3488Y56777D01*
X3520Y56779D01*
X3560Y56798D01*
X4156Y56916D01*
X4712Y57288D01*
X5084Y57844D01*
X5214Y58500D01*
X5084Y59156D01*
X4712Y59712D01*
X4156Y60084D01*
X3500Y60214D01*
X2844Y60084D01*
X2288Y59712D01*
X1916Y59156D01*
X1798Y58560D01*
X1779Y58520D01*
X1777Y58488D01*
X1776Y58482D01*
X1770Y58464D01*
X1758Y58435D01*
X1736Y58395D01*
X1705Y58346D01*
X1668Y58293D01*
X1544Y58148D01*
X1468Y58069D01*
X1450Y58023D01*
X714Y57286D01*
X-14488Y72488D01*
X-13951Y73025D01*
X-13752Y73322D01*
X-13682Y73673D01*
Y115720D01*
X-13111Y116291D01*
X-12611Y116084D01*
Y114200D01*
X-12542Y113851D01*
X-12344Y113556D01*
X-11237Y112449D01*
X-10942Y112251D01*
X-10593Y112182D01*
X-9112D01*
X-9061Y112159D01*
X-8974Y112155D01*
X-8911Y112147D01*
X-8852Y112135D01*
X-8794Y112118D01*
X-8737Y112096D01*
X-8681Y112068D01*
X-8624Y112034D01*
X-8566Y111993D01*
X-8507Y111944D01*
X-8435Y111875D01*
X-8400Y111861D01*
X-7874Y111509D01*
X-7218Y111379D01*
X-6562Y111509D01*
X-6006Y111881D01*
X-5634Y112437D01*
X-5504Y113093D01*
X-5634Y113749D01*
X-6006Y114305D01*
X-6562Y114676D01*
X-6681Y114700D01*
X-6637Y115201D01*
X-6626Y115201D01*
X-6582Y115221D01*
X22432D01*
X22477Y115201D01*
X22590Y115200D01*
X22785Y115185D01*
X22852Y115175D01*
X22913Y115163D01*
X22959Y115151D01*
X22991Y115139D01*
X23008Y115131D01*
X23011Y115129D01*
X23033Y115111D01*
X23110Y115088D01*
X23523Y114813D01*
X24179Y114682D01*
X24834Y114813D01*
X25390Y115184D01*
X25762Y115740D01*
X25892Y116396D01*
X25762Y117052D01*
X25390Y117608D01*
X24834Y117980D01*
X24179Y118110D01*
X23523Y117980D01*
X22966Y117608D01*
X22951Y117585D01*
X22923Y117574D01*
X22903Y117554D01*
X22892Y117548D01*
X22867Y117537D01*
X22827Y117525D01*
X22773Y117512D01*
X22711Y117502D01*
X22522Y117486D01*
X22412Y117484D01*
X22403Y117480D01*
X22394Y117483D01*
X22355Y117464D01*
X-7026D01*
X-7072Y117484D01*
X-7314Y117487D01*
X-7500Y117497D01*
X-7591Y117507D01*
X-7704Y117684D01*
X-7716Y117715D01*
X-7723Y117923D01*
X-7718Y117969D01*
X-7695Y118039D01*
X-7670Y118056D01*
X-2881Y122845D01*
X-2683Y123141D01*
X-2614Y123489D01*
Y125701D01*
X-2683Y126049D01*
X-2881Y126345D01*
X-4155Y127619D01*
X-4451Y127817D01*
X-4799Y127886D01*
X-8171D01*
X-8520Y127817D01*
X-8815Y127619D01*
X-18038Y118396D01*
X-18236Y118101D01*
X-18305Y117752D01*
Y76581D01*
X-18500Y76500D01*
X-20488D01*
Y90200D01*
X-20488Y90200D01*
X-20573Y90626D01*
X-20814Y90986D01*
X-20814Y90986D01*
X-34388Y104560D01*
Y119405D01*
X-34369Y119448D01*
X-34360Y119675D01*
X-34352Y119752D01*
X-34340Y119822D01*
X-34327Y119879D01*
X-34314Y119922D01*
X-34302Y119952D01*
X-34293Y119968D01*
X-34290Y119973D01*
X-34269Y119997D01*
X-34254Y120039D01*
X-33916Y120544D01*
X-33786Y121200D01*
X-33916Y121856D01*
X-34288Y122412D01*
X-34844Y122784D01*
X-35500Y122914D01*
X-36156Y122784D01*
X-36712Y122412D01*
X-37084Y121856D01*
X-37214Y121200D01*
X-37084Y120544D01*
X-36746Y120039D01*
X-36731Y119997D01*
X-36710Y119973D01*
X-36707Y119968D01*
X-36698Y119952D01*
X-36686Y119922D01*
X-36673Y119879D01*
X-36660Y119822D01*
X-36649Y119758D01*
X-36634Y119568D01*
X-36632Y119458D01*
X-36612Y119413D01*
Y104100D01*
X-36612Y104100D01*
X-36527Y103674D01*
X-36286Y103314D01*
X-22712Y89739D01*
Y76500D01*
X-26176D01*
X-30795Y81119D01*
X-31091Y81317D01*
X-31439Y81386D01*
X-35561D01*
X-35909Y81317D01*
X-36205Y81119D01*
X-40824Y76500D01*
X-48717D01*
X-48816Y76998D01*
X-49188Y77554D01*
X-49744Y77926D01*
X-50400Y78056D01*
X-51056Y77926D01*
X-51561Y77588D01*
X-51603Y77574D01*
X-51627Y77552D01*
X-51632Y77549D01*
X-51648Y77540D01*
X-51678Y77528D01*
X-51721Y77515D01*
X-51778Y77502D01*
X-51842Y77492D01*
X-52032Y77476D01*
X-52142Y77474D01*
X-52187Y77454D01*
X-62825D01*
X-64091Y78720D01*
X-64452Y78961D01*
X-64877Y79046D01*
X-64877Y79046D01*
X-75958D01*
X-76383Y78961D01*
X-76744Y78720D01*
X-76744Y78720D01*
X-78010Y77454D01*
X-83136D01*
X-131165Y125483D01*
X-131179Y125524D01*
X-131188Y125528D01*
X-131192Y125538D01*
X-131363Y125716D01*
X-131494Y125869D01*
X-131593Y126002D01*
X-131661Y126110D01*
X-131684Y126159D01*
X-131674Y126174D01*
X-131370Y127031D01*
X-131299Y127938D01*
X-131465Y128832D01*
X-131856Y129652D01*
X-132447Y130343D01*
X-137128Y134558D01*
X-137877Y135073D01*
X-138734Y135377D01*
X-139640Y135448D01*
X-140534Y135283D01*
X-141355Y134891D01*
X-142046Y134301D01*
X-142561Y133551D01*
X-142865Y132694D01*
X-142936Y131788D01*
X-142770Y130894D01*
X-142379Y130074D01*
X-141788Y129382D01*
X-137107Y125167D01*
X-136358Y124652D01*
X-135501Y124349D01*
X-134595Y124278D01*
X-133701Y124443D01*
X-133542Y124519D01*
X-133514Y124510D01*
X-133427Y124467D01*
X-133320Y124399D01*
X-133014Y124151D01*
X-132840Y123985D01*
X-132794Y123967D01*
X-84439Y75612D01*
X-84475Y75382D01*
X-84618Y75112D01*
X-94917D01*
X-137856Y118051D01*
X-137871Y118093D01*
X-137880Y118097D01*
X-137883Y118106D01*
X-138054Y118285D01*
X-138185Y118438D01*
X-138285Y118570D01*
X-138352Y118678D01*
X-138375Y118728D01*
X-138365Y118743D01*
X-138062Y119600D01*
X-137990Y120506D01*
X-138156Y121400D01*
X-138547Y122221D01*
X-139138Y122912D01*
X-143819Y127127D01*
X-144568Y127642D01*
X-145425Y127945D01*
X-146332Y128017D01*
X-147225Y127851D01*
X-148046Y127460D01*
X-148737Y126869D01*
X-149252Y126120D01*
X-149556Y125263D01*
X-149627Y124357D01*
X-149461Y123463D01*
X-149070Y122642D01*
X-148480Y121951D01*
X-143798Y117736D01*
X-143049Y117221D01*
X-142192Y116918D01*
X-141286Y116846D01*
X-140392Y117012D01*
X-140233Y117088D01*
X-140206Y117078D01*
X-140118Y117035D01*
X-140011Y116968D01*
X-139705Y116720D01*
X-139531Y116553D01*
X-139486Y116536D01*
X-96362Y73412D01*
X-96569Y72912D01*
X-103200D01*
X-103200Y72912D01*
X-103626Y72827D01*
X-103986Y72586D01*
X-142001Y34572D01*
X-142535Y34745D01*
X-142616Y35156D01*
X-142988Y35712D01*
X-143544Y36084D01*
X-144200Y36214D01*
X-144856Y36084D01*
X-145382Y35732D01*
X-145417Y35719D01*
X-145488Y35651D01*
X-145545Y35603D01*
X-145602Y35564D01*
X-145658Y35530D01*
X-145714Y35503D01*
X-145770Y35481D01*
X-145828Y35464D01*
X-145888Y35452D01*
X-145952Y35444D01*
X-146041Y35441D01*
X-146091Y35418D01*
X-175790D01*
X-176145Y35824D01*
X-176139Y35853D01*
X-176269Y36509D01*
X-176641Y37065D01*
X-177197Y37437D01*
X-177853Y37567D01*
X-177941Y37550D01*
X-178187Y38010D01*
X-174299Y41899D01*
X-174022Y42312D01*
X-173925Y42800D01*
Y45772D01*
X-168277Y51420D01*
X-168238Y51436D01*
X-168061Y51609D01*
X-167926Y51732D01*
X-167831Y51810D01*
X-167818Y51819D01*
X-167818Y51819D01*
X-167817Y51820D01*
X-167815Y51822D01*
X-167812Y51823D01*
X-167344Y51916D01*
X-166788Y52288D01*
X-166416Y52844D01*
X-166286Y53500D01*
X-166416Y54156D01*
X-166788Y54712D01*
X-167344Y55084D01*
X-168000Y55214D01*
X-168656Y55084D01*
X-169212Y54712D01*
X-169584Y54156D01*
X-169675Y53696D01*
X-169979Y53348D01*
X-170062Y53265D01*
X-170078Y53225D01*
X-176101Y47201D01*
X-176377Y46788D01*
X-176432Y46515D01*
X-176444Y46507D01*
X-176964Y46403D01*
X-177003Y46462D01*
X-177146Y46557D01*
X-177261Y46684D01*
X-177514Y46804D01*
X-177747Y46960D01*
X-177915Y46993D01*
X-178070Y47066D01*
X-178350Y47080D01*
X-178625Y47134D01*
X-178793Y47101D01*
X-178964Y47109D01*
X-179228Y47014D01*
X-179503Y46960D01*
X-179646Y46864D01*
X-179807Y46806D01*
X-180014Y46618D01*
X-180247Y46462D01*
X-180343Y46320D01*
X-180469Y46205D01*
X-180589Y45951D01*
X-180745Y45718D01*
X-180778Y45550D01*
X-180851Y45395D01*
X-180865Y45115D01*
X-180919Y44840D01*
X-180886Y44672D01*
X-180894Y44501D01*
X-180799Y44237D01*
X-180745Y43962D01*
X-180650Y43820D01*
X-180592Y43659D01*
X-180403Y43451D01*
X-180247Y43218D01*
X-180105Y43123D01*
X-179990Y42996D01*
X-179736Y42876D01*
X-179503Y42721D01*
X-179335Y42687D01*
X-179180Y42614D01*
X-178900Y42601D01*
X-178625Y42546D01*
X-178457Y42579D01*
X-178286Y42571D01*
X-178261Y42580D01*
X-177798Y42367D01*
X-177692Y42226D01*
X-177675Y42127D01*
X-186462Y33340D01*
X-186502Y33324D01*
X-187563Y32263D01*
X-187580Y32223D01*
X-189028Y30775D01*
X-189253D01*
X-189292Y30791D01*
X-189539Y30794D01*
X-189721Y30802D01*
X-189843Y30814D01*
X-189860Y30817D01*
X-189860Y30817D01*
X-189860D01*
X-189864Y30818D01*
X-189867Y30819D01*
X-190263Y31084D01*
X-190919Y31214D01*
X-191153Y31168D01*
X-191399Y31628D01*
X-190314Y32714D01*
X-190073Y33075D01*
X-189988Y33500D01*
Y35464D01*
X-189969Y35506D01*
X-189960Y35733D01*
X-189952Y35810D01*
X-189940Y35880D01*
X-189927Y35937D01*
X-189914Y35980D01*
X-189902Y36010D01*
X-189893Y36026D01*
X-189890Y36031D01*
X-189868Y36055D01*
X-189854Y36097D01*
X-189516Y36602D01*
X-189386Y37258D01*
X-189516Y37914D01*
X-189888Y38470D01*
X-190444Y38842D01*
X-191100Y38972D01*
X-191756Y38842D01*
X-192312Y38470D01*
X-192684Y37914D01*
X-192814Y37258D01*
X-192684Y36602D01*
X-192346Y36097D01*
X-192332Y36055D01*
X-192310Y36031D01*
X-192307Y36026D01*
X-192298Y36010D01*
X-192286Y35980D01*
X-192273Y35937D01*
X-192260Y35880D01*
X-192249Y35816D01*
X-192234Y35626D01*
X-192232Y35517D01*
X-192212Y35471D01*
Y33961D01*
X-193671Y32501D01*
X-194137Y32743D01*
X-193283Y37694D01*
X-191450Y46110D01*
X-189251Y54437D01*
X-186689Y62661D01*
X-183771Y70764D01*
X-180501Y78732D01*
X-176885Y86550D01*
X-172932Y94202D01*
X-168647Y101674D01*
X-164040Y108951D01*
X-159118Y116020D01*
X-153893Y122867D01*
X-148373Y129479D01*
X-142569Y135843D01*
X-136493Y141947D01*
X-130155Y147780D01*
X-123568Y153330D01*
X-116745Y158587D01*
X-109699Y163540D01*
X-102443Y168181D01*
X-94991Y172500D01*
X-87357Y176488D01*
X-79556Y180139D01*
X-71603Y183446D01*
X-63512Y186401D01*
X-55301Y189000D01*
X-46983Y191238D01*
X-38576Y193109D01*
X-30095Y194612D01*
X-21556Y195741D01*
X-12976Y196497D01*
X-4371Y196876D01*
X4242Y196879D01*
X12847Y196505D01*
D02*
G37*
G36*
X-7893Y117018D02*
X-7844Y117002D01*
X-7784Y116988D01*
X-7714Y116976D01*
X-7544Y116957D01*
X-7332Y116946D01*
X-7080Y116943D01*
X-6639Y115743D01*
X-6766Y115740D01*
X-6991Y115717D01*
X-7087Y115696D01*
X-7174Y115670D01*
X-7250Y115638D01*
X-7316Y115601D01*
X-7372Y115558D01*
X-7418Y115508D01*
X-7453Y115453D01*
X-7933Y117036D01*
X-7893Y117018D01*
D02*
G37*
G36*
X23373Y115532D02*
X23324Y115572D01*
X23266Y115608D01*
X23199Y115639D01*
X23123Y115667D01*
X23039Y115690D01*
X22945Y115709D01*
X22844Y115724D01*
X22614Y115741D01*
X22486Y115743D01*
X22423Y116943D01*
X22550Y116945D01*
X22779Y116964D01*
X22880Y116981D01*
X22972Y117003D01*
X23055Y117029D01*
X23129Y117061D01*
X23194Y117097D01*
X23251Y117138D01*
X23298Y117184D01*
X23373Y115532D01*
D02*
G37*
G36*
X-36718Y69106D02*
X-36758Y69047D01*
X-36794Y68979D01*
X-36824Y68903D01*
X-36850Y68819D01*
X-36872Y68726D01*
X-36888Y68624D01*
X-36900Y68514D01*
X-36909Y68269D01*
X-38091D01*
X-38093Y68396D01*
X-38112Y68624D01*
X-38128Y68726D01*
X-38150Y68819D01*
X-38176Y68903D01*
X-38206Y68979D01*
X-38242Y69047D01*
X-38282Y69106D01*
X-38327Y69156D01*
X-36673D01*
X-36718Y69106D01*
D02*
G37*
G36*
X-75108Y71466D02*
X-75084Y71344D01*
X-74712Y70788D01*
X-74156Y70416D01*
X-73500Y70286D01*
X-72844Y70416D01*
X-72339Y70754D01*
X-72297Y70768D01*
X-72273Y70790D01*
X-72268Y70793D01*
X-72252Y70802D01*
X-72222Y70814D01*
X-72179Y70827D01*
X-72122Y70840D01*
X-72058Y70851D01*
X-71868Y70866D01*
X-71758Y70868D01*
X-71713Y70888D01*
X-66961D01*
X-63036Y66964D01*
X-63632Y66368D01*
X-64056Y66284D01*
X-64612Y65912D01*
X-64984Y65356D01*
X-65068Y64932D01*
X-69295Y60705D01*
X-69473Y60741D01*
X-70129Y60610D01*
X-70685Y60239D01*
X-71057Y59683D01*
X-71187Y59027D01*
X-71164Y58909D01*
X-78761Y51312D01*
X-85121D01*
X-85188Y51412D01*
X-85744Y51784D01*
X-86400Y51914D01*
X-87056Y51784D01*
X-87612Y51412D01*
X-87984Y50856D01*
X-88114Y50200D01*
X-87984Y49544D01*
X-87612Y48988D01*
X-87056Y48616D01*
X-86400Y48486D01*
X-85744Y48616D01*
X-85188Y48988D01*
X-85121Y49088D01*
X-81565D01*
X-81374Y48626D01*
X-86500Y43500D01*
Y38252D01*
X-86727Y37913D01*
X-86857Y37257D01*
X-86727Y36601D01*
X-86679Y36529D01*
X-87004Y36115D01*
X-87500Y36214D01*
X-88156Y36084D01*
X-88712Y35712D01*
X-89084Y35156D01*
X-89589Y35180D01*
X-89744Y35284D01*
X-90400Y35414D01*
X-91056Y35284D01*
X-91612Y34912D01*
X-91809Y34618D01*
X-99349D01*
X-99700Y34548D01*
X-99998Y34349D01*
X-102122Y32225D01*
X-124427D01*
X-128514Y36312D01*
X-128533Y36364D01*
X-128593Y36429D01*
X-128633Y36479D01*
X-128667Y36531D01*
X-128696Y36584D01*
X-128720Y36639D01*
X-128741Y36698D01*
X-128757Y36761D01*
X-128769Y36829D01*
X-128776Y36903D01*
X-128778Y37001D01*
X-128793Y37035D01*
X-128916Y37656D01*
X-129288Y38212D01*
X-129844Y38584D01*
X-130500Y38714D01*
X-131156Y38584D01*
X-131712Y38212D01*
X-132084Y37656D01*
X-132214Y37000D01*
X-132084Y36344D01*
X-131851Y35996D01*
X-132034Y35520D01*
X-132423Y35424D01*
X-132459Y35441D01*
X-132548Y35444D01*
X-132611Y35452D01*
X-132672Y35464D01*
X-132730Y35481D01*
X-132786Y35503D01*
X-132842Y35530D01*
X-132898Y35564D01*
X-132955Y35603D01*
X-133012Y35651D01*
X-133083Y35719D01*
X-133118Y35732D01*
X-133644Y36084D01*
X-134039Y36162D01*
X-134205Y36704D01*
X-122021Y48888D01*
X-106312D01*
X-106312Y48888D01*
X-105756Y48516D01*
X-105100Y48386D01*
X-104444Y48516D01*
X-103888Y48888D01*
X-103516Y49444D01*
X-103386Y50100D01*
X-103516Y50756D01*
X-103888Y51312D01*
X-104444Y51684D01*
X-105100Y51814D01*
X-105756Y51684D01*
X-106312Y51312D01*
X-106446Y51112D01*
X-121662D01*
X-121854Y51574D01*
X-102739Y70688D01*
X-77000D01*
X-76574Y70773D01*
X-76214Y71014D01*
X-76105Y71176D01*
X-75651Y71631D01*
X-75108Y71466D01*
D02*
G37*
G36*
X-62618Y63806D02*
X-62658Y63747D01*
X-62694Y63679D01*
X-62724Y63603D01*
X-62750Y63519D01*
X-62772Y63426D01*
X-62788Y63324D01*
X-62800Y63214D01*
X-62809Y62968D01*
X-63990D01*
X-63993Y63095D01*
X-64012Y63324D01*
X-64028Y63426D01*
X-64050Y63519D01*
X-64076Y63603D01*
X-64106Y63679D01*
X-64142Y63747D01*
X-64182Y63806D01*
X-64227Y63857D01*
X-62573D01*
X-62618Y63806D01*
D02*
G37*
%LPC*%
G36*
X85500Y-4368D02*
X84599Y-4487D01*
X83759Y-4834D01*
X83038Y-5388D01*
X82484Y-6109D01*
X82136Y-6949D01*
X82017Y-7850D01*
Y-14150D01*
X82136Y-15051D01*
X82484Y-15891D01*
X83038Y-16612D01*
X83759Y-17166D01*
X84541Y-17490D01*
X84599Y-17686D01*
Y-17813D01*
X84541Y-18010D01*
X83759Y-18334D01*
X83038Y-18888D01*
X82484Y-19609D01*
X82136Y-20449D01*
X82017Y-21350D01*
Y-27650D01*
X82136Y-28551D01*
X82484Y-29391D01*
X83038Y-30112D01*
X83759Y-30666D01*
X84599Y-31014D01*
X85500Y-31132D01*
X86401Y-31014D01*
X87241Y-30666D01*
X87963Y-30112D01*
X88516Y-29391D01*
X88864Y-28551D01*
X88982Y-27650D01*
Y-21350D01*
X88864Y-20449D01*
X88516Y-19609D01*
X87963Y-18888D01*
X87241Y-18334D01*
X86459Y-18010D01*
X86401Y-17813D01*
Y-17686D01*
X86459Y-17490D01*
X87241Y-17166D01*
X87963Y-16612D01*
X88516Y-15891D01*
X88864Y-15051D01*
X88982Y-14150D01*
Y-7850D01*
X88864Y-6949D01*
X88516Y-6109D01*
X87963Y-5388D01*
X87241Y-4834D01*
X86401Y-4487D01*
X85500Y-4368D01*
D02*
G37*
G36*
X75500D02*
X74599Y-4487D01*
X73759Y-4834D01*
X73037Y-5388D01*
X72484Y-6109D01*
X72136Y-6949D01*
X72018Y-7850D01*
Y-8627D01*
X71556Y-8818D01*
X70451Y-7714D01*
X70091Y-7473D01*
X69665Y-7388D01*
X69665Y-7388D01*
X58295D01*
X58252Y-7369D01*
X58025Y-7360D01*
X57948Y-7352D01*
X57878Y-7340D01*
X57821Y-7327D01*
X57778Y-7314D01*
X57748Y-7302D01*
X57732Y-7293D01*
X57727Y-7290D01*
X57703Y-7269D01*
X57661Y-7254D01*
X57156Y-6916D01*
X56500Y-6786D01*
X55844Y-6916D01*
X55288Y-7288D01*
X54916Y-7844D01*
X54786Y-8500D01*
X54916Y-9156D01*
X55288Y-9712D01*
X55844Y-10084D01*
X56500Y-10214D01*
X57156Y-10084D01*
X57661Y-9746D01*
X57703Y-9731D01*
X57727Y-9710D01*
X57732Y-9707D01*
X57748Y-9698D01*
X57778Y-9686D01*
X57821Y-9673D01*
X57878Y-9660D01*
X57942Y-9649D01*
X58132Y-9634D01*
X58242Y-9632D01*
X58287Y-9612D01*
X69204D01*
X70924Y-11332D01*
X70943Y-11426D01*
X71184Y-11786D01*
X71544Y-12027D01*
X71970Y-12112D01*
X72018D01*
Y-14150D01*
X72136Y-15051D01*
X72484Y-15891D01*
X73037Y-16612D01*
X73759Y-17166D01*
X74541Y-17490D01*
X74599Y-17686D01*
X74599Y-17814D01*
X74541Y-18010D01*
X73759Y-18334D01*
X73037Y-18888D01*
X72676Y-19358D01*
X72669Y-19366D01*
X72334Y-19478D01*
X72101Y-19472D01*
X72013Y-19440D01*
X68786Y-16214D01*
X68426Y-15973D01*
X68000Y-15888D01*
X67574Y-15973D01*
X67402Y-16088D01*
X58095D01*
X58052Y-16069D01*
X57825Y-16060D01*
X57748Y-16052D01*
X57678Y-16040D01*
X57621Y-16027D01*
X57578Y-16014D01*
X57548Y-16002D01*
X57532Y-15993D01*
X57527Y-15990D01*
X57503Y-15969D01*
X57461Y-15954D01*
X56956Y-15616D01*
X56300Y-15486D01*
X55644Y-15616D01*
X55088Y-15988D01*
X54716Y-16544D01*
X54586Y-17200D01*
X54716Y-17856D01*
X55088Y-18412D01*
X55644Y-18784D01*
X56300Y-18914D01*
X56956Y-18784D01*
X57461Y-18446D01*
X57503Y-18431D01*
X57527Y-18410D01*
X57532Y-18407D01*
X57548Y-18398D01*
X57578Y-18386D01*
X57621Y-18373D01*
X57678Y-18360D01*
X57742Y-18349D01*
X57932Y-18334D01*
X58042Y-18332D01*
X58087Y-18312D01*
X67739D01*
X71297Y-21870D01*
X71314Y-21914D01*
X71317Y-21915D01*
X71318Y-21919D01*
X71482Y-22090D01*
X71615Y-22245D01*
X71728Y-22393D01*
X71821Y-22533D01*
X71895Y-22663D01*
X71949Y-22784D01*
X71987Y-22894D01*
X72009Y-22994D01*
X72017Y-23074D01*
Y-23134D01*
X72016Y-23204D01*
X72017Y-23208D01*
Y-27650D01*
X72136Y-28551D01*
X72484Y-29391D01*
X73037Y-30112D01*
X73759Y-30666D01*
X74599Y-31014D01*
X75500Y-31132D01*
X76401Y-31014D01*
X77241Y-30666D01*
X77962Y-30112D01*
X78516Y-29391D01*
X78864Y-28551D01*
X78983Y-27650D01*
Y-21350D01*
X78864Y-20449D01*
X78516Y-19609D01*
X77962Y-18888D01*
X77241Y-18334D01*
X76459Y-18010D01*
X76401Y-17814D01*
X76401Y-17686D01*
X76459Y-17490D01*
X77241Y-17166D01*
X77962Y-16612D01*
X78516Y-15891D01*
X78864Y-15051D01*
X78983Y-14150D01*
Y-7850D01*
X78864Y-6949D01*
X78516Y-6109D01*
X77962Y-5388D01*
X77241Y-4834D01*
X76401Y-4487D01*
X75500Y-4368D01*
D02*
G37*
%LPD*%
G36*
X71956Y-20113D02*
X72126Y-20258D01*
X72278Y-20367D01*
X72411Y-20441D01*
X72525Y-20480D01*
X72622Y-20484D01*
X72699Y-20453D01*
X72759Y-20386D01*
X72800Y-20284D01*
X72822Y-20147D01*
X72557Y-23215D01*
X72560Y-23062D01*
X72544Y-22906D01*
X72508Y-22747D01*
X72453Y-22584D01*
X72378Y-22419D01*
X72283Y-22250D01*
X72169Y-22079D01*
X72036Y-21904D01*
X71883Y-21726D01*
X71710Y-21545D01*
X71768Y-19933D01*
X71956Y-20113D01*
D02*
G37*
G36*
X57194Y-16418D02*
X57253Y-16458D01*
X57321Y-16494D01*
X57397Y-16524D01*
X57481Y-16550D01*
X57574Y-16572D01*
X57676Y-16588D01*
X57786Y-16600D01*
X58031Y-16610D01*
Y-17790D01*
X57904Y-17793D01*
X57676Y-17812D01*
X57574Y-17828D01*
X57481Y-17850D01*
X57397Y-17876D01*
X57321Y-17906D01*
X57253Y-17942D01*
X57194Y-17982D01*
X57143Y-18027D01*
Y-16373D01*
X57194Y-16418D01*
D02*
G37*
G36*
X57394Y-7718D02*
X57453Y-7758D01*
X57521Y-7794D01*
X57597Y-7824D01*
X57681Y-7850D01*
X57774Y-7872D01*
X57876Y-7888D01*
X57986Y-7900D01*
X58232Y-7909D01*
Y-9091D01*
X58104Y-9093D01*
X57876Y-9112D01*
X57774Y-9128D01*
X57681Y-9150D01*
X57597Y-9176D01*
X57521Y-9206D01*
X57453Y-9242D01*
X57394Y-9282D01*
X57344Y-9327D01*
Y-7673D01*
X57394Y-7718D01*
D02*
G37*
%LPC*%
G36*
X-28400Y150914D02*
X-29056Y150784D01*
X-29612Y150412D01*
X-29984Y149856D01*
X-30114Y149200D01*
X-29984Y148544D01*
X-29612Y147988D01*
X-29056Y147616D01*
X-28400Y147486D01*
X-27744Y147616D01*
X-27639Y147687D01*
X-19127D01*
X6330Y122230D01*
X6821Y121902D01*
X7400Y121787D01*
X13039D01*
X13144Y121716D01*
X13800Y121586D01*
X14456Y121716D01*
X14861Y121987D01*
X22356D01*
X28297Y116047D01*
X28416Y115444D01*
X28788Y114888D01*
X29344Y114516D01*
X30000Y114386D01*
X30656Y114516D01*
X31212Y114888D01*
X31584Y115444D01*
X31714Y116100D01*
X31584Y116756D01*
X31212Y117312D01*
X30656Y117684D01*
X30303Y117754D01*
X23828Y124228D01*
X23402Y124513D01*
X22900Y124613D01*
X14861D01*
X14456Y124884D01*
X13800Y125014D01*
X13144Y124884D01*
X13039Y124813D01*
X8027D01*
X-17430Y150270D01*
X-17921Y150598D01*
X-18500Y150713D01*
X-18500Y150713D01*
X-27639D01*
X-27744Y150784D01*
X-28400Y150914D01*
D02*
G37*
G36*
X15282Y165517D02*
X14862Y165436D01*
X14771Y165377D01*
X14665Y165356D01*
X14308Y165120D01*
X14248Y165030D01*
X14158Y164970D01*
X13919Y164615D01*
X13897Y164509D01*
X13837Y164419D01*
X13798Y164222D01*
X13427Y162738D01*
X13428Y162728D01*
X13423Y162720D01*
X13378Y162512D01*
X13397Y162406D01*
X13375Y162300D01*
X13452Y161881D01*
X13510Y161791D01*
X13530Y161685D01*
X13761Y161327D01*
X13850Y161266D01*
X13908Y161176D01*
X14259Y160934D01*
X14365Y160911D01*
X14453Y160850D01*
X14662Y160805D01*
X14665Y160806D01*
X14669Y160804D01*
X16168Y160504D01*
X16212Y160097D01*
X16197Y159988D01*
X16052Y159891D01*
X15863Y159816D01*
X15697Y159654D01*
X15503Y159525D01*
X15390Y159355D01*
X15244Y159213D01*
X15152Y158999D01*
X15023Y158806D01*
X14983Y158606D01*
X14902Y158418D01*
X14899Y158186D01*
X14854Y157958D01*
X14894Y157758D01*
X14891Y157554D01*
X14977Y157338D01*
X15023Y157110D01*
X15136Y156940D01*
X15212Y156751D01*
X15374Y156584D01*
X15503Y156391D01*
X15673Y156278D01*
X15815Y156131D01*
X16029Y156040D01*
X16222Y155911D01*
X16422Y155871D01*
X16609Y155790D01*
X16842Y155787D01*
X17070Y155742D01*
X17270Y155782D01*
X17474Y155779D01*
X17690Y155865D01*
X17918Y155911D01*
X18087Y156024D01*
X18277Y156099D01*
X18443Y156262D01*
X18637Y156391D01*
X18750Y156560D01*
X18896Y156703D01*
X18988Y156916D01*
X19117Y157110D01*
X19157Y157310D01*
X19237Y157497D01*
X19240Y157729D01*
X19286Y157958D01*
X19246Y158158D01*
X19249Y158361D01*
X19162Y158577D01*
X19117Y158806D01*
X19004Y158975D01*
X18928Y159165D01*
X18766Y159331D01*
X18637Y159525D01*
X18467Y159638D01*
X18325Y159784D01*
X18111Y159876D01*
X17918Y160005D01*
X17718Y160045D01*
X17700Y160052D01*
X17697Y160066D01*
X17682Y160391D01*
X17710Y160585D01*
X18030Y160807D01*
X18087Y160895D01*
X18174Y160954D01*
X18411Y161316D01*
X18431Y161419D01*
X18490Y161506D01*
X18575Y161931D01*
X18555Y162034D01*
X18577Y162137D01*
X18497Y162562D01*
X18440Y162651D01*
X18421Y162754D01*
X18189Y163119D01*
X18102Y163179D01*
X18047Y163268D01*
X17694Y163520D01*
X17592Y163544D01*
X17507Y163606D01*
X17297Y163656D01*
X17001Y163977D01*
X16923Y164397D01*
X16864Y164488D01*
X16844Y164594D01*
X16611Y164953D01*
X16521Y165014D01*
X16462Y165104D01*
X16108Y165346D01*
X16003Y165368D01*
X15913Y165429D01*
X15494Y165515D01*
X15388Y165495D01*
X15282Y165517D01*
D02*
G37*
G36*
X22484Y163859D02*
X21863Y163612D01*
X21384Y163145D01*
X21120Y162531D01*
X21111Y161862D01*
X21359Y161241D01*
X21825Y160762D01*
X22440Y160498D01*
X23108Y160489D01*
X23730Y160737D01*
X23875Y160878D01*
X24364Y160774D01*
X24439Y160586D01*
X24906Y160107D01*
X25229Y159968D01*
X25424Y159485D01*
X25400Y159392D01*
X25168Y158853D01*
X25159Y158184D01*
X25407Y157563D01*
X25874Y157084D01*
X26488Y156820D01*
X27157Y156811D01*
X27778Y157059D01*
X27923Y157200D01*
X28412Y157097D01*
X28488Y156908D01*
X28954Y156429D01*
X29569Y156165D01*
X30237Y156156D01*
X30859Y156404D01*
X31004Y156546D01*
X31493Y156442D01*
X31568Y156253D01*
X32035Y155774D01*
X32649Y155510D01*
X33318Y155501D01*
X33939Y155749D01*
X34085Y155891D01*
X34574Y155787D01*
X34649Y155598D01*
X35116Y155119D01*
X35730Y154855D01*
X36399Y154846D01*
X37020Y155094D01*
X37499Y155561D01*
X37763Y156175D01*
X37771Y156762D01*
X37786Y156858D01*
X38161Y157219D01*
X38512Y157215D01*
X39134Y157463D01*
X39279Y157604D01*
X39768Y157500D01*
X39843Y157312D01*
X40310Y156833D01*
X40924Y156569D01*
X41593Y156560D01*
X42214Y156808D01*
X42693Y157274D01*
X42957Y157889D01*
X42966Y158557D01*
X42718Y159179D01*
X42252Y159658D01*
X41637Y159922D01*
X40968Y159931D01*
X40347Y159683D01*
X40202Y159541D01*
X39713Y159645D01*
X39638Y159834D01*
X39171Y160313D01*
X38556Y160577D01*
X37888Y160585D01*
X37266Y160337D01*
X37121Y160196D01*
X36632Y160300D01*
X36557Y160488D01*
X36090Y160967D01*
X35476Y161231D01*
X34807Y161240D01*
X34186Y160992D01*
X33707Y160526D01*
X33443Y159911D01*
X33435Y159324D01*
X33420Y159229D01*
X33045Y158867D01*
X32693Y158872D01*
X32072Y158624D01*
X31927Y158482D01*
X31438Y158586D01*
X31363Y158775D01*
X30896Y159254D01*
X30573Y159393D01*
X30378Y159876D01*
X30402Y159969D01*
X30634Y160508D01*
X30643Y161177D01*
X30395Y161798D01*
X29928Y162277D01*
X29314Y162541D01*
X28645Y162550D01*
X28024Y162302D01*
X27879Y162160D01*
X27390Y162264D01*
X27314Y162453D01*
X26848Y162932D01*
X26233Y163196D01*
X25565Y163205D01*
X24943Y162957D01*
X24798Y162815D01*
X24309Y162919D01*
X24234Y163108D01*
X23767Y163587D01*
X23153Y163851D01*
X22484Y163859D01*
D02*
G37*
G36*
X-5700Y189714D02*
X-6356Y189584D01*
X-6912Y189212D01*
X-7284Y188656D01*
X-7414Y188000D01*
X-7284Y187344D01*
X-6928Y186811D01*
X-6915Y186779D01*
X-6825Y186687D01*
X-6755Y186607D01*
X-6697Y186532D01*
X-6649Y186461D01*
X-6612Y186396D01*
X-6584Y186337D01*
X-6564Y186283D01*
X-6551Y186234D01*
X-6544Y186190D01*
X-6540Y186120D01*
X-6516Y186068D01*
Y181711D01*
X-6528Y181694D01*
X-6518Y181639D01*
X-6541Y181588D01*
X-6543Y181521D01*
X-6558Y181366D01*
X-6567Y181302D01*
X-6703Y180743D01*
X-6741Y180622D01*
X-6740Y180615D01*
X-6745Y180609D01*
X-6733Y180507D01*
X-6814Y180100D01*
X-6684Y179444D01*
X-6312Y178888D01*
X-5756Y178516D01*
X-5100Y178386D01*
X-4444Y178516D01*
X-3888Y178888D01*
X-3516Y179444D01*
X-3386Y180100D01*
X-3516Y180756D01*
X-3888Y181312D01*
X-4444Y181684D01*
X-4599Y181714D01*
X-4662Y181765D01*
X-4745Y181790D01*
X-4788Y181808D01*
X-4815Y181823D01*
X-4829Y181834D01*
X-4836Y181841D01*
X-4840Y181846D01*
X-4844Y181855D01*
X-4850Y181874D01*
X-4856Y181905D01*
X-4860Y181980D01*
X-4884Y182032D01*
Y186068D01*
X-4860Y186120D01*
X-4856Y186190D01*
X-4849Y186234D01*
X-4836Y186283D01*
X-4816Y186337D01*
X-4788Y186396D01*
X-4751Y186461D01*
X-4703Y186532D01*
X-4645Y186607D01*
X-4575Y186687D01*
X-4485Y186779D01*
X-4472Y186811D01*
X-4116Y187344D01*
X-3986Y188000D01*
X-4116Y188656D01*
X-4488Y189212D01*
X-5044Y189584D01*
X-5700Y189714D01*
D02*
G37*
G36*
X-0Y169829D02*
X-1932Y169677D01*
X-3816Y169225D01*
X-5606Y168483D01*
X-7259Y167471D01*
X-8732Y166212D01*
X-9991Y164739D01*
X-11003Y163087D01*
X-11745Y161296D01*
X-12197Y159412D01*
X-12213Y159206D01*
X-12232Y159180D01*
X-12254Y159088D01*
X-12267Y159060D01*
X-12289Y159033D01*
X-12332Y158997D01*
X-12407Y158954D01*
X-12521Y158909D01*
X-12674Y158868D01*
X-12866Y158836D01*
X-13095Y158816D01*
X-13374Y158809D01*
X-13409Y158793D01*
X-26691D01*
X-26733Y158809D01*
X-26756Y158798D01*
X-26781Y158805D01*
X-26872Y158793D01*
X-28020D01*
X-28458Y158706D01*
X-28500Y158714D01*
X-29156Y158584D01*
X-29712Y158212D01*
X-30084Y157656D01*
X-30214Y157000D01*
X-30084Y156344D01*
X-29712Y155788D01*
X-29156Y155416D01*
X-28500Y155286D01*
X-27844Y155416D01*
X-27288Y155788D01*
X-27058Y156132D01*
X-26766Y156151D01*
X-26647Y156152D01*
X-26638Y156155D01*
X-26630Y156152D01*
X-26596Y156168D01*
X-13409D01*
X-13374Y156152D01*
X-13095Y156144D01*
X-12866Y156124D01*
X-12674Y156092D01*
X-12521Y156052D01*
X-12407Y156007D01*
X-12332Y155964D01*
X-12289Y155928D01*
X-12267Y155900D01*
X-12254Y155873D01*
X-12232Y155780D01*
X-12213Y155754D01*
X-12197Y155549D01*
X-11745Y153664D01*
X-11003Y151874D01*
X-9991Y150222D01*
X-8732Y148748D01*
X-7259Y147490D01*
X-5606Y146477D01*
X-3816Y145736D01*
X-1932Y145283D01*
X-0Y145131D01*
X1932Y145283D01*
X3816Y145736D01*
X4997Y146225D01*
X5006Y146222D01*
X5069Y146255D01*
X5073Y146256D01*
X5146Y146253D01*
X5610Y146423D01*
X6042Y146503D01*
X6492Y146509D01*
X6966Y146439D01*
X7468Y146289D01*
X7999Y146054D01*
X8557Y145731D01*
X9141Y145318D01*
X9749Y144815D01*
X10390Y144209D01*
X10406Y144203D01*
X10414Y144188D01*
X10441Y144179D01*
X41660Y112960D01*
X42287Y112479D01*
X43017Y112177D01*
X43800Y112074D01*
X44583Y112177D01*
X45313Y112479D01*
X45940Y112960D01*
X46420Y113587D01*
X46723Y114317D01*
X46826Y115100D01*
X46723Y115883D01*
X46420Y116613D01*
X45940Y117240D01*
X14395Y148784D01*
X14381Y148819D01*
X13772Y149461D01*
X13255Y150076D01*
X12819Y150672D01*
X12465Y151248D01*
X12190Y151802D01*
X11993Y152335D01*
X11871Y152845D01*
X11821Y153334D01*
X11840Y153807D01*
X11936Y154306D01*
X11920Y154381D01*
X11944Y154454D01*
X11937Y154466D01*
X12197Y155549D01*
X12349Y157480D01*
X12197Y159412D01*
X11745Y161296D01*
X11003Y163087D01*
X9991Y164739D01*
X8732Y166212D01*
X7259Y167471D01*
X5606Y168483D01*
X3816Y169225D01*
X1932Y169677D01*
X-0Y169829D01*
D02*
G37*
G36*
X-132949Y142880D02*
X-133843Y142714D01*
X-134663Y142323D01*
X-135355Y141732D01*
X-135870Y140983D01*
X-136173Y140126D01*
X-136244Y139220D01*
X-136079Y138326D01*
X-135687Y137505D01*
X-135097Y136814D01*
X-130416Y132599D01*
X-129666Y132084D01*
X-128809Y131780D01*
X-127903Y131709D01*
X-127009Y131875D01*
X-126189Y132266D01*
X-125497Y132857D01*
X-124983Y133606D01*
X-124679Y134463D01*
X-124608Y135369D01*
X-124773Y136263D01*
X-125165Y137084D01*
X-125755Y137775D01*
X-130436Y141990D01*
X-131186Y142505D01*
X-132043Y142808D01*
X-132949Y142880D01*
D02*
G37*
G36*
X-69800Y158714D02*
X-70456Y158584D01*
X-71012Y158212D01*
X-71384Y157656D01*
X-71408Y157532D01*
X-111032Y117908D01*
X-111156Y117884D01*
X-111712Y117512D01*
X-112084Y116956D01*
X-112214Y116300D01*
X-112084Y115644D01*
X-111712Y115088D01*
X-111156Y114716D01*
X-110500Y114586D01*
X-109844Y114716D01*
X-109288Y115088D01*
X-108916Y115644D01*
X-108892Y115768D01*
X-81549Y143111D01*
X-81065Y142888D01*
X-81150Y141807D01*
X-80899Y140454D01*
X-80307Y139212D01*
X-79414Y138166D01*
X-78280Y137387D01*
X-76983Y136928D01*
X-75612Y136820D01*
X-74259Y137071D01*
X-73018Y137663D01*
X-71972Y138556D01*
X-71193Y139690D01*
X-70733Y140987D01*
X-70626Y142358D01*
X-70876Y143711D01*
X-71468Y144952D01*
X-72362Y145998D01*
X-73496Y146778D01*
X-74792Y147237D01*
X-76164Y147345D01*
X-76709Y147244D01*
X-76953Y147707D01*
X-69268Y155392D01*
X-69144Y155416D01*
X-68588Y155788D01*
X-68216Y156344D01*
X-68086Y157000D01*
X-68216Y157656D01*
X-68588Y158212D01*
X-69144Y158584D01*
X-69800Y158714D01*
D02*
G37*
G36*
X44797Y154280D02*
X44597Y154240D01*
X44393Y154243D01*
X44177Y154157D01*
X43949Y154111D01*
X43779Y153998D01*
X43590Y153922D01*
X43424Y153760D01*
X43230Y153631D01*
X43117Y153461D01*
X42971Y153319D01*
X42879Y153105D01*
X42750Y152912D01*
X42710Y152712D01*
X42630Y152525D01*
X42627Y152292D01*
X42581Y152064D01*
X42621Y151864D01*
X42618Y151660D01*
X42704Y151444D01*
X42750Y151216D01*
X42863Y151047D01*
X42939Y150857D01*
X43101Y150691D01*
X43230Y150497D01*
X43400Y150384D01*
X43542Y150238D01*
X43756Y150146D01*
X43949Y150017D01*
X44149Y149977D01*
X44336Y149897D01*
X44569Y149894D01*
X44797Y149848D01*
X44997Y149888D01*
X45201Y149885D01*
X45417Y149972D01*
X45645Y150017D01*
X45814Y150130D01*
X46004Y150206D01*
X46170Y150368D01*
X46364Y150497D01*
X46477Y150667D01*
X46623Y150809D01*
X46715Y151023D01*
X46844Y151216D01*
X46884Y151416D01*
X46964Y151603D01*
X46967Y151836D01*
X47013Y152064D01*
X46973Y152264D01*
X46976Y152468D01*
X46889Y152684D01*
X46844Y152912D01*
X46731Y153082D01*
X46655Y153271D01*
X46493Y153437D01*
X46364Y153631D01*
X46194Y153744D01*
X46052Y153890D01*
X45838Y153982D01*
X45645Y154111D01*
X45445Y154151D01*
X45258Y154232D01*
X45025Y154235D01*
X44797Y154280D01*
D02*
G37*
G36*
X30500Y150714D02*
X29844Y150584D01*
X29288Y150212D01*
X28916Y149656D01*
X28786Y149000D01*
X28916Y148344D01*
X29272Y147811D01*
X29285Y147779D01*
X29375Y147687D01*
X29445Y147607D01*
X29503Y147532D01*
X29551Y147461D01*
X29588Y147396D01*
X29616Y147336D01*
X29636Y147283D01*
X29648Y147236D01*
X27096Y144684D01*
X27040Y144664D01*
X26994Y144622D01*
X26953Y144590D01*
X26905Y144557D01*
X26745Y144467D01*
X26665Y144429D01*
X26298Y144282D01*
X26160Y144235D01*
X26160D01*
X26160Y144235D01*
X26159Y144235D01*
X26117Y144198D01*
X26044Y144184D01*
X25488Y143812D01*
X25116Y143256D01*
X24986Y142600D01*
X25116Y141944D01*
X25488Y141388D01*
X26044Y141016D01*
X26700Y140886D01*
X27356Y141016D01*
X27912Y141388D01*
X28284Y141944D01*
X28414Y142600D01*
X28324Y143055D01*
X28332Y143148D01*
X28302Y143248D01*
X28287Y143317D01*
X28280Y143376D01*
X28279Y143423D01*
X28283Y143461D01*
X28290Y143492D01*
X28300Y143519D01*
X28314Y143546D01*
X28334Y143575D01*
X28383Y143629D01*
X28402Y143683D01*
X31077Y146358D01*
X31077Y146358D01*
X31254Y146623D01*
X31316Y146935D01*
Y147068D01*
X31340Y147120D01*
X31344Y147190D01*
X31351Y147234D01*
X31364Y147283D01*
X31384Y147336D01*
X31412Y147396D01*
X31449Y147461D01*
X31497Y147532D01*
X31555Y147607D01*
X31625Y147687D01*
X31715Y147779D01*
X31728Y147811D01*
X32084Y148344D01*
X32214Y149000D01*
X32084Y149656D01*
X31712Y150212D01*
X31156Y150584D01*
X30500Y150714D01*
D02*
G37*
G36*
X-171522Y90405D02*
X-172402Y90178D01*
X-173193Y89730D01*
X-173842Y89093D01*
X-174303Y88310D01*
X-174546Y87434D01*
X-174554Y86524D01*
X-174327Y85644D01*
X-173879Y84853D01*
X-173242Y84205D01*
X-172458Y83743D01*
X-166660Y81282D01*
X-165784Y81039D01*
X-164875Y81031D01*
X-163995Y81259D01*
X-163203Y81706D01*
X-162555Y82344D01*
X-162093Y83127D01*
X-161850Y84003D01*
X-161843Y84912D01*
X-162070Y85792D01*
X-162518Y86584D01*
X-163155Y87232D01*
X-163938Y87693D01*
X-169737Y90155D01*
X-170613Y90398D01*
X-171522Y90405D01*
D02*
G37*
G36*
X-137500Y110714D02*
X-138156Y110584D01*
X-138712Y110212D01*
X-139084Y109656D01*
X-139214Y109000D01*
X-139084Y108344D01*
X-138823Y107955D01*
X-138793Y107509D01*
X-151710Y94592D01*
X-151750Y94576D01*
X-151926Y94404D01*
X-152061Y94281D01*
X-152156Y94203D01*
X-152170Y94193D01*
X-152170Y94193D01*
X-152170Y94193D01*
X-152173Y94191D01*
X-152176Y94189D01*
X-152643Y94096D01*
X-153199Y93725D01*
X-153571Y93168D01*
X-153701Y92513D01*
X-153571Y91857D01*
X-153199Y91301D01*
X-152643Y90929D01*
X-151987Y90798D01*
X-151331Y90929D01*
X-150775Y91301D01*
X-150404Y91857D01*
X-150312Y92316D01*
X-150008Y92664D01*
X-149926Y92748D01*
X-149910Y92788D01*
X-136599Y106099D01*
X-136322Y106512D01*
X-136225Y107000D01*
Y107334D01*
X-136209Y107372D01*
X-136206Y107619D01*
X-136198Y107802D01*
X-136186Y107924D01*
X-136183Y107940D01*
X-136183Y107941D01*
Y107941D01*
X-136182Y107945D01*
X-136181Y107948D01*
X-135916Y108344D01*
X-135786Y109000D01*
X-135916Y109656D01*
X-136288Y110212D01*
X-136844Y110584D01*
X-137500Y110714D01*
D02*
G37*
G36*
X-165728Y101397D02*
X-166629Y101278D01*
X-167469Y100931D01*
X-168190Y100377D01*
X-168744Y99656D01*
X-169091Y98816D01*
X-169210Y97915D01*
X-169091Y97013D01*
X-168744Y96173D01*
X-168190Y95452D01*
X-167469Y94899D01*
X-162014Y91749D01*
X-161174Y91401D01*
X-160272Y91282D01*
X-159371Y91401D01*
X-158531Y91749D01*
X-157810Y92303D01*
X-157256Y93024D01*
X-156908Y93864D01*
X-156790Y94765D01*
X-156908Y95666D01*
X-157256Y96506D01*
X-157810Y97228D01*
X-158531Y97781D01*
X-163986Y100931D01*
X-164826Y101278D01*
X-165728Y101397D01*
D02*
G37*
G36*
X-186388Y49069D02*
X-186556Y49036D01*
X-186727Y49044D01*
X-186991Y48950D01*
X-187266Y48895D01*
X-187408Y48800D01*
X-187569Y48742D01*
X-187777Y48553D01*
X-188010Y48398D01*
X-188105Y48255D01*
X-188232Y48140D01*
X-188351Y47886D01*
X-188507Y47653D01*
X-188540Y47485D01*
X-188614Y47330D01*
X-188627Y47050D01*
X-188682Y46775D01*
X-188648Y46608D01*
X-188656Y46436D01*
X-188562Y46172D01*
X-188507Y45898D01*
X-188412Y45755D01*
X-188354Y45594D01*
X-188165Y45386D01*
X-188010Y45153D01*
X-187867Y45058D01*
X-187752Y44931D01*
X-187499Y44812D01*
X-187266Y44656D01*
X-187098Y44623D01*
X-186943Y44550D01*
X-186663Y44536D01*
X-186388Y44481D01*
X-186220Y44515D01*
X-186048Y44507D01*
X-185785Y44601D01*
X-185510Y44656D01*
X-185367Y44751D01*
X-185206Y44809D01*
X-184999Y44998D01*
X-184766Y45153D01*
X-184670Y45296D01*
X-184544Y45411D01*
X-184424Y45665D01*
X-184268Y45898D01*
X-184235Y46066D01*
X-184162Y46220D01*
X-184148Y46501D01*
X-184093Y46775D01*
X-184127Y46944D01*
X-184119Y47115D01*
X-184213Y47378D01*
X-184268Y47653D01*
X-184363Y47796D01*
X-184421Y47957D01*
X-184610Y48164D01*
X-184766Y48398D01*
X-184908Y48493D01*
X-185023Y48620D01*
X-185277Y48739D01*
X-185510Y48895D01*
X-185678Y48928D01*
X-185833Y49001D01*
X-186113Y49015D01*
X-186388Y49069D01*
D02*
G37*
G36*
X-175429Y81200D02*
X-176309Y80973D01*
X-177101Y80525D01*
X-177749Y79888D01*
X-178210Y79105D01*
X-178454Y78228D01*
X-178461Y77319D01*
X-178234Y76439D01*
X-177786Y75648D01*
X-177149Y74999D01*
X-176366Y74538D01*
X-170567Y72077D01*
X-169691Y71834D01*
X-168782Y71826D01*
X-167902Y72053D01*
X-167111Y72501D01*
X-166462Y73138D01*
X-166001Y73922D01*
X-165758Y74798D01*
X-165750Y75707D01*
X-165977Y76587D01*
X-166425Y77378D01*
X-167062Y78027D01*
X-167846Y78488D01*
X-173644Y80949D01*
X-174520Y81192D01*
X-175429Y81200D01*
D02*
G37*
G36*
X-131000Y79041D02*
X-155500D01*
X-155883Y78883D01*
X-156041Y78500D01*
Y59261D01*
X-157031Y58655D01*
X-158505Y57396D01*
X-159763Y55923D01*
X-160776Y54270D01*
X-161517Y52480D01*
X-161970Y50596D01*
X-162122Y48664D01*
X-161970Y46732D01*
X-161517Y44848D01*
X-160776Y43058D01*
X-159763Y41405D01*
X-158505Y39932D01*
X-157031Y38673D01*
X-155379Y37661D01*
X-153589Y36919D01*
X-151705Y36467D01*
X-149773Y36315D01*
X-147841Y36467D01*
X-145957Y36919D01*
X-144166Y37661D01*
X-142514Y38673D01*
X-141041Y39932D01*
X-139782Y41405D01*
X-138770Y43058D01*
X-138028Y44848D01*
X-137576Y46732D01*
X-137424Y48664D01*
X-137576Y50596D01*
X-138028Y52480D01*
X-138770Y54270D01*
X-139782Y55923D01*
X-141041Y57396D01*
X-142514Y58655D01*
X-142959Y58927D01*
Y62959D01*
X-131000D01*
X-130617Y63117D01*
X-130459Y63500D01*
Y78500D01*
X-130617Y78883D01*
X-131000Y79041D01*
D02*
G37*
G36*
X35600Y83214D02*
X34944Y83084D01*
X34388Y82712D01*
X34016Y82156D01*
X33886Y81500D01*
X33903Y81415D01*
X33661Y81141D01*
X33578Y81056D01*
X33562Y81018D01*
X21668Y69124D01*
X21629Y69108D01*
X21538Y69017D01*
X21259Y68751D01*
X21214Y68712D01*
X20788Y68628D01*
X20232Y68256D01*
X19861Y67700D01*
X19730Y67044D01*
X19861Y66388D01*
X20232Y65832D01*
X20788Y65461D01*
X21444Y65330D01*
X22100Y65461D01*
X22656Y65832D01*
X23028Y66388D01*
X23106Y66781D01*
X23527Y67249D01*
X23539Y67282D01*
X35722Y79466D01*
X35763Y79485D01*
X35956Y79700D01*
X36152Y79896D01*
X36256Y79916D01*
X36812Y80288D01*
X37184Y80844D01*
X37314Y81500D01*
X37184Y82156D01*
X36812Y82712D01*
X36256Y83084D01*
X35600Y83214D01*
D02*
G37*
G36*
X75643Y145635D02*
X74207Y145446D01*
X72869Y144892D01*
X71720Y144010D01*
X70838Y142861D01*
X70284Y141523D01*
X70095Y140088D01*
Y113586D01*
X69651Y113429D01*
X68518Y112650D01*
X68391Y112502D01*
X22382Y94378D01*
X-515D01*
X-558Y94442D01*
X-1220Y94884D01*
X-2000Y95039D01*
X-2780Y94884D01*
X-3442Y94442D01*
X-3858D01*
X-4520Y94884D01*
X-5300Y95039D01*
X-6080Y94884D01*
X-6742Y94442D01*
X-6784Y94378D01*
X-6800D01*
X-7183Y94220D01*
X-7341Y93837D01*
Y84900D01*
X-7183Y84517D01*
X-6800Y84359D01*
X-2590D01*
X-2582Y84342D01*
X-2563Y84283D01*
X-2547Y84206D01*
X-2536Y84112D01*
X-2531Y83981D01*
X-2512Y83938D01*
Y78000D01*
X-2512Y78000D01*
X-2427Y77574D01*
X-2186Y77214D01*
X645Y74383D01*
X661Y74339D01*
X815Y74172D01*
X864Y74112D01*
X905Y74054D01*
X936Y74005D01*
X958Y73965D01*
X970Y73936D01*
X976Y73918D01*
X977Y73912D01*
X979Y73880D01*
X998Y73840D01*
X1116Y73244D01*
X1488Y72688D01*
X2044Y72316D01*
X2700Y72186D01*
X3356Y72316D01*
X3912Y72688D01*
X4284Y73244D01*
X4414Y73900D01*
X4284Y74556D01*
X3912Y75112D01*
X3356Y75484D01*
X2760Y75602D01*
X2720Y75621D01*
X2688Y75623D01*
X2682Y75624D01*
X2664Y75630D01*
X2635Y75642D01*
X2595Y75664D01*
X2545Y75695D01*
X2493Y75732D01*
X2348Y75855D01*
X2269Y75932D01*
X2223Y75950D01*
X-288Y78461D01*
Y84359D01*
X23500D01*
X23635Y84415D01*
X23753Y84413D01*
X72229Y103508D01*
X73139Y103580D01*
X74436Y104039D01*
X75569Y104818D01*
X75577Y104827D01*
X82011Y107361D01*
X91683D01*
X93119Y107550D01*
X94457Y108104D01*
X95606Y108986D01*
X96488Y110135D01*
X97042Y111473D01*
X97231Y112909D01*
X97042Y114344D01*
X96488Y115682D01*
X95606Y116831D01*
X94457Y117713D01*
X93119Y118267D01*
X91683Y118456D01*
X81190D01*
Y140088D01*
X81001Y141523D01*
X80447Y142861D01*
X79565Y144010D01*
X78416Y144892D01*
X77078Y145446D01*
X75643Y145635D01*
D02*
G37*
G36*
X-183244Y62790D02*
X-184124Y62563D01*
X-184915Y62115D01*
X-185564Y61478D01*
X-186025Y60694D01*
X-186268Y59818D01*
X-186276Y58909D01*
X-186048Y58029D01*
X-185601Y57238D01*
X-184964Y56589D01*
X-184180Y56128D01*
X-178382Y53667D01*
X-177506Y53424D01*
X-176597Y53416D01*
X-175716Y53643D01*
X-174925Y54091D01*
X-174277Y54728D01*
X-173815Y55512D01*
X-173572Y56388D01*
X-173564Y57297D01*
X-173792Y58177D01*
X-174240Y58968D01*
X-174877Y59617D01*
X-175660Y60078D01*
X-181459Y62539D01*
X-182335Y62782D01*
X-183244Y62790D01*
D02*
G37*
G36*
X-22244Y117214D02*
X-22900Y117084D01*
X-23456Y116712D01*
X-23828Y116156D01*
X-23951Y115535D01*
X-23966Y115501D01*
X-23968Y115403D01*
X-23976Y115329D01*
X-23987Y115261D01*
X-24003Y115198D01*
X-24024Y115139D01*
X-24048Y115084D01*
X-24077Y115031D01*
X-24111Y114979D01*
X-24151Y114928D01*
X-24211Y114864D01*
X-24230Y114812D01*
X-26812Y112230D01*
X-26864Y112211D01*
X-26929Y112151D01*
X-26979Y112111D01*
X-27031Y112077D01*
X-27084Y112048D01*
X-27139Y112024D01*
X-27198Y112003D01*
X-27261Y111987D01*
X-27329Y111976D01*
X-27403Y111969D01*
X-27501Y111966D01*
X-27535Y111951D01*
X-28156Y111828D01*
X-28712Y111456D01*
X-29084Y110900D01*
X-29214Y110244D01*
X-29084Y109588D01*
X-28712Y109032D01*
X-28156Y108660D01*
X-27500Y108530D01*
X-26844Y108660D01*
X-26288Y109032D01*
X-25916Y109588D01*
X-25793Y110209D01*
X-25778Y110243D01*
X-25776Y110341D01*
X-25769Y110415D01*
X-25757Y110483D01*
X-25741Y110546D01*
X-25721Y110605D01*
X-25696Y110661D01*
X-25667Y110714D01*
X-25633Y110765D01*
X-25593Y110816D01*
X-25533Y110881D01*
X-25514Y110933D01*
X-22932Y113514D01*
X-22881Y113533D01*
X-22816Y113593D01*
X-22765Y113633D01*
X-22714Y113667D01*
X-22660Y113696D01*
X-22605Y113721D01*
X-22546Y113741D01*
X-22483Y113757D01*
X-22415Y113768D01*
X-22341Y113776D01*
X-22243Y113778D01*
X-22209Y113793D01*
X-21588Y113916D01*
X-21032Y114288D01*
X-20661Y114844D01*
X-20530Y115500D01*
X-20661Y116156D01*
X-21032Y116712D01*
X-21588Y117084D01*
X-22244Y117214D01*
D02*
G37*
G36*
X-72564Y115991D02*
X-73917Y115740D01*
X-75159Y115148D01*
X-76205Y114255D01*
X-76984Y113121D01*
X-77443Y111824D01*
X-77551Y110453D01*
X-77300Y109100D01*
X-76708Y107859D01*
X-75814Y106813D01*
X-74681Y106034D01*
X-73384Y105575D01*
X-72013Y105466D01*
X-70660Y105717D01*
X-69419Y106309D01*
X-68373Y107203D01*
X-67593Y108336D01*
X-67134Y109633D01*
X-67026Y111005D01*
X-67277Y112357D01*
X-67869Y113599D01*
X-68763Y114645D01*
X-69896Y115424D01*
X-71193Y115883D01*
X-72564Y115991D01*
D02*
G37*
G36*
X-92204Y120166D02*
X-93557Y119915D01*
X-94798Y119323D01*
X-95845Y118429D01*
X-96624Y117296D01*
X-97083Y115999D01*
X-97191Y114628D01*
X-96940Y113275D01*
X-96348Y112033D01*
X-95454Y110987D01*
X-94321Y110208D01*
X-93024Y109749D01*
X-91653Y109641D01*
X-90300Y109892D01*
X-89059Y110484D01*
X-88012Y111377D01*
X-87233Y112511D01*
X-86774Y113808D01*
X-86666Y115179D01*
X-86917Y116532D01*
X-87509Y117773D01*
X-88402Y118819D01*
X-89536Y119599D01*
X-90833Y120058D01*
X-92204Y120166D01*
D02*
G37*
G36*
X-160728Y110057D02*
X-161629Y109939D01*
X-162469Y109591D01*
X-163190Y109037D01*
X-163744Y108316D01*
X-164092Y107476D01*
X-164210Y106575D01*
X-164092Y105674D01*
X-163744Y104833D01*
X-163190Y104112D01*
X-162469Y103559D01*
X-157014Y100409D01*
X-156174Y100061D01*
X-155272Y99943D01*
X-154371Y100061D01*
X-153531Y100409D01*
X-152810Y100963D01*
X-152256Y101684D01*
X-151909Y102524D01*
X-151790Y103425D01*
X-151909Y104326D01*
X-152256Y105166D01*
X-152810Y105888D01*
X-153531Y106441D01*
X-158986Y109591D01*
X-159826Y109939D01*
X-160728Y110057D01*
D02*
G37*
%LPD*%
G36*
X-4973Y187054D02*
X-5063Y186951D01*
X-5142Y186849D01*
X-5210Y186748D01*
X-5268Y186646D01*
X-5316Y186546D01*
X-5353Y186446D01*
X-5379Y186346D01*
X-5395Y186248D01*
X-5400Y186149D01*
X-6000D01*
X-6005Y186248D01*
X-6021Y186346D01*
X-6047Y186446D01*
X-6084Y186546D01*
X-6132Y186646D01*
X-6190Y186748D01*
X-6258Y186849D01*
X-6337Y186951D01*
X-6427Y187054D01*
X-6527Y187156D01*
X-4873D01*
X-4973Y187054D01*
D02*
G37*
G36*
X-5394Y181843D02*
X-5377Y181744D01*
X-5347Y181652D01*
X-5307Y181570D01*
X-5254Y181495D01*
X-5190Y181429D01*
X-5114Y181371D01*
X-5026Y181321D01*
X-4927Y181280D01*
X-4816Y181246D01*
X-6224Y180462D01*
X-6182Y180598D01*
X-6036Y181197D01*
X-6020Y181300D01*
X-6002Y181488D01*
X-6000Y181573D01*
X-5400Y181951D01*
X-5394Y181843D01*
D02*
G37*
G36*
X-1767Y155711D02*
X-2000Y155898D01*
X-2305Y156065D01*
X-2684Y156212D01*
X-3135Y156340D01*
X-3660Y156448D01*
X-4257Y156536D01*
X-5669Y156654D01*
X-7373Y156693D01*
Y158268D01*
X-6485Y158277D01*
X-4257Y158425D01*
X-3660Y158513D01*
X-3135Y158621D01*
X-2684Y158749D01*
X-2305Y158896D01*
X-2000Y159063D01*
X-1767Y159249D01*
Y155711D01*
D02*
G37*
G36*
X-26651Y156693D02*
X-26785Y156692D01*
X-27188Y156667D01*
X-27256Y156655D01*
X-27310Y156641D01*
X-27351Y156626D01*
X-27379Y156608D01*
X-27393Y156588D01*
X-28059Y158096D01*
X-26712Y158268D01*
X-26651Y156693D01*
D02*
G37*
G36*
X-11706Y155905D02*
X-11741Y156055D01*
X-11806Y156189D01*
X-11899Y156307D01*
X-12021Y156409D01*
X-12172Y156496D01*
X-12352Y156567D01*
X-12561Y156622D01*
X-12798Y156661D01*
X-13064Y156685D01*
X-13360Y156693D01*
Y158268D01*
X-13064Y158276D01*
X-12798Y158299D01*
X-12561Y158339D01*
X-12352Y158394D01*
X-12172Y158465D01*
X-12021Y158551D01*
X-11899Y158653D01*
X-11806Y158772D01*
X-11741Y158905D01*
X-11706Y159055D01*
Y155905D01*
D02*
G37*
G36*
X11301Y153869D02*
X11278Y153318D01*
X11336Y152754D01*
X11474Y152177D01*
X11692Y151587D01*
X11991Y150985D01*
X12370Y150370D01*
X12829Y149741D01*
X13369Y149100D01*
X13989Y148447D01*
X10762Y144603D01*
X10108Y145220D01*
X9470Y145748D01*
X8849Y146187D01*
X8244Y146537D01*
X7656Y146798D01*
X7084Y146969D01*
X6528Y147051D01*
X5989Y147044D01*
X5466Y146947D01*
X4960Y146761D01*
X11404Y154408D01*
X11301Y153869D01*
D02*
G37*
G36*
X31227Y148054D02*
X31137Y147951D01*
X31058Y147849D01*
X30990Y147748D01*
X30932Y147646D01*
X30884Y147546D01*
X30847Y147446D01*
X30821Y147346D01*
X30805Y147248D01*
X30800Y147149D01*
X30200D01*
X30195Y147248D01*
X30179Y147346D01*
X30153Y147446D01*
X30116Y147546D01*
X30068Y147646D01*
X30010Y147748D01*
X29942Y147849D01*
X29863Y147951D01*
X29773Y148054D01*
X29673Y148156D01*
X31327D01*
X31227Y148054D01*
D02*
G37*
G36*
X27979Y143990D02*
X27909Y143911D01*
X27851Y143828D01*
X27805Y143740D01*
X27770Y143647D01*
X27748Y143549D01*
X27738Y143447D01*
X27739Y143340D01*
X27752Y143228D01*
X27778Y143111D01*
X27815Y142989D01*
X26333Y143723D01*
X26486Y143774D01*
X26883Y143933D01*
X26995Y143987D01*
X27190Y144096D01*
X27272Y144152D01*
X27344Y144208D01*
X27405Y144264D01*
X27979Y143990D01*
D02*
G37*
G36*
X-150311Y93129D02*
X-150405Y93033D01*
X-150762Y92624D01*
X-150787Y92583D01*
X-150802Y92550D01*
X-150806Y92524D01*
X-151976Y93694D01*
X-151950Y93698D01*
X-151917Y93713D01*
X-151876Y93738D01*
X-151827Y93772D01*
X-151707Y93871D01*
X-151555Y94010D01*
X-151372Y94189D01*
X-150311Y93129D01*
D02*
G37*
G36*
X-136688Y108135D02*
X-136701Y108101D01*
X-136712Y108055D01*
X-136722Y107996D01*
X-136738Y107841D01*
X-136747Y107635D01*
X-136750Y107379D01*
X-138250D01*
X-138251Y107513D01*
X-138288Y108055D01*
X-138299Y108101D01*
X-138312Y108135D01*
X-138327Y108157D01*
X-136673D01*
X-136688Y108135D01*
D02*
G37*
G36*
X-131000Y63500D02*
X-143500D01*
Y56000D01*
X-155500D01*
Y56500D01*
Y78500D01*
X-131000D01*
Y63500D01*
D02*
G37*
G36*
X23124Y67611D02*
X22625Y67056D01*
X21456Y68225D01*
X21471Y68230D01*
X21496Y68245D01*
X21529Y68270D01*
X21622Y68350D01*
X21915Y68629D01*
X22011Y68725D01*
X23124Y67611D01*
D02*
G37*
G36*
X35800Y80336D02*
X35361Y79847D01*
X33963Y80676D01*
X34057Y80772D01*
X34373Y81131D01*
X34406Y81179D01*
X34427Y81219D01*
X34439Y81252D01*
X34440Y81276D01*
X35800Y80336D01*
D02*
G37*
G36*
X85922Y109483D02*
X23554Y84916D01*
X23500Y85054D01*
Y84900D01*
X-797D01*
X-809Y84588D01*
X-1991Y84000D01*
X-1996Y84152D01*
X-2012Y84293D01*
X-2039Y84422D01*
X-2077Y84540D01*
X-2126Y84645D01*
X-2186Y84739D01*
X-2257Y84821D01*
X-2338Y84892D01*
X-2351Y84900D01*
X-6800D01*
Y93837D01*
X22485D01*
X82736Y117571D01*
X85922Y109483D01*
D02*
G37*
G36*
X1985Y75454D02*
X2160Y75305D01*
X2243Y75245D01*
X2324Y75195D01*
X2402Y75153D01*
X2478Y75121D01*
X2551Y75098D01*
X2621Y75085D01*
X2688Y75081D01*
X1519Y73912D01*
X1515Y73979D01*
X1502Y74050D01*
X1479Y74122D01*
X1447Y74198D01*
X1405Y74276D01*
X1355Y74357D01*
X1295Y74440D01*
X1225Y74526D01*
X1058Y74707D01*
X1893Y75542D01*
X1985Y75454D01*
D02*
G37*
G36*
X-25930Y111248D02*
X-26005Y111167D01*
X-26072Y111082D01*
X-26131Y110993D01*
X-26182Y110900D01*
X-26225Y110803D01*
X-26260Y110702D01*
X-26287Y110596D01*
X-26305Y110487D01*
X-26316Y110373D01*
X-26319Y110256D01*
X-27488Y111425D01*
X-27371Y111428D01*
X-27257Y111439D01*
X-27148Y111458D01*
X-27043Y111484D01*
X-26941Y111519D01*
X-26844Y111562D01*
X-26751Y111613D01*
X-26662Y111672D01*
X-26577Y111739D01*
X-26496Y111814D01*
X-25930Y111248D01*
D02*
G37*
G36*
X-22256Y114319D02*
X-22373Y114316D01*
X-22487Y114305D01*
X-22596Y114286D01*
X-22702Y114260D01*
X-22803Y114225D01*
X-22900Y114182D01*
X-22993Y114131D01*
X-23082Y114072D01*
X-23167Y114005D01*
X-23248Y113930D01*
X-23814Y114496D01*
X-23739Y114577D01*
X-23672Y114662D01*
X-23613Y114751D01*
X-23562Y114844D01*
X-23519Y114941D01*
X-23484Y115043D01*
X-23458Y115148D01*
X-23439Y115257D01*
X-23428Y115371D01*
X-23425Y115488D01*
X-22256Y114319D01*
D02*
G37*
D54*
X24125Y116343D02*
X24179Y116396D01*
X-8157Y116343D02*
X24125D01*
X-8500Y116000D02*
X-8157Y116343D01*
D55*
X-85128Y-10872D02*
X-59000Y-37000D01*
X-66044Y56156D02*
X-64100Y58100D01*
X-66656Y56156D02*
X-66044D01*
X-78800Y41030D02*
Y44013D01*
X-80719Y40430D02*
Y44471D01*
X-78800Y44013D02*
X-66656Y56156D01*
X-67237Y57953D02*
X-66947D01*
X-80719Y44471D02*
X-67237Y57953D01*
X-66947D02*
X-66372Y58528D01*
X-64528Y60372D02*
X-63400Y61500D01*
X-65041Y60372D02*
X-64528D01*
X-66372Y59041D02*
X-65041Y60372D01*
X-66372Y58528D02*
Y59041D01*
X-82772Y39128D02*
X-82628Y38985D01*
X-80719Y40430D02*
X-80400Y40111D01*
Y38146D02*
Y40111D01*
X-80719Y37827D02*
X-80400Y38146D01*
X-80719Y9192D02*
Y37827D01*
X-78800Y41030D02*
X-78619Y40848D01*
Y37408D02*
Y40848D01*
X-78800Y37227D02*
X-78619Y37408D01*
X-78800Y9900D02*
Y37227D01*
X-87500Y-11900D02*
Y34500D01*
X-85143Y37257D02*
X-85128Y37242D01*
X-105200Y50000D02*
X-105100Y50100D01*
X-122481Y50000D02*
X-105200D01*
X-78300Y50200D02*
X-69473Y59027D01*
X-86400Y50200D02*
X-78300D01*
X71970Y-11000D02*
Y-10805D01*
X34581Y-11620D02*
Y-11562D01*
X52500Y-24800D02*
X52600Y-24700D01*
X52500Y-118500D02*
Y-24800D01*
X13520Y-157480D02*
X52500Y-118500D01*
X0Y-157480D02*
X13520D01*
X-63400Y61500D02*
Y64700D01*
X-51100Y71100D02*
X-49290Y69290D01*
X-63081Y71100D02*
X-51100D01*
X-66353Y74372D02*
X-63081Y71100D01*
X-64877Y77934D02*
X-63286Y76342D01*
X-75958Y77934D02*
X-64877D01*
X-63286Y76342D02*
X-50400D01*
X-65615Y76153D02*
X-63433Y73971D01*
X-75220Y76153D02*
X-65615D01*
X-63433Y73971D02*
X-43729D01*
X-74482Y74372D02*
X-66353D01*
X-66500Y72000D02*
X-57648Y63148D01*
Y52000D02*
Y63148D01*
X-87500Y-11900D02*
X-68000Y-31400D01*
X-85128Y-10872D02*
Y37242D01*
X-82772Y-9228D02*
Y35074D01*
X-182200Y22600D02*
X-175231Y29569D01*
X-191700Y22600D02*
X-182200D01*
X-175231Y29569D02*
X-142912D01*
X-186650Y31350D02*
X-143650D01*
X-103200Y71800D01*
X-142912Y29569D02*
X-122481Y50000D01*
X-103200Y71800D02*
X-77000D01*
X-191100Y33500D02*
Y37258D01*
X-193400Y31200D02*
X-191100Y33500D01*
X-193400Y24300D02*
Y31200D01*
Y24300D02*
X-191700Y22600D01*
X-26500Y26500D02*
X28000Y-28000D01*
X69665Y-8500D02*
X71970Y-10805D01*
Y-11000D02*
X75500D01*
X-80400Y-7500D02*
X-79800Y-8100D01*
X-80000Y-8300D02*
X-79800Y-8100D01*
X-48527Y-23000D02*
X-23000D01*
X-80000Y-8300D02*
X-57000Y-31300D01*
X-24000Y-14500D02*
Y-14000D01*
X-24500Y-13500D02*
X-24000Y-14000D01*
X-68000Y-40000D02*
Y-31400D01*
X-33628Y46372D02*
X-32500Y47500D01*
X-58000Y-34000D02*
X-55500D01*
X-59000Y-37000D02*
X-58500Y-36500D01*
X-27128Y24128D02*
X-15000Y12000D01*
X-27482Y24128D02*
X-27128D01*
X-28872Y25518D02*
X-27482Y24128D01*
X-28872Y25518D02*
Y27482D01*
X-27255Y29099D02*
Y32255D01*
X28000Y-117000D02*
Y-28000D01*
X-179920Y58103D02*
X-179317Y57500D01*
X-28872Y27482D02*
X-27255Y29099D01*
X-82772Y-9228D02*
X-58000Y-34000D01*
X-80719Y9192D02*
X-48527Y-23000D01*
X-78800Y9900D02*
X-60400Y-8500D01*
X-54367Y20000D02*
X-36788Y37580D01*
X-59000Y20000D02*
X-54367D01*
X-1400Y78000D02*
Y85800D01*
X-2000Y86400D02*
X-1400Y85800D01*
Y78000D02*
X2700Y73900D01*
X68000Y-17000D02*
X75500Y-24500D01*
X-30653Y24780D02*
X-28220Y22347D01*
X-27866D01*
X-24500Y-13500D02*
Y-9854D01*
X-24128Y-9482D01*
Y18609D01*
X-27866Y22347D02*
X-24128Y18609D01*
X-80400Y-7500D02*
Y5400D01*
X-500Y54500D02*
X3500Y58500D01*
X-32500Y47500D02*
X-31500D01*
X-33628Y41872D02*
X-33500Y42000D01*
X-33628D02*
X-33500D01*
X-33000Y52300D02*
X-31892D01*
X-32672Y54672D02*
X-31745D01*
X-46937Y48781D02*
X-41500Y54218D01*
X-54430Y48781D02*
X-46937D01*
X-33628Y41872D02*
Y42000D01*
Y46372D01*
X-30653Y24780D02*
Y35653D01*
X-37500Y42500D02*
X-30653Y35653D01*
X-143809Y122431D02*
X-95377Y74000D01*
X-137117Y129863D02*
X-83597Y76342D01*
X-73500Y72000D02*
X-66500D01*
X-43729Y73971D02*
X-43700Y74000D01*
X-95377D02*
X-77373D01*
X-75220Y76153D01*
X-83597Y76342D02*
X-77549D01*
X-75958Y77934D01*
X-77000Y71800D02*
Y71854D01*
X-74482Y74372D01*
X-57648Y52000D02*
X-54430Y48781D01*
X-35500Y104100D02*
Y121200D01*
X-21600Y73700D02*
Y90200D01*
X-35500Y104100D02*
X-21600Y90200D01*
X-33500Y75500D02*
X-33347Y75347D01*
X-35800Y72716D02*
X-35128Y72044D01*
Y57128D02*
X-32672Y54672D01*
X-35128Y57128D02*
Y72044D01*
X-37500Y42500D02*
Y70000D01*
X-82772Y35074D02*
X-82628Y35218D01*
Y38985D01*
X32800Y-15800D02*
Y-12300D01*
X33500Y-10481D02*
X34581Y-11562D01*
X32762Y-12262D02*
X32800Y-12300D01*
X56500Y-8500D02*
X69665D01*
X67800Y-17200D02*
X68000Y-17000D01*
X56300Y-17200D02*
X67800D01*
X-15000Y-105000D02*
Y12000D01*
X-21149Y-111149D02*
X-15000Y-105000D01*
X-21149Y-113286D02*
Y-111149D01*
X-60400Y-8500D02*
X-59900Y-8000D01*
X-30000D01*
X-33347Y58793D02*
Y75347D01*
X1128Y22338D02*
Y24318D01*
X-553Y21641D02*
Y23480D01*
X-2234Y20945D02*
Y22642D01*
Y20945D02*
X30973Y-12262D01*
X-553Y21641D02*
X31570Y-10481D01*
X1128Y22338D02*
X32166Y-8700D01*
X31570Y-10481D02*
X33500D01*
X30973Y-12262D02*
X32762D01*
X-8772Y32738D02*
Y34218D01*
Y32738D02*
X-6562Y30528D01*
X-5082D01*
X1128Y24318D01*
X-10453Y32041D02*
Y33380D01*
Y32041D02*
X-7259Y28847D01*
X-5920D01*
X-553Y23480D01*
X-12134Y31345D02*
Y32542D01*
Y31345D02*
X-7955Y27166D01*
X-6758D01*
X-2234Y22642D01*
X-31745Y54672D02*
X-10453Y33380D01*
X-31892Y52300D02*
X-12134Y32542D01*
X-33347Y58793D02*
X-8772Y34218D01*
X32800Y-15800D02*
X39500Y-22500D01*
X32166Y-8700D02*
X41000D01*
X34581Y-11620D02*
X39961Y-17000D01*
D56*
X-137500Y107000D02*
Y109000D01*
X-151987Y92513D02*
X-137500Y107000D01*
X-36000Y17500D02*
Y17797D01*
X-35649Y18149D01*
X-190919Y29500D02*
X-188631D01*
X-188629Y29502D01*
X-188498D01*
X-48552Y16669D02*
X-47072Y18149D01*
X-50648Y16669D02*
X-48552D01*
X-51448Y17469D02*
X-50648Y16669D01*
X-60369Y17469D02*
X-51448D01*
X-61800Y18900D02*
X-60369Y17469D01*
X-61800Y18900D02*
Y23700D01*
X-47072Y18149D02*
X-35649D01*
X-188498Y29502D02*
X-186650Y31350D01*
X108458Y25500D02*
X108658Y25700D01*
X144200D01*
X-186650Y31350D02*
X-175200Y42800D01*
Y46300D01*
X-168000Y53500D01*
X4900Y24100D02*
X9000Y28200D01*
X4900Y23900D02*
Y24100D01*
D57*
X53554Y-119554D02*
G03*
X53991Y-118500I-1054J1054D01*
G01*
X53554Y-119554D02*
G03*
X53991Y-118500I-1054J1054D01*
G01*
X30081Y-117000D02*
G03*
X29551Y-115613I-2081J0D01*
G01*
X26449D02*
G03*
X30081Y-117000I1551J-1387D01*
G01*
X37096Y-130804D02*
G03*
X38313Y-130579I0J3400D01*
G01*
X37096Y-130804D02*
G03*
X38313Y-130579I0J3400D01*
G01*
X13520Y-158971D02*
G03*
X14574Y-158534I0J1491D01*
G01*
X13520Y-158971D02*
G03*
X14574Y-158534I0J1491D01*
G01*
X12618Y-155946D02*
G03*
X12618Y-159014I-12618J-1534D01*
G01*
X-13946Y-106054D02*
G03*
X-13510Y-105000I-1054J1054D01*
G01*
X-13946Y-106054D02*
G03*
X-13510Y-105000I-1054J1054D01*
G01*
X-19068Y-113286D02*
G03*
X-19597Y-111899I-2081J0D01*
G01*
X-22700D02*
G03*
X-19068Y-113286I1551J-1387D01*
G01*
X-22203Y-110095D02*
G03*
X-22639Y-111149I1054J-1054D01*
G01*
X-22203Y-110095D02*
G03*
X-22639Y-111149I1054J-1054D01*
G01*
X-80317Y-124004D02*
G03*
X-102848Y-119933I-12248J-3400D01*
G01*
X-150058Y-127449D02*
G03*
X150142Y-127351I150058J127449D01*
G01*
X-102848Y-119933D02*
G03*
X-82281Y-134876I10283J-7471D01*
G01*
D02*
G03*
X-80317Y-130804I-10283J7471D01*
G01*
X60477Y-40400D02*
X68737Y-48659D01*
X57649Y-40400D02*
X70297Y-53048D01*
X54821Y-40400D02*
X71858Y-57437D01*
X63306Y-40400D02*
X67176Y-44270D01*
X53991Y-59171D02*
X67626Y-45536D01*
X53991Y-47857D02*
X61448Y-40400D01*
X53991Y-50686D02*
X64276Y-40400D01*
X53991Y-45029D02*
X58619Y-40400D01*
X53991Y-56343D02*
X66884Y-43449D01*
X53991Y-53514D02*
X66142Y-41363D01*
X53991Y-42398D02*
X73418Y-61826D01*
X65800Y-40400D02*
X73800Y-62900D01*
X53991Y-70485D02*
X70594Y-53882D01*
X53991Y-76142D02*
X72077Y-58055D01*
X53991Y-73313D02*
X71335Y-55968D01*
X53991Y-61999D02*
X68368Y-47622D01*
X53991Y-118500D02*
Y-40400D01*
Y-67656D02*
X69852Y-51795D01*
X53991Y-64828D02*
X69110Y-49709D01*
X40678Y-40400D02*
X44700Y-44422D01*
X35021Y-40400D02*
X44700Y-50078D01*
X32193Y-40400D02*
X44700Y-52907D01*
X53991Y-40400D02*
X65800D01*
X53991Y-42200D02*
X55791Y-40400D01*
X29491Y-58215D02*
X44700Y-43006D01*
X29491Y-40526D02*
X44700Y-55735D01*
X29491Y-61044D02*
X44700Y-45834D01*
X29491Y-43354D02*
X44700Y-58564D01*
X29491Y-69529D02*
X44700Y-54319D01*
X29491Y-54668D02*
X44700Y-69877D01*
X29491Y-51840D02*
X44700Y-67049D01*
X29491Y-57497D02*
X44700Y-72706D01*
X29491Y-72357D02*
X44700Y-57148D01*
X29491Y-63872D02*
X44700Y-48662D01*
X29491Y-46183D02*
X44700Y-61392D01*
X29491Y-66700D02*
X44700Y-51491D01*
X29491Y-49011D02*
X44700Y-64221D01*
X53991Y-93112D02*
X79441Y-67662D01*
X53991Y-95941D02*
X80974Y-68957D01*
X53991Y-90284D02*
X77907Y-66367D01*
X53991Y-101597D02*
X84042Y-71546D01*
X53991Y-98769D02*
X82508Y-70252D01*
X53991Y-81798D02*
X73561Y-62228D01*
X53991Y-78970D02*
X72819Y-60141D01*
X53991Y-87455D02*
X76373Y-65073D01*
X53991Y-84627D02*
X74840Y-63778D01*
X53991Y-110083D02*
X88643Y-75431D01*
X53991Y-112911D02*
X90176Y-76726D01*
X53991Y-107254D02*
X87109Y-74136D01*
X53991Y-115740D02*
X91710Y-78020D01*
X53989Y-118570D02*
X93244Y-79315D01*
X53991Y-104426D02*
X85575Y-72841D01*
X34412Y-124004D02*
X44700Y-113716D01*
X29491Y-65982D02*
X44700Y-81191D01*
X29491Y-83671D02*
X44700Y-68462D01*
X29491Y-80843D02*
X44700Y-65633D01*
X29491Y-86499D02*
X44700Y-71290D01*
X29491Y-68810D02*
X44700Y-84020D01*
X29491Y-60325D02*
X44700Y-75534D01*
X29491Y-75186D02*
X44700Y-59976D01*
X29491Y-63153D02*
X44700Y-78363D01*
X29491Y-78014D02*
X44700Y-62805D01*
X29491Y-109127D02*
X44700Y-93917D01*
X29491Y-94266D02*
X44700Y-109475D01*
X29491Y-91437D02*
X44700Y-106647D01*
X31584Y-124004D02*
X44700Y-110888D01*
X28755Y-124004D02*
X44700Y-108060D01*
X29491Y-103470D02*
X44700Y-88261D01*
X29491Y-71639D02*
X44700Y-86848D01*
X29491Y-106298D02*
X44700Y-91089D01*
X29491Y-88609D02*
X44700Y-103818D01*
X29491Y-40400D02*
X44700D01*
X29491Y-49730D02*
X38820Y-40400D01*
X29491Y-46901D02*
X35992Y-40400D01*
X43507D02*
X44700Y-41593D01*
X37850Y-40400D02*
X44700Y-47250D01*
X23708Y-40400D02*
X26509Y-43202D01*
X20879Y-40400D02*
X26509Y-46030D01*
X18051Y-40400D02*
X26509Y-48858D01*
X29491Y-44073D02*
X33163Y-40400D01*
X29491Y-41245D02*
X30335Y-40400D01*
X29491Y-55387D02*
X44477Y-40400D01*
X44700Y-114992D02*
Y-40400D01*
X29491Y-52558D02*
X41649Y-40400D01*
X29491Y-74467D02*
X44700Y-89676D01*
X29491Y-89328D02*
X44700Y-74118D01*
X26509Y-115162D02*
Y-40400D01*
X12394D02*
X26509Y-54515D01*
X29491Y-115171D02*
Y-40400D01*
X15223D02*
X26509Y-51687D01*
X3909Y-40400D02*
X26509Y-63001D01*
X1080Y-40400D02*
X26509Y-65829D01*
X-1748Y-40400D02*
X26509Y-68657D01*
X9566Y-40400D02*
X26509Y-57344D01*
X6737Y-40400D02*
X26509Y-60172D01*
X-13510Y-44646D02*
X-9263Y-40400D01*
X-13510Y-41818D02*
X-12091Y-40400D01*
X-13510Y-58789D02*
X4879Y-40400D01*
X-13510Y-47475D02*
X-6435Y-40400D01*
X-4577D02*
X26509Y-71486D01*
X-7405Y-40400D02*
X26509Y-74314D01*
X-10233Y-40400D02*
X26509Y-77143D01*
X-13061Y-40400D02*
X26509Y-79971D01*
X-13510Y-89901D02*
X26509Y-49883D01*
X-13510Y-75759D02*
X21850Y-40400D01*
X-13510Y-72931D02*
X19021Y-40400D01*
X-13510Y-92730D02*
X26509Y-52711D01*
X-13510Y-84245D02*
X26509Y-44226D01*
X29491Y-82952D02*
X44700Y-98162D01*
X29491Y-100642D02*
X44700Y-85432D01*
X29491Y-97813D02*
X44700Y-82604D01*
X29491Y-111955D02*
X44700Y-96746D01*
X29491Y-85780D02*
X44700Y-100990D01*
X29491Y-77295D02*
X44700Y-92505D01*
X29491Y-92156D02*
X44700Y-76947D01*
X29491Y-80124D02*
X44700Y-95333D01*
X29491Y-94985D02*
X44700Y-79775D01*
X29491Y-114784D02*
X44700Y-99574D01*
X29491Y-99923D02*
X44630Y-115062D01*
X29491Y-97094D02*
X44700Y-112304D01*
X35687Y-124004D02*
X44700Y-114992D01*
X30081Y-117022D02*
X44700Y-102403D01*
X29491Y-105579D02*
X41801Y-117890D01*
X29491Y-102751D02*
X43216Y-116476D01*
X30035Y-117437D02*
X36145Y-123547D01*
X29491Y-108408D02*
X40387Y-119305D01*
X29491Y-111236D02*
X38973Y-120719D01*
X25927Y-124004D02*
X44700Y-105231D01*
X29491Y-114065D02*
X37559Y-122133D01*
X28721Y-118952D02*
X33773Y-124004D01*
X17442D02*
X26509Y-114936D01*
X23099Y-124004D02*
X28022Y-119081D01*
X20270Y-124004D02*
X26211Y-118063D01*
X3300Y-124004D02*
X26509Y-100794D01*
X6128Y-124004D02*
X26509Y-103623D01*
X471Y-124004D02*
X26509Y-97966D01*
X11785Y-124004D02*
X26509Y-109280D01*
X8956Y-124004D02*
X26509Y-106451D01*
X-8014Y-124004D02*
X26509Y-89481D01*
X-10843Y-124004D02*
X26509Y-86652D01*
X-2357Y-124004D02*
X26509Y-95137D01*
X-5186Y-124004D02*
X26509Y-92309D01*
X73800Y-62900D02*
X150142Y-127351D01*
X78243Y-66651D02*
X144889Y-133297D01*
X53991Y-45227D02*
X143526Y-134763D01*
X114561Y-97312D02*
X147571Y-130322D01*
X96402Y-81982D02*
X146237Y-131816D01*
X53991Y-50884D02*
X140758Y-137651D01*
X53991Y-53712D02*
X139353Y-139074D01*
X53991Y-48055D02*
X142149Y-136214D01*
X53991Y-59369D02*
X136498Y-141877D01*
X53991Y-56541D02*
X137933Y-140483D01*
X53991Y-65026D02*
X133586Y-144622D01*
X53991Y-67854D02*
X132109Y-145973D01*
X53991Y-62197D02*
X135049Y-143256D01*
X53991Y-73511D02*
X129111Y-148631D01*
X53991Y-70683D02*
X130617Y-147309D01*
X53991Y-79168D02*
X126054Y-151232D01*
X53991Y-76340D02*
X127590Y-149939D01*
X53991Y-87653D02*
X121361Y-155024D01*
X53991Y-81997D02*
X124504Y-152510D01*
X53991Y-90482D02*
X119767Y-156258D01*
X53991Y-93310D02*
X118158Y-157478D01*
X53991Y-84825D02*
X122940Y-153774D01*
X53991Y-96139D02*
X116535Y-158683D01*
X19029Y-195956D02*
X116248Y-98737D01*
X12872Y-196456D02*
X113181Y-96147D01*
X9742Y-165645D02*
X94777Y-80610D01*
X53991Y-98967D02*
X114897Y-159873D01*
X15924Y-196232D02*
X114715Y-97442D01*
X4006Y-196837D02*
X108580Y-92263D01*
X1140Y-196874D02*
X107046Y-90968D01*
X-1684Y-196870D02*
X105513Y-89673D01*
X9870Y-196630D02*
X111647Y-94852D01*
X6915Y-196756D02*
X110114Y-93558D01*
X-9926Y-196627D02*
X100912Y-85789D01*
X-12601Y-196474D02*
X99378Y-84494D01*
X-4469Y-196827D02*
X103979Y-88378D01*
X-7216Y-196745D02*
X102445Y-87084D01*
X132719Y-112642D02*
X148890Y-128812D01*
X105035Y-166518D02*
X146922Y-124632D01*
X53991Y-101795D02*
X113244Y-161048D01*
X125606Y-151604D02*
X149989Y-127222D01*
X113548Y-160834D02*
X148455Y-125927D01*
X53991Y-107452D02*
X109892Y-163354D01*
X53991Y-104624D02*
X111576Y-162209D01*
X53991Y-113109D02*
X106480Y-165598D01*
X53991Y-110280D02*
X108194Y-164484D01*
X85936Y-177132D02*
X142321Y-120748D01*
X80631Y-179609D02*
X140787Y-119453D01*
X75647Y-181764D02*
X139253Y-118158D01*
X97934Y-170792D02*
X145388Y-123337D01*
X91655Y-174241D02*
X143854Y-122043D01*
X62099Y-186828D02*
X134652Y-114274D01*
X57938Y-188159D02*
X133119Y-112979D01*
X70924Y-183659D02*
X137720Y-116863D01*
X66419Y-185336D02*
X136186Y-115569D01*
X53991Y-115937D02*
X104751Y-166698D01*
X53970Y-118745D02*
X103006Y-167781D01*
X53919Y-189350D02*
X131585Y-111684D01*
X52752Y-120356D02*
X101246Y-168849D01*
X51338Y-121770D02*
X99470Y-169902D01*
X49924Y-123184D02*
X97678Y-170938D01*
X48509Y-124598D02*
X95870Y-171959D01*
X47095Y-126013D02*
X94046Y-172963D01*
X45681Y-127427D02*
X92205Y-173951D01*
X42562Y-192222D02*
X126984Y-107800D01*
X38974Y-192981D02*
X125450Y-106505D01*
X35471Y-193656D02*
X123917Y-105210D01*
X50025Y-190416D02*
X130051Y-110389D01*
X46243Y-191370D02*
X128518Y-109095D01*
X25411Y-195231D02*
X119316Y-101326D01*
X22190Y-195623D02*
X117782Y-100031D01*
X32047Y-194252D02*
X122383Y-103916D01*
X28695Y-194775D02*
X120849Y-102621D01*
X37692Y-130752D02*
X37916Y-130976D01*
X34916Y-130804D02*
X36502Y-132390D01*
X32088Y-130804D02*
X35088Y-133804D01*
X23603Y-130804D02*
X30845Y-138047D01*
X20774Y-130804D02*
X29431Y-139461D01*
X14613Y-124004D02*
X26509Y-112108D01*
X29259Y-130804D02*
X33674Y-135218D01*
X26431Y-130804D02*
X32259Y-136633D01*
X44267Y-128841D02*
X90348Y-174923D01*
X42853Y-130255D02*
X88475Y-175878D01*
X14574Y-158534D02*
X53554Y-119554D01*
X41438Y-131669D02*
X86585Y-176816D01*
X12922Y-155970D02*
X38313Y-130579D01*
X15117Y-130804D02*
X26603Y-142289D01*
X12289Y-130804D02*
X25188Y-143704D01*
X17946Y-130804D02*
X28017Y-140875D01*
X12365Y-154536D02*
X36097Y-130804D01*
X4383Y-145549D02*
X19127Y-130804D01*
X6312Y-146447D02*
X21955Y-130804D01*
X2150Y-144952D02*
X16298Y-130804D01*
X9460D02*
X23774Y-145118D01*
X6632Y-130804D02*
X22360Y-146532D01*
X-10339Y-130804D02*
X4420Y-145562D01*
X-13167Y-130804D02*
X825Y-144796D01*
X-505Y-144779D02*
X13470Y-130804D01*
X-3954Y-145400D02*
X10642Y-130804D01*
X7992Y-147596D02*
X24784Y-130804D01*
X9444Y-148972D02*
X27612Y-130804D01*
X3804D02*
X20946Y-147946D01*
X11658Y-152415D02*
X33269Y-130804D01*
X10671Y-150574D02*
X30441Y-130804D01*
X-4682D02*
X16703Y-152189D01*
X-7510Y-130804D02*
X15289Y-153603D01*
X975Y-130804D02*
X19532Y-149361D01*
X-1853Y-130804D02*
X18117Y-150775D01*
X40024Y-133084D02*
X84678Y-177737D01*
X38610Y-134498D02*
X82753Y-178641D01*
X37196Y-135912D02*
X80812Y-179528D01*
X35782Y-137326D02*
X78852Y-180397D01*
X34367Y-138741D02*
X76875Y-181248D01*
X32953Y-140155D02*
X74880Y-182082D01*
X31539Y-141569D02*
X72867Y-182897D01*
X30125Y-142983D02*
X70835Y-183693D01*
X28710Y-144397D02*
X68784Y-184471D01*
X27296Y-145812D02*
X66714Y-185230D01*
X25882Y-147226D02*
X64625Y-185969D01*
X24468Y-148640D02*
X62516Y-186688D01*
X23054Y-150054D02*
X60387Y-187388D01*
X21639Y-151469D02*
X58238Y-188067D01*
X20225Y-152883D02*
X56068Y-188725D01*
X18811Y-154297D02*
X53876Y-189362D01*
X17397Y-155711D02*
X51664Y-189978D01*
X15983Y-157125D02*
X49429Y-190572D01*
X14568Y-158540D02*
X47172Y-191143D01*
X12570Y-159370D02*
X44892Y-191691D01*
X12011Y-161639D02*
X42588Y-192216D01*
X11918Y-153061D02*
X13875Y-155017D01*
X13078Y-158971D02*
X13520D01*
X12433Y-160126D02*
X13589Y-158969D01*
X11142Y-163598D02*
X40260Y-192717D01*
X10018Y-165303D02*
X37909Y-193193D01*
X8666Y-166779D02*
X35531Y-193645D01*
X7089Y-168031D02*
X33128Y-194070D01*
X5275Y-169045D02*
X30699Y-194469D01*
X3187Y-169785D02*
X28243Y-194841D01*
X-6982Y-168102D02*
X20702Y-195786D01*
X742Y-170170D02*
X25758Y-195185D01*
X-2268Y-169987D02*
X23245Y-195501D01*
X-13510Y-67274D02*
X13364Y-40400D01*
X-13510Y-70102D02*
X16193Y-40400D01*
X-13510Y-64446D02*
X10536Y-40400D01*
X-13510D02*
X26509D01*
X-13510Y-78588D02*
X24678Y-40400D01*
X-13510Y-53132D02*
X-778Y-40400D01*
X-13510Y-55960D02*
X2051Y-40400D01*
X-13510Y-50303D02*
X-3606Y-40400D01*
X-13510Y-61617D02*
X7708Y-40400D01*
X-13510Y-58789D02*
X4879Y-40400D01*
X-13510Y-95558D02*
X26509Y-55539D01*
X-13510Y-56923D02*
X26509Y-96942D01*
X-13510Y-54094D02*
X26509Y-94113D01*
X-13510Y-59751D02*
X26509Y-99770D01*
X-13510Y-98387D02*
X26509Y-58368D01*
X-13510Y-42780D02*
X26509Y-82799D01*
X-13510Y-81416D02*
X26509Y-41397D01*
X-13510Y-51266D02*
X26509Y-91285D01*
X-13510Y-87073D02*
X26509Y-47054D01*
X-52659Y-40400D02*
X-16490Y-76569D01*
X-55488Y-40400D02*
X-16490Y-79397D01*
X-58316Y-40400D02*
X-16490Y-82226D01*
X-13510Y-45609D02*
X26509Y-85628D01*
X-61145Y-40400D02*
X-16490Y-85054D01*
X-27204Y-40400D02*
X-16490Y-51113D01*
X-30032Y-40400D02*
X-16490Y-53942D01*
X-47003Y-40400D02*
X-16490Y-70912D01*
X-49831Y-40400D02*
X-16490Y-73741D01*
X-63973Y-40400D02*
X-16490Y-87883D01*
X-13510Y-105000D02*
Y-40400D01*
X-66059Y-41143D02*
X-16490Y-90711D01*
X-13510Y-48437D02*
X26509Y-88456D01*
X-66790Y-43240D02*
X-16490Y-93540D01*
Y-104383D02*
Y-40400D01*
X-67521Y-45337D02*
X-16490Y-96368D01*
X-68252Y-47434D02*
X-16490Y-99196D01*
X-68984Y-49532D02*
X-16490Y-102025D01*
X-13510Y-62579D02*
X26509Y-102598D01*
X-13510Y-104044D02*
X26509Y-64025D01*
X-13510Y-101215D02*
X26509Y-61196D01*
X-13510Y-73893D02*
X26509Y-113912D01*
X-13510Y-65408D02*
X26509Y-105427D01*
X-13510Y-71065D02*
X26509Y-111084D01*
X-13510Y-68236D02*
X26509Y-108255D01*
X-13510Y-79550D02*
X30945Y-124004D01*
X-13510Y-82379D02*
X28116Y-124004D01*
X-13510Y-76722D02*
X26048Y-116279D01*
X-13510Y-88035D02*
X22459Y-124004D01*
X-13671D02*
X26509Y-83824D01*
X-13510Y-93692D02*
X16803Y-124004D01*
X-13510Y-90864D02*
X19631Y-124004D01*
X-13510Y-102178D02*
X8317Y-124004D01*
X-13510Y-105006D02*
X5489Y-124004D01*
X-19198Y-112561D02*
X26509Y-66853D01*
X-16500Y-124004D02*
X26509Y-80995D01*
X-19328Y-124004D02*
X26509Y-78167D01*
X-14618Y-106726D02*
X2661Y-124004D01*
X-16032Y-108140D02*
X-168Y-124004D01*
X-17446Y-109554D02*
X-2996Y-124004D01*
X-19630Y-111738D02*
X-13946Y-106054D01*
X-18861Y-110968D02*
X-5825Y-124004D01*
X-20300Y-115186D02*
X-11482Y-124004D01*
X-27813D02*
X26509Y-69682D01*
X-24985Y-124004D02*
X26509Y-72510D01*
X-74866Y-63448D02*
X-14310Y-124004D01*
X-22156D02*
X26509Y-75338D01*
X-53269Y-124004D02*
X-16490Y-87226D01*
X-56098Y-124004D02*
X-16490Y-84397D01*
X-58926Y-124004D02*
X-16490Y-81569D01*
X-36299Y-124004D02*
X-16490Y-104196D01*
X-41955Y-124004D02*
X-16490Y-98539D01*
X-18718Y-40400D02*
X-16490Y-42628D01*
X-32860Y-40400D02*
X-16490Y-56770D01*
X-65800Y-40400D02*
X-16490D01*
X-21547D02*
X-16490Y-45456D01*
X-24375Y-40400D02*
X-16490Y-48285D01*
X-67297Y-44694D02*
X-63003Y-40400D01*
X-68811Y-49036D02*
X-60175Y-40400D01*
X-70324Y-53378D02*
X-57346Y-40400D01*
X-35689D02*
X-16490Y-59598D01*
X-71838Y-57721D02*
X-54518Y-40400D01*
X-38517D02*
X-16490Y-62427D01*
X-41346Y-40400D02*
X-16490Y-65255D01*
X-44174Y-40400D02*
X-16490Y-68084D01*
X-67411Y-124004D02*
X-16490Y-73084D01*
X-70240Y-124004D02*
X-16490Y-70255D01*
X-69715Y-51629D02*
X-16726Y-104618D01*
X-70446Y-53726D02*
X-18140Y-106032D01*
X-71177Y-55824D02*
X-19554Y-107446D01*
X-71908Y-57921D02*
X-20968Y-108861D01*
X-92052Y-114704D02*
X-17748Y-40400D01*
X-89571Y-115051D02*
X-16490Y-41971D01*
X-95132Y-114955D02*
X-20577Y-40400D01*
X-85621Y-116758D02*
X-16490Y-47628D01*
X-87456Y-115765D02*
X-16490Y-44799D01*
X-73352Y-62063D02*
X-51689Y-40400D01*
X-73400Y-62200D02*
X-65800Y-40400D01*
X-72639Y-60018D02*
X-22367Y-110290D01*
X-73370Y-62115D02*
X-23049Y-112437D01*
X-82653Y-119447D02*
X-16490Y-53285D01*
X-81509Y-121132D02*
X-16490Y-56113D01*
X-84024Y-117990D02*
X-16490Y-50456D01*
X-75897Y-124004D02*
X-16490Y-64598D01*
X-80616Y-123067D02*
X-16490Y-58941D01*
X-73068Y-124004D02*
X-16490Y-67427D01*
X-100402Y-117397D02*
X-23405Y-40400D01*
X-85562Y-72552D02*
X-34109Y-124004D01*
X-87090Y-73852D02*
X-36937Y-124004D01*
X-22203Y-110095D02*
X-16490Y-104383D01*
X-39127Y-124004D02*
X-16490Y-101368D01*
X-44784Y-124004D02*
X-16490Y-95711D01*
X-30642Y-124004D02*
X-21874Y-115237D01*
X-33470Y-124004D02*
X-23184Y-113718D01*
X-64583Y-124004D02*
X-16490Y-75912D01*
X-61754Y-124004D02*
X-16490Y-78740D01*
X-88617Y-75153D02*
X-39766Y-124004D01*
X-47612D02*
X-16490Y-92883D01*
X-50441Y-124004D02*
X-16490Y-90054D01*
X-90145Y-76453D02*
X-42594Y-124004D01*
X-91673Y-77754D02*
X-45423Y-124004D01*
X-93201Y-79054D02*
X-48251Y-124004D01*
X-94729Y-80355D02*
X-51080Y-124004D01*
X-111536Y-94661D02*
X-91455Y-114742D01*
X-110008Y-93360D02*
X-87713Y-115656D01*
X-113064Y-95961D02*
X-94223Y-114802D01*
X-114592Y-97262D02*
X-96527Y-115327D01*
X-116120Y-98562D02*
X-98512Y-116170D01*
X-117648Y-99862D02*
X-100239Y-117271D01*
X-119176Y-101163D02*
X-101736Y-118603D01*
X-120704Y-102464D02*
X-103008Y-120159D01*
X-122232Y-103764D02*
X-104046Y-121950D01*
X-97785Y-82956D02*
X-56737Y-124004D01*
X-96257Y-81655D02*
X-53908Y-124004D01*
X-99313Y-84256D02*
X-59565Y-124004D01*
X-100841Y-85557D02*
X-62393Y-124004D01*
X-103897Y-88158D02*
X-68050Y-124004D01*
X-105424Y-89458D02*
X-70879Y-124004D01*
X-106953Y-90759D02*
X-73707Y-124004D01*
X-108480Y-92059D02*
X-76536Y-124004D01*
X-13510Y-96521D02*
X13974Y-124004D01*
X-13510Y-99349D02*
X11146Y-124004D01*
X-13510Y-85207D02*
X25288Y-124004D01*
X-15995Y-130804D02*
X-1889Y-144911D01*
X-58006Y-188138D02*
X-672Y-130804D01*
X-19087Y-113570D02*
X-8653Y-124004D01*
X-21652Y-130804D02*
X-6118Y-146338D01*
X-24481Y-130804D02*
X-7823Y-147462D01*
X-18824Y-130804D02*
X-4159Y-145469D01*
X-60158Y-187461D02*
X-3500Y-130804D01*
X-17851Y-196067D02*
X96311Y-81905D01*
X-15243Y-196287D02*
X97845Y-83199D01*
X-47108Y-130804D02*
X18129Y-196041D01*
X-49937Y-130804D02*
X15524Y-196265D01*
X-52765Y-130804D02*
X12886Y-196455D01*
X-55834Y-188795D02*
X2156Y-130804D01*
X-58422D02*
X7508Y-196734D01*
X-51425Y-190043D02*
X7813Y-130804D01*
X-55593D02*
X10215Y-196612D01*
X-78725Y-124004D02*
X-16490Y-61770D01*
X-76394Y-64749D02*
X-17139Y-124004D01*
X-78725D02*
X-16490Y-61770D01*
X-80317Y-130804D02*
X37096D01*
X-80317Y-124004D02*
X35687D01*
X-77922Y-66049D02*
X-19967Y-124004D01*
X-79450Y-67350D02*
X-22795Y-124004D01*
X-80978Y-68650D02*
X-25624Y-124004D01*
X-82506Y-69951D02*
X-28452Y-124004D01*
X-61250Y-130804D02*
X4765Y-196820D01*
X-64079Y-130804D02*
X1985Y-196868D01*
X-66907Y-130804D02*
X-836Y-196876D01*
X-69736Y-130804D02*
X-3697Y-196843D01*
X-131950Y-146116D02*
X-26234Y-40400D01*
X-133429Y-144767D02*
X-29062Y-40400D01*
X-62289Y-186764D02*
X-6329Y-130804D01*
X-72564D02*
X-6601Y-196767D01*
X-27309Y-130804D02*
X-9299Y-148814D01*
X-30138Y-130804D02*
X-10551Y-150391D01*
X-44280Y-130804D02*
X-10622Y-164462D01*
X-32966Y-130804D02*
X-11565Y-152205D01*
X-42340Y-192271D02*
X-11932Y-161863D01*
X-35794Y-130804D02*
X-12305Y-154294D01*
X-41451Y-130804D02*
X-12507Y-159748D01*
X-38623Y-130804D02*
X-12689Y-156738D01*
X-44646Y-191749D02*
X-12528Y-159631D01*
X-27978Y-194879D02*
X-2944Y-169846D01*
X-20428Y-195815D02*
X8164Y-167223D01*
X-30437Y-194510D02*
X-5065Y-169139D01*
X-22974Y-195533D02*
X2646Y-169913D01*
X-25490Y-195220D02*
X-453Y-170183D01*
X-37655Y-193243D02*
X-9884Y-165472D01*
X-40010Y-192769D02*
X-11033Y-163793D01*
X-32869Y-194114D02*
X-6906Y-168151D01*
X-35275Y-193692D02*
X-8508Y-166924D01*
X-68563Y-184553D02*
X-14814Y-130804D01*
X-66491Y-185310D02*
X-11986Y-130804D01*
X-70616Y-183777D02*
X-17643Y-130804D01*
X-53640Y-189429D02*
X4985Y-130804D01*
X-64400Y-186047D02*
X-9157Y-130804D01*
X-76662Y-181339D02*
X-26128Y-130804D01*
X-78641Y-180489D02*
X-28956Y-130804D01*
X-72650Y-182983D02*
X-20471Y-130804D01*
X-74665Y-182170D02*
X-23300Y-130804D01*
X-78221D02*
X-12548Y-196477D01*
X-75392Y-130804D02*
X-9551Y-196646D01*
X-80487Y-131367D02*
X-15595Y-196259D01*
X-46929Y-191203D02*
X-12701Y-156975D01*
X-49188Y-190634D02*
X-12080Y-153526D01*
X-81331Y-133351D02*
X-18694Y-195988D01*
X-82432Y-135079D02*
X-21849Y-195661D01*
X-83763Y-136575D02*
X-25063Y-195276D01*
X-85319Y-137848D02*
X-28340Y-194827D01*
X-102369Y-86857D02*
X-65222Y-124004D01*
X-84034Y-71251D02*
X-31281Y-124004D01*
X-136344Y-142025D02*
X-34719Y-40400D01*
X-80816Y-122552D02*
X-79364Y-124004D01*
X-123759Y-105065D02*
X-104814Y-124010D01*
X-125287Y-106365D02*
X-105237Y-126415D01*
X-126815Y-107666D02*
X-105125Y-129356D01*
X-128343Y-108966D02*
X-103604Y-133706D01*
X-131399Y-111567D02*
X-53496Y-189470D01*
X-129871Y-110267D02*
X-49614Y-190523D01*
X-134894Y-143403D02*
X-31890Y-40400D01*
X-132927Y-112868D02*
X-57501Y-188293D01*
X-134455Y-114168D02*
X-61646Y-186978D01*
X-135983Y-115469D02*
X-65948Y-185504D01*
X-137511Y-116769D02*
X-70432Y-183848D01*
X-128948Y-148772D02*
X-105014Y-124837D01*
X-130456Y-147451D02*
X-102572Y-119567D01*
X-140608Y-137804D02*
X-43204Y-40400D01*
X-139201Y-139226D02*
X-40376Y-40400D01*
X-142001Y-136369D02*
X-46033Y-40400D01*
X-143380Y-134919D02*
X-48861Y-40400D01*
X-150058Y-127449D02*
X-73400Y-62200D01*
X-144744Y-133454D02*
X-74001Y-62711D01*
X-146093Y-131975D02*
X-93005Y-78887D01*
X-147429Y-130482D02*
X-112010Y-95064D01*
X-148749Y-128975D02*
X-131015Y-111240D01*
X-137780Y-140632D02*
X-37547Y-40400D01*
X-139039Y-118070D02*
X-75129Y-181979D01*
X-140567Y-119370D02*
X-80083Y-179854D01*
X-142095Y-120671D02*
X-85350Y-177415D01*
X-143622Y-121971D02*
X-91019Y-174575D01*
X-145150Y-123272D02*
X-97228Y-171195D01*
X-146678Y-124572D02*
X-104222Y-167029D01*
X-148206Y-125873D02*
X-112533Y-161546D01*
X-149734Y-127173D02*
X-123930Y-152978D01*
X-93849Y-173070D02*
X-51584Y-130804D01*
X-92007Y-174056D02*
X-48755Y-130804D01*
X-95675Y-172067D02*
X-54412Y-130804D01*
X-88273Y-175979D02*
X-43099Y-130804D01*
X-90149Y-175026D02*
X-45927Y-130804D01*
X-80515Y-131451D02*
X-79868Y-130804D01*
X-97485Y-171048D02*
X-57241Y-130804D01*
X-99278Y-170013D02*
X-60069Y-130804D01*
X-82546Y-178737D02*
X-34613Y-130804D01*
X-80603Y-179622D02*
X-31785Y-130804D01*
X-84472Y-177835D02*
X-37442Y-130804D01*
X-87110Y-138885D02*
X-31684Y-194311D01*
X-89170Y-139654D02*
X-35101Y-193723D01*
X-86381Y-176915D02*
X-40270Y-130804D01*
X-98866Y-138443D02*
X-45844Y-191466D01*
X-91576Y-140077D02*
X-38595Y-193058D01*
X-94516Y-139964D02*
X-42173Y-192307D01*
X-119596Y-156389D02*
X-100522Y-137316D01*
X-117985Y-157608D02*
X-98837Y-138460D01*
X-121191Y-155156D02*
X-101979Y-135945D01*
X-114721Y-160000D02*
X-94662Y-139941D01*
X-116360Y-158811D02*
X-96902Y-139353D01*
X-125889Y-151369D02*
X-104918Y-130398D01*
X-127426Y-150078D02*
X-105265Y-127917D01*
X-122772Y-153909D02*
X-103211Y-134348D01*
X-124338Y-152646D02*
X-104204Y-132513D01*
X-106295Y-165717D02*
X-71383Y-130804D01*
X-104564Y-166814D02*
X-68554Y-130804D01*
X-108011Y-164604D02*
X-74211Y-130804D01*
X-101056Y-168963D02*
X-62898Y-130804D01*
X-102818Y-167896D02*
X-65726Y-130804D01*
X-109711Y-163476D02*
X-77040Y-130804D01*
X-111396Y-162332D02*
X-88518Y-139454D01*
X-113066Y-161173D02*
X-91995Y-140103D01*
X-114721Y-160000D02*
X-94662Y-139941D01*
X-101742Y31307D02*
X-99349Y33700D01*
X-90400D01*
X-91593Y29907D02*
X-90900Y30600D01*
X-6050Y125150D02*
X-5700Y124800D01*
X-8199Y122501D02*
X-7590D01*
X-44321Y67763D02*
X-43053Y69032D01*
X-44321Y67232D02*
Y67763D01*
X-47232Y64321D02*
X-44321Y67232D01*
X-47763Y64321D02*
X-47232D01*
X-48000Y64085D02*
X-47763Y64321D01*
X-45721Y68343D02*
X-43633Y70432D01*
X-45721Y67812D02*
Y68343D01*
X-47812Y65721D02*
X-45721Y67812D01*
X-48343Y65721D02*
X-47812D01*
X-51000Y63064D02*
X-48343Y65721D01*
X-130500Y37000D02*
X-124807Y31307D01*
X-101742D01*
X-131773Y34500D02*
X-127180Y29907D01*
X-91593D01*
X-75400Y39800D02*
X-46700D01*
X-8025Y125150D02*
X-6050D01*
X-16000Y117175D02*
X-8025Y125150D01*
X-134300Y34500D02*
X-131773D01*
X-176300D02*
X-144200D01*
X-176900Y35100D02*
X-176300Y34500D01*
X-177000Y35000D02*
X-176900Y35100D01*
X-46700Y39800D02*
X-45500Y41000D01*
X-14600Y116100D02*
X-8199Y122501D01*
X-177853Y35853D02*
X-177000Y35000D01*
X-48000Y53500D02*
Y64085D01*
X-51000Y56000D02*
Y63064D01*
X-27500Y110244D02*
X-22244Y115500D01*
X-43633Y70432D02*
X-42222D01*
X-40132Y72522D01*
Y73933D01*
X-43053Y69032D02*
X-41642D01*
X-38732Y71942D01*
Y73353D01*
X-34403Y77681D02*
X-32597D01*
X-38732Y73353D02*
X-34403Y77681D01*
X-32597D02*
X-26568Y71653D01*
X-40132Y73933D02*
X-34983Y79081D01*
X-32017D01*
X-25168Y72233D01*
Y72222D02*
Y72233D01*
Y72222D02*
X-23078Y70131D01*
X-20122D01*
X-16000Y74253D01*
Y117175D01*
X-19542Y68731D02*
X-14600Y73673D01*
Y116100D01*
X-26568Y71642D02*
Y71653D01*
Y71642D02*
X-23658Y68731D01*
X-19542D01*
D58*
X7400Y123300D02*
X13800D01*
X-18500Y149200D02*
X7400Y123300D01*
X-28400Y149200D02*
X-18500D01*
X-110500Y116300D02*
X-69800Y157000D01*
D60*
X-170500Y26500D02*
X-91000D01*
X30000Y116100D02*
Y116200D01*
X22900Y123300D02*
X30000Y116200D01*
X13800Y123300D02*
X22900D01*
X-28500Y157000D02*
X-28020Y157480D01*
X-0D01*
X21444Y67044D02*
X35600Y81200D01*
Y81500D01*
D61*
X26700Y143135D02*
X30500Y146935D01*
Y149000D01*
X26700Y142600D02*
Y143135D01*
X-5700Y180700D02*
X-5100Y180100D01*
X-5700Y180700D02*
Y188000D01*
D62*
X-4799Y126975D02*
X-3525Y125701D01*
X-8171Y126975D02*
X-4799D01*
X-17394Y117752D02*
X-8171Y126975D01*
X-8315Y118700D02*
X-3525Y123489D01*
Y125701D01*
X-47115Y68920D02*
X-44210Y71825D01*
X-47115Y68389D02*
Y68920D01*
X-48389Y67115D02*
X-47115Y68389D01*
X-48921Y67115D02*
X-48389D01*
X-53447Y62588D02*
X-48921Y67115D01*
X-9400Y118700D02*
X-8315D01*
X-11700Y116400D02*
X-9400Y118700D01*
X-11700Y114200D02*
Y116400D01*
Y114200D02*
X-10593Y113093D01*
X-7218D01*
X-44210Y71825D02*
X-42799D01*
X-41525Y73099D01*
Y74510D01*
X-53447Y51153D02*
Y62588D01*
X-41525Y74510D02*
X-35561Y80475D01*
X-31439D01*
X-23775Y72810D01*
Y72799D02*
Y72810D01*
Y72799D02*
X-22501Y71525D01*
X-20699D02*
X-17394Y74831D01*
X-22501Y71525D02*
X-20699D01*
X-17394Y74831D02*
Y117752D01*
D65*
X35466Y5000D02*
X36400D01*
X34644Y4178D02*
X35466Y5000D01*
X21538Y4178D02*
X34644D01*
X2719Y22997D02*
X21538Y4178D01*
X2719Y22997D02*
Y24976D01*
X-4423Y32119D02*
X2719Y24976D01*
X-5903Y32119D02*
X-4423D01*
X-7181Y33397D02*
X-5903Y32119D01*
X-7181Y33397D02*
Y34876D01*
X-18100Y45795D02*
X-7181Y34876D01*
X-18100Y45795D02*
Y48700D01*
X36400Y5000D02*
X36500Y4900D01*
D68*
X48100Y26600D02*
X54500Y33000D01*
X-0Y157480D02*
X1420D01*
X-92565Y-127404D02*
X37096D01*
X48100Y-116400D01*
X138164Y48664D02*
X149773D01*
X131000Y41500D02*
X138164Y48664D01*
X99000Y41500D02*
X131000D01*
X74500Y17000D02*
X99000Y41500D01*
X54500Y17000D02*
X74500D01*
X48100Y-116400D02*
Y26600D01*
X1420Y157480D02*
X43800Y115100D01*
D69*
X75643Y113484D02*
X76218Y112909D01*
X91683D01*
X75643Y113484D02*
Y140088D01*
D70*
X19400Y183600D02*
D03*
X53300Y176400D02*
D03*
X15486Y164332D02*
D03*
X48836Y157243D02*
D03*
D71*
X22796Y162174D02*
D03*
X25877Y161519D02*
D03*
X28958Y160864D02*
D03*
X41281Y158245D02*
D03*
X38200Y158900D02*
D03*
X35119Y159555D02*
D03*
X20683Y159806D02*
D03*
X26844Y158496D02*
D03*
X29925Y157841D02*
D03*
X42248Y155222D02*
D03*
X36087Y156532D02*
D03*
X33006Y157187D02*
D03*
X-64100Y58100D02*
D03*
X-65900Y53700D02*
D03*
X-22500Y26600D02*
D03*
X-19900Y13300D02*
D03*
X-9600Y4700D02*
D03*
X4900Y35000D02*
D03*
X11200Y44600D02*
D03*
X-20700Y60000D02*
D03*
X-20500Y52300D02*
D03*
X-39900Y47100D02*
D03*
X-41200Y23600D02*
D03*
X-75900Y35300D02*
D03*
X-66200Y33000D02*
D03*
X-71500Y29400D02*
D03*
X-75600Y19900D02*
D03*
X-71700Y13800D02*
D03*
X-57400Y-4700D02*
D03*
X-55800Y-21300D02*
D03*
X-67400Y-15400D02*
D03*
X-90400Y33700D02*
D03*
X-82772Y39128D02*
D03*
X-91000Y26500D02*
D03*
X-87500Y34500D02*
D03*
X-90900Y30600D02*
D03*
X-85143Y37257D02*
D03*
X-105100Y50100D02*
D03*
X-86400Y50200D02*
D03*
X173505Y79981D02*
D03*
Y67383D02*
D03*
Y54784D02*
D03*
Y42186D02*
D03*
Y-58601D02*
D03*
Y-71200D02*
D03*
Y-83798D02*
D03*
X160906Y105178D02*
D03*
Y92580D02*
D03*
Y79981D02*
D03*
Y67383D02*
D03*
Y-58601D02*
D03*
Y-71200D02*
D03*
Y-83798D02*
D03*
Y-96397D02*
D03*
Y-108995D02*
D03*
X148308Y117777D02*
D03*
Y105178D02*
D03*
Y92580D02*
D03*
Y79981D02*
D03*
Y67383D02*
D03*
Y4391D02*
D03*
Y-8208D02*
D03*
Y-20806D02*
D03*
Y-58601D02*
D03*
Y-71200D02*
D03*
Y-83798D02*
D03*
Y-96397D02*
D03*
Y-108995D02*
D03*
Y-121594D02*
D03*
X135710Y130375D02*
D03*
Y117777D02*
D03*
Y105178D02*
D03*
Y92580D02*
D03*
Y79981D02*
D03*
Y67383D02*
D03*
Y54784D02*
D03*
Y29588D02*
D03*
Y4391D02*
D03*
Y-8208D02*
D03*
Y-33405D02*
D03*
Y-58601D02*
D03*
Y-71200D02*
D03*
Y-83798D02*
D03*
Y-96397D02*
D03*
Y-108995D02*
D03*
X123111Y142973D02*
D03*
Y130375D02*
D03*
Y117777D02*
D03*
Y105178D02*
D03*
Y92580D02*
D03*
Y79981D02*
D03*
Y67383D02*
D03*
Y54784D02*
D03*
Y4391D02*
D03*
Y-20806D02*
D03*
Y-33405D02*
D03*
Y-58601D02*
D03*
Y-71200D02*
D03*
Y-83798D02*
D03*
X110513Y155572D02*
D03*
Y142973D02*
D03*
Y130375D02*
D03*
Y117777D02*
D03*
Y105178D02*
D03*
Y92580D02*
D03*
Y79981D02*
D03*
Y67383D02*
D03*
Y54784D02*
D03*
Y29588D02*
D03*
Y4391D02*
D03*
Y-8208D02*
D03*
Y-20806D02*
D03*
Y-33405D02*
D03*
Y-58601D02*
D03*
Y-83798D02*
D03*
X97914Y168170D02*
D03*
Y155572D02*
D03*
Y142973D02*
D03*
Y130375D02*
D03*
Y117777D02*
D03*
Y105178D02*
D03*
Y92580D02*
D03*
Y79981D02*
D03*
Y67383D02*
D03*
Y54784D02*
D03*
Y-46003D02*
D03*
Y-58601D02*
D03*
Y-71200D02*
D03*
X85316Y168170D02*
D03*
Y155572D02*
D03*
Y142973D02*
D03*
Y130375D02*
D03*
Y105178D02*
D03*
Y92580D02*
D03*
Y67383D02*
D03*
Y54784D02*
D03*
Y16989D02*
D03*
Y-33405D02*
D03*
Y-46003D02*
D03*
Y-58601D02*
D03*
Y-71200D02*
D03*
X72717Y180769D02*
D03*
Y168170D02*
D03*
Y155572D02*
D03*
Y-33405D02*
D03*
Y-46003D02*
D03*
X60119Y180769D02*
D03*
Y168170D02*
D03*
Y155572D02*
D03*
Y142973D02*
D03*
Y130375D02*
D03*
Y117777D02*
D03*
Y92580D02*
D03*
Y29588D02*
D03*
Y-20806D02*
D03*
X47521Y180769D02*
D03*
Y168170D02*
D03*
Y142973D02*
D03*
Y130375D02*
D03*
Y117777D02*
D03*
Y79981D02*
D03*
X34922Y180769D02*
D03*
Y168170D02*
D03*
Y130375D02*
D03*
Y117777D02*
D03*
Y29588D02*
D03*
X22324Y180769D02*
D03*
Y168170D02*
D03*
Y29588D02*
D03*
Y-8208D02*
D03*
X9725Y180769D02*
D03*
Y168170D02*
D03*
Y-20806D02*
D03*
X-2873Y42186D02*
D03*
X-28070Y168170D02*
D03*
Y142973D02*
D03*
Y130375D02*
D03*
Y117777D02*
D03*
Y105178D02*
D03*
X-40668Y180769D02*
D03*
Y168170D02*
D03*
Y155572D02*
D03*
Y130375D02*
D03*
Y4391D02*
D03*
X-53267Y168170D02*
D03*
Y130375D02*
D03*
Y117777D02*
D03*
Y92580D02*
D03*
X-65865Y180769D02*
D03*
Y168170D02*
D03*
Y130375D02*
D03*
Y117777D02*
D03*
Y16989D02*
D03*
X-78464Y168170D02*
D03*
Y155572D02*
D03*
Y105178D02*
D03*
Y-33405D02*
D03*
Y-58601D02*
D03*
X-91062Y168170D02*
D03*
Y155572D02*
D03*
Y142973D02*
D03*
Y130375D02*
D03*
Y105178D02*
D03*
Y42186D02*
D03*
Y16989D02*
D03*
Y-8208D02*
D03*
Y-20806D02*
D03*
Y-33405D02*
D03*
Y-46003D02*
D03*
Y-58601D02*
D03*
Y-71200D02*
D03*
X-103661Y155572D02*
D03*
Y142973D02*
D03*
Y130375D02*
D03*
Y117777D02*
D03*
Y105178D02*
D03*
Y92580D02*
D03*
Y42186D02*
D03*
Y16989D02*
D03*
Y4391D02*
D03*
Y-8208D02*
D03*
Y-20806D02*
D03*
Y-33405D02*
D03*
Y-46003D02*
D03*
Y-58601D02*
D03*
Y-71200D02*
D03*
Y-83798D02*
D03*
X-116259Y155572D02*
D03*
Y142973D02*
D03*
Y130375D02*
D03*
Y117777D02*
D03*
Y105178D02*
D03*
Y42186D02*
D03*
Y16989D02*
D03*
Y4391D02*
D03*
Y-8208D02*
D03*
Y-20806D02*
D03*
Y-33405D02*
D03*
Y-46003D02*
D03*
Y-58601D02*
D03*
Y-71200D02*
D03*
Y-83798D02*
D03*
Y-96397D02*
D03*
X-128858Y142973D02*
D03*
Y130375D02*
D03*
Y92580D02*
D03*
Y16989D02*
D03*
Y4391D02*
D03*
Y-8208D02*
D03*
Y-20806D02*
D03*
Y-33405D02*
D03*
Y-46003D02*
D03*
Y-71200D02*
D03*
Y-83798D02*
D03*
X-141456Y92580D02*
D03*
Y16989D02*
D03*
Y4391D02*
D03*
Y-8208D02*
D03*
Y-20806D02*
D03*
Y-33405D02*
D03*
Y-46003D02*
D03*
Y-58601D02*
D03*
Y-71200D02*
D03*
Y-83798D02*
D03*
Y-96397D02*
D03*
Y-108995D02*
D03*
X-154054Y16989D02*
D03*
Y4391D02*
D03*
Y-8208D02*
D03*
Y-20806D02*
D03*
Y-33405D02*
D03*
Y-46003D02*
D03*
Y-58601D02*
D03*
Y-71200D02*
D03*
Y-83798D02*
D03*
Y-96397D02*
D03*
Y-108995D02*
D03*
X-166653Y16989D02*
D03*
Y4391D02*
D03*
Y-8208D02*
D03*
Y-20806D02*
D03*
Y-33405D02*
D03*
Y-46003D02*
D03*
Y-58601D02*
D03*
Y-71200D02*
D03*
Y-83798D02*
D03*
Y-96397D02*
D03*
X-179251Y16989D02*
D03*
Y4391D02*
D03*
Y-8208D02*
D03*
Y-20806D02*
D03*
Y-33405D02*
D03*
Y-46003D02*
D03*
Y-58601D02*
D03*
Y-71200D02*
D03*
X-191850Y16989D02*
D03*
Y4391D02*
D03*
Y-8208D02*
D03*
Y-20806D02*
D03*
Y-33405D02*
D03*
X30000Y116100D02*
D03*
X25500Y127000D02*
D03*
X13800Y123300D02*
D03*
X-5700Y124800D02*
D03*
X-7590Y122501D02*
D03*
X-28400Y149200D02*
D03*
X6844Y113962D02*
D03*
X6844Y109631D02*
D03*
X2513Y113962D02*
D03*
X2513Y109631D02*
D03*
X28200Y51100D02*
D03*
X-77100Y69100D02*
D03*
X52600Y-24700D02*
D03*
X-69473Y59027D02*
D03*
X-63400Y64700D02*
D03*
X-49290Y69290D02*
D03*
X-50400Y76342D02*
D03*
X29000Y112500D02*
D03*
X50500Y79000D02*
D03*
X41000D02*
D03*
X30000Y80800D02*
D03*
X9000Y57500D02*
D03*
X3500Y63500D02*
D03*
X14000Y72000D02*
D03*
X36000Y64000D02*
D03*
X42000D02*
D03*
X-28900Y-15200D02*
D03*
X-71400Y-6300D02*
D03*
X-56300Y66500D02*
D03*
X-28700Y65500D02*
D03*
X-22900Y33200D02*
D03*
X-7000Y46900D02*
D03*
X-5000Y34300D02*
D03*
X-130500Y37000D02*
D03*
X-41000Y42500D02*
D03*
X-75400Y39800D02*
D03*
X-170500Y26500D02*
D03*
X-53447Y51153D02*
D03*
X-134300Y34500D02*
D03*
X-144200D02*
D03*
X-191100Y37258D02*
D03*
X-133500Y70500D02*
D03*
X-137500Y109000D02*
D03*
X-151987Y92513D02*
D03*
X-36000Y17500D02*
D03*
X-57000Y-31300D02*
D03*
X-24000Y-14500D02*
D03*
X-23000Y-23000D02*
D03*
X-33000Y52300D02*
D03*
X-36788Y37580D02*
D03*
X-55500Y-34000D02*
D03*
X-58500Y-36500D02*
D03*
X-68000Y-40000D02*
D03*
X-27255Y32255D02*
D03*
X28000Y-117000D02*
D03*
X-177853Y35853D02*
D03*
X-190919Y29500D02*
D03*
X-168000Y53500D02*
D03*
X-22244Y115500D02*
D03*
X-45500Y41000D02*
D03*
X24179Y116396D02*
D03*
X-5700Y188000D02*
D03*
X30500Y149000D02*
D03*
X-20500Y111100D02*
D03*
X-8500Y116000D02*
D03*
X-7218Y113093D02*
D03*
X-26500Y26500D02*
D03*
X-49600Y19200D02*
D03*
X-61800Y23700D02*
D03*
X-59000Y20000D02*
D03*
X9000Y28200D02*
D03*
X2700Y73900D02*
D03*
X54500Y37500D02*
D03*
Y33000D02*
D03*
Y28500D02*
D03*
Y21000D02*
D03*
Y13000D02*
D03*
Y17000D02*
D03*
X-133500Y75000D02*
D03*
Y66000D02*
D03*
X-80400Y5400D02*
D03*
X-28500Y157000D02*
D03*
X3500Y58500D02*
D03*
X-31500Y47500D02*
D03*
X-33500Y42000D02*
D03*
X-41500Y54218D02*
D03*
X-73500Y72000D02*
D03*
X-43700Y74000D02*
D03*
X-48000Y53500D02*
D03*
X-51000Y56000D02*
D03*
X-27500Y110244D02*
D03*
X-35500Y121200D02*
D03*
X-33500Y75500D02*
D03*
X-21600Y73700D02*
D03*
X-35800Y72716D02*
D03*
X-37500Y70000D02*
D03*
X56500Y-8500D02*
D03*
X56300Y-17200D02*
D03*
X108458Y25500D02*
D03*
X144200Y25700D02*
D03*
X-21149Y-113286D02*
D03*
X-30000Y-8000D02*
D03*
X-3800Y56700D02*
D03*
X1700Y50700D02*
D03*
X10300Y51000D02*
D03*
X-43800Y57500D02*
D03*
X400Y12100D02*
D03*
X14600Y27800D02*
D03*
X-10900Y63300D02*
D03*
X-67900Y81000D02*
D03*
X-69800Y157000D02*
D03*
X-110500Y116300D02*
D03*
X-6600Y69000D02*
D03*
X26700Y142600D02*
D03*
X-5100Y180100D02*
D03*
X21444Y67044D02*
D03*
X35600Y81500D02*
D03*
X-500Y54500D02*
D03*
X4900Y23900D02*
D03*
X-18100Y48700D02*
D03*
X36500Y4900D02*
D03*
X39500Y-22500D02*
D03*
X41000Y-8700D02*
D03*
X39961Y-17000D02*
D03*
D72*
X47175Y155584D02*
D03*
X16329Y162140D02*
D03*
D73*
X17070Y157958D02*
D03*
X44797Y152064D02*
D03*
D74*
X-163000Y96340D02*
D03*
X-158000Y105000D02*
D03*
D75*
X-178625Y44840D02*
D03*
X-186388Y46775D02*
D03*
X-187345Y26402D02*
D03*
D76*
X-179920Y58103D02*
D03*
X-176013Y67308D02*
D03*
X-172106Y76513D02*
D03*
X-168198Y85718D02*
D03*
D77*
X-150500Y115000D02*
D03*
X-143809Y122431D02*
D03*
X-137117Y129863D02*
D03*
X-130426Y137294D02*
D03*
D78*
X85500Y-24500D02*
D03*
X75500Y-24500D02*
D03*
X85500Y-11000D02*
D03*
X75500D02*
D03*
D79*
X72044Y108734D02*
D03*
X91683Y112909D02*
D03*
X75643Y140088D02*
D03*
X-91928Y114903D02*
D03*
X-72289Y110729D02*
D03*
X-75888Y142082D02*
D03*
X-109923Y-66329D02*
D03*
X-129563Y-62154D02*
D03*
X-125964Y-93508D02*
D03*
X129399Y-64646D02*
D03*
X109759Y-68821D02*
D03*
X125800Y-96000D02*
D03*
D80*
X11900Y99300D02*
D03*
X8500D02*
D03*
X-5300Y86400D02*
D03*
X-2000D02*
D03*
Y89700D02*
D03*
X-5300D02*
D03*
Y93000D02*
D03*
X-2000D02*
D03*
X43800Y115100D02*
D03*
X39500Y119300D02*
D03*
D81*
X92565Y-127404D02*
D03*
X-92565D02*
D03*
X0Y-157480D02*
D03*
X149773Y48664D02*
D03*
X-0Y157480D02*
D03*
X-149773Y48664D02*
D03*
M02*
