G04 Layer_Color=32896*
%FSLAX25Y25*%
%MOIN*%
G70*
G01*
G75*
%ADD58C,0.01968*%
%ADD85C,0.00315*%
G36*
X120886Y-45918D02*
X111300D01*
Y-42820D01*
X120886D01*
Y-45918D01*
D02*
G37*
G36*
X-111314Y-44118D02*
X-120900D01*
Y-41020D01*
X-111314D01*
Y-44118D01*
D02*
G37*
G36*
X-86931Y86287D02*
X-80079D01*
Y83408D01*
X-86931D01*
Y76482D01*
X-89847D01*
Y83408D01*
X-96700D01*
Y86287D01*
X-89847D01*
Y93140D01*
X-86931D01*
Y86287D01*
D02*
G37*
G36*
X89169Y86787D02*
X96021D01*
Y83908D01*
X89169D01*
Y76982D01*
X86253D01*
Y83908D01*
X79400D01*
Y86787D01*
X86253D01*
Y93640D01*
X89169D01*
Y86787D01*
D02*
G37*
D58*
X75201Y98528D02*
G03*
X75201Y98528I-984J0D01*
G01*
X-93110Y104696D02*
G03*
X-93110Y104696I-984J0D01*
G01*
X-106773Y-56121D02*
G03*
X-106773Y-56121I-984J0D01*
G01*
X128210Y-54441D02*
G03*
X128210Y-54441I-984J0D01*
G01*
D85*
X-65074Y124861D02*
X-64287D01*
X-64681D01*
Y122894D01*
X-64287Y122500D01*
X-63894D01*
X-63500Y122894D01*
X-67436Y124861D02*
X-66649Y124468D01*
X-65861Y123681D01*
Y122894D01*
X-66255Y122500D01*
X-67042D01*
X-67436Y122894D01*
Y123287D01*
X-67042Y123681D01*
X-65861D01*
X137026Y-81139D02*
X137813D01*
X137419D01*
Y-83106D01*
X137813Y-83500D01*
X138206D01*
X138600Y-83106D01*
X134664Y-81139D02*
X136239D01*
Y-82319D01*
X135451Y-81926D01*
X135058D01*
X134664Y-82319D01*
Y-83106D01*
X135058Y-83500D01*
X135845D01*
X136239Y-83106D01*
X88826Y139761D02*
X89613D01*
X89219D01*
Y137794D01*
X89613Y137400D01*
X90006D01*
X90400Y137794D01*
X86858Y137400D02*
Y139761D01*
X88039Y138581D01*
X86464D01*
X-114174Y-82239D02*
X-113387D01*
X-113781D01*
Y-84206D01*
X-113387Y-84600D01*
X-112994D01*
X-112600Y-84206D01*
X-114961Y-82632D02*
X-115355Y-82239D01*
X-116142D01*
X-116536Y-82632D01*
Y-83026D01*
X-116142Y-83419D01*
X-115749D01*
X-116142D01*
X-116536Y-83813D01*
Y-84206D01*
X-116142Y-84600D01*
X-115355D01*
X-114961Y-84206D01*
M02*
