G04 Layer_Color=16711935*
%FSLAX25Y25*%
%MOIN*%
G70*
G01*
G75*
G04:AMPARAMS|DCode=133|XSize=78.87mil|YSize=43.43mil|CornerRadius=0mil|HoleSize=0mil|Usage=FLASHONLY|Rotation=258.000|XOffset=0mil|YOffset=0mil|HoleType=Round|Shape=Round|*
%AMOVALD133*
21,1,0.03543,0.04343,0.00000,0.00000,258.0*
1,1,0.04343,0.00368,0.01733*
1,1,0.04343,-0.00368,-0.01733*
%
%ADD133OVALD133*%

%ADD134C,0.03162*%
G04:AMPARAMS|DCode=135|XSize=70.99mil|YSize=39.5mil|CornerRadius=0mil|HoleSize=0mil|Usage=FLASHONLY|Rotation=348.000|XOffset=0mil|YOffset=0mil|HoleType=Round|Shape=Round|*
%AMOVALD135*
21,1,0.03150,0.03950,0.00000,0.00000,348.0*
1,1,0.03950,-0.01540,0.00327*
1,1,0.03950,0.01540,-0.00327*
%
%ADD135OVALD135*%

%ADD136C,0.04147*%
G04:AMPARAMS|DCode=137|XSize=67.06mil|YSize=130.05mil|CornerRadius=0mil|HoleSize=0mil|Usage=FLASHONLY|Rotation=240.000|XOffset=0mil|YOffset=0mil|HoleType=Round|Shape=Round|*
%AMOVALD137*
21,1,0.06299,0.06706,0.00000,0.00000,330.0*
1,1,0.06706,-0.02728,0.01575*
1,1,0.06706,0.02728,-0.01575*
%
%ADD137OVALD137*%

%ADD138C,0.04200*%
G04:AMPARAMS|DCode=139|XSize=67.06mil|YSize=130.05mil|CornerRadius=0mil|HoleSize=0mil|Usage=FLASHONLY|Rotation=247.000|XOffset=0mil|YOffset=0mil|HoleType=Round|Shape=Round|*
%AMOVALD139*
21,1,0.06299,0.06706,0.00000,0.00000,337.0*
1,1,0.06706,-0.02899,0.01231*
1,1,0.06706,0.02899,-0.01231*
%
%ADD139OVALD139*%

G04:AMPARAMS|DCode=140|XSize=67.06mil|YSize=130.05mil|CornerRadius=0mil|HoleSize=0mil|Usage=FLASHONLY|Rotation=228.000|XOffset=0mil|YOffset=0mil|HoleType=Round|Shape=Round|*
%AMOVALD140*
21,1,0.06299,0.06706,0.00000,0.00000,318.0*
1,1,0.06706,-0.02341,0.02108*
1,1,0.06706,0.02341,-0.02108*
%
%ADD140OVALD140*%

%ADD141O,0.06706X0.13005*%
%ADD142C,0.10249*%
%ADD143C,0.24422*%
G36*
X16816Y160125D02*
X16922Y160102D01*
X18077Y159857D01*
X18183Y159834D01*
X18389Y159767D01*
X18587Y159679D01*
X18775Y159571D01*
X18950Y159443D01*
X19111Y159299D01*
X19256Y159137D01*
X19383Y158962D01*
X19492Y158775D01*
X19580Y158577D01*
X19647Y158371D01*
X19692Y158159D01*
X19714Y157943D01*
Y157727D01*
X19692Y157511D01*
X19647Y157299D01*
X19580Y157093D01*
X19492Y156895D01*
X19383Y156708D01*
X19256Y156532D01*
X19111Y156371D01*
X18950Y156226D01*
X18775Y156099D01*
X18587Y155991D01*
X18389Y155903D01*
X18183Y155836D01*
X17971Y155791D01*
X17756Y155768D01*
X17539Y155768D01*
X17324Y155791D01*
X17218Y155813D01*
X16062Y156059D01*
X15957Y156081D01*
X15751Y156148D01*
X15553Y156236D01*
X15365Y156344D01*
X15190Y156472D01*
X15029Y156617D01*
X14884Y156778D01*
X14757Y156953D01*
X14648Y157141D01*
X14560Y157339D01*
X14493Y157545D01*
X14448Y157756D01*
X14425Y157972D01*
Y158189D01*
X14448Y158404D01*
X14493Y158616D01*
X14560Y158822D01*
X14648Y159020D01*
X14756Y159208D01*
X14884Y159383D01*
X15029Y159544D01*
X15190Y159689D01*
X15365Y159816D01*
X15552Y159924D01*
X15750Y160013D01*
X15957Y160080D01*
X16168Y160125D01*
X16384Y160147D01*
X16600Y160147D01*
X16816Y160125D01*
D02*
G37*
D133*
X19400Y183600D02*
D03*
X53300Y176400D02*
D03*
X15486Y164332D02*
D03*
X48836Y157243D02*
D03*
D134*
X22796Y162174D02*
D03*
X25877Y161519D02*
D03*
X28958Y160864D02*
D03*
X41281Y158245D02*
D03*
X38200Y158900D02*
D03*
X35119Y159555D02*
D03*
X20683Y159806D02*
D03*
X26844Y158496D02*
D03*
X29925Y157841D02*
D03*
X42248Y155222D02*
D03*
X36087Y156532D02*
D03*
X33006Y157187D02*
D03*
D135*
X47175Y155584D02*
D03*
X16329Y162140D02*
D03*
D136*
X17070Y157958D02*
D03*
X44797Y152064D02*
D03*
D137*
X-163000Y96340D02*
D03*
X-158000Y105000D02*
D03*
D138*
X-178625Y44840D02*
D03*
X-186388Y46775D02*
D03*
X-187345Y26402D02*
D03*
D139*
X-179920Y58103D02*
D03*
X-176013Y67308D02*
D03*
X-172106Y76513D02*
D03*
X-168198Y85718D02*
D03*
D140*
X-150500Y115000D02*
D03*
X-143809Y122431D02*
D03*
X-137117Y129863D02*
D03*
X-130426Y137294D02*
D03*
D141*
X85500Y-24500D02*
D03*
X75500Y-24500D02*
D03*
X85500Y-11000D02*
D03*
X75500D02*
D03*
D142*
X72044Y108734D02*
D03*
X91683Y112909D02*
D03*
X75643Y140088D02*
D03*
X-91928Y114903D02*
D03*
X-72289Y110729D02*
D03*
X-75888Y142082D02*
D03*
X-109923Y-66329D02*
D03*
X-129563Y-62154D02*
D03*
X-125964Y-93508D02*
D03*
X129399Y-64646D02*
D03*
X109759Y-68821D02*
D03*
X125800Y-96000D02*
D03*
D143*
X92565Y-127404D02*
D03*
X-92565D02*
D03*
X0Y-157480D02*
D03*
X149773Y48664D02*
D03*
X-0Y157480D02*
D03*
X-149773Y48664D02*
D03*
M02*
